<svg width="145" height="334" fill="none" xmlns="http://www.w3.org/2000/svg"><g clip-path="url(#a)"><path d="M57.8 294.24c3.84 5.71 8.22 10.3 8.78 10.82.27.25 2.05.82 2.33 1.08 2.5 7.9-.72 14.61-4.16 19.9-.57-4.28-.98-10.13-1.64-10.86-1.05-1.15-4.63-6.09-11.86-12.18 3.81-2.14 4.27-5.06 6.55-8.76Z" fill="#EAC2A6"/><path d="M66.79 305.2c2.82.17 8.17 1.94 8.14 2.5-.04.67-3.06 23.97-6.74 26.02-2.21 1.23-2.62-2.39-3.43-7.68 3.44-5.28 3.61-19.49 2.04-20.84h-.01Z" fill="#F15A24"/><path d="M116.34 283.36c5.9 3.53 11.76 6.21 12.49 6.44.35.11 2.2-.13 2.57-.02 5.62 6.09 5.57 13.53 4.71 19.77-2.34-3.63-5.2-8.75-6.1-9.12-1.44-.6-6.64-2.86-15.77-5.29 2.54-3.56 1.63-7.46 2.12-11.78h-.02Zm-64.63-156.8s-8.93-16.8-10.25-22.82c-1.32-6.02-5.9-36.32-5.51-38.27.39-1.95 7.62-6.65 6.73-8.31-.89-1.66-7.79-1.66-9.37-1.52-1.58.14-4.75 1.06-6.11 2.18-1.36 1.12 1.53 37.44 2.39 45.25.86 7.82 13.95 33.43 13.95 33.43l8.17-9.95v.01Zm40.13 24.28s18.2 29.14 21.38 34.87c3.18 5.73 15.02 20.31 15.62 21.02.6.7 13.12.07 12.77 1.52-.36 1.45-6.11.02-6.22 1.72-.11 1.7 9.9 12.53 8.9 12.97-1.88.82-6.38-6.39-7.18-5.85-.8.55 5.39 7.1 4.38 8.49-1.01 1.4-5.29-6.75-6.09-6.65-.8.1 3.01 8.19 1.26 8.27-.95.04-3.22-7.28-4.12-6.63-.9.65-.03 6.51-1.14 6.46-1.1-.06-.07-5.01-1.76-7.62-1.69-2.61-1.58-5.37-5.46-8.74-3.89-3.38-18.96-13.67-24.43-22.77-5.46-9.09-17.59-29.16-17.59-29.16l9.7-7.9h-.02Z" fill="#EAC2A6"/><path d="m48.35 194.19 31.61 10.18s-17.38 29.56-20.82 35.46c-3.44 5.89-18.24 20.44-18.26 24.25-.01 2.69 13.93 20.56 22.34 31.46-1.9 3.53-7.09 8.08-10.38 10.09-14-13.28-34.43-34.21-34.81-41.07-.55-10.02 30.32-70.37 30.32-70.37Z" fill="#2459A5"/><path d="M129.09 289.83c2.63-1.05 8.19-1.73 8.41-1.2.25.62 7.43 22.99 4.98 26.41-1.48 2.06-3.39-1.05-6.37-5.48.87-6.25-5.26-19.57-7.01-19.73h-.01Z" fill="#F15A24"/><path d="M54.84 212.43c-.4-1.95-3.01-7.66-4.35-12.22a24.974 24.974 0 0 1-.6-11.62l23.25-1.08.89 1.73c.96 1.87 2.31 3.51 3.99 4.78 3.48 2.63 9.59 8.41 9.41 16.44-.26 11.22-8.24 52.34-5.59 53.87 4.79 2.78 24.78 12.5 36.71 18.48-.16 4.35-1.38 10.54-3.65 14.28-9.45-3.62-42.7-18.34-48.88-21.94-2.79-1.63-10.49-59.41-11.17-62.72h-.01Z" fill="#3A6AAE"/><path d="M116.59 63.07c-2.03 6.64 1.17 11.58 3.39 18.12 1.49 4.39-1.81 11.36-5.55 14.57-9.46 8.14-11.67 8.35-11 19.4 1.62 26.59-24.02 15.29-28.14 14.45-4.12-.84-7.24-.61-9.21-2.3-5.94-5.09-11.5-20.39-10.44-33.28 1.06-12.89 13.44-8.48 16.28-14.4 2.84-5.92-5.71-13.28 1.59-23.18 20.98-28.42 42.82-9.4 43.59 1.45.14 2.02-.07 3.73-.52 5.18l.01-.01Z" fill="#534741"/><path d="M45.53 150.55s-6.49-15.41-7.52-17.97c0 0 9.06-8.07 14.46-7.44 0 0 7.01 11.01 11.14 11.4 4.13.4 18.66 1.02 21.21 2.53 2.55 1.52 13.35 17.79 13.35 17.79s-9.71 9.73-13.62 9.71c0 0-2.65-6.57-3.56-5.37-.91 1.2-4.5 26.73-6.31 28.67-1.68 1.8-22.02 8.66-27.9 7.4 0 0-3.16-24.58-2.99-39.7.03-2.31 1.75-7.02 1.75-7.02h-.01Z" fill="#F7931E"/><path d="M73.86 129.31s-2.29 7.58-2.31 10.66c-.02 3.08-2.47 12.76-8.93 12.13-6.46-.63.07-12.62.98-15.55.92-2.93 2.02-12.16 2.02-12.16l8.24 4.93v-.01Z" fill="#EAC2A6"/><path d="M65.01 129.01c.36-2.52.61-4.63.61-4.63l8.24 4.93s-.47 1.55-.98 3.53c-3.87.37-6.47-1.32-7.87-3.83Z" fill="#D7AB7C"/><path d="M83.27 104.09s4.31 2.88 5.42 8.32c1.1 5.43-1.48 17.04-13.65 19.15-12.16 2.11-17.64-9.47-14.3-17.65 3.34-8.18 10.51-16.2 22.53-9.82Z" fill="#EAC2A6"/><path d="M62.51 109.77c-.01 2.28 1.06 4.14 2.39 4.15 1.33 0 2.42-1.84 2.43-4.12.01-2.28-1.06-4.14-2.39-4.15-1.33 0-2.42 1.84-2.43 4.12Zm22.09 11.37c-1.53 1.84-1.77 4.17-.53 5.21s3.49.39 5.03-1.45c1.53-1.84 1.77-4.17.53-5.21s-3.49-.39-5.03 1.45Z" fill="#EAC2A6"/><path d="M36.45 57.23c.19.12.37.25.54.4l.99.89c-.91.22-2.42.04-3.84 1.11 0 0 .28-1.16 2.31-2.4Z" fill="#F47257"/><path d="M16.01 16.21c.56.66 15.97 2.37 15.97 2.37l-.3-.79S23.16 6.37 21.03 5.95c-1.75-.34-6.53 8.47-5.02 10.25v.01Zm1.61-1.47c.25-1.68 2.11-5.41 3.35-6.67 1.38 1.11 7.79 6.36 10.61 9.96-4.5-.54-12.18-2.93-13.95-3.29h-.01Zm15.73 2.98.52 1.12s14.4-5.98 15.86-9.01C51.19 6.79 46.51.96 45.25.42c-1.26-.54-3.03-1.3-6.35 3.2s-5.55 14.1-5.55 14.1Zm.7.03c.84-2.99 4.24-10.12 6.37-13.01 1.95-2.64 2.98-2.85 3.25-2.85.22 0 .48.11.78.23 1.22.81 4.32 5.37 3.59 6.88-.7 1.28-8.19 6.17-13.99 8.74v.01Z" fill="#F15A24"/><path d="M32.52 16.27h.69c.68 0 1.24.56 1.24 1.24v2.03c0 .68-.56 1.24-1.24 1.24h-.69c-.68 0-1.24-.56-1.24-1.24v-2.03c0-.68.56-1.24 1.24-1.24Z" fill="#F15A24"/><path d="M9.53 58.53h43.8c2.37 0 4.33-1.84 4.48-4.2l2.3-35.18H3.07L5.46 55.8c.1 1.53 1.89 2.74 4.07 2.74v-.01Z" fill="#3A6AAE"/><path d="m.71 26.82 61.93.12.66-3.98c.39-2.39-1.45-4.56-3.87-4.55l-56.04.15c-1.99 0-3.55 1.23-3.37 2.66l.7 5.61-.01-.01Z" fill="#3A6AAE"/><path d="M32.93 18.46h-1.18v8.44h1.18v-8.44Zm-1.2 8.4h-1.47v31.73h1.47V26.86Z" fill="#F15A24"/><path d="m37.41 60.77.56-2.21c1.74.04 3.03-.37 4.01-.64l1.54-.67a.955.955 0 0 1 1.26.51c.16.39.04.84-.29 1.1 0 0-4.17 3.44-5.64 4.48-.73.52-3.01 1.91-3.01 1.91l-1.33-2.49 2.9-2v.01Z" fill="#EAC2A6"/></g><defs><clipPath id="a"><path fill="#fff" d="M0 0h144.35v333.96H0z"/></clipPath></defs></svg>