<svg width="210" height="367" fill="none" xmlns="http://www.w3.org/2000/svg"><g clip-path="url(#a)"><path d="M101.07 312.47s-11.41 8.22-13.2 10.68c-2.59 3.53 19.33 10.14 16.94 6.01-.55-.95-2.13-4.15-2.2-4.47-.37-1.68 4.28-6.22 4.28-6.22l-5.82-5.99v-.01Z" fill="#EAC2A6"/><path d="m110.73 336.07-7.75-10.95s-4.84-1.12-9.8-6.71c0 0-4.46 1.7-7.21 5.39 0 0 5.19 5.59 13.18 11.88 0 0 4.74 4.2 11.28 6.41 6.55 2.21.3-6.03.3-6.03v.01Z" fill="#1A1A1A"/><path d="M5.73 162.57s1.4 1.24 1.9 1.62c.58.44 2.42 1.64 2.42 1.64s6.66 3.79 6.88 3.29c.23-.5.22-1.94-.11-2.31-.33-.38-1.29-.77-1.62-1.15-.33-.38-.44-1.14-.02-1.56.42-.42 2.7.82 2.7.82s1.84 1.02 2.61 2.26c2.67 4.28 1.86 4.53 2.22 5.07.42.64 9.76 4.88 9.76 4.88s27.92 11.61 29.43 12.24h.02c.2 1.29-.49 2.48-.84 3.63-.67 3.99-1.85 4.25-2.76 8.1-4.28-2.17-33.93-18.5-36.94-20.2 0 0-4.51-.77-7.34-1.35-2.82-.58-5.28-2.36-6.05-2.64-.11-.04-2.64-1.13-5.41-3.28-2.39-1.85.7-1.16.7-1.16s5.03 2.67 5.16 2.24c.1-.33-2.73-1.62-5.39-3.65-.69-.52-1.36-1.04-1.98-1.52-1.62-1.26-1.34-2.58.56-1.52.67.37 1.77 1.02 2.49 1.58.78.61 1.68.93 2.42 1.35 1.45.83 2.5 1.46 2.5 1.38 0-.1.4-.13-.31-.71-.86-.69-2.99-1.77-4.17-2.88-.67-.63-2.15-1.86-2.15-1.86s-1.9-2.27-1.8-2.42c.5-.81 2.23.39 3.03 1.35.82.37 2.34 1.71 2.34 1.71s3.66 2.04 3.94 1.54c.12-.21-1.98-1.73-3.82-3.53-1.71-1.67-3.17-3.63-2.89-4 .46-.64 2.55 1.03 2.55 1.03l-.03.01Z" fill="#EAC2A6"/><path d="m83.62 227.93 1.81 8.92 45.36 41.26-32.47 32.86 8.77 8.96s47.96-35.22 49.69-39.83c2.66-7.11-34.38-54.17-34.38-54.17l-38.77 1.99-.01.01Z" fill="#2459A5"/><path d="M51.83 336.21s-11.41 8.22-13.2 10.68c-2.59 3.53 19.33 10.14 16.94 6.01-.55-.95-2.13-4.15-2.2-4.47-.37-1.68 4.28-6.22 4.28-6.22l-5.82-5.99v-.01Z" fill="#EAC2A6"/><path d="m61.5 359.85-7.75-10.95s-5.15-.93-10.11-6.51c0 0-4.15 1.5-6.9 5.2 0 0 5.19 5.59 13.18 11.88 0 0 4.74 4.2 11.28 6.41 6.55 2.21.3-6.03.3-6.03Z" fill="#1A1A1A"/><path d="m85.17 232.07 2.04 56.3-38.35 47.03 8.99 8.29s44.53-38.22 49.42-48.86c3.03-6.6 13.24-66.29 13.24-66.29l-35.33 3.53h-.01Z" fill="#3A6AAE"/><path d="M121.76 227.45c-3.69-8.33-3.26-68.02-17.62-82-5.05.85-8.66 1.33-9.5 1.55-.75 6.15-1.57 28.71-2.08 49.4-.34 13.78.01 28.23-1.69 35.84-1.05 4.72 34.26 2.82 30.89-4.79Z" fill="#fff"/><path d="M82.89 150.08c-4.03.92-7 1.56-12.28 9.37-5.06 7.47-16.29 25.2-16.29 25.2l-29.58-13.14-1.38 14.98s33.46 17.4 38.19 15.83c4.72-1.57 18-20.97 18.98-22.28.23-.31-1.11 20.72-1.11 24.08 0 3.36-6.42 32.62-6.42 32.62s16.28 4.01 19.46-3.27c9.74-22.31 2.26-86.49 2.26-86.49s-8.92 2.44-11.82 3.1h-.01Z" fill="#F15A24"/><path d="M144.46 86.14c-1.1-1.2-1.3-3.74-1.3-5.36l-.27-2.18c.53-.14 10.49-.23 13.45.08.16.97.2 1.78.04 2.27-.76 2.35-5.91 17.59-5.91 17.59l-8.44-.95s3.06-9.04 2.43-11.46v.01Z" fill="#EAC2A6"/><path d="M107.47 148.94s5.83 16.59 10.63 14.2c4.8-2.39 31.75-29.86 32.01-31.19.27-1.33 2.13-35.05 2.13-35.05l-10.66-2.12-6.13 27.62s-19.72 18.85-23.72 20.71c-4 1.86-4.26 5.84-4.26 5.84v-.01Z" fill="#F15A24"/><path d="M123.2 231.44c3.23 0 4.42-.45 6.57-1.09 0 0-6.14-34.64-9.72-68.98-1.41-13.57-2.72-19.13-8.32-18.15-1.62.28-6 1.95-7.59 2.22 14.07 39.8 14.11 70.43 16.11 79.31 1 4.46 1.87 6.71 2.96 6.68l-.01.01Z" fill="#F15A24"/><path d="m102.66 139.43 1.47 6.01s.34 5.23-2.09 5.7c-2.93.57-7.28-3.82-7.28-3.82l-2.52-16.96 10.43 9.06-.01.01Z" fill="#F7A491"/><path d="m102.66 139.43 1.47 6.01s.34 5.23-2.09 5.7c-2.93.57-7.28-3.82-7.28-3.82l-2.52-16.96 10.43 9.06-.01.01Z" fill="#EAC2A6"/><path d="m92.25 130.45 10.4 8.98 1.1 4.49c-3.98-.96-9.64-5.33-11.5-13.47Z" fill="#EF7F7F"/><path d="M102.04 107.91c3.41-.01 8.88-.08 10.08 3.32.99 2.82 2.26 7 3.07 11.79 1.49 8.83-1.09 17.11-9.78 18.71-4.35.8-18.63 2.19-17.65-13.48.34-5.44-2.29-12.4 2.12-16.1 3.43-2.88 8.24-4.24 12.16-4.25v.01Z" fill="#EAC2A6"/><path d="M89.19 137.8s-15.43-13.75-16.1-24.49c-.67-10.74 9.25-16.5 17.73-16.8 3.83-.14 6.42.04 10.38.53 8.5 1.07 14.01 4.84 12.07 11.8-2.6 9.35-20.24 1.46-23.85 4.36-2.98 2.39 1.85 8.15-1.04 10.35-2.72 2.07-1.33 1.37-.43 5.29.9 3.93 1.25 8.94 1.25 8.94l-.01.02Z" fill="#1A1A1A"/><path d="M83.24 125.34c.38 2.57 1.96 4.47 3.52 4.24 1.56-.23 2.51-2.5 2.13-5.08-.38-2.57-1.96-4.47-3.51-4.24-1.56.23-2.51 2.5-2.13 5.08h-.01Z" fill="#EAC2A6"/><path d="M145.44 79.53s1.58 1.09 3.08 3.74c0 0 5.17-2.42 5.13-3.41-.05-1.31-5.23.42-5.23.42l-2.97-.75h-.01Z" fill="#EF7F7F"/><path d="m144.1 75.62-1.21 2.97 2.78 1.44s-.71-1.41-.45-1.8c1.38-2.11.21-4.19-1.11-2.61h-.01Z" fill="#EAC2A6"/><path d="M126.31 12.41s17.46-18.17 41.26-10.53c23.8 7.64 28.17 14.13 41.75 1.42 0 0-8.46 26.8-29.28 21.09-20.82-5.71-42.66 5.98-42.75 23.8" fill="#F15A24"/><path d="M152.92 97.46c.26.84 1.22 1.28 2.16 1 .94-.29 1.49-1.2 1.23-2.04L125.44 6.98c-.26-.84-1.22-1.28-2.16-1-.94.29-1.49 1.2-1.23 2.04l30.87 89.44Z" fill="#333"/><path d="M148.23 73.01s8.52-2.53 8.62 2.06c.1 4.59-1.05 8.2-1.05 8.2l-6.54 4.25s-.9.57-2.8-1c-1.9-1.57-2.84-7.81 1.78-13.51h-.01Z" fill="#EAC2A6"/><path d="M108.91 135.56c-3.04.93-6.18-.66-7.49-3.62-.25-.57.02-1.24.58-1.42l10.41-3.18c.53-.16 1.1.21 1.16.8.33 3.3-1.6 6.48-4.67 7.42h.01Z" fill="#E6E6E6"/></g><defs><clipPath id="a"><path fill="#fff" d="M0 0h209.33v366.26H0z"/></clipPath></defs></svg>