<svg width="23" height="19" fill="none" xmlns="http://www.w3.org/2000/svg"><path d="M20.586.75c1.055 0 1.914.86 1.914 1.875v13.75c0 1.055-.86 1.875-1.914 1.875H1.875A1.851 1.851 0 0 1 0 16.375V2.625C0 1.609.82.75 1.875.75h18.71ZM2.109 2.625c-.156 0-.234.117-.234.234V4.5h18.71V2.86c0-.118-.077-.235-.233-.235H2.109Zm18.243 13.75c.156 0 .234-.078.234-.234V9.5H1.875v6.64c0 .157.078.235.234.235h18.243ZM7.5 12.469v1.562a.475.475 0 0 1-.469.469H4.22a.451.451 0 0 1-.469-.469V12.47c0-.235.195-.469.469-.469h2.81c.235 0 .469.234.469.469Zm7.5 0v1.562a.475.475 0 0 1-.469.469H9.22a.451.451 0 0 1-.469-.469V12.47c0-.235.195-.469.469-.469h5.312c.235 0 .469.234.469.469Z" fill="#005BAB"/></svg>