<svg width="62" height="62" fill="none" xmlns="http://www.w3.org/2000/svg"><path d="M31 0c17.125 0 31 13.875 31 31S48.125 62 31 62 0 48.125 0 31 13.875 0 31 0Zm15.125 39.25L38 31l8.125-8.125c.625-.5.625-1.5 0-2.125l-4.875-4.875c-.625-.625-1.625-.625-2.125 0L31 24l-8.125-8.125c-.625-.625-1.625-.625-2.125 0l-5 4.875c-.625.625-.625 1.625 0 2.125L24 31l-8.25 8.125c-.625.625-.625 1.625 0 2.125l4.875 5c.625.625 1.625.625 2.125 0L31 38l8.125 8.25c.5.625 1.5.625 2.125 0l4.875-4.875c.625-.625.625-1.625 0-2.125Z" fill="#C1272D"/></svg>