<svg width="80" height="56" fill="none" xmlns="http://www.w3.org/2000/svg"><path d="M24 28c-7.75 0-14-6.25-14-14 0-7.625 6.25-14 14-14 7.625 0 14 6.375 14 14 0 7.75-6.375 14-14 14Zm9.5 4c8 0 14.5 6.5 14.5 14.5V50c0 3.375-2.75 6-6 6H6c-3.375 0-6-2.625-6-6v-3.5C0 38.5 6.375 32 14.375 32h1c2.625 1.25 5.5 2 8.625 2 3 0 5.875-.75 8.5-2h1ZM60 28c-6.625 0-12-5.375-12-12S53.375 4 60 4s12 5.375 12 12-5.375 12-12 12Zm6 4c7.625 0 14 6.375 14 14 0 3.375-2.75 6-6 6H51.875c0-.25.125-.5.125-.75V46.5c0-4.875-2-9.25-5-12.5 2-1.25 4.375-2 7-2h.375c1.75.625 3.625 1 5.625 1 1.875 0 3.75-.375 5.5-1h.5Z" fill="#FFB241"/></svg>