<svg width="40" height="40" fill="none" xmlns="http://www.w3.org/2000/svg"><path d="M20 .625C30.703.625 39.375 9.297 39.375 20S30.703 39.375 20 39.375.625 30.703.625 20 9.297.625 20 .625Zm0 35c8.594 0 15.625-6.953 15.625-15.625 0-8.594-7.031-15.625-15.625-15.625-8.672 0-15.625 7.031-15.625 15.625A15.571 15.571 0 0 0 20 35.625Zm7.89-20.469L23.048 20l4.844 4.922c.39.312.39.937 0 1.328l-1.72 1.719c-.39.39-1.015.39-1.327 0L20 23.125l-4.922 4.844c-.312.39-.937.39-1.328 0l-1.719-1.719c-.39-.39-.39-1.016 0-1.328L16.875 20l-4.844-4.844c-.39-.312-.39-.937 0-1.328l1.719-1.719c.39-.39 1.016-.39 1.328 0L20 16.953l4.844-4.844c.312-.39.937-.39 1.328 0l1.719 1.72c.39.39.39 1.015 0 1.327Z" fill="#005BAB"/></svg>