<svg width="186" height="356" fill="none" xmlns="http://www.w3.org/2000/svg"><g clip-path="url(#a)"><path d="M29.39 66.34s1.22 6.04 2.19 8.264c.51 1.166 2.75 5.672 2.75 5.672l1.04 12.231 9.19-1.226s-3.11-8.822-2.06-11.464c.83-2.083 1.34-6.46 1.29-7.546-.18-3.728-14.41-5.931-14.41-5.931h.01Zm108.86 8.483s-3.57 5.034-5.36 6.669c-.94.857-4.82 4.067-4.82 4.067l-5.93 10.766-7.9-4.834s6.43-6.809 6.54-9.65c.09-2.243 1.4-6.44 1.89-7.427 1.68-3.34 15.58.4 15.58.4v.009Z" fill="#EAC2A6"/><path d="M66.75 106.882s5.78-5.781 10.44 1.256c0 0 3.58-1.904 6.1 1.486 0 0 6.48-1.844 8.05 7.327 0 0 3.33-.598 3.77 3.16.44 3.758-1.57 6.26-1.57 6.26s1.87 1.326 1.02 4.785c-.72 2.931-3.29 3.379-3.29 3.379s-.69 4.945-2.95 6.44c-2.26 1.485-5.34.778-5.34.778s-.82 2.681-3.46 2.442c-2.64-.239-5.91-2.622-8.86-1.545-2.95 1.076-10.63-.06-10.63-.06s-8.61-3.639-6.04-11.972c0 0-4.53-3.878-.57-8.524 0 0-2.89-7.267 2.83-11.563 5.72-4.287 10.5-3.639 10.5-3.639v-.01Z" fill="#1A1A1A"/><path d="M122.87 288.949s8.25-.937 9.62-1.605c1.37-.667 8.3 5.932 6.92 9.241-.77 1.865-3.22 1.625-3.22 1.625l-1.98-1.924-10.47 2.174-.87-9.501v-.01ZM75.76 323.63s4.35 7.058 5.53 8.015c1.19.947-1.88 9.999-5.47 10.158-2.02.09-2.84-2.223-2.84-2.223l.91-2.602-6.41-8.543 8.27-4.805h.01Z" fill="#EAC2A6"/><path d="M81.03 331.356s-2.5 3.17-3.86 4.436c-1.76 1.635-4.01 3.23-4.01 3.23s-2.55 4.615-3.25 6.23c-1.55 3.589-3.3 7.576-3.04 9.59.08.648 1.53 1.326 2.74.957 5.04-1.545 17.92-13.288 19.55-16.448 1.88-3.639-8.13-7.985-8.13-7.985v-.01Z" fill="#1A1A1A"/><path d="M44.26 223.854c.47-1.306.92-2.512 1.35-3.648 5.36 1.166 11.41 2.452 17.64 3.768l.76 22.748c0-1.754-4.68 36.286-4.68 36.286s12.72 25.181 20.99 40.752c-3.4 4.226-6.01 6.071-10.92 8.952-12.85-15.352-29.26-42.407-29.96-47.082-.4-2.692-.76-46.115 4.82-61.786v.01Z" fill="#F15A24"/><path d="M92.09 230.434c-1.46 15.77-3.87 39.645-4.31 47.68 10.23 1.465 34.39 8.712 38.9 8.702 1.7 3.808 2.65 8.434 1.47 12.232-.23.747-47.67 2.253-59.92-5.533-3.19-2.033-4.18-23.815-4.23-46.783l-.76-22.748c10.37 2.203 19.91 4.366 28.84 6.46l.01-.01Z" fill="#F15A24"/><path d="m58.02 149.628 11.64 1.744s8.77.14 11.12.16c.2 0 9.34 44.41 11.56 61.117 2.22 16.708.5 19.668.5 19.668s-15.48 3.47-26.94 2.463c-11.91-1.057-25.31-7.467-25.31-7.467s9.97-32.787 11.99-42.815c2.02-10.029 5.45-34.88 5.45-34.88l-.01.01Z" fill="#B2E0FD"/><path d="M34.09 87.663s1.02 41.14 2.27 43.672c1.82 3.679 14.84 29.946 14.84 29.946s-9.8 40.862-13.91 54.977c-.41 1.426-2.25 10.597-2.25 11.494 0 1.984 8.67 4.506 9.69 4.356.92-.129 8.48-39.007 13.31-58.027a54.315 54.315 0 0 1 8.28-17.974l3.36-4.755-19.9-24.004s-4.31-37.98-4.31-40.353c0-.618-10.14-1.665-11.39.668h.01Zm46.69 63.869 19.93-29.966s12.94-31.481 13.26-32.648c.31-1.146 10.48.16 13.7-.149 1.03-.1-13.54 33.046-15.08 38.579-1.82 6.529-11.55 32.069-11.55 32.069s-6.72 15.292-5.67 27.104c1.74 19.629 5.2 47.91 4.35 48.757-5.22 3.28-21.65 3.16-22.92 1.126-14-22.479 3.98-84.872 3.98-84.872Z" fill="#3A6AAE"/><path d="m70.47 145.381-.87 6.41s-1.94 9.231.56 11.015c2.5 1.785 10.62-11.274 10.62-11.274l-.86-16.239-9.45 10.098v-.01Z" fill="#EAC2A6"/><path d="M80.2 140.546c-2.06 5.543-6.98 8.942-10.47 10.268l.73-5.433 9.45-10.098.28 5.263h.01Z" fill="#D7AB7C"/><path d="M95.21 121.845c0 2.841-1.71 5.144-3.81 5.144s-3.81-2.303-3.81-5.144 1.7-5.144 3.81-5.144c2.11 0 3.81 2.303 3.81 5.144ZM83.78 110.79c0 1.635-2.07 2.96-4.63 2.96s-4.63-1.325-4.63-2.96 2.07-2.961 4.63-2.961 4.63 1.326 4.63 2.961Z" fill="#1A1A1A"/><path d="M72.18 114.927c-6.12-1.994-12.65 1.854-13.59 7.835-.41 2.602-1.91 7.507-2.07 11.075-.46 9.889 6.93 14.505 11.05 14.694 6.96.309 14.24-7.436 15.42-19.598.8-8.214-4.38-11.913-10.81-14.006Z" fill="#EAC2A6"/><path d="M79.28 132.372c0 1.894 1.33 3.439 2.96 3.439s2.96-1.535 2.96-3.439c0-1.904-1.33-3.439-2.96-3.439s-2.96 1.535-2.96 3.439Z" fill="#EAC2A6"/><path d="M54.33 110.65c-4.26 3.2-5.75 8.045-3.33 10.846 2.42 2.791 7.82 2.472 12.08-.728 4.26-3.19 5.75-8.044 3.33-10.846-2.42-2.791-7.82-2.472-12.08.728Z" fill="#1A1A1A"/><path d="M65.45 113.262c0 1.386 1.77 2.512 3.95 2.512s3.95-1.126 3.95-2.512c0-1.386-1.77-2.512-3.95-2.512s-3.95 1.126-3.95 2.512Zm-8.38 13.916c1.861 0 3.37-1.446 3.37-3.229 0-1.784-1.509-3.23-3.37-3.23-1.861 0-3.37 1.446-3.37 3.23 0 1.783 1.509 3.229 3.37 3.229Zm75.06 160.286s1.83 3.599 2.4 5.363c.74 2.283 1.23 4.984 1.23 4.984s3.12 4.257 4.29 5.573c2.6 2.921 5.79 6.37 7.72 6.998.62.199 2.38-.329 2.36-1.685-.06-5.253-5.12-22.379-7.3-25.191-2.51-3.229-10.7 3.958-10.7 3.958Z" fill="#1A1A1A"/><path d="M136.2 77.335s-2.42 2.72-5.33 3.14c-2.91.418-5.47-2.582-5.47-2.582l10.79-.558h.01Zm-93.22-5.124-2 3.06s-7.32.46-9.57-4.834l11.56 1.784.01-.01Z" fill="#F47458"/><path d="M40.47 73.477a140.47 140.47 0 0 1 87.03 5.234c4.25 1.665 9.14-.16 11.02-4.376 5.24-12.092 10.49-24.174 15.73-36.266 1.88-4.207-1.3-9.86-7.24-12.202C108.87 10.844 67.15 8.332 27.47 18.68c-6.17 1.605-10.02 6.838-8.66 11.244 3.75 12.63 7.5 25.26 11.24 37.881 1.36 4.416 6 6.809 10.41 5.662l.01.01Z" fill="#fff"/><path d="M126.95 79.778s-2.24-1.974-2.39-5.005c-.02-.378 1.02-3.758-.29-3.987-2.17-.379-2.83 7.666-2.83 7.666s2.75.987 5.5 1.326h.01Zm8.68-2.034c-1.51.02-3.09-.21-3.21-.758-.13-.578.57-.867 1.42-1.017-.61-.09-1.05-.259-1.12-.528-.16-.588.6-.907 1.48-1.077-.42-.08-.72-.22-.78-.438-.4-1.316 3.78-1.605 3.78-1.605s2.3-.39 2.51.498c.03.13-.27.828-.48.947-.44.25-.59.788-.42 1.266l.03.09c.02.09-.03.18-.12.259-.38.319-.27 1.555-.25 1.625.03.16-.16.468-.45.757-1.26 1.197-8.76 7.317-10.04 7.776-1.54.558-.26-4.087-.26-4.087s7.54-2.393 7.92-3.728l-.01.02ZM37.7 75.421s2.85-.897 4.22-3.608c.17-.34.6-3.848 1.88-3.53 2.14.529-.53 8.155-.53 8.155s-2.92-.2-5.57-1.007v-.01Zm-7.11-5.353c1.37.628 2.91 1.057 3.24.608.36-.478-.17-1.027-.89-1.505.6.17 1.07.19 1.24-.03.39-.479-.18-1.067-.91-1.585.42.1.75.08.89-.08.9-1.037-2.81-3-2.81-3s-1.94-1.276-2.5-.559c-.08.11-.09.868.05 1.067.3.409-.13.927-.14.957-.09.26-.1.608-.04.718.22.448-.39 1.535-.43 1.595-.09.13-.05.498.1.877.67 1.605 5.04 10.228 6.02 11.165 1.18 1.136 1.9-3.629 1.9-3.629s-5.93-5.233-5.73-6.6h.01Z" fill="#EAC2A6"/><path d="M72.31 58.584v-25.53h-3.73c-.94 0-1.75-.299-2.42-.897-.68-.598-1.02-1.326-1.02-2.173s.33-1.565.99-2.153c.66-.588 1.46-.877 2.4-.877h7.86c1.13 0 2.02.319 2.67.967.65.648.97 1.455.97 2.412v28.261h-7.71l-.01-.01Zm10.42-15.83c0-1.256.12-2.552.36-3.868.24-1.316.61-2.602 1.12-3.848a16.45 16.45 0 0 1 1.96-3.519 11.934 11.934 0 0 1 2.96-2.831c1-.678 2.09-1.206 3.25-1.605 1.16-.399 2.42-.598 3.78-.598 1.36 0 2.62.19 3.78.568 1.16.379 2.25.907 3.25 1.585 1.13.758 2.1 1.685 2.91 2.771a16.383 16.383 0 0 1 1.99 3.5c.52 1.245.9 2.531 1.14 3.847.24 1.316.36 2.592.36 3.828 0 1.236-.11 2.552-.34 3.888a19.358 19.358 0 0 1-1.09 3.888 16.121 16.121 0 0 1-1.96 3.539 12.439 12.439 0 0 1-2.91 2.83 13.87 13.87 0 0 1-3.27 1.626c-1.18.408-2.47.618-3.86.618-1.39 0-2.62-.21-3.78-.618a14.149 14.149 0 0 1-3.25-1.625 12.558 12.558 0 0 1-2.91-2.811 16.385 16.385 0 0 1-1.99-3.5 18.025 18.025 0 0 1-1.12-3.847 22.205 22.205 0 0 1-.34-3.828h-.05l.01.01Zm19.25-3.01a13.238 13.238 0 0 0-.92-3.34 8.527 8.527 0 0 0-1.84-2.752c-.78-.757-1.79-1.146-3.06-1.146s-2.23.379-3.01 1.146c-.78.758-1.39 1.685-1.84 2.772a13.621 13.621 0 0 0-.92 3.359c-.16 1.156-.24 2.143-.24 2.97 0 .828.07 1.865.22 3.051.15 1.186.44 2.313.87 3.39a8.072 8.072 0 0 0 1.84 2.75c.79.758 1.82 1.147 3.08 1.147s2.29-.379 3.08-1.146a7.743 7.743 0 0 0 1.84-2.772c.44-1.086.74-2.223.9-3.409.16-1.186.24-2.203.24-3.05s-.08-1.814-.24-2.97Zm15.94 7.895a4.26 4.26 0 0 1-.69 1.276 3.5 3.5 0 0 1-1.12.927c-.44.239-.96.349-1.54.349-.58 0-1.07-.11-1.52-.34a3.521 3.521 0 0 1-1.12-.896c-.3-.37-.53-.788-.69-1.246a4.166 4.166 0 0 1 0-2.792c.16-.468.4-.887.7-1.266.31-.379.68-.678 1.13-.917.44-.24.96-.349 1.54-.349.58 0 1.07.11 1.5.34.44.228.81.518 1.12.876.31.36.54.768.69 1.227.15.458.23.927.23 1.395 0 .469-.08.937-.24 1.406l.01.01Zm-3.9-2.772c-.16.1-.3.23-.4.39-.11.149-.18.318-.23.508a2.078 2.078 0 0 0 0 1.067c.05.189.13.368.23.528.11.16.23.289.39.398.15.1.34.15.57.15.23 0 .42-.06.58-.17.16-.11.29-.249.39-.408a2.115 2.115 0 0 0 .22-1.605 1.85 1.85 0 0 0-.22-.499c-.1-.15-.22-.279-.38-.368-.15-.1-.34-.14-.57-.14-.23 0-.42.05-.58.15Zm9.36-.897c-.03.09-.06.18-.1.26l-7.1 14.125c-.03.06-.15.26-.34.598l-2.18-1.206c.08-.19.13-.3.15-.329l7.2-14.305c.1-.2.25-.359.46-.469.21-.11.44-.169.68-.169.37 0 .68.12.92.349.24.24.36.518.36.857 0 .1-.02.2-.05.29Zm2.61 12.461c-.15.469-.38.887-.68 1.266-.3.369-.67.678-1.12.907-.44.24-.96.35-1.54.35-.58 0-1.07-.11-1.52-.34a3.81 3.81 0 0 1-1.13-.887 3.628 3.628 0 0 1-.69-1.246 4.485 4.485 0 0 1-.23-1.396c0-.468.08-.937.24-1.395.16-.459.4-.868.7-1.226.31-.36.69-.648 1.14-.878.45-.229.96-.339 1.53-.339.57 0 1.07.11 1.5.33.44.219.8.508 1.1.857.3.349.53.757.68 1.206.15.458.23.917.23 1.386 0 .468-.08.936-.23 1.405h.02Zm-3.92-2.771c-.16.1-.29.23-.39.389-.1.15-.17.319-.22.508a2.115 2.115 0 0 0 0 1.087c.05.189.12.358.22.518.1.15.23.279.39.369.16.1.36.14.58.14.24 0 .45-.05.62-.15.17-.1.31-.23.41-.399.1-.16.18-.339.22-.538.04-.2.06-.389.06-.579 0-.348-.1-.687-.3-1.006-.2-.32-.53-.479-.98-.479-.24 0-.44.05-.61.15v-.01ZM48.33 33.702h-.38c-.25 0-.43-.1-.52-.289a1.183 1.183 0 0 1-.19-.668c0-.259.06-.438.17-.618.1-.189.29-.289.54-.289h13.57c.24 0 .41.09.51.27.13.209.19.408.19.667 0 .26-.06.439-.17.618-.1.21-.29.3-.52.3H54.9v6.788c0 .27-.11.479-.32.588-.22.14-.48.21-.76.21s-.51-.06-.7-.19c-.21-.13-.32-.329-.32-.598v-.488l-4.71.648a.58.58 0 0 1-.6-.21c-.14-.19-.24-.409-.29-.678-.03-.249 0-.478.1-.677.1-.2.25-.33.52-.37l.52-.06v-4.954h-.01Zm1.63-2.232c-.43.02-.71-.09-.92-.32-.17-.169-.25-.508-.25-.947v-2.621c0-.4.1-.678.29-.887.17-.21.46-.29.89-.27h9.35c.38.02.7.08.92.25.22.169.33.458.33.907v2.621c0 .41-.1.728-.3.938-.21.209-.51.319-.95.329h-9.36Zm2.82 2.74v-.508h-2.36v.509h2.36Zm0 1.975v-.509h-2.36v.509h2.36Zm0 1.834v-.369h-2.36v.698l2.36-.33Zm5.62-9.62v-.05c0-.16-.03-.249-.1-.289-.05-.05-.19-.06-.4-.06h-6.62c-.14-.02-.24 0-.29.05l-.06.3v.05h7.47Zm-7.46 1.097c0 .14.03.249.08.289.05.06.14.1.27.1h6.62c.25 0 .41-.02.44-.06l.03-.32h-7.44v-.01Zm5.33 11.723c-.25.1-.48.06-.68-.1-.17-.14-.3-.329-.41-.598-.1-.25-.11-.518-.06-.778.05-.219.21-.398.46-.488.62-.21 1.13-.399 1.51-.598l.13-.06c-.46-.459-.92-.997-1.4-1.635-.14-.21-.17-.399-.1-.598.13-.329.32-.568.56-.628h-.22c-.22 0-.4-.08-.51-.25a1.034 1.034 0 0 1-.16-.587c0-.24.06-.439.17-.618.11-.17.27-.25.49-.25h4.33c.46-.03.79.1.97.37.21.328.27.697.21 1.126a9.276 9.276 0 0 1-1.49 2.96l1.68.788c.25.11.41.289.46.508.05.24.03.479-.08.728-.1.27-.24.478-.44.628-.21.16-.41.19-.67.1-.73-.27-1.51-.748-2.35-1.376-.97.678-1.78 1.136-2.4 1.376v-.02Zm2.33-3.778c.3-.38.54-.758.68-1.087.05-.21.05-.349.02-.438-.06-.11-.17-.17-.33-.17h-1.81l.13.13c.43.638.86 1.156 1.32 1.585l-.01-.02Zm-4.97 7.745c0-.3.11-.489.32-.618.22-.14.49-.22.78-.22.29 0 .52.06.71.21.24.14.35.329.35.628v.14h5.67c.25 0 .44.1.56.269.13.219.19.478.19.727 0 .27-.06.479-.19.648-.11.21-.3.32-.56.32H47.89c-.27 0-.46-.1-.57-.3a1.385 1.385 0 0 1-.19-.727c0-.25.06-.479.19-.648.11-.19.3-.29.57-.29h5.74v-.139Zm-1.95 12.88c-.38.02-.68-.08-.87-.29-.16-.189-.24-.488-.24-.937v-1.585c-.02-.378.08-.648.25-.857.17-.19.46-.29.86-.29h5.65c.37.02.67.1.89.25.22.17.33.459.33.887v1.585c-.02.27-.06.489-.16.668h.05l1-.03s.08-.16.08-.558v-2.741c0-.32-.16-.479-.48-.479h-8.86c-.32-.02-.48.14-.48.459v4.545c0 .29-.11.489-.32.599-.24.14-.51.219-.79.219s-.51-.06-.71-.21c-.22-.129-.33-.328-.33-.617v-5.922c0-.289.08-.538.24-.748.17-.209.43-.299.83-.299h12.11c.27-.02.49.08.68.29.17.159.25.378.27.648v5.253c0 .758-.25 1.266-.75 1.475-.65.25-1.59.29-2.79.13-.25-.05-.44-.17-.54-.399-.17-.379-.19-.727-.03-1.076h-5.89v.03Zm-1.11-6.72c-.41.02-.7-.1-.9-.298-.16-.19-.24-.489-.25-.948v-1.245c0-.38.1-.668.27-.858.17-.21.46-.299.89-.289h8.08c.38.02.68.09.9.25.22.159.33.458.33.886v1.247c-.02.408-.11.707-.3.917-.19.219-.49.329-.94.329h-8.08v.01Zm1.33-2.103c-.14 0-.24.02-.27.06-.05.05-.08.13-.06.27v-.02l.08.159c.05.06.14.1.25.1h5.35l.43-.06.03-.37c-.06-.089-.22-.139-.46-.139H51.9Zm1.08 6.42c-.14 0-.24.02-.27.06-.05.05-.06.14-.05.289v.05c0 .22.03.349.06.399.05.06.14.1.25.1h3c.25 0 .4-.02.43-.06l.05-.43v-.05c0-.159-.03-.248-.1-.288-.05-.05-.19-.06-.38-.06h-3l.01-.01Z" fill="#F15A24"/><path d="M66.14 143.537c-2.76-.349-4.69-2.742-4.66-5.563 0-.538.46-.987.97-.917l9.45 1.206c.48.06.8.558.64 1.057-.92 2.741-3.6 4.575-6.39 4.217h-.01Z" fill="#E6E6E6"/><path d="m5.38 50.27.59 4.905 4.8 1.555.28 5.542 5.63.09.59 6.26 5.17.718L24 75.261l-2.25.589-1.16-4.426-5.46-.758-.57-6.011-5.72-.1-.31-6.11-4.69-1.526-.55-4.545-3.29-.36.25-2.302 5.13.558Z" fill="#F15A24"/><path d="m182.74 57-4.79-1.257-3.23 3.878-5.27-1.784-2.16 5.183-6.05-1.764-2.58 4.536-6.09-.748.28-2.303 4.56.558 2.72-4.774 5.81 1.684 2.2-5.273 5.81 1.974 3.15-3.788 4.44 1.166 1.55-2.911 2.06 1.077-2.41 4.545Z" fill="#fff"/><path d="m141.91 8.093-2.21 4.147c-.24.448.14.977.65.897l4.64-.777 3.27 3.369c.35.369.98.17 1.05-.34l.7-4.644 4.23-2.064a.608.608 0 0 0 0-1.096l-4.21-2.094-.66-4.645a.618.618 0 0 0-1.05-.35l-3.3 3.35-4.64-.807a.612.612 0 0 0-.65.887l2.18 4.167Z" fill="#F7931E"/><path d="M161.79 45.027c-1.06-.27-1.66-1.486-1.34-2.712.32-1.226 1.43-2.004 2.49-1.734 1.06.269 1.66 1.485 1.34 2.721-.32 1.236-1.43 2.004-2.49 1.735v-.01Z" fill="#F15A24"/></g><defs><clipPath id="a"><path fill="#fff" transform="translate(0 .317)" d="M0 0h185.15v355.581H0z"/></clipPath></defs></svg>