<svg width="746" height="198" fill="none" xmlns="http://www.w3.org/2000/svg"><g clip-path="url(#a)"><path d="M176.82 0H5a5 5 0 0 0-5 5v35.72a5 5 0 0 0 5 5h171.82a5 5 0 0 0 5-5V5a5 5 0 0 0-5-5Z" fill="#0055AB"/><path d="M46.77 24.29v5.06c0 .81-.16 1.38-.48 1.71-.32.32-.87.53-1.64.6-.78.03-1.24-.25-1.39-.82-.11-.42-.08-.72.11-.9.19-.18.52-.26.97-.25h.11c.2 0 .31-.11.31-.34V24.9l-.54.15c-.76.2-1.23-.06-1.39-.8-.15-.74.11-1.18.78-1.34.13-.03.32-.07.57-.14.25-.07.45-.12.57-.14v-3.34h-.8c-.71 0-1.07-.36-1.07-1.07 0-.71.36-1.09 1.07-1.09h.8v-2.67c0-.66.34-.99 1.01-.99.67 0 .99.33.99.99v2.67h.23c.71 0 1.07.36 1.07 1.09 0 .73-.36 1.07-1.07 1.07h-.23v2.77l.27-.08c.71-.19 1.13.08 1.24.82.1.65-.15 1.07-.74 1.26-.09.03-.22.06-.38.12s-.29.09-.38.11h.01Zm5.6-.02v6.44c0 .65-.33.97-.99.97-.66 0-.99-.32-.99-.97v-5.94c-.4 1.24-.81 2.27-1.24 3.09-.18.31-.35.5-.51.58-.16.08-.31.07-.46-.05-.15-.12-.3-.33-.47-.65-.24-.48-.24-.92.02-1.32.9-1.53 1.6-3.3 2.1-5.33h-.27c-.71 0-1.07-.36-1.07-1.09 0-.73.36-1.09 1.07-1.09h.82v-2.56c-.08.01-.21.04-.41.07-.2.03-.34.05-.42.06h-.33c-.14 0-.25-.02-.32-.07a.85.85 0 0 1-.24-.2c-.08-.09-.15-.2-.2-.34-.22-.65.03-1.03.75-1.15 1.17-.25 2.18-.53 3.04-.82.31-.1.55-.12.74-.06.18.06.38.22.58.48.59.7.45 1.19-.42 1.47-.08.01-.2.04-.38.1-.18.06-.31.08-.38.09v2.92h.38c.71 0 1.07.36 1.07 1.09 0 .73-.36 1.09-1.07 1.09h-.38v.54c.09.1.67.93 1.76 2.48.13.23.19.4.18.53 0 .12-.07.3-.2.54-.18.34-.34.56-.49.66-.15.1-.29.08-.43-.04s-.29-.36-.44-.72c-.11-.27-.24-.54-.38-.82l-.02.02Zm5.86-9.61v4.22c0 .79-.02 1.62-.06 2.48.03.2.06.48.1.83.04.35.06.58.08.7.32-1.63.54-3.06.67-4.3.05-.64.4-.9 1.03-.78.61.09.85.46.73 1.13-.22 1.2-.45 2.35-.69 3.46-.06.29-.23.52-.51.67-.27.15-.59.19-.95.12l-.25-.06c.33 2.66.98 4.64 1.95 5.94.29.31.45.57.46.8.01.23-.11.51-.38.84-.29.36-.54.53-.75.53-.21 0-.46-.19-.75-.54-.69-1.02-1.22-2.33-1.6-3.93-.39 1.41-.98 2.72-1.76 3.92-.55.76-1.08.83-1.59.19-.42-.52-.4-1.09.08-1.72.9-1.43 1.51-2.99 1.81-4.7.31-1.71.46-3.56.46-5.56v-4.22c0-.64.32-.96.97-.96.65 0 .96.32.96.96l-.01-.02Zm-2.39 3.92c0 1.58-.17 2.97-.52 4.18-.22.59-.58.68-1.09.27-.41-.29-.53-.64-.36-1.05.25-.87.4-1.99.44-3.38.03-.57.31-.83.84-.78.46.05.69.31.69.76Zm8.69-4.51h13.7c.38 0 .69.12.93.35.24.24.35.54.35.93v14.14c0 .38-.12.69-.35.93-.24.24-.54.35-.93.35h-13.7c-.38 0-.69-.12-.93-.35-.24-.24-.35-.54-.35-.93V15.35c0-.38.12-.69.35-.93.24-.24.54-.35.93-.35Zm12.32 1.78H65.79c-.31 0-.46.15-.46.46v12.23c0 .32.15.48.46.48h11.06c.31 0 .46-.16.46-.48V16.31c0-.31-.15-.46-.46-.46Zm-10.51 9.11h6.13v-.04c0-.15.11-.28.33-.38.22-.1.44-.15.64-.15s.41.05.62.15c.21.1.32.23.32.38v.04h.57c.37 0 .36-.19-.02-.57l-.1-.1c-2.08.08-4.83.16-8.25.25-.18 0-.31-.04-.38-.13-.08-.09-.12-.24-.13-.44-.01-.23.02-.39.09-.5.07-.1.21-.15.41-.15h3.78v-.65h-2.56c-.38 0-.69-.12-.93-.35-.24-.24-.35-.54-.35-.93v-1.43c0-.38.12-.69.35-.93.24-.24.54-.35.93-.35h2.56v-.34c0-.17-.08-.25-.25-.25h-3.52c-.42 0-.63-.2-.63-.61s.21-.63.63-.63h3.76v-.04c0-.22.09-.38.28-.51.18-.12.4-.18.66-.18s.47.06.66.18c.19.12.28.29.28.51v.04H76c.41 0 .61.21.61.63 0 .42-.2.61-.61.61h-3.3c-.32 0-.48.16-.48.48v.11h2.62c.38 0 .69.12.93.35.24.24.35.54.35.93v1.79c0 .28-.08.5-.25.67-.17.17-.39.25-.67.25h-.06c.32.25.63.53.94.82.19.2.27.43.25.69-.03.25-.16.47-.4.65l-.21.13h.54c.42 0 .63.21.63.63 0 .42-.21.61-.63.61h-1.41c-.31 0-.46.16-.46.48v.78c0 .38-.04.65-.13.8-.09.15-.27.27-.55.34-.37.1-.93.15-1.68.15-.46 0-.75-.15-.86-.44-.1-.24-.09-.42.05-.54.13-.12.35-.17.64-.15h.38c.17 0 .25-.08.25-.23v-.71c0-.32-.15-.48-.46-.48h-2.96c.42.42.76.8 1.01 1.15.09.13.1.27.05.43-.06.16-.17.26-.33.32-.65.31-1.17.2-1.57-.33-.5-.64-.33-1.16.5-1.57h-2.37c-.42 0-.63-.2-.63-.61s.21-.63.63-.63h-.02Zm4.01-5.33h-1.64c-.31 0-.46.15-.46.46v.11h2.1v-.57Zm0 1.49h-1.8c-.2 0-.31.1-.31.29v.08c0 .14.07.21.21.21h1.89v-.57l.01-.01Zm1.87-.92h2.04v-.34c0-.15-.08-.23-.23-.23h-1.81v.57Zm0 1.49h1.74c.2 0 .31-.1.31-.31v-.06c0-.14-.08-.21-.23-.21h-1.81v.57l-.01.01Zm2.01.97h-2.01v.63h1.55c-.15-.11-.2-.18-.15-.21l.61-.42Zm11.31-1.04h-2.5c-.64 0-.96-.32-.96-.96 0-.64.32-.97.96-.97h.82c-.05-.39-.13-.77-.23-1.13-.1-.32-.1-.59.02-.82.11-.23.33-.38.65-.44l.15-.04h-1.22c-.64 0-.96-.32-.96-.96 0-.64.32-.94.96-.94h2.31v-.67c0-.74.38-1.11 1.13-1.11.75 0 1.11.37 1.11 1.11v.67h2.27c.62 0 .94.31.94.94 0 .63-.31.96-.94.96H89l.59.13c.34.06.45.27.31.61-.14.38-.38.94-.71 1.68h.99c.64 0 .96.32.96.97 0 .65-.32.96-.96.96h-2.41v1.51h2.22c.65 0 .97.32.97.97 0 .65-.32.97-.97.97h-2.22v.15c.36.24 1.04.77 2.06 1.58.27.23.4.44.41.64.01.2-.11.43-.35.7-.25.32-.49.48-.72.49-.22 0-.47-.14-.74-.45a13.4 13.4 0 0 1-.32-.33c-.15-.16-.27-.28-.34-.35v3.06c0 .74-.37 1.11-1.11 1.11-.74 0-1.13-.37-1.13-1.11v-2.83c-.56.8-1.12 1.48-1.68 2.04-.28.27-.53.4-.75.39-.22 0-.45-.15-.71-.43-.29-.33-.43-.62-.4-.86.03-.24.22-.5.57-.78.97-.87 1.8-1.87 2.5-3.02h-1.97c-.65 0-.97-.32-.97-.97 0-.65.32-.97.97-.97h2.43v-1.51l.02.01Zm-.76-1.93h3.8l-.69-.15c-.38-.09-.51-.3-.38-.63.24-.6.41-1.15.5-1.64h-2.9c.18.34.33.77.46 1.28.13.6-.13.98-.78 1.15l-.01-.01Zm9.11.19h4.97c.71 0 1.07.36 1.07 1.07 0 .71-.36 1.07-1.07 1.07h-.76v8.46c0 .74-.38 1.11-1.13 1.11-.75 0-1.11-.37-1.11-1.11v-8.46h-1.97c-.03 3.81-.76 6.73-2.2 8.77-.52.64-1.03.66-1.53.06l-.04-.04c-.27-.19-.41-.43-.43-.71-.02-.28.09-.57.31-.86.7-1.02 1.16-2.15 1.39-3.38.22-1.24.33-2.6.33-4.11v-5.44c0-.42.13-.72.38-.89.25-.17.58-.19.97-.07 1.67-.41 3.06-.86 4.16-1.36.51-.24 1-.14 1.47.31.75.69.66 1.22-.27 1.59-1.41.5-2.94.91-4.57 1.24v2.75h.03Zm12.53-1.28h9.59c.38 0 .69.12.92.35.23.24.34.54.34.93v4.6c0 .38-.11.69-.34.93-.23.24-.54.35-.92.35h-10.05c-.33 1.83-.93 3.44-1.8 4.81-.29.38-.57.6-.83.67-.26.06-.58-.05-.95-.34-.61-.52-.62-1.19-.04-2.01 1.15-1.94 1.72-4.68 1.72-8.23v-4.24c0-.43.13-.75.39-.95.26-.2.6-.24 1.02-.12l.15.04c3.49-.42 6.41-.99 8.77-1.72.29-.08.52-.09.68-.03.16.06.35.19.58.39.81.78.74 1.3-.23 1.57-2.46.66-5.46 1.2-9.02 1.62v1.38h.02Zm-.13 5h8.2c.31 0 .46-.15.46-.46v-1.93c0-.31-.15-.46-.46-.46h-8.06c0 .93-.04 1.88-.13 2.85h-.01Zm28.25-6.6H138c.71 0 1.07.38 1.07 1.13 0 .69-.32 1.03-.97 1.03h-.04c-.38 3.08-1.01 5.57-1.89 7.47.57.99 1.2 1.8 1.89 2.43.39.29.62.58.68.85.06.27-.06.6-.35.98-.25.32-.52.48-.79.49-.27 0-.57-.12-.89-.39-.7-.62-1.31-1.35-1.83-2.18-.59.76-1.29 1.48-2.12 2.16-.37.25-.72.35-1.06.29-.34-.06-.6-.27-.79-.63-.04-.05-.09-.13-.16-.24-.07-.11-.12-.18-.14-.22l-.73.71c-.18.18-.4.28-.65.32-.25.03-.47-.02-.63-.14-.82-.48-1.27-.75-1.38-.8-.99.58-2.26 1.03-3.8 1.34-.74.14-1.22-.04-1.45-.54-.32-.69.01-1.09.99-1.2.84-.13 1.58-.32 2.22-.57-.11-.04-.29-.11-.53-.21-.24-.1-.41-.17-.53-.21-.09.18-.25.24-.5.17-.41-.09-.71-.25-.91-.49-.2-.24-.2-.51 0-.81.11-.17.29-.44.52-.82l-1.24.02c-.57 0-.87-.28-.88-.84-.01-.31.04-.53.15-.67.11-.14.32-.21.61-.21.99 0 1.76 0 2.29-.02.06-.1.15-.25.25-.46.1-.21.16-.31.17-.32h-1.49c-.38 0-.69-.11-.92-.34-.23-.23-.34-.54-.34-.92v-1.09c0-.38.11-.69.34-.92.23-.23.54-.34.92-.34h2.16v-.61h-1.76c-.38 0-.69-.12-.93-.35-.24-.23-.35-.54-.35-.93v-.8h-.38c-.55 0-.82-.27-.82-.82 0-.55.27-.82.82-.82h.38v-1.09c0-.29.09-.53.27-.7.18-.17.41-.26.71-.26h2.06v-.04c0-.61.32-.92.97-.92.65 0 .99.31.99.92v.04h1.95c.38 0 .69.12.92.34.23.23.34.54.34.92v.78h.44c.55 0 .82.27.82.82 0 .55-.27.82-.82.82h-.44v1.11c0 .29-.09.53-.27.71-.18.18-.41.27-.71.27h-2.23v.61h3.04c.38 0 .57.18.57.55v.06c.87-1.67 1.5-3.92 1.91-6.76.05-.37.18-.65.4-.83.22-.18.5-.25.86-.2.7.09 1.01.5.92 1.22-.08.57-.2 1.3-.36 2.18l-.01-.03Zm-9.3 5.18h-1.2c-.22 0-.32.11-.32.32v.15c0 .23.12.34.36.34h1.17v-.82l-.01.01Zm-1.13-5.6h1.13v-.42c0-.19-.1-.29-.29-.29h-.38c-.31 0-.46.15-.46.46v.25Zm1.13 1.39h-1.13v.44c0 .19.1.29.29.29h.84v-.73Zm-.23 9.44c.48.15 1.12.4 1.91.75.36-.4.64-.84.86-1.34l-2.46.04-.31.55Zm5.14-3.02h-3.63l.15.04s.02 0 .02.02l-.4.71c.65-.01 2.17-.03 4.55-.06.28-.01.49.05.63.19s.2.35.19.63c-.01.54-.29.81-.82.82l-.97.02c-.27.85-.65 1.59-1.15 2.22.46.24 1 .53 1.62.88 1.45-.79 2.59-1.87 3.42-3.25-.45-1.06-.83-2.32-1.17-3.8-.24.45-.38.69-.4.73-.1.17-.23.25-.37.27a.36.36 0 0 1-.35-.17c-.06-.08-.17-.19-.32-.34-.15-.15-.26-.27-.32-.34v.78c0 .45-.22.67-.67.67l-.01-.02Zm-2.94-7.81h1.22v-.42c0-.19-.1-.29-.29-.29h-.48c-.31 0-.46.15-.46.46v.25h.01Zm1.22 1.39h-1.22v.73h.75c.32 0 .48-.15.48-.46v-.27h-.01Zm-1.22 5.02h1.26c.24 0 .36-.11.36-.34v-.12c0-.24-.12-.36-.36-.36h-1.26v.82Zm7.77.86c.43-1.44.74-3 .92-4.7h-1.91l-.04.11c.27 1.77.61 3.3 1.03 4.58v.01Z" fill="#fff"/><path d="M364.65 0H192.83a5 5 0 0 0-5 5v35.72a5 5 0 0 0 5 5h171.82a5 5 0 0 0 5-5V5a5 5 0 0 0-5-5Z" fill="#0055AB"/><path d="M251.47 30h-6.4c-.76 0-1.15-.39-1.15-1.17 0-.78.38-1.17 1.15-1.17h1.97v-9.15h-1.74c-.59 0-.88-.31-.88-.94 0-.25.08-.48.25-.67.17-.19.38-.32.63-.38.83-.22 1.52-.47 2.06-.76.28-.17.59-.25.92-.25h.63c.31 0 .55.09.73.27.18.18.27.42.27.73v11.16h1.57c.78 0 1.17.39 1.17 1.17 0 .78-.39 1.17-1.17 1.17l-.01-.01Zm11.67-1.64c-.84 1.27-2.02 1.91-3.53 1.91-1.51 0-2.71-.65-3.59-1.95-.88-1.3-1.32-3.17-1.32-5.62s.44-4.3 1.31-5.56c.87-1.26 2.07-1.89 3.6-1.89 1.53 0 2.71.63 3.58 1.9.87 1.27 1.31 3.12 1.31 5.55 0 2.43-.45 4.3-1.36 5.65v.01Zm-5.1-1.47c.36.76.88 1.15 1.57 1.15 1.45 0 2.18-1.78 2.18-5.33s-.73-5.22-2.18-5.22c-1.45 0-2.2 1.74-2.2 5.22 0 1.88.21 3.28.63 4.18Zm12.59-1.47h-3.3c-.68 0-1.01-.34-1.01-1.03s.34-1.01 1.01-1.01h3.3c.69 0 1.03.34 1.03 1.01 0 .67-.34 1.03-1.03 1.03Zm8.52.82h-4.89c-.38 0-.69-.11-.92-.34-.23-.23-.34-.53-.34-.92v-.17c0-.36.09-.67.27-.96l4.68-7.6c.28-.48.71-.73 1.28-.73h1.34c.38 0 .69.12.92.35.23.24.34.54.34.93v7.26h.63c.73 0 1.09.36 1.09 1.09 0 .73-.36 1.09-1.09 1.09h-.63v2.43c0 .89-.44 1.34-1.32 1.34-.88 0-1.36-.45-1.36-1.34v-2.43Zm-3.36-2.18h3.36V21.1c0-.32.04-1.32.11-3h-.08c-.4.88-.78 1.66-1.15 2.35l-2.25 3.61h.01Zm17.15 4.34c-.97 1.25-2.25 1.87-3.86 1.87-1.24 0-2.31-.34-3.23-1.01-.5-.42-.51-.9-.04-1.45.54-.61 1.13-.67 1.78-.19.45.2.88.31 1.32.31.89 0 1.62-.38 2.18-1.16.56-.77.87-2.01.92-3.71-.37.47-.83.85-1.39 1.15-.55.29-1.09.44-1.59.44-1.25 0-2.25-.38-3.01-1.16-.76-.77-1.14-1.9-1.14-3.39 0-1.49.44-2.62 1.32-3.51.88-.88 1.96-1.33 3.25-1.33 1.48 0 2.71.6 3.71 1.81.99 1.21 1.49 3 1.49 5.37 0 2.57-.57 4.56-1.7 5.96h-.01Zm-1.85-10.14c-.41-.55-.94-.82-1.6-.82-.56 0-1.03.23-1.4.69-.38.46-.56 1.11-.56 1.97 0 .86.18 1.45.54 1.87.36.42.87.63 1.52.63.93 0 1.73-.52 2.39-1.55-.1-1.26-.4-2.19-.88-2.79h-.01Zm11.76 2.86c.51-1.77.81-3.92.92-6.44 0-.17.03-.3.09-.41.06-.11.11-.19.16-.24.05-.05.16-.09.33-.12s.29-.04.36-.04h.49c.36 0 .64.1.86.29.22.19.32.46.31.8V15c.03.64.08 1.29.17 1.97.09.68.27 1.55.55 2.64.28 1.08.63 2.1 1.06 3.07.43.96 1.03 1.96 1.81 3a12.65 12.65 0 0 0 2.7 2.67c.36.22.65.45.87.69.22.24.37.51.44.8.07.29-.03.58-.3.86-.51.55-1.18.59-2.02.12-3.03-1.96-5.15-4.99-6.36-9.09-1.12 3.85-3.09 6.83-5.9 8.96-.84.57-1.54.59-2.1.06-.73-.7-.53-1.42.59-2.16 2.36-1.8 4.01-4.28 4.97-7.45v-.02Z" fill="#fff"/><path d="M552.49 0H380.67a5 5 0 0 0-5 5v35.72a5 5 0 0 0 5 5h171.82a5 5 0 0 0 5-5V5a5 5 0 0 0-5-5Z" fill="#0055AB"/><path d="M433.43 15.52h5.33c.79 0 1.18.4 1.18 1.2 0 .8-.39 1.2-1.18 1.2h-4.07L434.4 21c.6-.28 1.18-.42 1.74-.42 1.3 0 2.37.39 3.21 1.17.84.78 1.26 1.93 1.26 3.43 0 1.5-.49 2.79-1.48 3.71-.99.92-2.18 1.38-3.58 1.38-1.64 0-3.05-.45-4.22-1.36-.45-.39-.47-.88-.08-1.45.5-.66 1.05-.73 1.66-.21.69.45 1.44.67 2.25.67s1.4-.23 1.86-.7c.46-.47.7-1.12.7-1.96 0-.84-.22-1.47-.66-1.93-.44-.46-1.04-.69-1.79-.69-.48 0-.95.1-1.39.31-.52.28-1 .28-1.43 0-.43-.27-.64-.65-.61-1.14l.29-5.06c.03-.37.16-.67.39-.9.24-.23.54-.34.91-.34v.01Zm17.54 12.84c-.84 1.27-2.02 1.91-3.53 1.91-1.51 0-2.71-.65-3.59-1.95-.88-1.3-1.32-3.17-1.32-5.62s.44-4.3 1.31-5.56c.87-1.26 2.07-1.89 3.6-1.89 1.53 0 2.71.63 3.58 1.9.87 1.27 1.31 3.12 1.31 5.55 0 2.43-.45 4.3-1.36 5.65v.01Zm-5.1-1.47c.36.76.88 1.15 1.57 1.15 1.45 0 2.18-1.78 2.18-5.33s-.73-5.22-2.18-5.22c-1.45 0-2.2 1.74-2.2 5.22 0 1.88.21 3.28.63 4.18Zm12.59-1.47h-3.3c-.68 0-1.01-.34-1.01-1.03s.34-1.01 1.01-1.01h3.3c.69 0 1.03.34 1.03 1.01 0 .67-.34 1.03-1.03 1.03Zm10.79 2.98c-.97 1.25-2.25 1.87-3.86 1.87-1.24 0-2.31-.34-3.23-1.01-.5-.42-.51-.9-.04-1.45.53-.61 1.13-.67 1.78-.19.45.2.88.31 1.32.31.89 0 1.62-.38 2.18-1.16.56-.77.87-2.01.92-3.71-.37.47-.83.85-1.38 1.15-.55.29-1.09.44-1.59.44-1.25 0-2.25-.38-3.01-1.16-.76-.78-1.14-1.9-1.14-3.39 0-1.49.44-2.62 1.32-3.51.88-.88 1.96-1.33 3.25-1.33 1.48 0 2.71.6 3.71 1.81s1.49 3 1.49 5.37c0 2.57-.57 4.56-1.7 5.96h-.02Zm-1.85-10.14c-.41-.55-.94-.82-1.61-.82-.56 0-1.03.23-1.4.69-.38.46-.56 1.11-.56 1.97 0 .86.18 1.45.54 1.87.36.42.87.63 1.52.63.93 0 1.73-.52 2.39-1.55-.1-1.26-.39-2.19-.88-2.79Zm13.37 10.14c-.97 1.25-2.25 1.87-3.86 1.87-1.24 0-2.31-.34-3.23-1.01-.5-.42-.51-.9-.04-1.45.53-.61 1.13-.67 1.78-.19.45.2.88.31 1.32.31.89 0 1.62-.38 2.18-1.16.56-.77.87-2.01.92-3.71-.37.47-.83.85-1.38 1.15-.55.29-1.09.44-1.59.44-1.25 0-2.25-.38-3.01-1.16-.76-.78-1.14-1.9-1.14-3.39 0-1.49.44-2.62 1.32-3.51.88-.88 1.96-1.33 3.25-1.33 1.48 0 2.71.6 3.71 1.81s1.49 3 1.49 5.37c0 2.57-.57 4.56-1.7 5.96h-.02Zm-1.85-10.14c-.41-.55-.94-.82-1.61-.82-.56 0-1.03.23-1.4.69-.38.46-.56 1.11-.56 1.97 0 .86.18 1.45.54 1.87.36.42.87.63 1.52.63.93 0 1.73-.52 2.39-1.55-.1-1.26-.39-2.19-.88-2.79Zm11.77 2.86c.51-1.77.81-3.92.92-6.44 0-.17.03-.3.09-.41.06-.11.11-.19.16-.24.05-.05.16-.09.33-.12s.29-.04.36-.04h.49c.36 0 .64.1.86.29.22.19.32.46.31.8V15c.03.64.08 1.29.17 1.97.09.68.27 1.55.55 2.64.28 1.08.63 2.1 1.06 3.07.43.96 1.03 1.96 1.81 3a12.65 12.65 0 0 0 2.7 2.67c.36.22.65.45.87.69.22.24.37.51.44.8.07.29-.03.58-.3.86-.51.55-1.18.59-2.02.12-3.03-1.96-5.15-4.99-6.36-9.09-1.12 3.85-3.09 6.83-5.9 8.96-.84.57-1.54.59-2.1.06-.73-.7-.53-1.42.59-2.16 2.36-1.8 4.01-4.28 4.97-7.45v-.02Z" fill="#fff"/><path d="M740.32 0H568.5a5 5 0 0 0-5 5v35.72a5 5 0 0 0 5 5h171.82a5 5 0 0 0 5-5V5a5 5 0 0 0-5-5Z" fill="#0055AB"/><path d="M616.94 30h-6.4c-.76 0-1.15-.39-1.15-1.17 0-.78.38-1.17 1.15-1.17h1.97v-9.15h-1.74c-.59 0-.88-.31-.88-.94 0-.25.08-.48.25-.67.17-.19.38-.32.63-.38.83-.22 1.51-.47 2.06-.76.28-.17.59-.25.92-.25h.63c.31 0 .55.09.73.27.18.18.27.42.27.73v11.16h1.57c.78 0 1.17.39 1.17 1.17 0 .78-.39 1.17-1.17 1.17l-.01-.01Zm11.67-1.64c-.84 1.27-2.02 1.91-3.53 1.91-1.51 0-2.71-.65-3.59-1.95-.88-1.3-1.32-3.17-1.32-5.62s.44-4.3 1.31-5.56c.87-1.26 2.07-1.89 3.6-1.89 1.53 0 2.71.63 3.58 1.9.87 1.27 1.31 3.12 1.31 5.55 0 2.43-.45 4.3-1.36 5.65v.01Zm-5.1-1.47c.36.76.88 1.15 1.57 1.15 1.45 0 2.18-1.78 2.18-5.33s-.73-5.22-2.18-5.22c-1.45 0-2.2 1.74-2.2 5.22 0 1.88.21 3.28.63 4.18Zm16.62 1.47c-.84 1.27-2.02 1.91-3.53 1.91-1.51 0-2.71-.65-3.59-1.95-.88-1.3-1.32-3.17-1.32-5.62s.44-4.3 1.31-5.56c.87-1.26 2.07-1.89 3.6-1.89 1.53 0 2.71.63 3.58 1.9.87 1.27 1.31 3.12 1.31 5.55 0 2.43-.45 4.3-1.36 5.65v.01Zm-5.1-1.47c.36.76.88 1.15 1.57 1.15 1.45 0 2.18-1.78 2.18-5.33s-.73-5.22-2.18-5.22c-1.45 0-2.2 1.74-2.2 5.22 0 1.88.21 3.28.63 4.18Zm14.56-5.77c.51-1.77.81-3.92.92-6.44 0-.17.03-.3.09-.41.06-.11.11-.19.16-.24.05-.05.16-.09.33-.12s.29-.04.36-.04h.49c.36 0 .64.1.86.29.22.19.32.46.31.8V15c.03.64.08 1.29.17 1.97.09.68.27 1.55.55 2.64.28 1.08.63 2.1 1.06 3.07.43.96 1.03 1.96 1.81 3a12.65 12.65 0 0 0 2.7 2.67c.36.22.65.45.87.69.22.24.37.51.44.8.07.29-.03.58-.3.86-.51.55-1.18.59-2.02.12-3.03-1.96-5.15-4.99-6.36-9.09-1.12 3.85-3.09 6.83-5.9 8.96-.84.57-1.54.59-2.1.06-.73-.7-.53-1.42.59-2.16 2.36-1.8 4.01-4.28 4.97-7.45v-.02Zm15.36-.78-.13-4.53c-.01-.78.37-1.18 1.15-1.22.8-.04 1.21.34 1.22 1.13l.33 9.4.86-.36c.38-.17.67-.29.88-.36.8-.32 1.3-.06 1.49.78.15.69-.08 1.17-.71 1.43-.84.38-2.69 1.18-5.56 2.41-.42.17-.75.18-.97.06-.23-.13-.41-.41-.55-.86-.25-.81-.01-1.34.73-1.58.53-.2 1.02-.39 1.47-.57l-.19-5.71-.02-.02Zm9.13 3.92c1.13-2.08 1.88-4.81 2.25-8.21.05-.45.19-.8.43-1.05s.56-.36.96-.33c.42.04.72.2.91.5.19.3.25.66.2 1.11-.43 3.48-1.17 6.3-2.2 8.46 1.78 1.86 3.04 3.27 3.76 4.24.2.34.28.62.23.84-.05.22-.23.47-.53.76-.41.39-.74.6-1 .61-.26.01-.54-.2-.85-.63-.71-.98-1.68-2.18-2.9-3.59-1.16 1.69-2.72 3.08-4.68 4.16-.8.38-1.45.3-1.95-.25-.71-.8-.47-1.48.73-2.04 2.01-1.06 3.56-2.58 4.64-4.58Zm-3.55-4.99c-.11-.22-.43-.69-.94-1.43-.52-.7-.38-1.25.44-1.64.6-.29 1.1-.19 1.51.31.7.87 1.36 1.86 1.97 2.98.17.37.2.67.11.9-.09.23-.32.44-.69.63-.82.45-1.4.25-1.76-.57-.22-.41-.43-.8-.65-1.17l.01-.01Zm28.35 11.48h-15.23c-.79 0-1.18-.39-1.18-1.18 0-.79.39-1.17 1.18-1.17h5.75V14.89c0-.82.41-1.22 1.24-1.22.83 0 1.24.41 1.24 1.22v4.37h5.65c.78 0 1.17.39 1.17 1.17 0 .78-.39 1.2-1.17 1.2h-5.65v6.76h6.99c.79 0 1.18.39 1.18 1.17 0 .78-.39 1.18-1.18 1.18l.01.01Z" fill="#fff"/><path d="M176.82 50.55H5a5 5 0 0 0-5 5v35.72a5 5 0 0 0 5 5h171.82a5 5 0 0 0 5-5V55.55a5 5 0 0 0-5-5Z" fill="#F15A24"/><path d="M74.31 64.63h13.7c.38 0 .69.12.93.35.24.24.35.54.35.93v14.14c0 .38-.12.69-.35.93-.24.24-.54.35-.93.35h-13.7c-.38 0-.69-.12-.93-.35-.24-.24-.35-.54-.35-.93V65.91c0-.38.12-.69.35-.93.24-.24.54-.35.93-.35Zm12.32 1.78H75.57c-.31 0-.46.15-.46.46V79.1c0 .32.15.48.46.48h11.06c.31 0 .46-.16.46-.48V66.87c0-.31-.15-.46-.46-.46Zm-10.51 9.11h6.13v-.04c0-.15.11-.28.33-.38.22-.1.44-.15.64-.15s.41.05.62.15c.21.1.32.23.32.38v.04h.57c.37 0 .36-.19-.02-.57l-.1-.1c-2.08.08-4.83.16-8.25.25-.18 0-.31-.04-.38-.13-.08-.09-.12-.24-.13-.44-.01-.23.02-.39.09-.5.07-.1.21-.15.41-.15h3.78v-.65h-2.56c-.38 0-.69-.12-.93-.35-.24-.24-.35-.54-.35-.93v-1.43c0-.38.12-.69.35-.93.24-.24.54-.35.93-.35h2.56v-.34c0-.17-.08-.25-.25-.25h-3.52c-.42 0-.63-.2-.63-.61s.21-.63.63-.63h3.76v-.04c0-.22.09-.38.28-.51.18-.12.4-.18.66-.18s.47.06.66.18c.19.12.28.29.28.51v.04h3.78c.41 0 .61.21.61.63 0 .42-.2.61-.61.61h-3.3c-.32 0-.48.16-.48.48v.11h2.62c.38 0 .69.12.93.35.24.24.35.54.35.93v1.79c0 .28-.08.5-.25.67-.17.17-.39.25-.67.25h-.06c.32.25.63.53.94.82.19.2.27.43.25.69-.03.25-.16.47-.4.65l-.21.13h.54c.42 0 .63.21.63.63 0 .42-.21.61-.63.61h-1.41c-.31 0-.46.16-.46.48v.78c0 .38-.04.65-.13.8-.09.15-.27.27-.55.34-.37.1-.93.15-1.68.15-.46 0-.75-.15-.86-.44-.1-.24-.09-.42.05-.54.13-.12.35-.17.64-.15h.38c.17 0 .25-.08.25-.23v-.71c0-.32-.15-.48-.46-.48h-2.96c.42.42.76.8 1.01 1.15.09.13.1.27.05.43-.06.16-.17.26-.33.32-.65.31-1.17.2-1.57-.33-.5-.64-.33-1.16.5-1.57h-2.37c-.42 0-.63-.2-.63-.61s.21-.63.63-.63h-.02Zm4.01-5.33h-1.64c-.31 0-.46.15-.46.46v.11h2.1v-.57Zm0 1.49h-1.8c-.2 0-.31.1-.31.29v.08c0 .14.07.21.21.21h1.89v-.57l.01-.01Zm1.87-.92h2.04v-.34c0-.15-.08-.23-.23-.23H82v.57Zm0 1.49h1.74c.2 0 .31-.1.31-.31v-.06c0-.14-.08-.21-.23-.21h-1.81v.57l-.01.01Zm2.01.97H82v.63h1.55c-.15-.11-.2-.18-.15-.21l.61-.42Zm10.89-3.01h11.6c.38 0 .69.12.93.35.24.24.35.54.35.93v6.11c0 .38-.12.69-.35.93-.24.24-.54.35-.93.35h-1.78c1.29.39 2.5.8 3.65 1.22.36.14.59.29.71.45.12.16.12.33.03.53s-.3.41-.6.65c-.27.2-.49.33-.68.37-.18.04-.43 0-.74-.11-.99-.42-2.27-.9-3.84-1.43-.51-.15-.79-.37-.83-.65-.04-.28.15-.58.58-.9l.19-.13h-5.25l.8.55c.2.14.31.29.31.45 0 .16-.1.29-.29.39-1.36.7-2.88 1.29-4.57 1.78-.51.14-.97.03-1.38-.34-.78-.74-.6-1.25.52-1.53 1.23-.38 2.33-.82 3.29-1.3H94.9c-.38 0-.69-.12-.93-.35-.24-.23-.35-.54-.35-.93v-6.11c0-.38.12-.69.35-.93.24-.24.54-.35.93-.35Zm.86-5.62h10.07c.38 0 .69.12.93.35.24.24.35.54.35.93v2.35c0 .38-.12.69-.35.92-.24.23-.54.34-.93.34H95.76c-.38 0-.69-.11-.93-.34-.24-.23-.35-.53-.35-.92v-2.35c0-.38.12-.69.35-.93.24-.24.54-.35.93-.35Zm9.28 7.2h-8.67c-.32 0-.48.16-.48.48v.36h9.51v-.48c0-.24-.12-.36-.36-.36Zm.36 2.31h-9.51v.84h9.51v-.84Zm0 2.33h-9.51v.5c0 .24.13.36.38.36h8.65c.32 0 .48-.16.48-.48v-.38Zm-8.12-8.75h7.35v-1.26h-7.35c-.32 0-.48.15-.48.46v.34c0 .31.16.46.48.46Zm267.37-17.13H192.83a5 5 0 0 0-5 5v35.72a5 5 0 0 0 5 5h171.82a5 5 0 0 0 5-5V55.55a5 5 0 0 0-5-5Z" fill="#fff"/><path d="M276.26 80.56h-8.74c-.31 0-.55-.09-.74-.27-.18-.18-.27-.43-.27-.74v-.07c0-.57.3-1.13.9-1.67 2.11-1.93 3.68-3.61 4.73-5.04 1.05-1.43 1.57-2.71 1.57-3.85 0-.85-.22-1.51-.66-1.99-.44-.48-1.05-.71-1.84-.71-.64 0-1.32.26-2.04.77-.67.63-1.32.64-1.93.02-.59-.58-.56-1.19.09-1.8 1.24-1.07 2.69-1.6 4.33-1.6 1.64 0 2.83.46 3.79 1.39.96.93 1.44 2.17 1.44 3.72 0 2.53-1.84 5.61-5.53 9.22 1.11-.12 2.01-.18 2.7-.18h2.22c.94 0 1.4.47 1.4 1.41s-.47 1.38-1.4 1.38l-.02.01Z" fill="#C1272D"/><path d="M284.16 73.42c0 .94-.21 1.71-.64 2.32-.43.61-1.04.92-1.83.92-.74 0-1.34-.29-1.79-.86-.45-.57-.68-1.37-.68-2.37s.23-1.78.68-2.34c.45-.56 1.04-.84 1.79-.84s1.34.28 1.79.84c.45.56.68 1.34.68 2.34v-.01Zm-3.21 1.6c.18.33.42.5.74.5s.57-.17.76-.51c.2-.34.29-.87.29-1.58 0-1.36-.35-2.05-1.06-2.05-.71 0-1.04.68-1.04 2.05 0 .7.1 1.24.31 1.6v-.01Zm7.42-4.11c-1.58 2.99-3.24 6.15-4.97 9.48-.12.23-.33.35-.6.35-.5 0-.64-.23-.41-.68l4.96-9.47a.63.63 0 0 1 .6-.36c.51 0 .65.23.43.68h-.01Zm3.16 6.61c0 .94-.21 1.71-.64 2.31-.43.61-1.04.91-1.83.91-.73 0-1.32-.29-1.78-.86-.45-.58-.68-1.36-.68-2.36 0-1 .23-1.79.68-2.36.45-.57 1.05-.85 1.79-.85s1.34.29 1.79.86c.45.57.68 1.35.68 2.35h-.01Zm-3.22 1.59c.18.32.43.48.75.48s.58-.17.77-.5c.19-.33.29-.86.29-1.57 0-.71-.1-1.24-.29-1.57-.19-.33-.45-.5-.77-.5s-.58.17-.77.5c-.19.33-.29.86-.29 1.57 0 .65.1 1.18.31 1.59Z" fill="#000"/><path d="M552.49 50.55H380.67a5 5 0 0 0-5 5v35.72a5 5 0 0 0 5 5h171.82a5 5 0 0 0 5-5V55.55a5 5 0 0 0-5-5Z" fill="#fff"/><path d="M465.38 76.04c0 1.49-.56 2.67-1.69 3.53-1.13.86-2.51 1.3-4.15 1.3-1.99 0-3.62-.53-4.88-1.6-.47-.45-.48-1-.02-1.62.57-.78 1.23-.86 1.98-.26.78.53 1.64.79 2.59.79.86 0 1.55-.2 2.06-.6.51-.4.77-.97.77-1.7 0-.69-.19-1.24-.57-1.65-.38-.41-1.03-.7-1.95-.86-.47-.04-.93-.19-1.38-.43-.45-.24-.68-.54-.68-.91s.2-.68.61-.93.84-.41 1.3-.45c1.43-.34 2.15-1.12 2.15-2.35 0-.64-.19-1.15-.58-1.51-.39-.37-.94-.56-1.66-.57-.72.01-1.38.21-2 .59-.75.58-1.41.53-2-.15-.56-.66-.48-1.26.22-1.8 1.2-.82 2.51-1.23 3.93-1.23 1.64 0 2.95.39 3.93 1.16.98.78 1.47 1.87 1.47 3.27 0 1.8-.93 3.07-2.79 3.8v.11c1 .28 1.8.77 2.42 1.47.61.7.92 1.57.92 2.61v-.01Z" fill="#C1272D"/><path d="M471.99 73.42c0 .94-.21 1.71-.64 2.32-.43.61-1.04.92-1.83.92-.74 0-1.33-.29-1.79-.86-.45-.57-.67-1.37-.67-2.37s.22-1.78.67-2.34c.45-.56 1.05-.84 1.79-.84s1.34.28 1.79.84c.46.56.68 1.34.68 2.34v-.01Zm-3.21 1.6c.18.33.42.5.74.5s.57-.17.76-.51c.2-.34.29-.87.29-1.58 0-1.36-.35-2.05-1.06-2.05-.71 0-1.04.68-1.04 2.05 0 .7.1 1.24.31 1.6v-.01Zm7.42-4.11c-1.58 2.99-3.24 6.15-4.97 9.48-.12.23-.33.35-.6.35-.5 0-.64-.23-.42-.68l4.96-9.47a.63.63 0 0 1 .6-.36c.51 0 .65.23.43.68Zm3.16 6.61c0 .94-.21 1.71-.64 2.31-.43.61-1.04.91-1.83.91-.73 0-1.32-.29-1.78-.86-.45-.58-.68-1.36-.68-2.36 0-1 .22-1.79.67-2.36.45-.57 1.04-.85 1.79-.85s1.34.29 1.79.86c.46.57.68 1.35.68 2.35Zm-3.22 1.59c.18.32.43.48.75.48s.58-.17.77-.5c.19-.33.29-.86.29-1.57 0-.71-.1-1.24-.29-1.57-.19-.33-.45-.5-.77-.5s-.58.17-.77.5c-.19.33-.29.86-.29 1.57 0 .65.1 1.18.31 1.59Z" fill="#000"/><path d="M740.32 50.55H568.5a5 5 0 0 0-5 5v35.72a5 5 0 0 0 5 5h171.82a5 5 0 0 0 5-5V55.55a5 5 0 0 0-5-5Z" fill="#fff"/><path d="M648.76 76.24h-5.62c-.44 0-.79-.13-1.05-.4s-.39-.61-.39-1.05v-.2c0-.41.1-.78.31-1.1l5.38-8.74c.32-.56.81-.83 1.47-.83h1.54c.44 0 .79.14 1.05.41.26.27.39.63.39 1.07v8.34h.72c.83 0 1.25.42 1.25 1.25 0 .83-.42 1.25-1.25 1.25h-.72v2.79c0 1.03-.5 1.54-1.51 1.54s-1.56-.51-1.56-1.54v-2.79h-.01Zm-3.86-2.5h3.86v-3.4c0-.37.04-1.51.13-3.45h-.09a38.19 38.19 0 0 1-1.32 2.7l-2.59 4.15h.01Z" fill="#C1272D"/><path d="M659.82 73.42c0 .94-.21 1.71-.64 2.32-.43.61-1.04.92-1.83.92-.74 0-1.33-.29-1.79-.86-.45-.57-.67-1.37-.67-2.37s.22-1.78.67-2.34c.45-.56 1.05-.84 1.79-.84s1.34.28 1.79.84c.46.56.68 1.34.68 2.34v-.01Zm-3.21 1.6c.18.33.42.5.74.5s.57-.17.76-.51c.2-.34.29-.87.29-1.58 0-1.36-.35-2.05-1.06-2.05-.71 0-1.04.68-1.04 2.05 0 .7.1 1.24.31 1.6v-.01Zm7.42-4.11c-1.58 2.99-3.24 6.15-4.97 9.48-.12.23-.33.35-.6.35-.5 0-.64-.23-.42-.68l4.96-9.47a.63.63 0 0 1 .6-.36c.51 0 .65.23.43.68Zm3.16 6.61c0 .94-.21 1.71-.64 2.31-.43.61-1.04.91-1.83.91-.73 0-1.32-.29-1.78-.86-.45-.58-.68-1.36-.68-2.36 0-1 .22-1.79.67-2.36.45-.57 1.04-.85 1.79-.85s1.34.29 1.79.86c.46.57.68 1.35.68 2.35Zm-3.22 1.59c.18.32.43.48.75.48s.58-.17.77-.5c.19-.33.29-.86.29-1.57 0-.71-.1-1.24-.29-1.57-.19-.33-.45-.5-.77-.5s-.58.17-.77.5c-.19.33-.29.86-.29 1.57 0 .65.1 1.18.31 1.59Z" fill="#000"/><path d="M176.82 101.11H5a5 5 0 0 0-5 5v35.72a5 5 0 0 0 5 5h171.82a5 5 0 0 0 5-5v-35.72a5 5 0 0 0-5-5Z" fill="#F15A24"/><path d="M74.31 115.18h13.7c.38 0 .69.12.93.35.24.24.35.54.35.93v14.14c0 .38-.12.69-.35.93-.24.24-.54.35-.93.35h-13.7c-.38 0-.69-.12-.93-.35-.24-.24-.35-.54-.35-.93v-14.14c0-.38.12-.69.35-.93.24-.24.54-.35.93-.35Zm12.32 1.78H75.57c-.31 0-.46.15-.46.46v12.23c0 .32.15.48.46.48h11.06c.31 0 .46-.16.46-.48v-12.23c0-.31-.15-.46-.46-.46Zm-10.51 9.11h6.13v-.04c0-.15.11-.28.33-.38.22-.1.44-.15.64-.15s.41.05.62.15c.21.1.32.23.32.38v.04h.57c.37 0 .36-.19-.02-.57l-.1-.1c-2.08.08-4.83.16-8.25.25-.18 0-.31-.04-.38-.13-.08-.09-.12-.24-.13-.44-.01-.23.02-.39.09-.5.07-.1.21-.15.41-.15h3.78v-.65h-2.56c-.38 0-.69-.12-.93-.35-.24-.24-.35-.54-.35-.93v-1.43c0-.38.12-.69.35-.93.24-.24.54-.35.93-.35h2.56v-.34c0-.17-.08-.25-.25-.25h-3.52c-.42 0-.63-.2-.63-.61s.21-.63.63-.63h3.76v-.04c0-.22.09-.38.28-.51.18-.12.4-.18.66-.18s.47.06.66.18c.19.12.28.29.28.51v.04h3.78c.41 0 .61.21.61.63 0 .42-.2.61-.61.61h-3.3c-.32 0-.48.16-.48.48v.11h2.62c.38 0 .69.12.93.35.24.24.35.54.35.93v1.79c0 .28-.08.5-.25.67-.17.17-.39.25-.67.25h-.06c.32.25.63.53.94.82.19.2.27.43.25.69-.03.25-.16.47-.4.65l-.21.13h.54c.42 0 .63.21.63.63 0 .42-.21.61-.63.61h-1.41c-.31 0-.46.16-.46.48v.78c0 .38-.04.65-.13.8-.09.15-.27.27-.55.34-.37.1-.93.15-1.68.15-.46 0-.75-.15-.86-.44-.1-.24-.09-.42.05-.54.13-.12.35-.17.64-.15h.38c.17 0 .25-.08.25-.23v-.71c0-.32-.15-.48-.46-.48h-2.96c.42.42.76.8 1.01 1.15.09.13.1.27.05.43-.06.16-.17.26-.33.32-.65.31-1.17.2-1.57-.33-.5-.64-.33-1.16.5-1.57h-2.37c-.42 0-.63-.2-.63-.61s.21-.63.63-.63h-.02Zm4.01-5.33h-1.64c-.31 0-.46.15-.46.46v.11h2.1v-.57Zm0 1.49h-1.8c-.2 0-.31.1-.31.29v.08c0 .14.07.21.21.21h1.89v-.57l.01-.01Zm1.87-.92h2.04v-.34c0-.15-.08-.23-.23-.23H82v.57Zm0 1.49h1.74c.2 0 .31-.1.31-.31v-.06c0-.14-.08-.21-.23-.21h-1.81v.57l-.01.01Zm2.01.97H82v.63h1.55c-.15-.11-.2-.18-.15-.21l.61-.42Zm24.27 8.43H93.21c-.76 0-1.15-.38-1.15-1.15 0-.77.38-1.13 1.15-1.13h6.23v-3.78h-4.39c-.74 0-1.11-.38-1.11-1.13 0-.75.37-1.13 1.11-1.13h4.39v-3.38h-5.41c-.76 0-1.15-.38-1.15-1.13 0-.75.38-1.15 1.15-1.15h6.61c-.5-.47-1.1-.99-1.81-1.57-.71-.55-.68-1.1.1-1.64.48-.33.96-.34 1.43-.02.93.65 1.67 1.22 2.22 1.7.23.22.33.46.3.75-.03.29-.2.53-.51.74l-.04.04h5.01c.76 0 1.15.38 1.15 1.15 0 .77-.38 1.13-1.15 1.13h-5.35v3.38h4.43c.74 0 1.11.38 1.11 1.13 0 .75-.37 1.13-1.11 1.13h-4.43v3.78h6.3c.76 0 1.15.38 1.15 1.13 0 .75-.38 1.15-1.15 1.15h-.01Zm256.37-31.09H192.83a5 5 0 0 0-5 5v35.72a5 5 0 0 0 5 5h171.82a5 5 0 0 0 5-5v-35.72a5 5 0 0 0-5-5Z" fill="#fff"/><path d="M277.55 126.59c0 1.49-.56 2.67-1.69 3.53-1.13.86-2.51 1.3-4.15 1.3-1.99 0-3.62-.53-4.87-1.6-.47-.45-.48-1-.02-1.62.57-.78 1.23-.86 1.98-.26.78.53 1.64.79 2.59.79.86 0 1.55-.2 2.06-.6.51-.4.77-.97.77-1.7 0-.69-.19-1.24-.57-1.65-.38-.41-1.03-.7-1.95-.86-.47-.04-.93-.19-1.38-.43-.45-.24-.68-.54-.68-.91s.21-.68.61-.93.84-.41 1.3-.45c1.43-.34 2.15-1.12 2.15-2.35 0-.64-.19-1.15-.58-1.51-.39-.37-.94-.56-1.66-.57-.72.01-1.38.21-2 .59-.75.58-1.41.53-2-.15-.56-.66-.48-1.26.22-1.8 1.2-.82 2.51-1.23 3.93-1.23 1.64 0 2.95.39 3.93 1.16.98.78 1.47 1.87 1.47 3.27 0 1.8-.93 3.07-2.79 3.8v.11c1 .28 1.8.77 2.42 1.47.61.7.92 1.57.92 2.61l-.01-.01Z" fill="#C1272D"/><path d="M284.16 123.97c0 .94-.21 1.71-.64 2.32-.43.61-1.04.92-1.83.92-.74 0-1.34-.29-1.79-.86-.45-.57-.68-1.37-.68-2.37s.23-1.78.68-2.34c.45-.56 1.04-.84 1.79-.84s1.34.28 1.79.84c.45.56.68 1.34.68 2.34v-.01Zm-3.21 1.6c.18.33.42.5.74.5s.57-.17.76-.51c.2-.34.29-.87.29-1.58 0-1.36-.35-2.05-1.06-2.05-.71 0-1.04.68-1.04 2.05 0 .7.1 1.24.31 1.6v-.01Zm7.42-4.11c-1.58 2.99-3.24 6.15-4.97 9.48-.12.23-.33.35-.6.35-.5 0-.64-.23-.41-.68l4.96-9.47a.63.63 0 0 1 .6-.36c.51 0 .65.23.43.68h-.01Zm3.16 6.61c0 .94-.21 1.71-.64 2.31-.43.61-1.04.91-1.83.91-.73 0-1.32-.29-1.78-.86-.45-.58-.68-1.36-.68-2.36 0-1 .23-1.79.68-2.36.45-.57 1.05-.85 1.79-.85s1.34.29 1.79.86c.45.57.68 1.35.68 2.35h-.01Zm-3.22 1.59c.18.32.43.48.75.48s.58-.17.77-.5c.19-.33.29-.86.29-1.57 0-.71-.1-1.24-.29-1.57-.19-.33-.45-.5-.77-.5s-.58.17-.77.5c-.19.33-.29.86-.29 1.57 0 .65.1 1.18.31 1.59Z" fill="#000"/><path d="M552.49 101.11H380.67a5 5 0 0 0-5 5v35.72a5 5 0 0 0 5 5h171.82a5 5 0 0 0 5-5v-35.72a5 5 0 0 0-5-5Z" fill="#fff"/><path d="M457.15 114.47h6.13c.91 0 1.36.46 1.36 1.38 0 .92-.45 1.38-1.36 1.38h-4.68l-.33 3.54c.69-.32 1.35-.48 2-.48 1.49 0 2.72.45 3.69 1.35.97.9 1.45 2.21 1.45 3.94s-.57 3.21-1.7 4.26c-1.13 1.05-2.51 1.58-4.12 1.58-1.89 0-3.5-.52-4.85-1.56-.51-.45-.54-1.01-.09-1.67.57-.76 1.21-.84 1.91-.24.79.51 1.65.77 2.59.77s1.61-.27 2.14-.8.8-1.28.8-2.25-.25-1.69-.76-2.22c-.5-.53-1.19-.79-2.05-.79-.56 0-1.09.12-1.6.35-.6.32-1.15.33-1.65.01-.5-.31-.73-.75-.7-1.31l.33-5.82c.03-.42.18-.77.45-1.03s.62-.4 1.04-.4v.01Z" fill="#C1272D"/><path d="M471.99 123.97c0 .94-.21 1.71-.64 2.32-.43.61-1.04.92-1.83.92-.74 0-1.33-.29-1.79-.86-.45-.57-.67-1.37-.67-2.37s.22-1.78.67-2.34c.45-.56 1.05-.84 1.79-.84s1.34.28 1.79.84c.46.56.68 1.34.68 2.34v-.01Zm-3.21 1.6c.18.33.42.5.74.5s.57-.17.76-.51c.2-.34.29-.87.29-1.58 0-1.36-.35-2.05-1.06-2.05-.71 0-1.04.68-1.04 2.05 0 .7.1 1.24.31 1.6v-.01Zm7.42-4.11c-1.58 2.99-3.24 6.15-4.97 9.48-.12.23-.33.35-.6.35-.5 0-.64-.23-.42-.68l4.96-9.47a.63.63 0 0 1 .6-.36c.51 0 .65.23.43.68Zm3.16 6.61c0 .94-.21 1.71-.64 2.31-.43.61-1.04.91-1.83.91-.73 0-1.32-.29-1.78-.86-.45-.58-.68-1.36-.68-2.36 0-1 .22-1.79.67-2.36.45-.57 1.04-.85 1.79-.85s1.34.29 1.79.86c.46.57.68 1.35.68 2.35Zm-3.22 1.59c.18.32.43.48.75.48s.58-.17.77-.5c.19-.33.29-.86.29-1.57 0-.71-.1-1.24-.29-1.57-.19-.33-.45-.5-.77-.5s-.58.17-.77.5c-.19.33-.29.86-.29 1.57 0 .65.1 1.18.31 1.59Z" fill="#000"/><path d="M740.32 101.11H568.5a5 5 0 0 0-5 5v35.72a5 5 0 0 0 5 5h171.82a5 5 0 0 0 5-5v-35.72a5 5 0 0 0-5-5Z" fill="#fff"/><path d="M645.1 131.12h-7.36c-.88 0-1.32-.45-1.32-1.34 0-.89.44-1.34 1.32-1.34H640v-10.52h-2c-.67 0-1.01-.36-1.01-1.08 0-.29.09-.55.29-.77.19-.22.43-.37.72-.44.95-.25 1.74-.54 2.37-.88.32-.19.67-.29 1.05-.29h.72c.35 0 .63.1.83.31.2.21.31.48.31.83v12.82h1.8c.89 0 1.34.45 1.34 1.34 0 .89-.45 1.34-1.34 1.34l.02.02Zm13.42-1.89c-.97 1.46-2.32 2.2-4.06 2.2-1.74 0-3.12-.75-4.13-2.24-1.01-1.49-1.51-3.64-1.51-6.46s.5-4.94 1.5-6.39c1-1.45 2.38-2.17 4.14-2.17 1.76 0 3.11.73 4.12 2.18 1 1.46 1.5 3.58 1.5 6.38s-.52 4.95-1.56 6.5Zm-5.86-1.69c.41.88 1.01 1.32 1.8 1.32 1.67 0 2.5-2.04 2.5-6.12s-.83-5.99-2.5-5.99-2.53 2-2.53 5.99c0 2.17.24 3.77.72 4.81l.01-.01Z" fill="#C1272D"/><path d="M666.44 123.97c0 .94-.21 1.71-.64 2.32-.43.61-1.04.92-1.83.92-.74 0-1.33-.29-1.79-.86-.45-.57-.67-1.37-.67-2.37s.22-1.78.67-2.34c.45-.56 1.05-.84 1.79-.84s1.34.28 1.79.84c.46.56.68 1.34.68 2.34v-.01Zm-3.21 1.6c.18.33.42.5.74.5s.57-.17.76-.51c.2-.34.29-.87.29-1.58 0-1.36-.35-2.05-1.06-2.05-.71 0-1.04.68-1.04 2.05 0 .7.1 1.24.31 1.6v-.01Zm7.42-4.11c-1.58 2.99-3.24 6.15-4.97 9.48-.12.23-.33.35-.6.35-.5 0-.64-.23-.42-.68l4.96-9.47a.63.63 0 0 1 .6-.36c.51 0 .65.23.43.68Zm3.16 6.61c0 .94-.21 1.71-.64 2.31-.43.61-1.04.91-1.83.91-.73 0-1.32-.29-1.78-.86-.45-.58-.68-1.36-.68-2.36 0-1 .22-1.79.67-2.36.45-.57 1.04-.85 1.79-.85s1.34.29 1.79.86c.46.57.68 1.35.68 2.35Zm-3.22 1.59c.18.32.43.48.75.48s.58-.17.77-.5c.19-.33.29-.86.29-1.57 0-.71-.1-1.24-.29-1.57-.19-.33-.45-.5-.77-.5s-.58.17-.77.5c-.19.33-.29.86-.29 1.57 0 .65.1 1.18.31 1.59Z" fill="#000"/><path d="M740.32 151.66H5a5 5 0 0 0-5 5v35.72a5 5 0 0 0 5 5h735.32a5 5 0 0 0 5-5v-35.72a5 5 0 0 0-5-5Z" fill="#FFB241"/><path d="M326.53 165.74h14.04c.38 0 .69.12.92.35.23.24.34.54.34.93v14.02c0 .38-.11.69-.34.93-.23.24-.54.35-.92.35h-14.04c-.38 0-.69-.12-.92-.35-.23-.24-.34-.54-.34-.93v-14.02c0-.38.12-.69.34-.93.23-.24.54-.35.92-.35Zm12.78 2.39h-11.17c-.31 0-.46.16-.46.48v11.08c0 .31.15.46.46.46h11.17v-12.02Zm-3.15 9.74h-5.35c-.38 0-.69-.11-.93-.34-.24-.23-.35-.54-.35-.92v-4.89c0-.38.12-.69.35-.93.24-.24.54-.35.93-.35h5.35c.38 0 .69.12.93.35.24.23.35.54.35.93v4.89c0 .38-.12.69-.35.92-.23.23-.54.34-.93.34Zm-3.99-2.01h2.46c.32 0 .48-.16.48-.48v-2.45c0-.31-.16-.46-.48-.46h-2.46c-.31 0-.46.15-.46.46v2.45c0 .32.15.48.46.48Zm21.69-3.09h6.19c.38 0 .69.12.92.35.23.24.34.54.34.93v4.85c0 .38-.11.69-.34.92-.23.23-.54.34-.92.34h-.88c.94.59 1.74 1.11 2.39 1.58.32.27.46.5.42.7-.04.2-.24.41-.61.64-.47.27-.89.25-1.26-.06-.61-.51-1.13-.92-1.55-1.24-.34-.24-.52-.51-.54-.79-.01-.29.15-.55.48-.79l.04-.04h-3.78l.9.32c.24.08.38.19.42.33.04.14-.03.3-.19.47-.74.69-1.64 1.3-2.69 1.83-.27.11-.57.11-.9-.02-.33-.13-.62-.32-.86-.57-.15-.17-.24-.32-.26-.47-.02-.15.05-.26.22-.33.01-.01.02-.02.04-.02h-4.43v.67c0 .62-.32.94-.96.94-.64 0-.94-.31-.94-.94v-11.46c-.18-.24-.41-.5-.71-.76-.22-.15-.33-.33-.33-.54 0-.21.11-.42.33-.64.8-.8 1.54-1.83 2.22-3.08.1-.22.27-.4.52-.54s.51-.22.8-.22h.54c.43 0 .8.14 1.11.42.89.84 1.64 1.66 2.24 2.46.25.39.2.81-.17 1.24-.54.59-1.01.56-1.43-.08l-.02-.02v-.02.53c0 .29-.14.44-.42.44h-2.43c-.47 0-.71-.24-.71-.71v-.06c-.37.5-.83 1.01-1.39 1.53h4.76c.38 0 .69.11.93.34.24.23.35.54.35.92v3.29c0 .38-.12.69-.35.93-.24.24-.54.35-.93.35h-3v.76h3.4c.56 0 .84.28.84.84 0 .56-.28.84-.84.84h-3.4v.8h3.15c.38 0 .69.12.93.34.24.23.35.53.35.92v.5c1.3-.5 2.25-1.01 2.85-1.55h-.92c-.24 0-.43-.07-.57-.21-.14-.14-.21-.33-.21-.57v-5.33c0-.38.12-.69.35-.93.24-.24.54-.35.93-.35l-.02.02Zm-6.86.31h2.41v-.42c0-.2-.1-.31-.31-.31H347v.73Zm2.41 1.38H347v.76h1.95c.31 0 .46-.15.46-.46v-.31.01Zm.36-5.9c-.52-.7-1.01-1.26-1.45-1.68-.24.48-.6 1.04-1.07 1.68h2.52Zm11.58 3.55h-8.88c-.51 0-.76-.26-.76-.78s.25-.76.76-.76h3.38v-.69h-2.06c-.38 0-.69-.12-.93-.35-.24-.24-.35-.54-.35-.93v-.97c0-.38.12-.69.35-.93.24-.24.54-.35.93-.35h2.06v-.21c0-.67.35-1.01 1.05-1.01.7 0 1.01.34 1.01 1.01v.21h2.27c.38 0 .69.12.92.35.23.24.34.54.34.93v.97c0 .38-.12.69-.34.93-.23.24-.54.35-.92.35h-2.27v.69h3.44c.51 0 .76.25.76.76s-.25.78-.76.78Zm-5.5-4.43h-1.15c-.19 0-.29.1-.29.29v.19c0 .25.12.38.36.38h1.07v-.86h.01Zm3.02 6.42h-3.76c-.31 0-.46.15-.46.46v.27h4.51v-.44c0-.19-.09-.29-.29-.29Zm.29 1.99h-4.51v.75h4.51v-.75Zm0 2.01h-4.51v.44c0 .23.11.34.33.34h3.72c.31 0 .46-.16.46-.48v-.31.01Zm-1.24-9.55h1.2c.23 0 .34-.12.34-.34v-.15c0-.24-.13-.36-.38-.36h-1.17v.86l.01-.01Zm22.15 9.78H365.3c-.69 0-1.03-.34-1.03-1.03s.34-1.05 1.03-1.05h1.28v-2.48h-1.57c-.7 0-1.05-.34-1.05-1.03s.35-1.03 1.05-1.03h1.57v-1.41s-.1.08-.17.15c-.07.07-.13.13-.17.15-.52.47-1.06.49-1.6.06-.38-.32-.57-.61-.55-.89.01-.27.22-.56.61-.87.97-.87 1.76-1.82 2.39-2.87.32-.6.82-.8 1.51-.61.81.24 1.03.72.65 1.43l-.17.29h10.6c.67 0 1.01.34 1.01 1.01 0 .67-.34 1.05-1.01 1.05h-.8v2.5h1.47c.7 0 1.05.34 1.05 1.03s-.35 1.03-1.05 1.03h-1.47v2.48h1.2c.69 0 1.03.35 1.03 1.05 0 .7-.34 1.03-1.03 1.03l-.01.01Zm-12.25 2.02c-.34.84-.78 1.63-1.32 2.37-.34.46-.8.57-1.36.34-.92-.37-1.08-.91-.5-1.62.36-.56.65-1.09.88-1.6.27-.73.77-1 1.51-.82.75.18 1.01.62.78 1.34l.01-.01Zm2.18-8.65v-2.5h-1.39v2.5H370Zm0 4.55v-2.48h-1.39v2.48H370Zm-.29 5.73c0-.19-.02-.46-.06-.8-.04-.34-.06-.56-.06-.65-.12-.73.2-1.14.96-1.24.69-.08 1.09.22 1.2.9.1.79.17 1.36.21 1.72.04.64-.29 1-.97 1.09-.82.11-1.24-.22-1.28-1.01v-.01Zm2.2-12.78v2.5h1.45v-2.5h-1.45Zm1.45 7.05v-2.48h-1.45v2.48h1.45Zm.5 5.18c-.03-.09-.06-.23-.12-.41-.06-.18-.09-.32-.11-.41-.25-.76.03-1.22.84-1.36.66-.1 1.09.14 1.3.73.22.66.39 1.25.54 1.76.09.37.06.65-.08.83-.14.18-.41.31-.8.39-.79.15-1.25-.15-1.39-.92-.01-.08-.04-.19-.09-.34-.04-.15-.07-.24-.09-.27Zm1.41-12.23v2.5h1.47v-2.5h-1.47Zm0 4.57v2.48h1.47v-2.48h-1.47Zm3.65 8.62a36.7 36.7 0 0 0-1.09-1.87c-.52-.76-.33-1.29.59-1.57.6-.19 1.06-.04 1.39.44.34.5.8 1.22 1.38 2.18.18.38.22.68.12.9-.1.22-.36.39-.78.54-.78.25-1.31.05-1.6-.61l-.01-.01Zm20.93.02h-15.23c-.79 0-1.18-.39-1.18-1.18 0-.79.39-1.17 1.18-1.17h5.75v-13.51c0-.82.41-1.22 1.24-1.22.83 0 1.24.41 1.24 1.22v4.37h5.65c.78 0 1.17.39 1.17 1.17 0 .78-.39 1.2-1.17 1.2h-5.65v6.76h6.99c.79 0 1.18.39 1.18 1.17 0 .78-.39 1.18-1.18 1.18l.01.01Zm6.91-5.31c.6 0 .9-.42.9-1.26 0-.84-.25-1.72-.76-2.56-.45-.57-.59-1.12-.44-1.64.23-.8.55-2.01.97-3.63h-1.24c-.31 0-.46.16-.46.48v13.81c0 .71-.36 1.07-1.09 1.07-.73 0-1.07-.36-1.07-1.07v-15.09c0-.38.11-.69.34-.92.23-.23.54-.34.92-.34h3.78c.45 0 .76.14.96.42.19.28.22.68.1 1.2-.54 2.04-1.01 3.56-1.41 4.57.98 1.17 1.47 2.5 1.47 3.99.01 1.07-.19 1.84-.61 2.32-.42.48-1.12.72-2.1.72-.18 0-.32-.04-.44-.13-.11-.09-.19-.17-.22-.25-.03-.08-.07-.23-.1-.45s-.06-.37-.08-.43c-.1-.25-.1-.46 0-.6.09-.15.28-.21.54-.2h.06l-.02-.01Zm5.12-11.14h6.44c.38 0 .69.12.93.34.24.23.35.53.35.92v6.55c0 .38-.12.69-.35.93-.23.24-.54.35-.93.35h-2.1c.18.69.42 1.38.73 2.06.43-.41.8-.78 1.09-1.11.24-.29.48-.46.72-.49.24-.03.51.06.81.28.62.46.63.97.02 1.55-.36.33-.92.8-1.7 1.41.47.67 1.04 1.27 1.7 1.78.46.28.73.56.82.83.09.27-.01.62-.31 1.04-.25.33-.52.51-.78.54-.27.03-.57-.07-.92-.31-1.99-1.46-3.38-3.99-4.18-7.58h-1.41v5.04c.76-.13 1.34-.23 1.72-.31.73-.14 1.12.16 1.18.9.06.62-.22 1.01-.84 1.15-1.2.28-2.72.61-4.57.99-.34.08-.62.05-.81-.08-.2-.13-.35-.37-.47-.73-.27-.82 0-1.29.82-1.41.17-.03.43-.06.78-.11v-13.28c0-.38.12-.69.34-.92.22-.23.54-.34.92-.34v.01Zm.92 3.55h4.51v-1.07c0-.32-.16-.48-.48-.48h-3.55c-.32 0-.48.16-.48.48v1.07Zm4.51 1.89h-4.51v1.64h4.03c.32 0 .48-.15.48-.46v-1.18Z" fill="#000"/></g><defs><clipPath id="a"><path fill="#fff" d="M0 0h745.32v197.38H0z"/></clipPath></defs></svg>