<svg width="328" height="204" fill="none" xmlns="http://www.w3.org/2000/svg"><rect x="111" y="42" width="106" height="36" rx="5" fill="#fff"/><path d="M160.909 66h-7.773c-.274 0-.495-.078-.664-.234-.157-.17-.235-.391-.235-.664v-.059c0-.508.267-1.003.801-1.484 1.875-1.72 3.275-3.21 4.199-4.473.938-1.276 1.407-2.422 1.407-3.438 0-.755-.196-1.34-.586-1.757-.391-.43-.938-.645-1.641-.645-.573 0-1.178.228-1.816.684-.599.56-1.172.566-1.719.02-.521-.522-.495-1.056.078-1.602a5.728 5.728 0 0 1 3.848-1.426c1.393 0 2.513.417 3.359 1.25.859.82 1.289 1.92 1.289 3.3 0 2.253-1.641 4.988-4.922 8.204.99-.104 1.791-.157 2.403-.157h1.972c.834 0 1.25.417 1.25 1.25 0 .82-.416 1.231-1.25 1.231Z" fill="#C1272D"/><path d="M168.651 58.7c0 .956-.218 1.75-.656 2.378-.437.62-1.062.93-1.873.93-.756 0-1.367-.292-1.832-.875-.456-.593-.684-1.404-.684-2.434 0-1.02.228-1.818.684-2.392.465-.575 1.076-.862 1.832-.862.757 0 1.367.287 1.832.862.465.574.697 1.371.697 2.392Zm-3.281 1.64c.182.337.433.506.752.506s.579-.173.779-.52c.201-.355.301-.898.301-1.627 0-1.394-.36-2.092-1.08-2.092-.711 0-1.066.698-1.066 2.092 0 .72.104 1.267.314 1.64Zm7.588-4.197a2005.481 2005.481 0 0 0-5.086 9.693c-.128.237-.333.355-.615.355-.511 0-.652-.232-.424-.697l5.072-9.68a.646.646 0 0 1 .616-.369c.519 0 .665.233.437.698Zm3.227 6.754c0 .956-.219 1.745-.657 2.365-.437.62-1.062.93-1.873.93-.747 0-1.353-.292-1.818-.876-.465-.592-.697-1.399-.697-2.42 0-1.03.228-1.831.683-2.406.465-.583 1.076-.875 1.832-.875.757 0 1.367.292 1.832.875.465.584.698 1.386.698 2.407Zm-3.295 1.626c.182.329.437.493.765.493s.588-.169.78-.506c.2-.347.3-.884.3-1.614 0-.729-.1-1.262-.3-1.6-.192-.346-.452-.519-.78-.519s-.592.173-.793.52c-.191.337-.287.87-.287 1.6 0 .665.105 1.207.315 1.626Z" fill="#000"/><rect x="222" y="42" width="106" height="36" rx="5" fill="#fff"/><path d="M273.062 61.977c0 1.328-.502 2.376-1.504 3.144-1.003.768-2.233 1.152-3.692 1.152-1.771 0-3.216-.475-4.336-1.425-.416-.404-.423-.886-.019-1.446.508-.69 1.093-.768 1.758-.234a4.01 4.01 0 0 0 2.304.703c.768 0 1.38-.176 1.836-.527.456-.365.684-.873.684-1.524 0-.612-.169-1.1-.508-1.465-.339-.364-.918-.618-1.738-.761a3.354 3.354 0 0 1-1.231-.371c-.403-.222-.605-.495-.605-.82 0-.326.182-.6.547-.821a2.561 2.561 0 0 1 1.152-.41c1.276-.3 1.914-.996 1.914-2.09 0-.573-.176-1.022-.527-1.348-.339-.325-.827-.494-1.465-.507a3.456 3.456 0 0 0-1.778.527c-.664.52-1.256.475-1.777-.137-.495-.586-.43-1.12.195-1.601a6.07 6.07 0 0 1 3.497-1.094c1.458 0 2.623.345 3.496 1.035.872.69 1.308 1.66 1.308 2.91 0 1.602-.827 2.728-2.48 3.38v.097c.885.247 1.601.683 2.148 1.308.547.625.821 1.4.821 2.325Z" fill="#C1272D"/><path d="M279.651 58.7c0 .956-.218 1.75-.656 2.378-.437.62-1.062.93-1.873.93-.756 0-1.367-.292-1.832-.875-.456-.593-.684-1.404-.684-2.434 0-1.02.228-1.818.684-2.392.465-.575 1.076-.862 1.832-.862.757 0 1.367.287 1.832.862.465.574.697 1.371.697 2.392Zm-3.281 1.64c.182.337.433.506.752.506s.579-.173.779-.52c.201-.355.301-.898.301-1.627 0-1.394-.36-2.092-1.08-2.092-.711 0-1.066.698-1.066 2.092 0 .72.104 1.267.314 1.64Zm7.588-4.197a2005.481 2005.481 0 0 0-5.086 9.693c-.128.237-.333.355-.615.355-.511 0-.652-.232-.424-.697l5.072-9.68a.646.646 0 0 1 .616-.369c.519 0 .665.233.437.698Zm3.227 6.754c0 .956-.219 1.745-.657 2.365-.437.62-1.062.93-1.873.93-.747 0-1.353-.292-1.818-.876-.465-.592-.697-1.399-.697-2.42 0-1.03.228-1.831.683-2.406.465-.583 1.076-.875 1.832-.875.757 0 1.367.292 1.832.875.465.584.698 1.386.698 2.407Zm-3.295 1.626c.182.329.437.493.765.493s.588-.169.78-.506c.2-.347.3-.884.3-1.614 0-.729-.1-1.262-.3-1.6-.192-.346-.452-.519-.78-.519s-.592.173-.793.52c-.191.337-.287.87-.287 1.6 0 .665.105 1.207.315 1.626Z" fill="#000"/><rect x="111" y="84" width="106" height="36" rx="5" fill="#fff"/><path d="M162.062 103.977c0 1.328-.502 2.376-1.504 3.144-1.003.768-2.233 1.152-3.692 1.152-1.771 0-3.216-.475-4.336-1.425-.416-.404-.423-.886-.019-1.446.508-.69 1.093-.768 1.758-.234.69.469 1.458.703 2.304.703.768 0 1.38-.176 1.836-.527.456-.365.684-.873.684-1.524 0-.612-.169-1.1-.508-1.465-.339-.364-.918-.618-1.738-.761a3.358 3.358 0 0 1-1.231-.371c-.403-.222-.605-.495-.605-.821 0-.325.182-.599.547-.82a2.561 2.561 0 0 1 1.152-.41c1.276-.3 1.914-.996 1.914-2.09 0-.573-.176-1.022-.527-1.348-.339-.325-.827-.494-1.465-.507a3.456 3.456 0 0 0-1.778.527c-.664.52-1.256.475-1.777-.137-.495-.586-.43-1.12.195-1.601a6.07 6.07 0 0 1 3.497-1.094c1.458 0 2.623.345 3.496 1.035.872.69 1.308 1.66 1.308 2.91 0 1.602-.827 2.728-2.48 3.379v.098c.885.247 1.601.683 2.148 1.308.547.625.821 1.4.821 2.325Z" fill="#C1272D"/><path d="M168.651 100.699c0 .957-.218 1.75-.656 2.379-.437.62-1.062.93-1.873.93-.756 0-1.367-.292-1.832-.875-.456-.593-.684-1.404-.684-2.434 0-1.02.228-1.818.684-2.392.465-.575 1.076-.862 1.832-.862.757 0 1.367.287 1.832.862.465.574.697 1.371.697 2.392Zm-3.281 1.641c.182.337.433.506.752.506s.579-.173.779-.52c.201-.355.301-.898.301-1.627 0-1.394-.36-2.092-1.08-2.092-.711 0-1.066.698-1.066 2.092 0 .72.104 1.267.314 1.641Zm7.588-4.197a1996.358 1996.358 0 0 0-5.086 9.693c-.128.237-.333.355-.615.355-.511 0-.652-.232-.424-.697l5.072-9.68a.646.646 0 0 1 .616-.369c.519 0 .665.233.437.698Zm3.227 6.753c0 .958-.219 1.746-.657 2.366-.437.62-1.062.929-1.873.929-.747 0-1.353-.291-1.818-.875-.465-.592-.697-1.399-.697-2.42 0-1.029.228-1.832.683-2.406.465-.583 1.076-.875 1.832-.875.757 0 1.367.292 1.832.875.465.584.698 1.386.698 2.406Zm-3.295 1.627c.182.329.437.493.765.493s.588-.169.78-.506c.2-.347.3-.884.3-1.614 0-.729-.1-1.262-.3-1.599-.192-.346-.452-.52-.78-.52s-.592.174-.793.52c-.191.337-.287.87-.287 1.599 0 .666.105 1.208.315 1.627Z" fill="#000"/><rect x="222" y="84" width="106" height="36" rx="5" fill="#fff"/><path d="M265.737 93.195h5.45c.807 0 1.21.41 1.21 1.23 0 .821-.403 1.231-1.21 1.231h-4.161l-.293 3.145c.612-.287 1.205-.43 1.778-.43 1.328 0 2.422.404 3.281 1.211.859.794 1.289 1.96 1.289 3.496 0 1.589-.508 2.852-1.523 3.789-1.003.938-2.22 1.406-3.653 1.406-1.679 0-3.118-.462-4.316-1.386-.456-.404-.482-.899-.078-1.485.508-.677 1.074-.748 1.699-.214a4.158 4.158 0 0 0 2.305.683c.794 0 1.425-.234 1.894-.703.482-.482.723-1.152.723-2.012 0-.846-.228-1.504-.684-1.972-.442-.469-1.048-.704-1.816-.704-.495 0-.97.105-1.426.313-.534.286-1.022.293-1.465.019-.442-.286-.651-.677-.625-1.171l.293-5.176c.026-.378.156-.684.391-.918.247-.234.56-.352.937-.352Z" fill="#C1272D"/><path d="M279.651 100.699c0 .957-.218 1.75-.656 2.379-.437.62-1.062.93-1.873.93-.756 0-1.367-.292-1.832-.875-.456-.593-.684-1.404-.684-2.434 0-1.02.228-1.818.684-2.392.465-.575 1.076-.862 1.832-.862.757 0 1.367.287 1.832.862.465.574.697 1.371.697 2.392Zm-3.281 1.641c.182.337.433.506.752.506s.579-.173.779-.52c.201-.355.301-.898.301-1.627 0-1.394-.36-2.092-1.08-2.092-.711 0-1.066.698-1.066 2.092 0 .72.104 1.267.314 1.641Zm7.588-4.197a1996.358 1996.358 0 0 0-5.086 9.693c-.128.237-.333.355-.615.355-.511 0-.652-.232-.424-.697l5.072-9.68a.646.646 0 0 1 .616-.369c.519 0 .665.233.437.698Zm3.227 6.753c0 .958-.219 1.746-.657 2.366-.437.62-1.062.929-1.873.929-.747 0-1.353-.291-1.818-.875-.465-.592-.697-1.399-.697-2.42 0-1.029.228-1.832.683-2.406.465-.583 1.076-.875 1.832-.875.757 0 1.367.292 1.832.875.465.584.698 1.386.698 2.406Zm-3.295 1.627c.182.329.437.493.765.493s.588-.169.78-.506c.2-.347.3-.884.3-1.614 0-.729-.1-1.262-.3-1.599-.192-.346-.452-.52-.78-.52s-.592.174-.793.52c-.191.337-.287.87-.287 1.599 0 .666.105 1.208.315 1.627Z" fill="#000"/><rect x="111" y="126" width="106" height="36" rx="5" fill="#fff"/><path d="M154.659 143.926h3.438v-3.028c0-.325.039-1.347.117-3.066h-.078a38.783 38.783 0 0 1-1.172 2.402l-2.305 3.692Zm3.438 2.226h-5c-.391 0-.703-.117-.938-.351-.234-.235-.351-.547-.351-.938v-.175c0-.365.091-.691.273-.977l4.785-7.773c.287-.495.723-.743 1.309-.743h1.367c.391 0 .703.124.937.371.235.235.352.547.352.938v7.422h.645c.742 0 1.113.371 1.113 1.113s-.371 1.113-1.113 1.113h-.645v2.481c0 .911-.449 1.367-1.348 1.367-.924 0-1.386-.456-1.386-1.367v-2.481Z" fill="#C1272D"/><path d="M168.651 142.699c0 .957-.218 1.75-.656 2.379-.437.62-1.062.93-1.873.93-.756 0-1.367-.292-1.832-.875-.456-.593-.684-1.404-.684-2.434 0-1.021.228-1.818.684-2.392.465-.575 1.076-.862 1.832-.862.757 0 1.367.287 1.832.862.465.574.697 1.371.697 2.392Zm-3.281 1.641c.182.337.433.506.752.506s.579-.173.779-.52c.201-.355.301-.898.301-1.627 0-1.394-.36-2.092-1.08-2.092-.711 0-1.066.698-1.066 2.092 0 .72.104 1.267.314 1.641Zm7.588-4.197a1977.19 1977.19 0 0 0-5.086 9.693c-.128.237-.333.355-.615.355-.511 0-.652-.232-.424-.697l5.072-9.68a.646.646 0 0 1 .616-.369c.519 0 .665.233.437.698Zm3.227 6.753c0 .958-.219 1.746-.657 2.366-.437.62-1.062.929-1.873.929-.747 0-1.353-.291-1.818-.875-.465-.592-.697-1.399-.697-2.42 0-1.029.228-1.832.683-2.406.465-.583 1.076-.875 1.832-.875.757 0 1.367.292 1.832.875.465.584.698 1.386.698 2.406Zm-3.295 1.627c.182.329.437.493.765.493s.588-.169.78-.506c.2-.347.3-.884.3-1.614 0-.729-.1-1.262-.3-1.599-.192-.346-.452-.52-.78-.52s-.592.174-.793.52c-.191.337-.287.87-.287 1.599 0 .666.105 1.208.315 1.627Z" fill="#000"/><rect x="222" y="126" width="106" height="36" rx="5" fill="#fff"/><path d="M265.845 150h-6.543c-.781 0-1.172-.397-1.172-1.191 0-.795.391-1.192 1.172-1.192h2.011v-9.355h-1.777c-.599 0-.898-.319-.898-.957 0-.261.084-.489.254-.684a1.23 1.23 0 0 1 .644-.391c.846-.221 1.55-.481 2.11-.781.286-.169.598-.254.937-.254h.645c.312 0 .559.091.742.274.182.182.273.429.273.742v11.406h1.602c.794 0 1.191.397 1.191 1.192 0 .794-.397 1.191-1.191 1.191Zm11.933-1.68c-.859 1.302-2.063 1.953-3.613 1.953-1.549 0-2.773-.664-3.672-1.992-.898-1.328-1.347-3.242-1.347-5.742s.442-4.394 1.328-5.684c.898-1.289 2.129-1.933 3.691-1.933 1.55 0 2.767.651 3.652 1.953.899 1.289 1.348 3.177 1.348 5.664 0 2.474-.462 4.401-1.387 5.781Zm-5.215-1.504c.365.782.899 1.172 1.602 1.172 1.484 0 2.227-1.816 2.227-5.449 0-3.555-.743-5.332-2.227-5.332-1.497 0-2.246 1.777-2.246 5.332 0 1.927.215 3.353.644 4.277Z" fill="#C1272D"/><path d="M285.54 142.699c0 .957-.219 1.75-.656 2.379-.438.62-1.062.93-1.873.93-.757 0-1.367-.292-1.832-.875-.456-.593-.684-1.404-.684-2.434 0-1.021.228-1.818.684-2.392.465-.575 1.075-.862 1.832-.862.756 0 1.367.287 1.832.862.465.574.697 1.371.697 2.392Zm-3.281 1.641c.182.337.433.506.752.506s.579-.173.779-.52c.201-.355.301-.898.301-1.627 0-1.394-.36-2.092-1.08-2.092-.711 0-1.067.698-1.067 2.092 0 .72.105 1.267.315 1.641Zm7.588-4.197a1894.106 1894.106 0 0 0-5.086 9.693c-.128.237-.333.355-.615.355-.511 0-.652-.232-.424-.697l5.072-9.68a.645.645 0 0 1 .615-.369c.52 0 .666.233.438.698Zm3.226 6.753c0 .958-.219 1.746-.656 2.366-.438.62-1.062.929-1.873.929-.747 0-1.354-.291-1.818-.875-.465-.592-.698-1.399-.698-2.42 0-1.029.228-1.832.684-2.406.465-.583 1.075-.875 1.832-.875.756 0 1.367.292 1.832.875.465.584.697 1.386.697 2.406Zm-3.295 1.627c.183.329.438.493.766.493s.588-.169.779-.506c.201-.347.301-.884.301-1.614 0-.729-.1-1.262-.301-1.599-.191-.346-.451-.52-.779-.52s-.593.174-.793.52c-.191.337-.287.87-.287 1.599 0 .666.105 1.208.314 1.627Z" fill="#000"/><rect width="106" height="36" rx="5" fill="#005BAB"/><path d="M26.105 14.24c0 1.211-.131 2.28-.395 3.208-.166.45-.444.518-.835.205-.313-.224-.405-.493-.278-.805.195-.664.307-1.529.337-2.593.02-.44.234-.64.644-.6.352.038.527.234.527.585Zm-6.957 4.38v3.882c0 .625-.123 1.06-.367 1.304-.244.254-.664.41-1.26.468-.595.02-.952-.19-1.069-.63-.088-.322-.058-.551.088-.688.146-.137.396-.2.747-.19h.088c.156 0 .234-.088.234-.264v-3.413l-.41.117c-.586.156-.942-.049-1.07-.615-.116-.567.084-.908.601-1.026a10.4 10.4 0 0 0 .44-.102 5.3 5.3 0 0 1 .44-.117v-2.564h-.616c-.547 0-.82-.273-.82-.82 0-.557.273-.835.82-.835h.615v-2.05c0-.509.26-.762.777-.762.508 0 .762.253.762.761v2.051h.175c.547 0 .82.278.82.835 0 .547-.273.82-.82.82h-.175v2.124l.204-.058c.547-.147.865.063.953.63.078.498-.113.82-.572.966l-.293.088c-.127.04-.224.069-.293.088Zm4.291-.015v4.937c0 .498-.253.747-.761.747s-.762-.249-.762-.747v-4.556c-.303.948-.62 1.739-.952 2.373-.137.235-.269.386-.396.454-.117.06-.234.044-.351-.043-.108-.088-.225-.254-.352-.498-.185-.372-.18-.708.015-1.011.693-1.172 1.23-2.534 1.611-4.087h-.205c-.547 0-.82-.278-.82-.835 0-.557.273-.835.82-.835h.63V12.54l-.322.059-.323.044h-.248a.569.569 0 0 1-.25-.044 1.294 1.294 0 0 1-.19-.162.847.847 0 0 1-.146-.263c-.167-.498.024-.791.57-.88a21.001 21.001 0 0 0 2.33-.629c.234-.078.42-.093.557-.044.146.049.297.171.454.366.449.537.341.913-.323 1.128-.058.01-.156.034-.293.074a3.107 3.107 0 0 1-.293.073v2.24h.293c.547 0 .82.28.82.836 0 .556-.273.835-.82.835h-.293v.41c.069.078.518.713 1.348 1.904.098.176.142.313.132.41 0 .088-.049.225-.146.41-.137.264-.264.435-.381.513-.108.069-.215.059-.323-.029-.107-.098-.22-.283-.337-.557a11.833 11.833 0 0 0-.293-.63Zm4.497-7.368v3.238c0 .605-.014 1.24-.043 1.904.02.156.043.371.073.644l.058.528c.245-1.25.415-2.349.513-3.296.04-.488.303-.689.791-.6.469.068.654.356.557.864a74.82 74.82 0 0 1-.528 2.65.746.746 0 0 1-.395.514c-.205.117-.444.146-.718.087l-.19-.043c.254 2.04.752 3.56 1.494 4.555.225.235.342.44.351.616.01.175-.088.39-.293.644-.224.273-.42.405-.586.395-.156 0-.346-.136-.57-.41-.528-.78-.938-1.787-1.231-3.017a10.836 10.836 0 0 1-1.348 3.003c-.42.586-.825.634-1.216.146-.322-.4-.303-.84.059-1.318a9.934 9.934 0 0 0 1.392-3.604c.234-1.308.351-2.73.351-4.262v-3.238c0-.488.25-.732.747-.732.488 0 .732.244.732.732Zm12.276 6.138h-1.538v.483h1.186c-.117-.088-.156-.141-.117-.16l.469-.323Zm-2.974-1.186h-1.377c-.156 0-.234.073-.234.22v.058c0 .107.054.16.161.16h1.45v-.438Zm0-1.143h-1.26c-.234 0-.351.117-.351.352v.087h1.611v-.44Zm1.436.44h1.567v-.264c0-.117-.058-.176-.176-.176h-1.391v.44Zm0 1.142h1.333c.156 0 .234-.078.234-.234v-.044c0-.108-.058-.162-.176-.162h-1.391v.44Zm-4.512 2.505h4.702v-.03c0-.117.083-.214.25-.293a1.23 1.23 0 0 1 .497-.117c.157 0 .313.04.47.117.165.079.248.176.248.294v.029h.44c.283 0 .278-.147-.015-.44l-.073-.073a596.35 596.35 0 0 1-6.328.19c-.137 0-.235-.034-.293-.102-.059-.068-.093-.18-.103-.337-.01-.176.01-.303.059-.38.058-.079.166-.118.322-.118h2.9v-.498h-1.963c-.293 0-.532-.088-.717-.264-.176-.185-.264-.425-.264-.717v-1.1c0-.292.088-.526.264-.702a.971.971 0 0 1 .717-.279h1.963v-.263c0-.127-.063-.19-.19-.19h-2.696c-.322 0-.483-.157-.483-.47 0-.322.161-.483.483-.483h2.886v-.03c0-.165.069-.292.205-.38a.902.902 0 0 1 .513-.146c.195 0 .361.048.498.146a.42.42 0 0 1 .22.38v.03h2.9c.313 0 .469.161.469.484 0 .312-.156.468-.469.468H39.04c-.244 0-.366.122-.366.367v.087h2.007c.293 0 .527.093.703.279.185.176.278.41.278.703v1.377c0 .215-.063.386-.19.513s-.298.19-.513.19h-.044c.244.195.483.405.718.63a.65.65 0 0 1 .19.527c-.02.195-.122.362-.307.498l-.161.103h.41c.322 0 .483.16.483.483 0 .313-.161.469-.483.469H40.68c-.235 0-.352.122-.352.366v.6c0 .294-.034.499-.102.616-.069.117-.21.205-.425.264-.283.078-.713.117-1.29.117-.35 0-.57-.112-.659-.337-.078-.186-.068-.322.03-.41.107-.088.273-.127.498-.117h.176a1.65 1.65 0 0 1 .117-.015c.127 0 .19-.059.19-.176v-.542c0-.244-.117-.366-.351-.366h-2.27c.322.322.58.615.776.879.068.098.078.21.029.337a.355.355 0 0 1-.25.234c-.497.235-.898.151-1.2-.249-.381-.488-.254-.889.38-1.201h-1.816c-.322 0-.483-.156-.483-.469 0-.322.16-.483.483-.483Zm8.057-6.987h-8.482c-.234 0-.351.117-.351.351v9.375c0 .244.117.366.351.366h8.482c.234 0 .351-.122.351-.366v-9.375c0-.234-.117-.351-.351-.351Zm-9.449-1.363h10.503c.293 0 .528.093.704.279.185.175.278.41.278.703v10.84c0 .293-.093.527-.278.703-.176.185-.41.278-.704.278H32.77a.971.971 0 0 1-.717-.278c-.176-.176-.264-.41-.264-.703v-10.84c0-.293.088-.528.264-.704a.972.972 0 0 1 .718-.278Zm15.528 4.307h2.915l-.528-.117c-.292-.069-.39-.23-.292-.484.185-.459.312-.879.38-1.26h-2.226c.137.264.254.591.351.982.098.459-.102.752-.6.879Zm.586 1.48h-1.92c-.487 0-.732-.245-.732-.733 0-.498.245-.747.733-.747h.63a5.865 5.865 0 0 0-.176-.864c-.078-.245-.073-.455.015-.63.088-.176.254-.288.498-.337l.117-.03h-.938c-.488 0-.732-.244-.732-.732 0-.478.244-.718.732-.718h1.773v-.512c0-.567.288-.85.864-.85.567 0 .85.283.85.85v.512h1.743c.478 0 .718.24.718.718 0 .488-.24.732-.718.732h-.806l.454.103c.264.049.342.205.235.469-.108.293-.288.722-.542 1.289h.761c.489 0 .733.249.733.747 0 .488-.244.732-.733.732h-1.845v1.158h1.699c.498 0 .747.249.747.747s-.25.747-.747.747h-1.7v.117c.274.185.801.59 1.583 1.216.205.176.307.341.307.498.01.146-.078.322-.263.527-.196.244-.381.371-.557.381-.166 0-.352-.117-.557-.352l-.249-.249c-.117-.127-.205-.22-.263-.278v2.344c0 .566-.283.85-.85.85-.576 0-.864-.284-.864-.85v-2.168c-.43.615-.86 1.137-1.29 1.567-.214.205-.404.303-.57.293-.167 0-.347-.107-.543-.322-.224-.254-.327-.474-.307-.66.02-.185.166-.385.44-.6a10.269 10.269 0 0 0 1.918-2.314h-1.509c-.498 0-.747-.25-.747-.747 0-.498.25-.747.747-.747h1.86v-1.158Zm6.401-1.334h3.809c.547 0 .82.274.82.82 0 .547-.273.821-.82.821h-.586v6.49c0 .566-.288.849-.864.849-.567 0-.85-.283-.85-.85v-6.489h-1.509c-.02 2.92-.58 5.161-1.684 6.724-.4.488-.791.503-1.172.044l-.03-.03c-.205-.146-.317-.327-.337-.542-.01-.215.074-.434.25-.659a6.504 6.504 0 0 0 1.054-2.593c.176-.947.264-1.997.264-3.15v-4.174c0-.322.097-.547.293-.674.195-.136.444-.156.747-.058 1.28-.313 2.344-.66 3.193-1.04.39-.186.767-.108 1.128.234.576.527.508.933-.205 1.216-1.084.38-2.25.698-3.5.952v2.11Zm9.507 2.857h6.284c.235 0 .352-.117.352-.352v-1.48c0-.234-.117-.35-.352-.35h-6.181c0 .712-.035 1.44-.103 2.182Zm.102-3.838h7.354c.293 0 .527.093.703.278.176.176.264.41.264.703v3.53c0 .294-.088.533-.264.718-.176.176-.41.264-.703.264h-7.705c-.254 1.406-.713 2.637-1.377 3.691-.225.293-.44.464-.644.513-.196.049-.435-.039-.718-.264-.469-.4-.479-.913-.03-1.538.88-1.484 1.319-3.588 1.319-6.313v-3.252c0-.332.097-.571.293-.718.205-.156.468-.19.79-.102l.118.029c2.676-.322 4.917-.762 6.724-1.318.224-.059.395-.064.512-.015.127.039.279.137.454.293.625.596.567.996-.175 1.201-1.885.508-4.19.923-6.915 1.245v1.055Zm18.194 4.438h-2.783l.117.03c.01 0 .014.005.014.014l-.307.542c.498-.01 1.66-.024 3.486-.044.215-.01.376.04.484.147.107.107.156.268.146.483-.01.41-.22.62-.63.63l-.747.015a5.191 5.191 0 0 1-.879 1.699c.352.186.767.41 1.245.674a6.774 6.774 0 0 0 2.622-2.49c-.341-.811-.64-1.783-.893-2.916a19.37 19.37 0 0 1-.308.557c-.078.127-.175.196-.293.205-.107.01-.195-.034-.263-.132a4.433 4.433 0 0 0-.25-.263 4.459 4.459 0 0 1-.248-.264v.6c0 .343-.171.513-.513.513Zm-3.94 2.315c.37.117.859.307 1.464.571a3.76 3.76 0 0 0 .66-1.025l-1.89.029-.235.425Zm.175-4.014H78.4c-.166 0-.249.083-.249.25v.116c0 .176.093.264.279.264h.893v-.63Zm1.509.63h.967c.185 0 .278-.088.278-.264v-.087c0-.186-.093-.279-.278-.279h-.967v.63Zm5.962.66c.332-1.104.566-2.305.703-3.604h-1.465l-.03.088c.206 1.357.47 2.529.792 3.515Zm-7.47-4.512h-.865v.336c0 .147.073.22.22.22h.644v-.556Zm-.865-1.07h.864v-.322c0-.147-.073-.22-.22-.22h-.292c-.235 0-.352.117-.352.352v.19Zm2.373 0h.938v-.322c0-.147-.074-.22-.22-.22h-.366c-.235 0-.352.117-.352.352v.19Zm.938 1.07h-.938v.556h.571c.244 0 .366-.117.366-.351v-.206Zm4.687-.748h2.651c.547 0 .82.289.82.865 0 .527-.248.79-.746.79h-.03c-.293 2.364-.776 4.273-1.45 5.728.44.762.923 1.382 1.45 1.86.303.225.474.445.513.66.049.205-.039.454-.264.747-.195.244-.4.366-.615.366-.205.01-.43-.088-.674-.293a7.776 7.776 0 0 1-1.406-1.67 9.986 9.986 0 0 1-1.626 1.655c-.283.196-.557.269-.82.22-.254-.049-.454-.21-.6-.483a4.686 4.686 0 0 1-.235-.352l-.557.542a.796.796 0 0 1-.498.235c-.195.029-.356-.005-.483-.103a36.985 36.985 0 0 0-1.055-.615c-.762.449-1.733.79-2.915 1.025-.566.108-.938-.03-1.113-.41-.244-.527.01-.835.761-.923a7.685 7.685 0 0 0 1.7-.44 6.445 6.445 0 0 1-.41-.16 4.908 4.908 0 0 0-.396-.162c-.068.137-.195.181-.38.132-.313-.068-.548-.19-.704-.366-.147-.186-.147-.395 0-.63.088-.127.22-.337.395-.63l-.952.015c-.44 0-.664-.215-.674-.645-.01-.234.03-.405.118-.512.088-.108.244-.161.469-.161.761 0 1.347-.005 1.757-.015.05-.078.113-.195.19-.352.079-.156.123-.239.133-.249h-1.143c-.293 0-.527-.088-.703-.263-.176-.176-.264-.41-.264-.703v-.835c0-.293.088-.528.264-.703.176-.176.41-.264.703-.264h1.655v-.469h-1.347c-.293 0-.533-.088-.718-.264-.176-.185-.264-.424-.264-.717v-.616h-.293c-.42 0-.63-.21-.63-.63 0-.42.21-.63.63-.63h.293v-.834c0-.225.069-.4.205-.528a.733.733 0 0 1 .542-.205h1.582v-.03c0-.468.25-.702.747-.702.508 0 .762.234.762.703v.03h1.494c.293 0 .528.087.703.263.176.176.264.41.264.703v.6h.337c.42 0 .63.21.63.63 0 .42-.21.63-.63.63h-.337v.85a.733.733 0 0 1-.205.542.733.733 0 0 1-.542.205h-1.714v.469h2.33c.292 0 .439.141.439.425v.044c.664-1.28 1.152-3.008 1.464-5.186.04-.283.142-.493.308-.63.166-.146.386-.2.66-.161.536.068.77.38.702.938-.058.439-.151.996-.278 1.67Z" fill="#fff"/><rect y="168" width="328" height="36" rx="5" fill="#FFB241"/><path d="M132.945 186.547h1.89c.244 0 .366-.122.366-.366v-1.875c0-.235-.122-.352-.366-.352h-1.89c-.234 0-.351.117-.351.352v1.875c0 .244.117.366.351.366Zm3.062 1.538h-4.102c-.293 0-.532-.088-.717-.264-.176-.175-.264-.41-.264-.703v-3.75c0-.293.088-.527.264-.703.185-.186.424-.278.717-.278h4.102c.293 0 .527.092.703.278.186.176.278.41.278.703v3.75c0 .293-.092.528-.278.703-.176.176-.41.264-.703.264Zm2.417-7.471h-8.57c-.234 0-.351.122-.351.366v8.497c0 .234.117.351.351.351h8.57v-9.214Zm-9.8-1.831h10.767c.293 0 .527.093.703.279.176.175.263.41.263.703v10.752c0 .293-.087.527-.263.703-.176.185-.41.278-.703.278h-10.767c-.293 0-.527-.093-.703-.278-.176-.176-.264-.41-.264-.703v-10.752c0-.293.088-.528.264-.703.176-.186.41-.279.703-.279Zm22.485 1.48h-.879c-.146 0-.219.073-.219.219v.147c0 .195.093.293.278.293h.82v-.659Zm1.582.659h.923c.176 0 .264-.088.264-.264v-.117c0-.186-.098-.278-.293-.278h-.894v.659Zm2.637 2.739h-6.811c-.391 0-.586-.2-.586-.6 0-.391.195-.586.586-.586h2.592v-.528h-1.582c-.293 0-.532-.088-.717-.263-.176-.186-.264-.425-.264-.718v-.747c0-.293.088-.528.264-.703a.967.967 0 0 1 .717-.279h1.582v-.161c0-.517.269-.776.806-.776.518 0 .776.259.776.776v.161h1.744c.293 0 .527.093.703.279.175.175.263.41.263.703v.747c0 .293-.088.532-.263.718-.176.175-.41.263-.703.263h-1.744v.528h2.637c.391 0 .586.195.586.586 0 .4-.195.6-.586.6Zm-1.684 4.585h-3.457v.337c0 .176.083.264.249.264h2.856c.234 0 .352-.122.352-.367v-.234Zm0-1.538h-3.457v.571h3.457v-.571Zm-.22-1.523h-2.886c-.234 0-.351.117-.351.351v.205h3.457v-.337c0-.146-.074-.219-.22-.219Zm-9.097-.777h1.846v-.322c0-.156-.078-.234-.235-.234h-1.611v.556Zm1.846 1.055h-1.846v.586h1.494c.235 0 .352-.117.352-.352v-.234Zm.278-4.526a9.964 9.964 0 0 0-1.113-1.29 9.105 9.105 0 0 1-.82 1.29h1.933Zm3.135 3.237h4.746c.293 0 .527.093.703.278.176.176.264.41.264.703v3.721c0 .293-.088.527-.264.703-.176.176-.41.264-.703.264h-.674c.723.449 1.333.854 1.831 1.216.244.205.352.38.323.527-.03.156-.186.322-.469.498-.362.205-.684.19-.967-.044a32.746 32.746 0 0 0-1.187-.952c-.263-.186-.4-.386-.41-.601-.009-.224.113-.429.367-.615l.029-.029h-2.901l.689.249c.185.058.293.146.322.263.029.108-.019.225-.146.352-.567.527-1.255.996-2.066 1.406-.205.088-.434.083-.688-.014a1.781 1.781 0 0 1-.659-.44.728.728 0 0 1-.205-.366c-.01-.107.048-.19.175-.249.01-.01.02-.015.03-.015h-3.399v.513c0 .479-.244.718-.732.718-.479 0-.718-.239-.718-.718v-8.789a4.098 4.098 0 0 0-.542-.586c-.166-.117-.249-.254-.249-.41 0-.166.083-.332.249-.498.615-.615 1.182-1.402 1.699-2.359a.938.938 0 0 1 .396-.41c.185-.117.39-.176.615-.176h.41c.332 0 .615.108.85.323a14.803 14.803 0 0 1 1.714 1.889c.195.303.151.62-.132.953-.41.449-.777.429-1.099-.059l-.015-.015v-.014.41c0 .224-.107.337-.322.337h-1.86c-.362 0-.542-.181-.542-.542v-.044c-.283.381-.64.771-1.07 1.172h3.648c.293 0 .527.088.703.263.186.176.278.41.278.703v2.52c0 .293-.092.532-.278.718-.176.176-.41.263-.703.263h-2.3v.586h2.608c.429 0 .644.215.644.645 0 .43-.215.644-.644.644h-2.608v.616h2.417c.293 0 .527.088.703.263.186.176.279.41.279.703v.381c.996-.381 1.723-.776 2.182-1.186h-.703a.595.595 0 0 1-.439-.161.594.594 0 0 1-.162-.44v-4.087c0-.293.088-.527.264-.703a.975.975 0 0 1 .718-.278Zm16.421-2.739v1.919h1.128v-1.919h-1.128Zm0 3.501v1.904h1.128v-1.904h-1.128Zm-4.043 1.904v-1.904h-1.069v1.904h1.069Zm2.578 0v-1.904h-1.113v1.904h1.113Zm-1.113-5.405v1.919h1.113v-1.919h-1.113Zm-1.465 1.919v-1.919h-1.069v1.919h1.069Zm7.72 5.083H158.36c-.527 0-.791-.264-.791-.791 0-.538.264-.806.791-.806h.982v-1.904h-1.201c-.537 0-.806-.264-.806-.791 0-.528.269-.791.806-.791h1.201v-1.084a.93.93 0 0 0-.132.117 1.167 1.167 0 0 1-.132.117c-.4.361-.81.376-1.23.044-.293-.244-.435-.469-.425-.674.01-.215.166-.439.469-.674a9.462 9.462 0 0 0 1.831-2.197c.244-.459.63-.615 1.157-.469.625.186.791.552.498 1.099l-.132.22h8.13c.518 0 .776.258.776.776 0 .537-.258.806-.776.806h-.615v1.919h1.128c.537 0 .805.263.805.791 0 .527-.268.791-.805.791h-1.128v1.904h.923c.527 0 .791.268.791.806 0 .527-.264.791-.791.791Zm-9.39 1.552a8.739 8.739 0 0 1-1.011 1.817c-.263.351-.61.439-1.04.263-.703-.283-.83-.698-.381-1.245.274-.429.498-.84.674-1.23.205-.557.591-.767 1.157-.63.577.137.777.478.601 1.025Zm1.45 1.245c0-.146-.015-.351-.044-.615a6.531 6.531 0 0 1-.044-.498c-.088-.557.156-.874.733-.952.527-.059.835.171.923.688.078.606.131 1.045.161 1.319.029.488-.22.766-.747.835-.625.088-.953-.171-.982-.777Zm3.179-.424-.088-.308a14.372 14.372 0 0 0-.088-.322c-.195-.586.02-.933.645-1.04.507-.078.839.107.996.556.166.508.302.957.41 1.348.068.283.049.493-.059.63-.107.146-.312.249-.615.307-.605.118-.962-.117-1.069-.703a1.87 1.87 0 0 0-.074-.263 1.53 1.53 0 0 0-.058-.205Zm3.882.732a31.537 31.537 0 0 0-.835-1.436c-.401-.585-.249-.986.454-1.201.459-.146.815-.034 1.069.337.264.381.615.938 1.055 1.67.137.293.166.523.088.689-.078.166-.279.302-.601.41-.596.195-1.006.039-1.23-.469Zm16.04.029H173.17c-.606 0-.908-.302-.908-.908 0-.596.302-.893.908-.893h4.409v-10.357c0-.625.317-.937.952-.937s.952.312.952.937v3.355h4.336c.596 0 .894.297.894.893 0 .615-.298.923-.894.923h-4.336v5.186h5.362c.605 0 .908.297.908.893 0 .606-.303.908-.908.908Zm5.302-4.072c.459 0 .689-.322.689-.967 0-.664-.195-1.318-.586-1.963-.342-.439-.454-.859-.337-1.259.176-.616.425-1.543.747-2.784h-.952c-.234 0-.352.122-.352.367v10.59c0 .547-.278.821-.835.821-.546 0-.82-.274-.82-.821v-11.572c0-.293.088-.527.264-.703.176-.176.41-.264.703-.264h2.9c.342 0 .586.108.733.323.146.214.171.522.073.922-.41 1.563-.771 2.73-1.084 3.501.752.899 1.128 1.919 1.128 3.062.01.82-.147 1.416-.469 1.787-.322.361-.859.542-1.611.542a.534.534 0 0 1-.337-.102.61.61 0 0 1-.176-.191 2.914 2.914 0 0 1-.073-.337 11.277 11.277 0 0 0-.059-.337c-.078-.195-.083-.346-.014-.454.078-.117.219-.171.425-.161h.043Zm8.086-4.365h-3.457v1.26h3.091c.244 0 .366-.118.366-.352v-.908Zm-3.457-1.45h3.457v-.821c0-.244-.122-.366-.366-.366h-2.724c-.245 0-.367.122-.367.366v.821Zm-.703-2.725h4.937c.293 0 .527.088.703.264.185.175.278.41.278.703v5.024a.975.975 0 0 1-.278.718c-.176.176-.41.264-.703.264h-1.612a10.3 10.3 0 0 0 .557 1.582c.332-.313.61-.596.835-.85.186-.225.366-.347.542-.366.186-.029.396.039.63.205.478.351.483.747.015 1.186-.274.254-.708.616-1.304 1.084a6.15 6.15 0 0 0 1.304 1.363c.351.215.561.429.629.644.069.205-.009.469-.234.791-.195.254-.395.391-.601.41-.205.03-.439-.048-.703-.234-1.523-1.123-2.592-3.061-3.208-5.815h-1.084v3.867a44.778 44.778 0 0 0 1.319-.235c.556-.107.859.123.908.689.049.478-.166.771-.645.879-.918.215-2.085.469-3.501.762-.263.058-.473.039-.629-.059-.147-.098-.264-.283-.352-.557-.205-.625.005-.986.63-1.084l.6-.088v-10.18c0-.293.088-.528.264-.703.176-.176.41-.264.703-.264Z" fill="#232323"/><rect x="111" width="106" height="36" rx="5" fill="#F15A24"/><path d="M158.712 17.375h-1.538v.483h1.186c-.117-.088-.156-.141-.117-.16l.469-.323Zm-2.974-1.186h-1.377c-.156 0-.234.073-.234.22v.058c0 .107.054.16.161.16h1.45v-.438Zm0-1.143h-1.259c-.235 0-.352.117-.352.352v.087h1.611v-.44Zm1.436.44h1.567v-.264c0-.117-.058-.176-.176-.176h-1.391v.44Zm0 1.142h1.333c.156 0 .234-.078.234-.234v-.044c0-.108-.058-.162-.176-.162h-1.391v.44Zm-4.512 2.505h4.702v-.03c0-.117.083-.214.249-.293a1.23 1.23 0 0 1 .498-.117c.157 0 .313.04.469.117.166.079.249.176.249.294v.029h.44c.283 0 .278-.147-.015-.44l-.073-.073a597.18 597.18 0 0 1-6.328.19c-.137 0-.235-.034-.293-.102-.059-.068-.093-.18-.103-.337-.01-.176.01-.303.059-.38.058-.079.166-.118.322-.118h2.9v-.498h-1.963c-.293 0-.532-.088-.717-.264-.176-.185-.264-.425-.264-.717v-1.1c0-.292.088-.526.264-.702a.967.967 0 0 1 .717-.279h1.963v-.263c0-.127-.063-.19-.19-.19h-2.695c-.323 0-.484-.157-.484-.47 0-.322.161-.483.484-.483h2.885v-.03c0-.165.069-.292.205-.38a.905.905 0 0 1 .513-.146c.195 0 .361.048.498.146.147.088.22.215.22.38v.03h2.9c.313 0 .469.161.469.484 0 .312-.156.468-.469.468h-2.534c-.244 0-.366.122-.366.367v.087h2.007c.293 0 .527.093.703.279.185.176.278.41.278.703v1.377c0 .215-.063.386-.19.513s-.298.19-.513.19h-.044c.244.195.483.405.718.63a.65.65 0 0 1 .19.527c-.019.195-.122.362-.307.498l-.162.103h.411c.322 0 .483.16.483.483 0 .313-.161.469-.483.469h-1.084c-.235 0-.352.122-.352.366v.6c0 .294-.034.499-.102.616-.069.117-.21.205-.425.264-.283.078-.713.117-1.289.117-.352 0-.572-.112-.659-.337-.079-.186-.069-.322.029-.41.107-.088.273-.127.498-.117h.176a1.6 1.6 0 0 1 .117-.015c.127 0 .19-.059.19-.176v-.542c0-.244-.117-.366-.351-.366h-2.271c.322.322.581.615.777.879.068.098.078.21.029.337a.354.354 0 0 1-.249.234c-.498.235-.899.151-1.201-.249-.381-.488-.254-.889.381-1.201h-1.817c-.322 0-.483-.156-.483-.469 0-.322.161-.483.483-.483Zm8.057-6.987h-8.482c-.234 0-.351.117-.351.351v9.375c0 .244.117.366.351.366h8.482c.234 0 .351-.122.351-.366v-9.375c0-.234-.117-.351-.351-.351Zm-9.448-1.363h10.502c.293 0 .528.093.704.279.185.175.278.41.278.703v10.84c0 .293-.093.527-.278.703-.176.185-.411.278-.704.278h-10.502a.973.973 0 0 1-.718-.278c-.176-.176-.264-.41-.264-.703v-10.84c0-.293.088-.528.264-.704a.973.973 0 0 1 .718-.278Zm17.622 2.344h5.639v-.967h-5.639c-.245 0-.367.117-.367.352v.263c0 .235.122.352.367.352Zm-1.172-2.373h7.719c.293 0 .528.093.704.278.185.176.278.41.278.703v1.802c0 .293-.093.527-.278.703-.176.176-.411.264-.704.264h-7.719c-.293 0-.533-.088-.718-.264-.176-.175-.264-.41-.264-.703v-1.802c0-.293.088-.527.264-.703a.973.973 0 0 1 .718-.278Zm7.397 9.082h-7.295v.38c0 .186.098.28.293.28h6.636c.244 0 .366-.123.366-.367v-.293Zm0-1.787h-7.295v.644h7.295v-.644Zm-.278-1.773h-6.651c-.244 0-.366.122-.366.367v.278h7.295v-.366c0-.186-.093-.279-.278-.279Zm-7.778-1.216h8.891c.293 0 .527.093.703.279.186.176.279.41.279.703v4.688a.97.97 0 0 1-.279.717c-.176.176-.41.264-.703.264h-1.362c.986.303 1.919.615 2.798.937.273.108.454.225.542.352.088.117.092.249.014.395-.068.147-.219.313-.454.499-.205.156-.381.249-.527.278-.137.039-.322.014-.557-.073A45.606 45.606 0 0 0 173.463 23c-.391-.117-.606-.283-.645-.498-.029-.215.122-.444.454-.688l.147-.103h-4.028l.615.425c.156.107.234.224.234.351 0 .118-.073.215-.219.293a19.369 19.369 0 0 1-3.501 1.363c-.391.107-.743.02-1.055-.264-.596-.567-.464-.957.395-1.172a16.12 16.12 0 0 0 2.52-.996h-1.318c-.293 0-.533-.088-.718-.264-.176-.185-.264-.424-.264-.717v-4.688c0-.293.088-.527.264-.703.185-.186.425-.279.718-.279Z" fill="#fff"/><rect x="222" width="106" height="36" rx="5" fill="#F15A24"/><path d="M269.712 17.375h-1.538v.483h1.186c-.117-.088-.156-.141-.117-.16l.469-.323Zm-2.974-1.186h-1.377c-.156 0-.234.073-.234.22v.058c0 .107.054.16.161.16h1.45v-.438Zm0-1.143h-1.259c-.235 0-.352.117-.352.352v.087h1.611v-.44Zm1.436.44h1.567v-.264c0-.117-.058-.176-.176-.176h-1.391v.44Zm0 1.142h1.333c.156 0 .234-.078.234-.234v-.044c0-.108-.058-.162-.176-.162h-1.391v.44Zm-4.512 2.505h4.702v-.03c0-.117.083-.214.249-.293a1.23 1.23 0 0 1 .498-.117c.157 0 .313.04.469.117.166.079.249.176.249.294v.029h.44c.283 0 .278-.147-.015-.44l-.073-.073a597.18 597.18 0 0 1-6.328.19c-.137 0-.235-.034-.293-.102-.059-.068-.093-.18-.103-.337-.01-.176.01-.303.059-.38.058-.079.166-.118.322-.118h2.9v-.498h-1.963c-.293 0-.532-.088-.717-.264-.176-.185-.264-.425-.264-.717v-1.1c0-.292.088-.526.264-.702a.967.967 0 0 1 .717-.279h1.963v-.263c0-.127-.063-.19-.19-.19h-2.695c-.323 0-.484-.157-.484-.47 0-.322.161-.483.484-.483h2.885v-.03c0-.165.069-.292.205-.38a.905.905 0 0 1 .513-.146c.195 0 .361.048.498.146.147.088.22.215.22.38v.03h2.9c.313 0 .469.161.469.484 0 .312-.156.468-.469.468h-2.534c-.244 0-.366.122-.366.367v.087h2.007c.293 0 .527.093.703.279.185.176.278.41.278.703v1.377c0 .215-.063.386-.19.513s-.298.19-.513.19h-.044c.244.195.483.405.718.63a.65.65 0 0 1 .19.527c-.019.195-.122.362-.307.498l-.162.103h.411c.322 0 .483.16.483.483 0 .313-.161.469-.483.469h-1.084c-.235 0-.352.122-.352.366v.6c0 .294-.034.499-.102.616-.069.117-.21.205-.425.264-.283.078-.713.117-1.289.117-.352 0-.572-.112-.659-.337-.079-.186-.069-.322.029-.41.107-.088.273-.127.498-.117h.176a1.6 1.6 0 0 1 .117-.015c.127 0 .19-.059.19-.176v-.542c0-.244-.117-.366-.351-.366h-2.271c.322.322.581.615.777.879.068.098.078.21.029.337a.354.354 0 0 1-.249.234c-.498.235-.899.151-1.201-.249-.381-.488-.254-.889.381-1.201h-1.817c-.322 0-.483-.156-.483-.469 0-.322.161-.483.483-.483Zm8.057-6.987h-8.482c-.234 0-.351.117-.351.351v9.375c0 .244.117.366.351.366h8.482c.234 0 .351-.122.351-.366v-9.375c0-.234-.117-.351-.351-.351Zm-9.448-1.363h10.502c.293 0 .528.093.704.279.185.175.278.41.278.703v10.84c0 .293-.093.527-.278.703-.176.185-.411.278-.704.278h-10.502a.973.973 0 0 1-.718-.278c-.176-.176-.264-.41-.264-.703v-10.84c0-.293.088-.528.264-.704a.973.973 0 0 1 .718-.278Zm26.044 13.052h-11.557c-.586 0-.879-.293-.879-.879 0-.576.293-.864.879-.864h4.775v-2.9h-3.369c-.566 0-.85-.289-.85-.865 0-.576.284-.864.85-.864h3.369V14.87h-4.145c-.586 0-.879-.288-.879-.864 0-.586.293-.879.879-.879h5.068a22.703 22.703 0 0 0-1.392-1.201c-.546-.42-.522-.84.074-1.26.371-.254.737-.259 1.098-.015.713.498 1.28.933 1.7 1.304.175.166.249.357.219.571-.019.215-.146.406-.381.572l-.029.029h3.838c.586 0 .879.293.879.879 0 .576-.293.864-.879.864h-4.102v2.593h3.399c.566 0 .849.288.849.864 0 .576-.283.864-.849.864h-3.399v2.9h4.834c.586 0 .879.289.879.865 0 .586-.293.879-.879.879Z" fill="#fff"/><rect y="42" width="106" height="36" rx="5" fill="#005BAB"/><path d="M32.082 65h-4.907c-.586 0-.88-.298-.88-.894 0-.595.294-.893.88-.893h1.509v-7.017H27.35c-.45 0-.674-.239-.674-.718 0-.195.063-.366.19-.512a.917.917 0 0 1 .484-.293c.634-.166 1.162-.361 1.582-.586.215-.127.449-.19.703-.19h.483c.235 0 .42.068.557.205.137.136.205.322.205.556v8.555h1.201c.596 0 .894.298.894.893 0 .596-.298.894-.894.894Zm8.95-1.26c-.644.977-1.548 1.465-2.71 1.465s-2.08-.498-2.754-1.494c-.673-.996-1.01-2.432-1.01-4.307 0-1.875.332-3.296.996-4.262.673-.967 1.596-1.45 2.768-1.45 1.162 0 2.075.488 2.74 1.464.673.967 1.01 2.383 1.01 4.248 0 1.856-.346 3.301-1.04 4.336Zm-3.91-1.128c.273.586.673.88 1.2.88 1.113 0 1.67-1.363 1.67-4.088 0-2.666-.556-3.999-1.67-3.999-1.123 0-1.684 1.333-1.684 4 0 1.445.16 2.514.483 3.207Zm9.652-1.128H44.24c-.517 0-.776-.263-.776-.79 0-.518.259-.777.776-.777h2.534c.528 0 .791.259.791.776 0 .528-.263.791-.79.791Zm3.956-1.04h2.578v-2.27c0-.244.029-1.01.087-2.3h-.058a28.615 28.615 0 0 1-.879 1.802l-1.728 2.768Zm2.578 1.67h-3.75c-.293 0-.528-.088-.703-.263-.176-.176-.264-.41-.264-.703v-.132c0-.274.068-.518.205-.733l3.589-5.83c.215-.371.542-.556.981-.556h1.026c.293 0 .527.092.703.278.175.176.263.41.263.703v5.566h.484c.556 0 .835.279.835.835 0 .557-.279.835-.835.835h-.484v1.86c0 .684-.336 1.026-1.01 1.026-.694 0-1.04-.342-1.04-1.025v-1.86Zm9.155-6.123c-.313-.42-.723-.63-1.23-.63-.43 0-.792.176-1.085.528-.283.351-.424.854-.424 1.508 0 .635.136 1.114.41 1.436.283.322.674.483 1.172.483.713 0 1.323-.395 1.83-1.186-.077-.967-.302-1.68-.673-2.139Zm1.42 7.779c-.741.957-1.728 1.435-2.958 1.435-.947 0-1.773-.259-2.476-.776-.38-.323-.39-.694-.03-1.114.411-.468.865-.517 1.363-.146.342.156.679.234 1.011.234.684 0 1.24-.293 1.67-.879.43-.595.664-1.547.703-2.856-.283.361-.64.654-1.07.879-.42.225-.824.337-1.215.337-.957 0-1.729-.293-2.315-.88-.576-.595-.864-1.464-.864-2.606 0-1.114.337-2.007 1.01-2.681.675-.684 1.505-1.026 2.491-1.026 1.133 0 2.08.464 2.842 1.392.762.928 1.142 2.3 1.142 4.116 0 1.973-.434 3.496-1.303 4.57Zm7.603-5.582c.391-1.357.625-3.003.703-4.936 0-.127.02-.23.059-.308a.89.89 0 0 1 .132-.19c.039-.04.122-.069.249-.088.137-.02.23-.03.278-.03h.381c.273 0 .493.074.66.22.165.147.243.352.234.616v.029c.02.488.063.991.132 1.509.068.517.21 1.191.424 2.021.215.83.484 1.617.806 2.359.332.732.796 1.499 1.392 2.3a10 10 0 0 0 2.08 2.036c.273.166.493.341.659.527.176.186.288.39.337.615.058.225-.015.445-.22.66-.39.42-.908.449-1.553.087-2.324-1.504-3.95-3.828-4.878-6.972-.859 2.949-2.368 5.239-4.526 6.87-.645.44-1.182.454-1.611.044-.557-.538-.406-1.09.454-1.656 1.806-1.377 3.076-3.28 3.808-5.713Z" fill="#fff"/><rect y="84" width="106" height="36" rx="5" fill="#005BAB"/><path d="M27.585 95.897h4.087c.605 0 .908.307.908.922 0 .616-.303.923-.908.923h-3.12l-.22 2.359c.459-.215.903-.323 1.333-.323.996 0 1.816.303 2.461.909.645.595.967 1.469.967 2.622 0 1.191-.381 2.138-1.143 2.841-.752.704-1.665 1.055-2.74 1.055-1.259 0-2.338-.347-3.236-1.04-.342-.303-.362-.674-.059-1.113.38-.508.806-.562 1.274-.161a3.12 3.12 0 0 0 1.729.512c.596 0 1.07-.175 1.42-.527.362-.361.543-.864.543-1.509 0-.635-.171-1.128-.513-1.479-.332-.352-.786-.528-1.362-.528-.371 0-.728.078-1.07.235-.4.215-.766.219-1.098.014-.332-.214-.488-.507-.469-.879l.22-3.881c.02-.284.117-.513.293-.689a.982.982 0 0 1 .703-.263Zm13.447 9.843c-.644.977-1.548 1.465-2.71 1.465s-2.08-.498-2.754-1.494c-.673-.996-1.01-2.432-1.01-4.307 0-1.875.332-3.296.996-4.262.673-.967 1.596-1.45 2.768-1.45 1.162 0 2.075.488 2.74 1.464.673.967 1.01 2.383 1.01 4.248 0 1.856-.346 3.301-1.04 4.336Zm-3.91-1.128c.273.586.673.879 1.2.879 1.113 0 1.67-1.362 1.67-4.087 0-2.666-.556-3.999-1.67-3.999-1.123 0-1.684 1.333-1.684 3.999 0 1.446.16 2.515.483 3.208Zm9.652-1.128H44.24c-.517 0-.776-.263-.776-.791 0-.517.259-.776.776-.776h2.534c.528 0 .791.259.791.776 0 .528-.263.791-.79.791Zm6.856-5.493c-.313-.42-.723-.63-1.23-.63-.43 0-.792.176-1.085.528-.283.351-.424.854-.424 1.508 0 .635.136 1.114.41 1.436.283.322.674.483 1.172.483.712 0 1.323-.395 1.83-1.186-.077-.967-.302-1.68-.673-2.139Zm1.42 7.779c-.741.957-1.728 1.435-2.958 1.435-.947 0-1.773-.259-2.476-.776-.38-.323-.39-.694-.03-1.114.411-.468.865-.517 1.363-.146.342.156.679.234 1.011.234.684 0 1.24-.293 1.67-.879.43-.595.664-1.547.703-2.856a3.26 3.26 0 0 1-1.07.879c-.42.224-.825.337-1.215.337-.957 0-1.729-.293-2.315-.879-.576-.596-.864-1.465-.864-2.608 0-1.113.337-2.006 1.01-2.68.675-.684 1.505-1.026 2.491-1.026 1.133 0 2.08.464 2.842 1.392.762.928 1.142 2.3 1.142 4.116 0 1.973-.434 3.496-1.303 4.571Zm7.413-7.779c-.313-.42-.723-.63-1.23-.63-.43 0-.792.176-1.085.528-.283.351-.424.854-.424 1.508 0 .635.136 1.114.41 1.436.283.322.674.483 1.172.483.713 0 1.323-.395 1.83-1.186-.077-.967-.302-1.68-.673-2.139Zm1.42 7.779c-.741.957-1.728 1.435-2.958 1.435-.947 0-1.773-.259-2.476-.776-.38-.323-.39-.694-.03-1.114.411-.468.865-.517 1.363-.146.342.156.679.234 1.011.234.684 0 1.24-.293 1.67-.879.43-.595.664-1.547.703-2.856a3.26 3.26 0 0 1-1.07.879c-.42.224-.824.337-1.215.337-.957 0-1.729-.293-2.315-.879-.576-.596-.864-1.465-.864-2.608 0-1.113.337-2.006 1.01-2.68.675-.684 1.505-1.026 2.491-1.026 1.133 0 2.08.464 2.842 1.392.762.928 1.142 2.3 1.142 4.116 0 1.973-.434 3.496-1.303 4.571Zm7.603-5.582c.391-1.357.625-3.002.703-4.936 0-.127.02-.23.059-.308a.89.89 0 0 1 .132-.19c.039-.04.122-.069.249-.088.137-.02.23-.03.278-.03h.381c.273 0 .493.074.66.22.165.147.243.352.234.616v.029c.02.488.063.991.132 1.509.068.517.21 1.191.424 2.021.215.83.484 1.616.806 2.359.332.732.796 1.499 1.392 2.299.605.791 1.298 1.47 2.08 2.037.273.166.493.341.659.527.176.185.288.391.337.615.058.225-.015.444-.22.659-.39.42-.908.45-1.553.088-2.324-1.504-3.95-3.828-4.878-6.972-.859 2.949-2.368 5.239-4.526 6.87-.645.439-1.182.454-1.611.044-.557-.537-.406-1.089.454-1.656 1.806-1.377 3.076-3.281 3.808-5.713Z" fill="#fff"/><rect y="126" width="106" height="36" rx="5" fill="#005BAB"/><path d="M24.267 149H19.36c-.586 0-.879-.298-.879-.894 0-.595.293-.893.879-.893h1.509v-7.017h-1.333c-.45 0-.674-.239-.674-.717 0-.196.063-.367.19-.513a.916.916 0 0 1 .484-.293c.634-.166 1.162-.361 1.582-.586.215-.127.449-.191.703-.191h.483c.235 0 .42.069.557.206.137.136.205.322.205.556v8.555h1.201c.596 0 .894.298.894.893 0 .596-.298.894-.894.894Zm8.95-1.26c-.644.977-1.548 1.465-2.71 1.465s-2.08-.498-2.754-1.494c-.673-.996-1.01-2.432-1.01-4.307 0-1.875.332-3.296.996-4.262.674-.967 1.596-1.451 2.768-1.451 1.162 0 2.076.489 2.74 1.465.673.967 1.01 2.383 1.01 4.248 0 1.856-.346 3.301-1.04 4.336Zm-3.91-1.128c.273.586.673.879 1.2.879 1.114 0 1.67-1.362 1.67-4.087 0-2.666-.556-3.999-1.67-3.999-1.123 0-1.684 1.333-1.684 3.999 0 1.446.16 2.515.483 3.208Zm12.743 1.128c-.644.977-1.548 1.465-2.71 1.465s-2.08-.498-2.754-1.494c-.673-.996-1.01-2.432-1.01-4.307 0-1.875.332-3.296.996-4.262.674-.967 1.596-1.451 2.768-1.451 1.162 0 2.075.489 2.74 1.465.673.967 1.01 2.383 1.01 4.248 0 1.856-.346 3.301-1.04 4.336Zm-3.91-1.128c.273.586.673.879 1.2.879 1.114 0 1.67-1.362 1.67-4.087 0-2.666-.556-3.999-1.67-3.999-1.123 0-1.684 1.333-1.684 3.999 0 1.446.16 2.515.483 3.208Zm11.161-4.424c.39-1.357.625-3.002.703-4.936 0-.127.02-.23.059-.308a.88.88 0 0 1 .132-.19c.039-.039.122-.068.249-.088.137-.02.23-.029.278-.029h.381c.273 0 .493.073.66.219.165.147.243.352.234.616v.029c.02.488.063.991.131 1.509.069.517.21 1.191.425 2.021.215.83.484 1.616.806 2.359.332.732.796 1.499 1.392 2.299.605.791 1.298 1.47 2.08 2.037.273.166.493.341.659.527.175.185.288.391.337.615.058.225-.015.444-.22.659-.39.42-.908.45-1.553.088-2.324-1.504-3.95-3.828-4.878-6.972-.86 2.949-2.368 5.239-4.526 6.87-.645.439-1.182.454-1.611.044-.557-.537-.406-1.089.454-1.656 1.806-1.377 3.076-3.281 3.808-5.713Zm16.055-1.42c-.088-.166-.327-.533-.718-1.099-.4-.537-.288-.957.337-1.26.46-.224.845-.146 1.157.235.537.664 1.04 1.425 1.51 2.285.126.283.155.512.087.688-.068.176-.244.337-.527.484-.625.341-1.075.195-1.348-.44-.166-.312-.332-.61-.498-.893Zm-4.277.82-.103-3.472c-.01-.595.283-.908.879-.937.615-.03.928.259.938.864l.248 7.207c.147-.059.367-.151.66-.278.293-.127.517-.22.673-.279.616-.244.997-.044 1.143.601.117.527-.063.894-.542 1.099-.644.293-2.065.908-4.263 1.845-.322.127-.57.142-.747.044-.175-.097-.317-.317-.425-.659-.195-.625-.01-1.03.557-1.216.41-.156.786-.303 1.128-.439l-.146-4.38Zm7.002 3.003c.869-1.592 1.445-3.692 1.728-6.299.04-.342.147-.61.322-.806.186-.195.435-.278.747-.249.323.03.552.157.689.381.146.225.2.508.161.85-.332 2.666-.893 4.829-1.684 6.489 1.367 1.426 2.329 2.51 2.885 3.252.156.264.215.479.176.645-.04.166-.176.361-.41.585-.313.303-.571.459-.776.469-.196.01-.41-.151-.645-.483-.547-.752-1.29-1.67-2.227-2.754-.888 1.299-2.085 2.363-3.588 3.193-.616.293-1.114.23-1.495-.19-.547-.615-.361-1.138.557-1.568a8.406 8.406 0 0 0 3.56-3.515Zm19.013 4.98H75.42c-.605 0-.908-.302-.908-.908 0-.596.303-.893.908-.893h4.41v-10.357c0-.625.317-.937.952-.937.634 0 .952.312.952.937v3.355h4.336c.596 0 .893.297.893.893 0 .615-.297.923-.893.923h-4.336v5.186h5.361c.606 0 .908.297.908.893 0 .606-.302.908-.908.908Z" fill="#fff"/></svg>