<svg width="183" height="130" fill="none" xmlns="http://www.w3.org/2000/svg"><mask id="a" style="mask-type:luminance" maskUnits="userSpaceOnUse" x="0" y="0" width="183" height="130"><path d="M175.78.99H6.9A6.67 6.67 0 0 0 .23 7.66v114.99a6.67 6.67 0 0 0 6.67 6.67h168.88a6.67 6.67 0 0 0 6.67-6.67V7.66a6.67 6.67 0 0 0-6.67-6.67Z" fill="#fff"/></mask><g mask="url(#a)"><path d="M198.76.99H-16.56v128.33h215.32V.99Z" fill="#fff"/><path d="M198.76.99H-16.56v10.77h215.32V.99Z" fill="#E6E6E6"/><path d="M11.73 6.38c0 1.62-1.29 2.95-2.88 2.95-1.59 0-2.88-1.32-2.88-2.95 0-1.63 1.29-2.95 2.88-2.95 1.59 0 2.88 1.32 2.88 2.95Zm9.99 0c0 1.62-1.29 2.95-2.88 2.95-1.59 0-2.88-1.32-2.88-2.95 0-1.63 1.29-2.95 2.88-2.95 1.59 0 2.88 1.32 2.88 2.95Zm9.98 0c0 1.62-1.29 2.95-2.88 2.95-1.59 0-2.88-1.32-2.88-2.95 0-1.63 1.29-2.95 2.88-2.95 1.59 0 2.88 1.32 2.88 2.95Zm72.23 111.15H78.96v4.99h24.97v-4.99Zm6.63-7.99h-31.6v4.99h31.6v-4.99Zm51.68 7.99h-35.66v4.99h35.66v-4.99Zm-4.06-7.99h-31.6v4.99h31.6v-4.99Zm-96.21 7.99H30.15v4.99h31.82v-4.99Zm-11.02-7.99h-20.8v4.99h20.8v-4.99Z" fill="#CCCBC9"/><path d="M120.91 48.57c0 5.17-1.32 10.04-3.63 14.27-5.08 9.26-14.89 15.53-26.18 15.53s-21.13-6.28-26.18-15.54a29.564 29.564 0 0 1-3.64-14.26c0-16.47 13.35-29.82 29.82-29.82s29.8 13.35 29.8 29.82h.01Z" fill="#FFE365"/><path d="M91.1 52.04c6.053 0 10.96-4.907 10.96-10.96 0-6.053-4.907-10.96-10.96-10.96-6.053 0-10.96 4.907-10.96 10.96 0 6.053 4.907 10.96 10.96 10.96Zm26.18 10.8c-5.08 9.26-14.89 15.53-26.18 15.53s-21.13-6.28-26.18-15.54c6.9-3.98 14.03-6.78 26.18-6.78 14.47 0 19.29 2.8 26.18 6.79Z" fill="#F15A24"/><path d="M54.5 94.24c0 2.11-.54 4.09-1.48 5.81-2.07 3.77-6.07 6.33-10.66 6.33s-8.61-2.56-10.66-6.33a11.97 11.97 0 0 1-1.48-5.81c0-6.71 5.44-12.14 12.15-12.14s12.14 5.44 12.14 12.14h-.01Z" fill="#B2E0FD"/><path d="M46.83 91.19c0-2.46-2-4.46-4.46-4.46s-4.46 2-4.46 4.46 2 4.46 4.46 4.46 4.46-2 4.46-4.46Zm6.2 8.86c-2.07 3.77-6.07 6.33-10.66 6.33s-8.61-2.56-10.66-6.33c2.81-1.62 5.72-2.76 10.66-2.76 5.89 0 7.86 1.14 10.66 2.77v-.01Z" fill="#2459A5"/><path d="M103.24 94.24c0 2.11-.54 4.09-1.48 5.81-2.07 3.77-6.06 6.33-10.66 6.33-4.6 0-8.61-2.56-10.66-6.33a11.97 11.97 0 0 1-1.48-5.81c0-6.71 5.44-12.14 12.15-12.14s12.14 5.44 12.14 12.14h-.01Z" fill="#B2E0FD"/><path d="M91.1 95.65a4.46 4.46 0 1 0 0-8.92 4.46 4.46 0 0 0 0 8.92Zm10.66 4.4c-2.07 3.77-6.06 6.33-10.66 6.33-4.6 0-8.61-2.56-10.66-6.33 2.81-1.62 5.72-2.76 10.66-2.76 5.89 0 7.86 1.14 10.66 2.77v-.01Z" fill="#2459A5"/><path d="M151.98 94.24c0 2.11-.54 4.09-1.48 5.81-2.07 3.77-6.07 6.33-10.66 6.33s-8.61-2.56-10.66-6.33a11.97 11.97 0 0 1-1.48-5.81c0-6.71 5.44-12.14 12.14-12.14s12.14 5.44 12.14 12.14Z" fill="#B2E0FD"/><path d="M139.84 95.65a4.46 4.46 0 1 0 0-8.92 4.46 4.46 0 0 0 0 8.92Zm10.66 4.4c-2.07 3.77-6.07 6.33-10.66 6.33s-8.61-2.56-10.66-6.33c2.81-1.62 5.72-2.76 10.66-2.76 5.89 0 7.86 1.14 10.66 2.77v-.01Z" fill="#2459A5"/></g></svg>