<svg width="276" height="170" fill="none" xmlns="http://www.w3.org/2000/svg"><path d="M177 .9h-38.86c-8.328 0-15.08 6.751-15.08 15.08 0 8.328 6.752 15.08 15.08 15.08H177c8.329 0 15.08-6.752 15.08-15.08C192.08 7.65 185.329.9 177 .9Z" fill="#F15A24"/><path d="M138.49 6.43h15.74c.44 0 .79.14 1.06.41.27.27.41.62.41 1.06v16.25c0 .44-.14.79-.41 1.06-.27.27-.63.41-1.06.41h-15.74c-.44 0-.79-.13-1.07-.41-.28-.28-.41-.62-.41-1.06V7.9c0-.44.14-.79.41-1.06.27-.27.63-.41 1.07-.41Zm14.16 2.04h-12.71c-.35 0-.53.17-.53.53v14.05c0 .37.18.55.53.55h12.71c.35 0 .53-.18.53-.55V9c0-.35-.17-.53-.53-.53Zm-12.08 10.47h7.05v-.04c0-.18.13-.32.38-.44.26-.12.5-.18.74-.18s.47.06.71.18.36.26.36.44v.04h.66c.42 0 .42-.22-.02-.66-.06-.06-.1-.09-.11-.11-2.39.09-5.55.18-9.48.29-.21 0-.35-.05-.44-.15-.09-.1-.14-.27-.15-.5-.01-.26.02-.45.1-.57.08-.12.24-.18.47-.18h4.35v-.75h-2.94c-.44 0-.79-.14-1.06-.41-.27-.27-.41-.63-.41-1.07v-1.65c0-.44.13-.79.41-1.06.27-.27.63-.41 1.06-.41h2.94v-.4c0-.19-.1-.29-.29-.29h-4.04c-.48 0-.72-.23-.72-.7s.24-.72.72-.72h4.33v-.04c0-.25.11-.44.32-.58.21-.14.46-.21.76-.21s.55.07.76.21c.21.14.32.33.32.58v.04h4.35c.47 0 .7.24.7.72s-.23.7-.7.7h-3.8c-.37 0-.55.18-.55.55v.13h3.01c.44 0 .79.14 1.07.41.27.27.41.63.41 1.06v2.06c0 .32-.09.58-.29.77-.2.19-.45.29-.77.29h-.07c.37.29.72.61 1.08.94.22.23.31.5.29.79-.02.29-.18.54-.46.75l-.24.15h.62c.48 0 .72.24.72.72s-.24.7-.72.7h-1.62c-.35 0-.53.18-.53.55v.9c0 .44-.05.75-.15.92-.1.17-.31.31-.64.4-.42.12-1.07.18-1.93.18-.53 0-.86-.17-.99-.5-.12-.28-.1-.48.05-.62.15-.13.4-.19.74-.18.07 0 .16 0 .26-.01.1 0 .16-.01.18-.01.19 0 .29-.09.29-.26v-.81c0-.37-.17-.55-.53-.55h-3.4c.48.48.87.92 1.16 1.32.1.15.12.31.05.49a.57.57 0 0 1-.38.36c-.75.35-1.35.23-1.8-.37-.57-.73-.38-1.33.57-1.8h-2.72c-.48 0-.72-.23-.72-.7s.24-.72.72-.72l-.04.01Zm4.61-6.13h-1.89c-.35 0-.53.18-.53.53v.13h2.42v-.66Zm0 1.71h-2.06c-.23 0-.35.11-.35.33v.09c0 .16.08.24.24.24h2.17v-.66Zm2.15-1.05h2.35v-.4c0-.18-.09-.26-.26-.26h-2.09v.66Zm0 1.71h2c.23 0 .35-.12.35-.35v-.07c0-.16-.09-.24-.26-.24h-2.09v.66Zm2.31 1.12h-2.31v.72h1.78c-.18-.13-.23-.21-.18-.24l.7-.48h.01Zm27.89 9.69h-17.32c-.88 0-1.32-.44-1.32-1.32 0-.88.44-1.3 1.32-1.3h7.16v-4.35h-5.05c-.85 0-1.27-.43-1.27-1.3 0-.87.42-1.29 1.27-1.29h5.05v-3.89h-6.21c-.88 0-1.32-.43-1.32-1.29 0-.86.44-1.32 1.32-1.32h7.6c-.57-.54-1.27-1.14-2.08-1.8-.82-.63-.78-1.26.11-1.89.56-.38 1.11-.39 1.65-.02 1.07.75 1.92 1.4 2.55 1.95.26.25.38.54.34.86-.04.32-.23.61-.58.86l-.04.04h5.75c.88 0 1.32.44 1.32 1.32 0 .88-.44 1.29-1.32 1.29h-6.15v3.89h5.09c.85 0 1.27.43 1.27 1.29 0 .86-.42 1.3-1.27 1.3h-5.09v4.35h7.25c.88 0 1.32.43 1.32 1.3 0 .87-.44 1.32-1.32 1.32h-.03Z" fill="#fff"/><path d="M260.1.9h-38.86c-8.329 0-15.08 6.751-15.08 15.08 0 8.328 6.751 15.08 15.08 15.08h38.86c8.328 0 15.08-6.752 15.08-15.08C275.18 7.65 268.428.9 260.1.9Z" fill="#2459A5"/><path d="M221.59 6.43h15.74c.44 0 .79.14 1.06.41.27.27.41.62.41 1.06v16.25c0 .44-.14.79-.41 1.06-.27.27-.63.41-1.06.41h-15.74c-.44 0-.79-.13-1.07-.41-.28-.28-.41-.62-.41-1.06V7.9c0-.44.14-.79.41-1.06.27-.27.63-.41 1.07-.41Zm14.16 2.04h-12.71c-.35 0-.53.17-.53.53v14.05c0 .37.18.55.53.55h12.71c.35 0 .53-.18.53-.55V9c0-.35-.17-.53-.53-.53Zm-12.08 10.47h7.05v-.04c0-.18.13-.32.38-.44.26-.12.5-.18.74-.18s.47.06.71.18.36.26.36.44v.04h.66c.42 0 .42-.22-.02-.66-.06-.06-.1-.09-.11-.11-2.39.09-5.55.18-9.48.29-.21 0-.35-.05-.44-.15-.09-.1-.14-.27-.15-.5-.01-.26.02-.45.1-.57.08-.12.24-.18.47-.18h4.35v-.75h-2.94c-.44 0-.79-.14-1.06-.41-.27-.27-.41-.63-.41-1.07v-1.65c0-.44.13-.79.41-1.06.27-.27.63-.41 1.06-.41h2.94v-.4c0-.19-.1-.29-.29-.29h-4.04c-.48 0-.72-.23-.72-.7s.24-.72.72-.72h4.33v-.04c0-.25.11-.44.32-.58.21-.14.46-.21.76-.21s.55.07.76.21c.21.14.32.33.32.58v.04h4.35c.47 0 .7.24.7.72s-.23.7-.7.7H231c-.37 0-.55.18-.55.55v.13h3.01c.44 0 .79.14 1.07.41.27.27.41.63.41 1.06v2.06c0 .32-.09.58-.29.77-.2.19-.45.29-.77.29h-.07c.37.29.72.61 1.08.94.22.23.31.5.29.79-.02.29-.18.54-.46.75l-.24.15h.62c.48 0 .72.24.72.72s-.24.7-.72.7h-1.62c-.35 0-.53.18-.53.55v.9c0 .44-.05.75-.15.92-.1.17-.31.31-.64.4-.42.12-1.07.18-1.93.18-.53 0-.86-.17-.99-.5-.12-.28-.1-.48.05-.62.15-.13.4-.19.74-.18.07 0 .16 0 .26-.01.1 0 .16-.01.18-.01.19 0 .29-.09.29-.26v-.81c0-.37-.17-.55-.53-.55h-3.4c.48.48.87.92 1.16 1.32.1.15.12.31.05.49a.57.57 0 0 1-.38.36c-.75.35-1.35.23-1.8-.37-.57-.73-.38-1.33.57-1.8h-2.72c-.48 0-.72-.23-.72-.7s.24-.72.72-.72l-.04.01Zm4.61-6.13h-1.89c-.35 0-.53.18-.53.53v.13h2.42v-.66Zm0 1.71h-2.06c-.23 0-.35.11-.35.33v.09c0 .16.08.24.24.24h2.17v-.66Zm2.15-1.05h2.35v-.4c0-.18-.09-.26-.26-.26h-2.09v.66Zm0 1.71h2c.23 0 .35-.12.35-.35v-.07c0-.16-.09-.24-.26-.24h-2.09v.66Zm2.31 1.12h-2.31v.72h1.78c-.18-.13-.23-.21-.18-.24l.7-.48h.01Zm12.52-3.46h13.33c.44 0 .79.13 1.06.41.27.28.41.62.41 1.06v7.03c0 .44-.14.79-.41 1.07-.27.27-.63.41-1.06.41h-2.04c1.48.45 2.88.92 4.19 1.4.41.16.68.33.81.52s.14.38.03.6c-.11.22-.34.47-.69.75-.31.23-.57.38-.78.43-.21.05-.49.01-.85-.12-1.14-.48-2.61-1.03-4.41-1.65-.59-.18-.9-.42-.96-.75-.05-.32.17-.67.67-1.03l.22-.15h-6.04l.92.64c.23.16.35.33.35.52s-.11.33-.33.45c-1.57.8-3.32 1.49-5.25 2.04-.59.16-1.11.03-1.58-.4-.89-.85-.7-1.43.59-1.76 1.42-.44 2.68-.94 3.78-1.49h-1.98c-.44 0-.79-.14-1.07-.41-.27-.27-.41-.63-.41-1.07v-7.03c0-.44.14-.79.41-1.06.27-.27.63-.41 1.07-.41h.02Zm.99-6.46h11.57c.44 0 .79.14 1.06.41.27.27.41.62.41 1.06v2.7c0 .44-.14.79-.41 1.05-.27.26-.63.39-1.06.39h-11.57c-.44 0-.79-.13-1.06-.39s-.41-.62-.41-1.05v-2.7c0-.44.14-.79.41-1.06.27-.27.63-.41 1.06-.41Zm10.67 8.28h-9.97c-.37 0-.55.18-.55.55v.42h10.93v-.55c0-.28-.14-.42-.42-.42h.01Zm.42 2.66h-10.93v.97h10.93v-.97Zm0 2.68h-10.93v.57c0 .28.15.42.44.42h9.95c.37 0 .55-.18.55-.55V20h-.01Zm-9.33-10.06h8.45V8.49h-8.45c-.37 0-.55.18-.55.53v.39c0 .35.18.53.55.53Z" fill="#fff"/><path d="M202.53 6.63c-1.62 6.56-3.3 13.24-5.03 20.04-.15.6-.53.9-1.14.9-.83 0-1.16-.41-.97-1.23l5.03-20.05c.15-.6.53-.9 1.14-.9.83 0 1.16.41.97 1.23v.01ZM34.14 49.35H30.5c-.03 1.11-.06 1.95-.09 2.5h4.35v1.03c-.09 3.5-.19 5.94-.31 7.33-.12 1.39-.32 2.28-.61 2.68-.28.41-.59.67-.94.79s-.89.2-1.62.24c-.83-.03-1.29-.4-1.38-1.1 0-.03 0-.07-.02-.11-.02-.04-.03-.08-.04-.11-.15-.34-.15-.6-.01-.79.14-.19.41-.28.82-.26H31c.28.02.49-.09.64-.31.29-.41.49-2.74.59-6.98H30.3c-.32 3.67-1.08 6.56-2.28 8.65-.31.44-.59.67-.86.7-.26.03-.58-.14-.97-.5-.34-.34-.52-.64-.56-.92-.04-.28.08-.61.34-1.01.78-1.36 1.29-2.97 1.55-4.84.26-1.87.41-4.2.45-6.99h-1.05c-.83 0-1.25-.42-1.25-1.25 0-.83.42-1.25 1.25-1.25h2.42v-2.48c0-.86.44-1.3 1.32-1.3.88 0 1.32.43 1.32 1.3v2.48h2.2c.85 0 1.27.42 1.27 1.25 0 .83-.42 1.25-1.27 1.25h-.04Zm1.14.57c1.38-1.38 2.51-3.32 3.4-5.84.1-.34.3-.6.58-.8.28-.2.61-.3.98-.3h.18c.79 0 1.33.38 1.6 1.14 1.05 2.52 2.21 4.38 3.47 5.58.41.31.64.62.7.92.06.31-.02.7-.24 1.16-.26.51-.55.79-.86.83-.31.04-.68-.14-1.12-.55-1.51-1.61-2.7-3.62-3.58-6.02-.88 2.46-2.07 4.48-3.58 6.06-.82.75-1.46.64-1.91-.31-.34-.75-.21-1.38.37-1.89l.01.02Zm1.95 10.54c1.29-.53 3.43-1.5 6.43-2.92.91-.42 1.49-.17 1.76.77.22.75-.02 1.3-.72 1.67-2.27 1.21-4.33 2.28-6.19 3.21-.85.4-1.48.14-1.89-.77-.23-.48-.31-.88-.23-1.2.08-.31.36-.57.84-.76Zm3.1-4.74c-.61-.61-1.25-1.19-1.91-1.73-.73-.53-.75-1.11-.07-1.76.5-.47 1.02-.52 1.58-.15 1.02.76 1.83 1.43 2.42 2.02.48.51.44 1.05-.13 1.62-.67.67-1.3.67-1.89 0Zm10.78-2.55c-.21-.12-.52-.3-.96-.55-.44-.25-.76-.44-1-.57-.73-.4-.83-.96-.31-1.69.41-.58.92-.73 1.54-.44.69.34 1.43.72 2.24 1.14.38.22.59.46.64.74.04.27-.07.59-.33.96-.26.4-.53.63-.81.69-.28.07-.61-.03-1.01-.27v-.01Zm-2.06 7.79c1.2-1.89 2.14-3.46 2.83-4.72.5-.91 1.12-1.01 1.87-.31.51.5.62 1.06.31 1.69a119.29 119.29 0 0 1-2.68 4.87c-.53.85-1.19.96-1.98.33-.37-.31-.58-.6-.64-.87-.06-.27.04-.6.29-1v.01Zm3.05-13.94c-.53-.34-1.16-.71-1.89-1.12-.76-.41-.86-.98-.29-1.71.42-.57.94-.71 1.56-.42.37.19 1.1.58 2.2 1.19.38.23.58.49.61.76.03.27-.09.59-.37.96-.54.72-1.15.83-1.82.35v-.01Zm13.99 16.09h-8.67c-.44 0-.79-.13-1.07-.4s-.41-.62-.41-1.05v-5.25c0-.44.14-.79.41-1.07.27-.27.63-.41 1.07-.41h3.07V52.1h-4.63c-.85 0-1.27-.42-1.27-1.27 0-.85.42-1.27 1.27-1.27h4.63v-2.63c-1.05.15-2.12.28-3.21.4-.4.03-.71-.02-.94-.15-.23-.13-.41-.38-.53-.75-.26-.85.12-1.33 1.14-1.45 3.34-.39 6.02-.94 8.06-1.65.37-.1.65-.12.86-.04.21.08.45.26.72.55.88.89.75 1.52-.39 1.89-.94.26-2 .51-3.18.75v3.1h4.37c.85 0 1.27.42 1.27 1.27 0 .85-.42 1.27-1.27 1.27h-4.37v2.83h3.07c.44 0 .79.14 1.07.41.27.27.41.63.41 1.07v5.25c0 .44-.13.79-.41 1.05-.27.26-.63.4-1.07.4v-.02Zm-7.2-2.42h5.62c.35 0 .53-.18.53-.55v-2.22c0-.37-.18-.55-.53-.55h-5.62c-.37 0-.55.18-.55.55v2.22c0 .37.18.55.55.55Zm27.35-12.6h3.45c.37 0 .63.15.8.45.17.3.25.86.23 1.68-.1 4.42-.23 7.5-.37 9.24-.15 1.74-.39 2.85-.72 3.31-.35.5-.73.82-1.13.96-.4.14-1.04.23-1.92.27-.47-.01-.85-.13-1.15-.36-.3-.23-.49-.54-.56-.93 0-.01 0-.03-.01-.04 0-.01-.01-.03-.01-.04-.16-.38-.16-.67 0-.87.16-.2.48-.28.97-.25.21.02.46.02.77.02.34 0 .59-.12.77-.37.42-.57.7-3.75.81-9.53.01-.42-.02-.71-.11-.86-.09-.15-.23-.22-.42-.22h-1.45c-.15 2.93-.51 5.41-1.1 7.45-.58 2.04-1.54 3.76-2.88 5.17-.32.31-.67.45-1.05.42-.38-.03-.72-.23-1.01-.59a6.19 6.19 0 0 0-.57-.59c-4.65.47-7.29.73-7.9.79-.35.03-.61-.03-.77-.19-.16-.15-.26-.42-.31-.8-.06-.4-.02-.7.11-.9.13-.21.39-.31.77-.33.03 0 1.19-.08 3.49-.24v-1.36h-2.99c-.63 0-.94-.31-.94-.94 0-.63.31-.94.94-.94h2.99v-.88h-2.39c-.44 0-.79-.13-1.05-.4-.26-.26-.39-.61-.39-1.05v-4.04c0-.44.13-.79.39-1.05s.62-.39 1.05-.39h2.39v-.88h-3.42c-.64 0-.97-.32-.97-.97 0-.65.32-.97.97-.97h3.42v-.9c-1.33.09-2.3.14-2.9.15-.6.01-.98-.25-1.14-.79-.21-.72.1-1.1.92-1.14 2.87-.19 5.41-.48 7.62-.88.29-.06.53-.04.7.07.18.1.34.29.51.57.47.79.27 1.27-.59 1.45-1.01.16-1.92.29-2.72.37v1.1h3.12c.37 0 .65.1.86.31.21.21.31.49.31.86v.07h2.09c.01-.72.02-1.85.02-3.4 0-.86.42-1.29 1.27-1.29.85 0 1.27.43 1.27 1.29 0 .86-.01 1.97-.04 3.4l-.03-.02Zm-11.29 3.27h-1.41c-.23 0-.35.12-.35.35v.64h1.76v-.99Zm0 2.57h-1.76v.59c0 .28.14.42.42.42h1.34v-1.01Zm6.67-5.14h-4.28v.88h2.48c.44 0 .79.13 1.07.39.27.26.41.62.41 1.05v4.04c0 .44-.14.79-.41 1.05-.27.26-.63.4-1.07.4h-2.48v.88h3.1c.63 0 .94.32.94.94 0 .62-.31.94-.94.94h-3.1v1.14c.92-.06 2.21-.16 3.86-.31.82-1.16 1.41-2.51 1.77-4.06.36-1.55.58-3.42.67-5.6h-1.08c-.63 0-.94-.31-.94-.94v-.81.01Zm-2.96 2.57h-1.32v.99h1.73v-.57c0-.28-.14-.42-.42-.42h.01Zm-1.32 3.58h1.38c.23 0 .35-.12.35-.35v-.66h-1.73v1.01Zm25.32 3.76h-8.58c-.78 0-1.16-.39-1.16-1.16 0-.77.39-1.16 1.16-1.16h.83v-8.34h-.57c-.78 0-1.16-.39-1.16-1.16 0-.77.39-1.16 1.16-1.16h.57v-1.21c0-.79.39-1.19 1.19-1.19.8 0 1.21.39 1.21 1.19v1.21h2.75v-1.19c0-.8.4-1.21 1.21-1.21.81 0 1.21.4 1.21 1.21v1.19h.35c.79 0 1.19.39 1.19 1.16 0 .77-.39 1.16-1.19 1.16h-.35v8.34h.2c.79 0 1.19.39 1.19 1.16 0 .77-.4 1.16-1.19 1.16h-.02Zm-5.18 2.13c-.44.76-1.03 1.57-1.78 2.42-.57.57-1.16.62-1.78.15-.44-.34-.66-.66-.65-.96 0-.3.22-.64.63-1.02.5-.56.9-1.07 1.21-1.54.34-.69.89-.92 1.67-.68.89.26 1.13.8.7 1.62v.01Zm-.18-11.5h2.75v-1.3H97.3v1.3Zm2.75 2.06H97.3v1.41h2.75v-1.41Zm0 3.45H97.3v1.54h2.75v-1.54Zm6.15-10.8h5.33c.44 0 .79.13 1.05.39s.4.62.4 1.05v15.59c0 .67-.08 1.2-.23 1.58-.15.38-.42.67-.8.88-.45.25-1.14.4-2.06.44-1 .03-1.6-.31-1.8-1.01-.16-.54-.1-.92.19-1.15.29-.23.74-.33 1.37-.32h.33c.31 0 .46-.15.46-.46v-4.44h-3.4c-.23 2.59-.69 4.66-1.36 6.21-.15.29-.35.48-.6.56-.26.08-.53.07-.81-.02-.29-.1-.58-.25-.87-.45-.29-.21-.37-.42-.24-.66 0-.01 0-.02.01-.02 0 0 .01 0 .01-.02l-.99.57c-.26.13-.51.17-.75.12a.86.86 0 0 1-.55-.38c-.15-.25-.51-.78-1.1-1.58-.57-.72-.47-1.28.31-1.69.58-.32 1.08-.24 1.47.24.64.75 1.15 1.39 1.51 1.93.18.25.33.23.46-.07.8-2.04 1.21-5.05 1.21-9.05v-6.81c0-.44.13-.79.39-1.05s.62-.39 1.05-.39l.01.01Zm1.01 9.18c0 .44 0 .78-.02 1.01h3.25v-2.77h-3.23v1.76Zm0-4.13h3.23v-2.08c0-.37-.18-.55-.55-.55h-2.13c-.37 0-.55.18-.55.55v2.08Zm10.71-5.19h5.6c.44 0 .79.13 1.05.39s.4.62.4 1.05v5.2c0 .44-.13.79-.4 1.05-.26.26-.61.4-1.05.4h-4.43v10.74c0 .86-.44 1.3-1.32 1.3-.88 0-1.32-.43-1.32-1.3V45.34c0-.44.13-.79.41-1.05.27-.26.63-.39 1.06-.39Zm1.16 3.12h3.4v-.68c0-.34-.17-.5-.51-.5h-2.37c-.35 0-.53.18-.53.53v.66l.01-.01Zm3.4 1.8h-3.4v1.27h2.88c.35 0 .53-.18.53-.53v-.75l-.01.01Zm5.49-4.92h5.82c.44 0 .79.13 1.05.39s.4.62.4 1.05v15.52c0 .75-.09 1.33-.26 1.74-.18.41-.48.72-.92.92-.5.25-1.29.41-2.37.48-1.13.01-1.79-.39-2-1.23-.16-.5-.26-.78-.29-.83h-6.45c-.44 0-.79-.13-1.07-.41-.27-.27-.41-.63-.41-1.06V54.8c0-.44.14-.79.41-1.05.27-.26.63-.39 1.07-.39h5.64c.44 0 .79.13 1.06.39s.41.62.41 1.05v6.52c1 .03 1.65.03 1.98 0 .35 0 .53-.16.53-.48v-8.8h-4.59c-.44 0-.79-.13-1.05-.4s-.4-.62-.4-1.05v-5.25c0-.44.13-.79.4-1.05.26-.26.62-.39 1.05-.39h-.01Zm-4.08 12.78h3.67v-.81c0-.35-.18-.53-.55-.53h-2.57c-.37 0-.55.18-.55.53v.81Zm3.67 1.91h-3.67v.86c0 .37.18.55.55.55h3.12v-1.41Zm1.47-11.57h3.54v-.68c0-.34-.17-.5-.5-.5h-2.48c-.37 0-.55.18-.55.53v.66l-.01-.01Zm3.54 1.8h-3.54v.79c0 .35.18.53.55.53h2.99v-1.32Zm20.7.99h-12.69c-.88 0-1.32-.43-1.32-1.29 0-.86.44-1.32 1.32-1.32h6.3v-2.79c0-.89.45-1.34 1.34-1.34.89 0 1.34.45 1.34 1.34v2.79h6.26c.56 0 .92.15 1.09.45.17.3.12.72-.14 1.26a34.817 34.817 0 0 1-4.37 6.21c-1.7 1.93-3.49 3.62-5.38 5.05 1.41.57 3.39.86 5.95.86h3.86c.66-.01 1.1.1 1.32.34.22.24.23.66.02 1.24-.13.38-.32.65-.57.8-.25.15-.59.23-1.03.23h-3.78c-2.46 0-4.51-.27-6.16-.81-1.65-.54-3-1.53-4.07-2.96-.66 1.29-1.17 2.25-1.54 2.88-.51.85-1.19 1.01-2.02.48-.48-.29-.76-.6-.82-.92-.07-.32.07-.7.41-1.14.97-1.41 1.86-3.09 2.68-5.05.32-.86.92-1.13 1.78-.81.91.32 1.16.93.77 1.82 0 .01-.01.05-.04.11.23.45.55.91.94 1.36 1.58-1.14 3.14-2.51 4.68-4.09 1.54-1.59 2.83-3.15 3.89-4.69l-.02-.01Zm26.28 4.96h-17.56c-.97 0-1.45-.48-1.45-1.45s.48-1.45 1.45-1.45h17.56c.97 0 1.45.48 1.45 1.45s-.48 1.45-1.45 1.45Zm12.07-.46v7.36c0 1.01-.26 1.67-.79 1.98-.31.16-.67.27-1.08.34-.41.07-.81.04-1.19-.09-.38-.12-.62-.37-.72-.74-.12-.44-.08-.75.12-.93.2-.18.54-.27 1.02-.25h.18c.22 0 .33-.12.33-.37v-7.05l-3.16.33c-.06 3.51-.5 6.23-1.34 8.15-.18.35-.37.56-.58.61-.21.05-.49-.02-.82-.24-.31-.21-.49-.43-.56-.67-.07-.24-.01-.53.17-.87.64-1.51 1-3.75 1.05-6.72-.44.04-.77 0-1-.13-.23-.13-.36-.4-.41-.79-.09-.73.23-1.13.97-1.19l.44-.04v-5.47c0-.44.13-.79.41-1.05.27-.26.62-.4 1.06-.4h.57c.16-.66.29-1.21.37-1.65.07-.5.23-.84.47-1.02.24-.18.61-.24 1.11-.17.98.16 1.28.76.9 1.8-.06.13-.14.32-.24.57-.1.25-.17.4-.2.46h1.54c.42 0 .76.12 1.01.37s.37.58.37 1.01v4.81h.04c.57-.06.87.23.9.86.03.73-.27 1.13-.9 1.19h-.04Zm-5.29-5.62v4.11c.45-.04 1.51-.15 3.16-.31v-3.8c0-.37-.18-.55-.55-.55h-2.09c-.35 0-.53.18-.53.55h.01Zm1.01 2.44c-.09-.26-.22-.61-.4-1.05-.26-.54-.12-.91.44-1.12.47-.19.82-.08 1.05.33.28.53.49 1.02.64 1.49.09.45-.1.78-.57.97-.63.25-1.02.04-1.16-.62Zm-.29 8.43v-3.65c0-.48.26-.72.77-.72s.75.24.75.72v3.65c0 .5-.25.75-.75.75s-.77-.25-.77-.75Zm14.47-9.95c.16 0 .27-.04.33-.11s.1-.23.13-.46c0-.01 0-.05.01-.1 0-.05.01-.09.01-.12.04-1.1.47-1.43 1.27-1.01.45.22.65.69.59 1.4-.07.66-.17 1.15-.29 1.46-.12.32-.34.55-.68.71-.31.18-.71.26-1.21.26h-1.14c-.66 0-1.16-.19-1.51-.57-.32-.34-.48-1.08-.48-2.24V46.7c0-.37-.18-.55-.55-.55h-1.27c-.37 0-.55.18-.55.55v.13c0 2.36-.58 4.11-1.73 5.27-.29.28-.26.42.09.42h6.61c.51 0 .87.16 1.09.48.21.32.25.79.1 1.41-.63 2.21-1.57 4.03-2.81 5.47.76.54 1.6 1 2.53 1.36.63.19 1.02.43 1.19.71.16.29.07.68-.26 1.2-.4.58-1 .75-1.8.48-1.3-.53-2.45-1.21-3.45-2.04-.88.72-1.98 1.38-3.29 1.98-.8.32-1.4.16-1.8-.48-.54-.85-.27-1.47.81-1.87.92-.39 1.76-.88 2.52-1.47-.56-.73-1.11-1.7-1.67-2.9-.19-.48-.2-.89-.03-1.22.17-.33.49-.55.96-.67l.53-.11h-1.56c-.78 0-1.16-.44-1.16-1.32 0-.31.08-.55.23-.74.15-.18.38-.27.67-.27h.04c-.26-.28-.58-.56-.97-.83-.6-.44-.59-.97.02-1.6.56-.79.83-1.9.83-3.32v-1.54c0-.42.12-.76.37-1.01s.58-.37 1.01-.37h4.24c.44 0 .79.13 1.05.39s.39.62.39 1.05v3.51c0 .07 0 .16-.01.27 0 .11-.01.19-.01.23 0 .04 0 .09.02.14.01.05.04.09.08.11.04.02.08.03.14.03h.37v.03Zm-1.91 5.25h-3.25c-.35 0-.46.18-.33.53.44 1.04.98 1.96 1.62 2.77.79-.89 1.44-1.99 1.95-3.29l.01-.01Zm8.7-2.09c-.26-.16-.87-.51-1.82-1.05-.82-.37-.95-.94-.39-1.71.37-.57.86-.72 1.49-.46.83.37 1.64.78 2.42 1.25.32.23.5.48.53.72.03.24-.07.54-.31.88-.54.81-1.18.93-1.91.37h-.01Zm-1.62 8.17c1.07-1.73 1.96-3.29 2.68-4.68.47-.88 1.08-.99 1.84-.33.56.48.69 1.04.4 1.67-.62 1.26-1.46 2.88-2.55 4.85-.53.85-1.18.97-1.95.37-.73-.56-.87-1.19-.42-1.89v.01Zm2.24-17.43c.83.34 1.62.76 2.35 1.27.34.25.52.5.56.77.04.26-.07.56-.32.9-.31.42-.6.67-.88.72-.28.06-.62-.06-1.03-.35-.57-.4-1.15-.75-1.73-1.08-.88-.41-1.03-1-.46-1.78.39-.56.9-.71 1.51-.46v.01Zm12.8 16.07h-5.97v3.16c0 .86-.43 1.3-1.3 1.3-.87 0-1.32-.43-1.32-1.3V49.81c-.28-.22-.61-.45-.99-.7-.26-.15-.41-.34-.44-.58-.03-.24.05-.46.24-.67.59-.75 1.15-1.6 1.69-2.57.32-.72.89-.95 1.71-.7.94.28 1.16.86.68 1.73-.69 1.19-1.39 2.21-2.11 3.07h3.42v-5.01c0-.89.45-1.34 1.34-1.34.89 0 1.36.45 1.36 1.34v5.01h3.67c-.37-.82-1.06-1.87-2.09-3.16-.6-.69-.5-1.28.29-1.78.62-.35 1.16-.27 1.62.24.83.94 1.51 1.81 2.02 2.61.16.28.19.58.09.91-.1.33-.32.6-.66.82l-.68.46v11.68c0 .67-.07 1.19-.22 1.56-.15.37-.42.64-.81.83-.53.23-1.27.37-2.24.42-1 .03-1.6-.31-1.8-1.01-.16-.53-.1-.9.17-1.13.28-.23.72-.33 1.34-.3h.53c.29-.01.44-.15.44-.42v-1.56l.02.02Zm-5.97-6.1h5.97V51.9h-5.97v1.58Zm5.97 2.24h-5.97v1.62h5.97v-1.62Zm9.66-5.21c-.06.12-.18.18-.37.18-.56-.04-1-.19-1.34-.43-.34-.24-.42-.57-.26-.98.03-.09.11-.33.24-.71.13-.38.23-.69.31-.91.1-.35.3-.63.58-.84.29-.21.61-.32.98-.32h3.01v-.51c0-.26-.12-.39-.37-.39h-3.89c-.53 0-.79-.26-.79-.77s.26-.79.79-.79h4.26V44c0-.29.12-.52.35-.68.23-.16.52-.24.86-.24.34 0 .62.08.86.24.23.16.35.39.35.68v.04h2.44V44c0-.29.13-.52.38-.68.25-.16.55-.24.89-.24.34 0 .63.08.88.24.25.16.37.39.37.68v.04h3.25c.44 0 .79.13 1.06.39s.41.62.41 1.05v1.1c0 .44-.14.79-.41 1.06-.27.27-.63.41-1.06.41h-3.25v.88h4.7c1 0 1.42.7 1.27 2.11-.1.64-.26 1.07-.46 1.27-.32.32-.76.5-1.32.53-.03 0-.07 0-.11.01-.04 0-.07.01-.09.01-.07 0-.11.03-.11.09v6.21c0 .44-.13.79-.4 1.05s-.61.4-1.05.4h-1.91c1.41.44 2.72.91 3.95 1.41.48.19.79.38.91.56.12.18.09.36-.09.54-.18.18-.52.37-1.02.59-.32.13-.56.2-.72.22-.16.01-.4-.04-.7-.15-1.11-.51-2.24-.98-3.38-1.41-.41-.15-.7-.31-.86-.5-.16-.19-.2-.39-.11-.59.09-.2.3-.41.64-.61l.07-.04h-5.95l.97.44c.25.1.38.23.38.4 0 .16-.09.29-.3.4-1.41.75-3.18 1.42-5.34 2.02-.58.16-1.09.03-1.51-.4-.86-.86-.62-1.42.72-1.67 1.41-.31 2.69-.7 3.86-1.19h-1.58c-.44 0-.79-.13-1.05-.38-.26-.26-.4-.6-.4-1.04v-5.25c-.42.13-.83.17-1.21.12-.38-.05-.68-.26-.9-.63-.25-.42-.23-.78.05-1.05s.71-.47 1.28-.57c1.45-.31 2.5-.74 3.16-1.29h-1.93l.01-.03Zm2.99-1.58c.09-.26.13-.56.13-.88h-2.24l-.33.88h2.44Zm-.86 5.47h9.57v-.88h-9.57v.88Zm0 2.33h9.57v-.9h-9.57v.9Zm9.57 1.45h-9.57v.53c0 .26.12.39.37.39h8.67c.35 0 .53-.18.53-.55v-.37Zm-7.75-6.19h4.04v-1.47h-2.94c-.25.56-.61 1.05-1.1 1.47Zm1.58-3.51c0 .06 0 .14-.02.24-.01.1-.02.18-.02.22h2.5v-.88h-2.44s0 .11-.01.21c0 .1-.01.17-.01.21Zm2.09-2.88h-1.62c-.29 0-.44.15-.44.46v.07c0 .25.12.37.37.37h2.06v-.51c0-.26-.12-.39-.37-.39Zm2.9.9h1.87c.29 0 .44-.15.44-.44v-.07c0-.26-.12-.39-.37-.39h-1.38c-.37 0-.55.18-.55.55v.35h-.01Zm3.29 4.02h-3.29v1.47h1.93l-.13-.46c-.03-.09-.03-.15.01-.2.04-.05.12-.06.25-.04.51.03.79.04.83.04.32 0 .53-.16.62-.48.04-.22-.03-.33-.22-.33ZM67.46 86.4h12.6c.6 0 .95.15 1.05.44.1.29-.07.72-.53 1.27-.89.82-2.17 1.54-3.82 2.17h6.32c.76 0 1.14.38 1.14 1.14 0 .76-.38 1.14-1.14 1.14h-7.53v1.62c0 .66-.1 1.15-.31 1.48-.21.33-.58.57-1.12.71-.6.16-1.65.26-3.16.29-.85 0-1.39-.28-1.62-.83-.19-.48-.15-.83.11-1.03.26-.2.69-.29 1.27-.26h1.47c.22-.01.37-.05.45-.12.08-.07.12-.18.12-.34v-1.51h-7.42c-.76 0-1.14-.38-1.14-1.14 0-.76.38-1.14 1.14-1.14h7.42v-.53c0-.28.14-.42.42-.42h.83c.56-.18 1.28-.46 2.17-.86h-8.74c-.69 0-1.03-.35-1.03-1.05 0-.7.34-1.03 1.03-1.03h.02Zm15.3-6.85h-17.1c-.75 0-1.12-.37-1.12-1.12 0-.75.37-1.14 1.12-1.14h7.09V77c0-.91.46-1.36 1.38-1.36.92 0 1.36.45 1.36 1.36v.29h7.27c.75 0 1.12.38 1.12 1.14 0 .76-.37 1.12-1.12 1.12Zm-14.21 1.01h11.48c.44 0 .79.13 1.06.4.27.26.41.61.41 1.05v2.04c0 .44-.14.79-.41 1.05-.27.26-.63.39-1.06.39H68.55c-.44 0-.79-.13-1.06-.39s-.41-.62-.41-1.05v-2.04c0-.44.14-.79.41-1.05.27-.26.63-.4 1.06-.4Zm9.59 1.82h-7.86c-.37 0-.55.18-.55.53v.22c0 .35.18.53.55.53h7.86c.37 0 .55-.18.55-.53v-.22c0-.35-.18-.53-.55-.53Zm9.12 4.36h13.26c.54 0 .81.26.81.79s-.27.79-.81.79h-6.85v5.76c0 .27.13.37.38.28.68-.25 1.34-.62 1.99-1.09-.37-.44-.71-.94-1.02-1.5-.15-.31-.18-.58-.08-.81.1-.24.31-.39.63-.47l.05-.02h-.77c-.5 0-.76-.26-.76-.77s.25-.76.76-.76h4.76c.37 0 .64.12.79.35.15.24.17.58.05 1.03-.41 1.17-.98 2.17-1.71 2.98.56.35 1.1.63 1.63.84.88.26 1.08.72.59 1.37-.3.42-.72.53-1.28.33-.87-.34-1.62-.77-2.27-1.28-.52.4-1.14.78-1.88 1.15-.3.12-.58.14-.85.06-.27-.08-.48-.25-.63-.5-.13-.19-.25-.35-.36-.49v.43c0 .62-.32.94-.96.94-.64 0-.96-.31-.96-.94v-.43c-.33.03-1.04.1-2.13.21-1.09.1-1.9.18-2.41.22-.27.02-.47-.03-.6-.16s-.2-.34-.22-.63c-.05-.58.2-.89.76-.92.13-.01.34-.03.63-.05v-5.12h-.51c-.54 0-.81-.26-.81-.79s.27-.79.81-.79l-.03-.01Zm2.26-5.81h8.78c.33 0 .6.1.8.3.2.2.3.47.3.8v2.98c0 .33-.1.6-.3.8-.2.2-.47.3-.8.3h-8.78c-.33 0-.6-.1-.8-.3-.2-.2-.3-.47-.3-.8v-2.98c0-.33.1-.59.3-.8.2-.2.47-.3.8-.3ZM89.6 89h2.16v-.68H89.6V89Zm2.16 1.4H89.6v.71h2.16v-.71Zm-2.16 2.91c.24-.02.6-.05 1.09-.08.49-.03.84-.06 1.07-.08v-.66H89.6v.82Zm.72-10.41h7.08v-.4c0-.2-.09-.3-.28-.3h-6.41c-.26 0-.4.14-.4.41v.28l.01.01Zm.3 1.93h6.37c.27 0 .41-.14.41-.41v-.3h-7.08v.41c0 .2.1.3.3.3Zm6.69 7.29c.43-.46.8-1.01 1.12-1.65H96.6c-.26 0-.34.13-.21.38.25.46.56.88.92 1.27Zm19.9-8.62H104.3c-.56 0-.84-.29-.84-.86 0-.57.28-.84.84-.84h5.34v-.43c0-.66.34-.99 1.02-.99.68 0 .99.33.99.99v.43h5.57c.56 0 .84.28.84.84 0 .56-.28.86-.84.86h-.01Zm-11.99 5.05h11.2c.33 0 .59.1.8.3.2.2.3.47.3.8v4.36c0 .93-.29 1.53-.86 1.78-.35.16-.85.26-1.48.3-.4.01-.72-.07-.97-.24a1.14 1.14 0 0 1-.48-.72 1.22 1.22 0 0 0-.07-.2.81.81 0 0 0-.08-.18h-4.94c-.33 0-.6-.1-.8-.3-.2-.2-.3-.46-.3-.79v-1.6c0-.33.1-.59.3-.79.2-.2.47-.3.8-.3h4.18c.33 0 .59.1.8.3.2.2.3.46.3.79v2.17c.64.02 1.05.02 1.25 0 .22-.01.33-.1.33-.26v-3.36c0-.26-.14-.4-.41-.4h-8.63c-.27 0-.41.13-.41.4v4.56c0 .64-.32.96-.96.96-.64 0-.97-.32-.97-.96v-5.53c0-.33.1-.59.3-.8.2-.2.46-.3.79-.3l.01.01Zm8.99-.71h-6.92c-.33 0-.59-.1-.79-.3-.2-.2-.3-.46-.3-.79v-1.52c0-.33.1-.59.3-.8.2-.2.46-.3.79-.3h6.92c.33 0 .59.1.79.3.2.2.3.47.3.8v1.52c0 .33-.1.59-.3.79-.2.2-.46.3-.79.3Zm-5.71-1.35h4.38c.27 0 .41-.13.41-.4v-.23c0-.26-.14-.4-.41-.4h-4.38c-.27 0-.41.13-.41.4v.23c0 .26.14.4.41.4Zm1.19 6.92h2.49v-.69c0-.26-.14-.39-.41-.39h-2.08c-.26 0-.4.13-.4.39v.3c0 .26.13.4.4.4v-.01Z" fill="#000"/><path d="M131.8 94.68h-8.83c-1.05 0-1.58-.54-1.58-1.61s.53-1.61 1.58-1.61h2.71V78.84h-2.4c-.81 0-1.21-.43-1.21-1.29 0-.35.11-.66.34-.92.23-.26.52-.44.87-.53 1.14-.3 2.09-.65 2.84-1.05.39-.23.81-.34 1.26-.34h.87c.42 0 .75.12 1 .37s.37.58.37 1v15.39h2.16c1.07 0 1.61.54 1.61 1.61s-.54 1.61-1.61 1.61l.02-.01Zm16.1-2.27c-1.16 1.76-2.78 2.63-4.87 2.63-2.09 0-3.74-.9-4.95-2.69s-1.82-4.37-1.82-7.75.6-5.93 1.8-7.67c1.2-1.74 2.86-2.61 4.97-2.61s3.74.87 4.94 2.62c1.2 1.75 1.8 4.3 1.8 7.65 0 3.35-.62 5.94-1.87 7.8v.02Zm-7.04-2.03c.49 1.05 1.21 1.58 2.16 1.58 2 0 3-2.45 3-7.35 0-4.9-1-7.19-3-7.19s-3.03 2.4-3.03 7.19c0 2.6.29 4.52.87 5.77Z" fill="#C1272D"/><path d="M157.14 86.47c0 1.08-.25 1.96-.74 2.67-.49.7-1.19 1.05-2.11 1.05-.85 0-1.53-.33-2.05-.99-.52-.66-.78-1.57-.78-2.73s.26-2.04.78-2.69c.52-.65 1.2-.97 2.05-.97.85 0 1.54.32 2.06.97.52.65.78 1.54.78 2.69h.01Zm-3.69 1.84c.21.38.49.57.85.57s.65-.2.88-.59c.23-.39.34-1 .34-1.82 0-1.57-.4-2.35-1.21-2.35-.81 0-1.2.78-1.2 2.35 0 .81.12 1.42.35 1.84h-.01Zm8.53-4.72c-1.81 3.43-3.72 7.06-5.72 10.9-.14.27-.37.4-.69.4-.57 0-.73-.26-.48-.78l5.7-10.88c.14-.28.37-.41.69-.41.58 0 .75.26.49.78l.01-.01Zm3.63 7.59c0 1.08-.25 1.96-.74 2.66-.49.7-1.19 1.04-2.11 1.04-.84 0-1.52-.33-2.04-.99-.52-.66-.78-1.56-.78-2.71s.26-2.06.78-2.71c.52-.65 1.2-.98 2.05-.98.85 0 1.54.33 2.06.98.52.66.78 1.56.78 2.71Zm-3.7 1.83c.21.37.49.55.86.55s.66-.19.88-.58c.22-.38.33-.99.33-1.81 0-.82-.11-1.42-.33-1.81-.22-.38-.51-.58-.88-.58s-.66.19-.88.58c-.22.38-.33.99-.33 1.81 0 .75.12 1.36.35 1.83v.01Zm7.37-16.64h16.14c.44 0 .79.14 1.05.41.26.27.39.62.39 1.06v16.12c0 .44-.13.79-.39 1.06s-.62.41-1.05.41h-16.14c-.44 0-.79-.13-1.05-.41-.26-.27-.4-.62-.4-1.06V77.84c0-.44.13-.79.4-1.06s.61-.41 1.05-.41Zm14.69 2.74h-12.84c-.35 0-.53.18-.53.55v12.73c0 .35.18.53.53.53h12.84V79.11Zm-3.62 11.2h-6.15c-.44 0-.79-.13-1.06-.4-.27-.26-.41-.61-.41-1.05v-5.62c0-.44.13-.79.41-1.07.28-.28.62-.41 1.06-.41h6.15c.44 0 .79.14 1.06.41.27.27.41.63.41 1.07v5.62c0 .44-.13.79-.41 1.05-.27.26-.62.4-1.06.4ZM175.76 88h2.83c.37 0 .55-.18.55-.55v-2.81c0-.35-.18-.53-.55-.53h-2.83c-.35 0-.53.18-.53.53v2.81c0 .37.17.55.53.55Zm24.94-3.55h7.11c.44 0 .79.14 1.05.41.26.27.39.63.39 1.07v5.58c0 .44-.13.79-.39 1.05s-.62.4-1.05.4h-1.01c1.08.67 2 1.28 2.75 1.82.37.31.53.57.48.8-.04.23-.28.47-.7.74-.54.31-1.03.29-1.45-.07-.7-.58-1.3-1.06-1.78-1.43-.4-.28-.6-.58-.62-.91-.02-.33.17-.63.55-.91l.04-.04h-4.35l1.03.37c.28.09.44.22.48.38.04.17-.03.35-.22.54-.85.79-1.88 1.49-3.1 2.11-.31.13-.65.12-1.03-.02-.38-.15-.71-.37-.99-.66-.18-.19-.27-.37-.3-.54-.02-.17.06-.3.25-.38.01-.01.03-.02.04-.02h-5.09v.77c0 .72-.37 1.08-1.1 1.08-.73 0-1.08-.36-1.08-1.08V82.34c-.21-.28-.48-.57-.81-.88-.25-.18-.37-.38-.37-.63s.12-.49.37-.74c.92-.92 1.77-2.1 2.55-3.53.12-.25.32-.46.59-.63.28-.17.59-.25.92-.25h.61c.5 0 .92.16 1.27.48 1.02.97 1.88 1.91 2.57 2.83.29.45.23.93-.2 1.43-.61.67-1.16.64-1.65-.09l-.02-.02v-.02.61c0 .34-.16.5-.48.5h-2.79c-.54 0-.81-.27-.81-.81v-.07c-.42.57-.96 1.16-1.6 1.76h5.47c.44 0 .79.13 1.06.39s.41.62.41 1.05v3.78c0 .44-.14.79-.41 1.07-.27.28-.63.41-1.06.41h-3.45v.88h3.91c.64 0 .97.32.97.97 0 .65-.32.97-.97.97h-3.91v.92h3.62c.44 0 .79.13 1.06.39s.41.62.41 1.05v.57c1.49-.57 2.58-1.16 3.27-1.78h-1.05c-.28 0-.5-.08-.66-.24-.16-.16-.24-.38-.24-.66v-6.12c0-.44.13-.79.41-1.07.28-.28.63-.41 1.06-.41h.04Zm-7.88.35h2.77v-.48c0-.23-.12-.35-.35-.35h-2.42v.83Zm2.77 1.58h-2.77v.88h2.24c.35 0 .53-.18.53-.53v-.35Zm.42-6.78c-.6-.8-1.16-1.45-1.67-1.93-.28.56-.69 1.2-1.23 1.93h2.9Zm13.3 4.08H199.1c-.59 0-.88-.3-.88-.9 0-.6.29-.88.88-.88h3.89v-.79h-2.37c-.44 0-.79-.13-1.06-.41-.27-.27-.41-.63-.41-1.06v-1.12c0-.44.13-.79.41-1.06.27-.27.63-.41 1.06-.41h2.37v-.24c0-.78.4-1.16 1.21-1.16.81 0 1.16.39 1.16 1.16v.24h2.61c.44 0 .79.13 1.05.41.26.27.4.62.4 1.06v1.12c0 .44-.13.79-.4 1.06-.26.27-.62.41-1.05.41h-2.61v.79h3.95c.59 0 .88.29.88.88 0 .59-.29.9-.88.9Zm-6.32-5.09h-1.32c-.22 0-.33.11-.33.33v.22c0 .29.14.44.42.44h1.23v-.99Zm3.47 7.38h-4.33c-.35 0-.53.17-.53.53v.31h5.18v-.5c0-.22-.11-.33-.33-.33l.01-.01Zm.33 2.28h-5.18v.86h5.18v-.86Zm0 2.3h-5.18v.5c0 .26.12.4.37.4h4.28c.35 0 .53-.18.53-.55v-.35Zm-1.43-10.98h1.38c.26 0 .4-.13.4-.39V79c0-.28-.15-.42-.44-.42h-1.34v.99ZM1.97 17.34h17.32c.85 0 1.27.42 1.27 1.25 0 .83-.42 1.25-1.27 1.25h-4.85v4.52c0 .35.05.58.16.67.11.1.37.14.78.14h2.2c.31 0 .5-.08.59-.24.09-.67.29-1.2.59-1.59.3-.39.71-.47 1.21-.25.32.13.53.42.63.87.09.45.11.9.05 1.37-.18.86-.48 1.46-.9 1.79-.42.33-1.06.49-1.91.49h-2.85c-1.27 0-2.13-.22-2.57-.67-.44-.45-.66-1.29-.66-2.54v-4.57H8.88c-.22 1.9-.71 3.45-1.47 4.64-.76 1.19-2.08 2.16-3.95 2.89-1.23.4-2.05.28-2.46-.35-.32-.48-.28-.93.13-1.34.41-.41.97-.72 1.69-.94 1.1-.51 1.87-1.15 2.3-1.92.44-.77.72-1.76.86-2.97H1.96c-.85 0-1.27-.42-1.27-1.25 0-.83.42-1.25 1.27-1.25h.01Zm15.33-5.71H4.35c-.35 0-.53.17-.53.53v.92c0 .91-.45 1.36-1.36 1.36-.91 0-1.34-.45-1.34-1.36V10.6c0-.44.13-.79.4-1.06.26-.27.61-.41 1.05-.41h6.59v-.77c0-.92.47-1.38 1.4-1.38.93 0 1.38.46 1.38 1.38v.77h6.74c.44 0 .79.13 1.05.41.26.27.4.62.4 1.06v2.42c0 .95-.47 1.43-1.41 1.43s-1.43-.48-1.43-1.43v-1.38l.01-.01ZM6.06 13.28h9.02c.8 0 1.21.41 1.21 1.23 0 .82-.4 1.21-1.21 1.21H6.06c-.81 0-1.21-.4-1.21-1.21 0-.81.4-1.23 1.21-1.23Zm19.84-2.99h7.62c-.03-.85-.05-1.49-.07-1.93-.03-.92.43-1.38 1.38-1.38s1.38.47 1.38 1.41c0 .42.01 1.06.04 1.91h3.4c-.57-.45-1.16-.87-1.78-1.25-.7-.47-.74-1.02-.11-1.65.44-.44.92-.51 1.45-.22.53.29 1.12.68 1.78 1.16.31.22.46.5.47.86 0 .35-.14.69-.45 1.01l-.07.09h.99c.89 0 1.34.45 1.34 1.34 0 .89-.45 1.32-1.34 1.32h-5.51c.18 2.18.46 4.24.86 6.17.66-1.14 1.23-2.37 1.71-3.69.28-.86.85-1.19 1.71-.99.92.22 1.21.81.88 1.78-.88 2.33-1.98 4.41-3.32 6.26.67 1.71 1.36 2.57 2.06 2.57.26 0 .46-.31.59-.92.07-.79.26-1.41.56-1.87.3-.45.7-.51 1.2-.18.28.18.45.51.52 1s.07.98.01 1.46c-.25 1.23-.61 2.08-1.08 2.54-.47.46-1.15.69-2.04.69-1.46 0-2.72-.99-3.75-2.96-.79.83-1.65 1.59-2.59 2.26-.79.53-1.46.46-2.02-.2-.7-.8-.56-1.51.44-2.13 1.13-.81 2.14-1.71 3.03-2.72-.69-2.3-1.19-5.32-1.51-9.07h-5.93c-.35 0-.53.18-.53.55v1.87h4.02c1 0 1.47.88 1.43 2.63-.1 3.34-.33 5.25-.68 5.75-.28.41-.62.67-1.01.79-.4.12-.97.18-1.71.18-.94 0-1.5-.34-1.69-1.01-.16-.54-.12-.92.12-1.13.24-.21.68-.3 1.31-.27h.07c.29 0 .51-.09.66-.26.18-.26.29-1.35.35-3.25.01-.38-.02-.64-.11-.78s-.23-.21-.42-.21h-2.33c-.09 3.75-.63 6.75-1.62 9.02-.28.48-.57.76-.87.83-.3.07-.66-.07-1.09-.42-.38-.31-.6-.64-.65-.99-.05-.35.04-.75.27-1.19.78-1.89 1.16-4.62 1.16-8.21v-5.09c0-.44.13-.79.4-1.06.26-.27.61-.41 1.05-.41l.02-.01Zm38.44 16.89h-10.6c-.85 0-1.27-.42-1.27-1.27 0-.85.42-1.27 1.27-1.27h3.86v-5.77h-4.74c-.85 0-1.27-.43-1.27-1.29 0-.86.42-1.27 1.27-1.27h4.74V11.3c-1.39.22-2.47.38-3.23.48-.42.06-.8-.02-1.13-.24-.33-.22-.55-.53-.67-.94-.09-.26-.21-.55-.35-.86-.4.92-.86 1.82-1.38 2.7v14.18c0 .88-.44 1.32-1.32 1.32-.88 0-1.34-.44-1.34-1.32V16.43c-.06.09-.15.21-.27.36-.12.15-.19.24-.21.25-.88.97-1.62.91-2.22-.18-.44-.78-.34-1.49.31-2.13 1.62-1.79 2.99-3.92 4.08-6.41.34-.86.93-1.16 1.78-.9.91.28 1.18.86.81 1.76-.03.06-.07.14-.11.24-.04.1-.08.18-.11.24 4.21-.57 7.63-1.27 10.25-2.11.38-.1.68-.11.89-.02.21.09.46.29.74.59.82.94.67 1.57-.46 1.91-1.17.31-2.29.56-3.36.77v5.49h4.28c.85 0 1.27.42 1.27 1.27 0 .85-.42 1.29-1.27 1.29H60.3v5.77h4.04c.86 0 1.3.42 1.3 1.27 0 .85-.43 1.27-1.3 1.27v.02Zm4.97-19.22h6.43c.54 0 .89.15 1.05.46.16.31.11.76-.15 1.36-.59 1.02-1.39 1.98-2.42 2.88.44.23.75.41.94.53.21.13.31.3.33.49.01.2-.07.39-.26.58l-.5.53h1.1l.24-.09s.12 0 .22.02l1.05.35c.13.04.23.13.31.26.08.13.09.26.04.4.95-.25 1.85-.59 2.7-1.03-.63-.6-1.15-1.22-1.56-1.87l-.18.18c-.54.53-1.11.59-1.71.18-.45-.32-.68-.63-.69-.93 0-.3.21-.63.65-1 .97-.92 1.79-2 2.48-3.25.32-.7.87-.95 1.65-.75.97.26 1.14.91.53 1.93h5.47c.73 0 1.1.37 1.1 1.1 0 .73-.37 1.12-1.1 1.12h-.2c-.63 1.35-1.37 2.44-2.22 3.29.88.4 1.59.67 2.13.83.66.16 1.07.39 1.22.68.15.29.05.7-.3 1.23-.42.56-1.03.72-1.8.5-1.23-.41-2.35-.94-3.36-1.58-.95.58-2.12 1.11-3.49 1.56-.73.21-1.28.02-1.65-.55l-.02-.02s-.02-.03-.02-.04c-.21.94-.47 1.91-.79 2.92-.19.54-.6.67-1.23.37-.56-.25-.77-.62-.64-1.12.21-.83.37-1.62.5-2.35H74v7.9c0 .64-.07 1.15-.2 1.5-.13.35-.39.63-.77.82-.26.15-.57.26-.91.34-.34.08-.69.11-1.03.1-.34-.01-.66-.11-.93-.29a1.35 1.35 0 0 1-.57-.75c-.16-.53-.12-.9.12-1.13.24-.23.66-.33 1.26-.32h.18c.13-.01.22-.04.27-.08.05-.04.08-.12.08-.25v-4.81c-.56 1.16-1.11 2.12-1.67 2.9-.28.31-.52.5-.72.57-.2.07-.4.04-.58-.1-.18-.14-.36-.39-.54-.76-.31-.69-.2-1.3.33-1.84.88-1.01 1.66-2.28 2.35-3.82h-1.6c-.78 0-1.16-.4-1.16-1.19 0-.79.39-1.16 1.16-1.16H73c-.67-.42-1.66-.96-2.96-1.6-.89-.37-.99-.92-.29-1.65.41-.42.88-.53 1.41-.33.26.1.59.24.99.42.47-.41.93-.89 1.38-1.43h-4.22c-.76 0-1.14-.37-1.14-1.12 0-.75.38-1.12 1.14-1.12v.03Zm13.61 11.5h3.8c.4 0 .67.15.83.45.16.3.21.84.13 1.61-.32 2.93-.75 4.69-1.29 5.29-.34.35-.7.58-1.09.69-.39.11-.95.16-1.68.16-.91-.03-1.42-.42-1.54-1.16-.01-.03-.03-.07-.04-.11a.516.516 0 0 1-.02-.11c-.15-.35-.14-.62.01-.8.15-.18.45-.26.89-.23.16.01.35.02.57.02.29 0 .53-.08.7-.24.34-.31.62-1.43.83-3.36h-2.57c-.73 2.52-2.22 4.38-4.46 5.6-.92.44-1.6.37-2.04-.22-.59-.78-.26-1.47.97-2.09a6.621 6.621 0 0 0 2.79-3.29h-1.6c-.73 0-1.1-.37-1.1-1.12 0-.75.37-1.1 1.1-1.1h2.15c.01-.07.03-.2.05-.37.02-.18.04-.3.06-.37.07-.83.53-1.25 1.38-1.25.92 0 1.33.47 1.23 1.41l-.07.59h.01Zm-1.49-7.03c.2.21.54.5 1.01.88.61-.54 1.1-1.18 1.45-1.91H80.6c.32.42.6.77.83 1.03Zm22.68-2.03h4.81c.48 0 .84.21 1.08.64.23.42.34 1.19.31 2.28-.13 4.55-.29 7.74-.48 9.57s-.49 3.01-.9 3.54c-.44.6-.94.97-1.49 1.12-.56.15-1.43.22-2.63.22-.47-.01-.86-.14-1.17-.38a1.53 1.53 0 0 1-.58-.98c0-.01 0-.04-.02-.07-.19-.38-.2-.67-.03-.87.17-.2.52-.28 1.04-.25.51.01 1.09.02 1.73.02.4 0 .72-.12.97-.37.31-.35.55-1.35.72-3.01.18-1.65.32-4.32.44-7.99.01-.41-.02-.68-.11-.82-.09-.14-.23-.21-.42-.21h-4.21c-.21.5-.59 1.27-1.16 2.31-.22.35-.52.56-.9.63-.38.07-.76-.03-1.14-.3-.06-.04-.14-.1-.24-.18-.1-.08-.18-.13-.24-.18v9.05c0 .44-.14.79-.41 1.06-.27.27-.63.41-1.07.41h-5.42c-.44 0-.79-.13-1.05-.41-.26-.27-.39-.62-.39-1.06V12.03c0-.44.13-.79.39-1.05s.62-.4 1.05-.4h1.08c.16-.6.31-1.33.46-2.2.07-.5.23-.84.47-1.03.24-.19.61-.26 1.11-.2 1 .15 1.31.75.94 1.8-.1.31-.31.85-.62 1.62h1.98c.44 0 .79.13 1.07.4.27.26.41.62.41 1.05v2.17c1.05-1.51 1.95-3.49 2.68-5.95.22-.83.75-1.16 1.58-.99.83.19 1.14.7.92 1.54-.12.42-.29.96-.53 1.6l-.03.01Zm-10.6 6.15h3.56v-3.1c0-.37-.18-.55-.53-.55h-2.48c-.37 0-.55.18-.55.55v3.1Zm3.56 2.3h-3.56v3.89c0 .35.18.53.55.53h2.48c.35 0 .53-.18.53-.53v-3.89Zm6.81 2.04a86.84 86.84 0 0 0-1.84-3.03c-.42-.69-.28-1.23.44-1.62.69-.37 1.22-.26 1.6.31.7 1 1.4 2.06 2.09 3.18.37.63.19 1.16-.53 1.58-.79.51-1.38.37-1.76-.42ZM6.54 128.11c-.36.35-.79.53-1.28.53s-.93-.18-1.28-.54a1.76 1.76 0 0 1-.54-1.29c0-.5.18-.94.54-1.29.36-.35.79-.53 1.28-.53s.93.18 1.28.53c.35.35.54.78.54 1.29s-.18.94-.54 1.3Zm13.36-11.07h15.74c.44 0 .79.14 1.06.41.27.27.41.62.41 1.06v16.25c0 .44-.14.79-.41 1.06-.27.27-.63.41-1.06.41H19.9c-.44 0-.79-.13-1.07-.41-.28-.28-.41-.62-.41-1.06v-16.25c0-.44.14-.79.41-1.06.27-.27.63-.41 1.07-.41Zm14.16 2.04H21.35c-.35 0-.53.17-.53.53v14.05c0 .37.18.55.53.55h12.71c.35 0 .53-.18.53-.55v-14.05c0-.35-.17-.53-.53-.53Zm-12.08 10.47h7.05v-.04c0-.18.13-.32.38-.44.26-.12.5-.18.74-.18s.47.06.71.18.36.26.36.44v.04h.66c.42 0 .42-.22-.02-.66-.06-.06-.1-.09-.11-.11-2.39.09-5.55.18-9.48.29-.21 0-.35-.05-.44-.15-.09-.1-.14-.27-.15-.5-.01-.26.02-.45.1-.57.08-.12.24-.18.47-.18h4.35v-.75h-2.94c-.44 0-.79-.14-1.06-.41-.27-.27-.41-.63-.41-1.07v-1.65c0-.44.13-.79.41-1.06.27-.27.63-.41 1.06-.41h2.94v-.4c0-.19-.1-.29-.29-.29h-4.04c-.48 0-.72-.23-.72-.7s.24-.72.72-.72h4.33v-.04c0-.25.11-.44.32-.58.21-.14.46-.21.76-.21s.55.07.76.21c.21.14.32.33.32.58v.04h4.35c.47 0 .7.24.7.72s-.23.7-.7.7h-3.8c-.37 0-.55.18-.55.55v.13h3.01c.44 0 .79.14 1.07.41.27.27.41.63.41 1.06v2.06c0 .32-.09.58-.29.77-.2.19-.45.29-.77.29h-.07c.37.29.72.61 1.08.94.22.23.31.5.29.79-.02.29-.18.54-.46.75l-.24.15h.62c.48 0 .72.24.72.72s-.24.7-.72.7h-1.62c-.35 0-.53.18-.53.55v.9c0 .44-.05.75-.15.92-.1.17-.31.31-.64.4-.42.12-1.07.18-1.93.18-.53 0-.86-.17-.99-.5-.12-.28-.1-.48.05-.62.15-.13.4-.19.74-.18.07 0 .16 0 .26-.01.1 0 .16-.01.18-.01.19 0 .29-.09.29-.26v-.81c0-.37-.17-.55-.53-.55h-3.4c.48.48.87.92 1.16 1.32.1.15.12.31.05.49a.57.57 0 0 1-.38.36c-.75.35-1.35.23-1.8-.37-.57-.73-.38-1.33.57-1.8h-2.72c-.48 0-.72-.23-.72-.7s.24-.72.72-.72l-.04.01Zm4.61-6.13H24.7c-.35 0-.53.18-.53.53v.13h2.42v-.66Zm0 1.71h-2.06c-.23 0-.35.11-.35.33v.09c0 .16.08.24.24.24h2.17v-.66Zm2.15-1.05h2.35v-.4c0-.18-.09-.26-.26-.26h-2.09v.66Zm0 1.71h2c.23 0 .35-.12.35-.35v-.07c0-.16-.09-.24-.26-.24h-2.09v.66Zm2.31 1.12h-2.31v.72h1.78c-.18-.13-.23-.21-.18-.24l.7-.48h.01Zm27.89 9.69H41.62c-.88 0-1.32-.44-1.32-1.32 0-.88.44-1.3 1.32-1.3h7.16v-4.35h-5.05c-.85 0-1.27-.43-1.27-1.3 0-.87.42-1.29 1.27-1.29h5.05v-3.89h-6.21c-.88 0-1.32-.43-1.32-1.29 0-.86.44-1.32 1.32-1.32h7.6c-.57-.54-1.27-1.14-2.08-1.8-.82-.63-.78-1.26.11-1.89.56-.38 1.11-.39 1.65-.02 1.07.75 1.92 1.4 2.55 1.95.26.25.38.54.34.86-.04.32-.23.61-.58.86l-.04.04h5.75c.88 0 1.32.44 1.32 1.32 0 .88-.44 1.29-1.32 1.29h-6.15v3.89h5.09c.85 0 1.27.43 1.27 1.29 0 .86-.42 1.3-1.27 1.3h-5.09v4.35h7.25c.88 0 1.32.43 1.32 1.3 0 .87-.44 1.32-1.32 1.32h-.03Zm4.32-9.19h13.26c.54 0 .81.26.81.79s-.27.79-.81.79h-6.85v5.76c0 .27.13.37.38.28.68-.25 1.34-.62 1.99-1.09-.37-.44-.71-.94-1.02-1.5-.15-.31-.18-.58-.08-.81.1-.24.31-.39.63-.47l.05-.02h-.77c-.5 0-.76-.26-.76-.77s.25-.76.76-.76h4.76c.37 0 .64.12.79.35.15.24.17.58.05 1.03-.41 1.17-.98 2.17-1.71 2.98.56.35 1.1.63 1.63.84.88.26 1.08.72.59 1.37-.3.42-.72.53-1.28.33-.87-.34-1.62-.77-2.27-1.28-.52.4-1.14.78-1.88 1.15-.3.12-.58.14-.85.06-.27-.08-.48-.25-.63-.5-.13-.19-.25-.35-.36-.49v.43c0 .62-.32.94-.96.94-.64 0-.96-.31-.96-.94v-.43c-.33.03-1.04.1-2.13.21-1.09.1-1.9.18-2.41.22-.27.02-.47-.03-.6-.16s-.2-.34-.22-.63c-.05-.58.2-.89.76-.92.13-.01.34-.03.63-.05V129h-.51c-.54 0-.81-.26-.81-.79s.27-.79.81-.79l-.03-.01Zm2.26-5.81h8.78c.33 0 .6.1.8.3.2.2.3.47.3.8v2.98c0 .33-.1.6-.3.8-.2.2-.47.3-.8.3h-8.78c-.33 0-.6-.1-.8-.3-.2-.2-.3-.47-.3-.8v-2.98c0-.33.1-.59.3-.8.2-.2.47-.3.8-.3Zm.08 8.07h2.16v-.68H65.6v.68Zm2.16 1.4H65.6v.71h2.16v-.71Zm-2.16 2.91c.24-.02.6-.05 1.09-.08.49-.03.84-.06 1.07-.08v-.66H65.6v.82Zm.72-10.41h7.08v-.4c0-.2-.09-.3-.28-.3h-6.41c-.26 0-.4.14-.4.41v.28l.01.01Zm.3 1.93h6.37c.27 0 .41-.14.41-.41v-.3h-7.08v.41c0 .2.1.3.3.3Zm6.69 7.29c.43-.46.8-1.01 1.12-1.65H72.6c-.26 0-.34.13-.21.38.25.46.56.88.92 1.27Zm19.9-8.62H80.3c-.56 0-.84-.29-.84-.86 0-.57.28-.84.84-.84h5.34v-.43c0-.66.34-.99 1.02-.99.68 0 .99.33.99.99v.43h5.57c.56 0 .84.28.84.84 0 .56-.28.86-.84.86h-.01Zm-11.99 5.05h11.2c.33 0 .59.1.8.3.2.2.3.47.3.8v4.36c0 .93-.29 1.53-.86 1.78-.35.16-.85.26-1.48.3-.4.01-.72-.07-.97-.24a1.14 1.14 0 0 1-.48-.72 1.22 1.22 0 0 0-.07-.2.81.81 0 0 0-.08-.18h-4.94c-.33 0-.6-.1-.8-.3-.2-.2-.3-.46-.3-.79v-1.6c0-.33.1-.59.3-.79.2-.2.47-.3.8-.3h4.18c.33 0 .59.1.8.3.2.2.3.46.3.79v2.17c.64.02 1.05.02 1.25 0 .22-.01.33-.1.33-.26v-3.36c0-.26-.14-.4-.41-.4h-8.63c-.27 0-.41.13-.41.4v4.56c0 .64-.32.96-.96.96-.64 0-.97-.32-.97-.96v-5.53c0-.33.1-.59.3-.8.2-.2.46-.3.79-.3l.01.01Zm8.99-.71h-6.92c-.33 0-.59-.1-.79-.3-.2-.2-.3-.46-.3-.79v-1.52c0-.33.1-.59.3-.8.2-.2.46-.3.79-.3h6.92c.33 0 .59.1.79.3.2.2.3.47.3.8v1.52c0 .33-.1.59-.3.79-.2.2-.46.3-.79.3Zm-5.71-1.35h4.38c.27 0 .41-.13.41-.4v-.23c0-.26-.14-.4-.41-.4H84.5c-.27 0-.41.13-.41.4v.23c0 .26.14.4.41.4Zm1.19 6.92h2.49v-.69c0-.26-.14-.39-.41-.39h-2.08c-.26 0-.4.13-.4.39v.3c0 .26.13.4.4.4v-.01Z" fill="#000"/><path d="M107.81 135.35h-8.83c-1.05 0-1.58-.54-1.58-1.61s.53-1.61 1.58-1.61h2.71v-12.62h-2.4c-.81 0-1.21-.43-1.21-1.29 0-.35.11-.66.34-.92.23-.26.52-.44.87-.53 1.14-.3 2.09-.65 2.84-1.05.39-.23.81-.34 1.26-.34h.87c.42 0 .75.12 1 .37s.37.58.37 1v15.39h2.16c1.07 0 1.61.54 1.61 1.61s-.54 1.61-1.61 1.61l.02-.01Zm16.1-2.27c-1.16 1.76-2.78 2.63-4.87 2.63-2.09 0-3.74-.9-4.95-2.69s-1.82-4.37-1.82-7.75.6-5.93 1.8-7.67c1.2-1.74 2.86-2.61 4.97-2.61s3.74.87 4.94 2.62c1.2 1.75 1.8 4.3 1.8 7.65 0 3.35-.62 5.94-1.87 7.8v.02Zm-7.04-2.03c.49 1.05 1.21 1.58 2.16 1.58 2 0 3-2.45 3-7.35 0-4.9-1-7.19-3-7.19s-3.03 2.4-3.03 7.19c0 2.6.29 4.52.87 5.77Z" fill="#C1272D"/><path d="M133.14 127.14c0 1.08-.25 1.96-.74 2.67-.49.7-1.19 1.05-2.11 1.05-.85 0-1.53-.33-2.05-.99-.52-.66-.78-1.57-.78-2.73s.26-2.04.78-2.69c.52-.65 1.2-.97 2.05-.97.85 0 1.54.32 2.06.97.52.65.78 1.54.78 2.69h.01Zm-3.69 1.84c.21.38.49.57.85.57s.65-.2.88-.59c.23-.39.34-1 .34-1.82 0-1.57-.4-2.35-1.21-2.35-.81 0-1.2.78-1.2 2.35 0 .81.12 1.42.35 1.84h-.01Zm8.53-4.72c-1.81 3.43-3.72 7.06-5.72 10.9-.14.27-.37.4-.69.4-.57 0-.73-.26-.48-.78l5.7-10.88c.14-.28.37-.41.69-.41.58 0 .75.26.49.78l.01-.01Zm3.63 7.59c0 1.08-.25 1.96-.74 2.66-.49.7-1.19 1.04-2.11 1.04-.84 0-1.52-.33-2.04-.99-.52-.66-.78-1.56-.78-2.71s.26-2.06.78-2.71c.52-.65 1.2-.98 2.05-.98.85 0 1.54.33 2.06.98.52.66.78 1.56.78 2.71Zm-3.7 1.83c.21.37.49.55.86.55s.66-.19.88-.58c.22-.38.33-.99.33-1.81 0-.82-.11-1.42-.33-1.81-.22-.38-.51-.58-.88-.58s-.66.19-.88.58c-.22.38-.33.99-.33 1.81 0 .75.12 1.36.35 1.83v.01Zm8.93 5.31c-1.89-3.42-2.83-7.01-2.83-10.76s.94-7.37 2.83-10.74c.32-.58.81-.75 1.47-.48.73.31.91.83.53 1.58-1.43 2.88-2.15 6.1-2.15 9.64 0 3.54.72 6.8 2.15 9.68.38.73.21 1.25-.53 1.56-.66.26-1.15.1-1.47-.48Zm6.72-21.18h16.58c.91 0 1.36.46 1.36 1.38 0 .92-.45 1.36-1.36 1.36h-5.55c-.34.63-.77 1.32-1.29 2.06v2.35l.88-.75c.22-.19.48-.29.78-.31.3-.02.55.06.76.22 2.52 1.84 4.43 3.39 5.75 4.63.34.38.48.71.44.98-.04.27-.26.58-.66.93-.41.38-.75.59-1.01.62-.26.03-.58-.14-.97-.5-1.35-1.38-3.34-3.1-5.97-5.16v10.21c0 .95-.48 1.43-1.45 1.43s-1.45-.48-1.45-1.43v-9.55c-1.84 1.99-3.78 3.59-5.8 4.81-.85.48-1.54.37-2.09-.35-.66-.89-.45-1.63.64-2.22 1.62-.97 3.12-2.15 4.49-3.55s2.51-2.87 3.44-4.42h-7.51c-.91 0-1.36-.45-1.36-1.36 0-.91.45-1.38 1.36-1.38h-.01Zm24.99 12.29c.69 0 1.03-.48 1.03-1.45s-.29-1.98-.88-2.94c-.51-.66-.68-1.29-.5-1.89.26-.92.64-2.31 1.12-4.17h-1.43c-.35 0-.53.18-.53.55v15.87c0 .82-.42 1.23-1.25 1.23-.83 0-1.23-.41-1.23-1.23v-17.34c0-.44.13-.79.39-1.05s.62-.4 1.05-.4h4.35c.51 0 .88.16 1.1.48.22.32.26.78.11 1.38-.61 2.34-1.16 4.09-1.62 5.25 1.13 1.35 1.69 2.88 1.69 4.59.01 1.23-.22 2.12-.7 2.67-.48.55-1.29.82-2.42.82-.21 0-.37-.05-.5-.15-.13-.1-.22-.2-.25-.29-.04-.09-.08-.26-.12-.52-.04-.26-.07-.42-.09-.49-.12-.29-.12-.52-.01-.69.11-.17.32-.25.63-.23h.07-.01Zm5.88-12.8h7.4c.44 0 .79.13 1.06.39s.41.62.41 1.05v7.53c0 .44-.14.79-.41 1.06-.27.27-.62.41-1.06.41h-2.42c.21.79.48 1.58.83 2.37.5-.47.92-.89 1.25-1.27.28-.34.55-.52.82-.56.27-.04.58.07.93.32.72.53.72 1.12.02 1.78-.41.38-1.06.92-1.95 1.62.54.78 1.19 1.46 1.95 2.04.53.32.84.64.94.96.1.31-.01.71-.35 1.2-.29.38-.59.59-.9.63-.31.04-.66-.08-1.05-.36-2.28-1.68-3.89-4.59-4.81-8.72h-1.62v5.8c.88-.15 1.54-.26 1.98-.35.83-.16 1.29.18 1.36 1.03.07.72-.25 1.16-.97 1.32-1.38.32-3.13.7-5.25 1.14-.39.09-.71.06-.93-.09-.23-.15-.41-.42-.54-.83-.31-.94 0-1.48.94-1.62.19-.03.49-.07.9-.13v-15.26c0-.44.13-.79.39-1.05s.62-.39 1.05-.39l.03-.02Zm1.05 4.08h5.18v-1.23c0-.37-.18-.55-.55-.55h-4.08c-.37 0-.55.18-.55.55v1.23Zm5.18 2.17h-5.18v1.89h4.63c.37 0 .55-.17.55-.53v-1.36Zm9.97 2.16h-2.88c-.73 0-1.1-.37-1.1-1.1 0-.73.37-1.12 1.1-1.12h.94c-.06-.45-.15-.89-.26-1.3-.12-.37-.11-.68.02-.94.13-.26.38-.43.75-.5l.18-.04h-1.41c-.73 0-1.1-.37-1.1-1.1 0-.73.37-1.08 1.1-1.08h2.66v-.77c0-.85.43-1.27 1.3-1.27.87 0 1.27.42 1.27 1.27v.77h2.61c.72 0 1.08.36 1.08 1.08 0 .72-.36 1.1-1.08 1.1h-1.21l.68.15c.39.07.51.31.35.7-.16.44-.43 1.08-.81 1.93h1.14c.73 0 1.1.37 1.1 1.12 0 .75-.37 1.1-1.1 1.1h-2.77v1.73h2.55c.75 0 1.12.37 1.12 1.12 0 .75-.37 1.12-1.12 1.12h-2.55v.17c.41.28 1.2.89 2.37 1.82.31.26.46.51.47.74 0 .23-.13.49-.41.8-.29.37-.57.55-.82.56-.26 0-.54-.17-.84-.52-.07-.07-.2-.2-.37-.38-.18-.18-.31-.32-.4-.41v3.51c0 .85-.42 1.27-1.27 1.27-.85 0-1.3-.42-1.3-1.27v-3.25c-.64.92-1.29 1.71-1.93 2.35-.32.31-.61.46-.86.45-.25 0-.52-.17-.81-.49-.34-.38-.49-.71-.46-.99.03-.28.25-.58.66-.9 1.11-1 2.07-2.15 2.88-3.47h-2.26c-.75 0-1.12-.37-1.12-1.12 0-.75.37-1.12 1.12-1.12h2.79v-1.73.01Zm-.88-2.22h4.37l-.79-.18c-.44-.1-.59-.34-.44-.72.28-.69.47-1.32.57-1.89h-3.34c.21.4.38.89.53 1.47.15.69-.15 1.13-.9 1.32Zm10.47.22h5.71c.82 0 1.23.41 1.23 1.23 0 .82-.41 1.23-1.23 1.23h-.88v9.73c0 .85-.43 1.27-1.29 1.27-.86 0-1.27-.42-1.27-1.27v-9.73h-2.26c-.03 4.38-.87 7.74-2.52 10.08-.6.73-1.19.75-1.76.07l-.04-.04c-.31-.22-.47-.49-.49-.81-.02-.32.1-.65.36-.99.8-1.17 1.34-2.47 1.59-3.89.26-1.42.38-2.99.38-4.72v-6.26c0-.48.15-.82.44-1.02.29-.2.67-.22 1.12-.08 1.92-.47 3.51-.99 4.79-1.56.58-.28 1.15-.16 1.69.35.86.79.76 1.4-.31 1.82-1.62.57-3.37 1.05-5.25 1.43v3.16h-.01Zm11.45 1.85c-.22.22-.46.33-.72.33-.26 0-.5-.11-.72-.33-.63-.66-.56-1.32.22-1.98.75-.75 1.43-1.62 2.04-2.61.16-.29.41-.51.76-.65.34-.14.7-.17 1.06-.08v-.66h-3.86c-.7 0-1.05-.34-1.05-1.03s.35-1.03 1.05-1.03h3.86v-.04c0-.76.43-1.14 1.3-1.14.87 0 1.27.38 1.27 1.14v.04h4.74v-.04c0-.37.12-.65.36-.84.24-.19.56-.3.96-.3.86 0 1.29.38 1.29 1.14v.04h3.97c.69 0 1.03.34 1.03 1.03s-.34 1.03-1.03 1.03h-3.97v.04c0 .29-.13.52-.39.68-.26.16-.56.24-.9.24-.34 0-.64-.08-.91-.24-.27-.16-.41-.39-.41-.68v-.04h-4.74v.57c0 .26-.13.4-.4.4h-1.14c-.15.31-.31.61-.48.9h3.16c.25-1 .8-1.46 1.67-1.38.95.07 1.21.52.77 1.34 0 .01 0 .02-.01.02 0 0-.01 0-.01.02h6.52c.54 0 .81.27.81.81s-.27.83-.81.83h-6.34v.77h5.49c.45 0 .68.22.68.66 0 .44-.23.68-.68.68h-5.49v.72h5.51c.45 0 .68.23.68.68 0 .45-.23.66-.68.66h-5.51v.72h7.27c.56 0 .83.28.83.83 0 .55-.28.86-.83.86h-10.1l.77.66c.13.12.21.23.25.34.04.11.02.21-.04.3-.07.09-.17.15-.3.2-1.45.41-3.06.72-4.83.94v.64h4.48c.45 0 .68.23.68.7s-.23.72-.68.72h-4.48v.53c0 .26.12.4.37.4h10.56c.35 0 .53-.18.53-.55v-.37h-4.52c-.45 0-.68-.24-.68-.72s.23-.7.68-.7h4.52v-.48c0-.23-.11-.35-.33-.35h-4.28c-.51 0-.77-.25-.77-.75s.26-.77.77-.77h5.8c.44 0 .79.13 1.07.4.27.26.41.62.41 1.05v3.4c0 .44-.14.79-.41 1.05-.27.26-.63.4-1.07.4h-13.83c-.44 0-.79-.13-1.06-.4s-.41-.61-.41-1.05v-3.38c0-.5.15-.86.44-1.09.29-.23.68-.28 1.16-.17l.22.04c1.77-.28 3.28-.61 4.52-.99h-3.23v.04c0 .13-.11.2-.33.2-.48 0-.95-.11-1.4-.33-.45-.22-.68-.51-.68-.88v-3.16l-.02.02Zm2.42-1.69h4.08v-.77h-4.08v.77Zm0 2.06h4.08v-.72h-4.08v.72Zm.31 2.06h3.78v-.72h-4.08v.44c0 .19.1.29.31.29l-.01-.01Zm22.71-5.75h11.02c.44 0 .79.14 1.05.41.26.27.4.63.4 1.06V129c0 .44-.13.79-.4 1.06-.26.27-.62.41-1.05.41h-11.55c-.38 2.11-1.07 3.95-2.06 5.53-.34.44-.66.7-.96.77-.3.07-.66-.06-1.09-.39-.7-.6-.72-1.37-.04-2.31 1.32-2.22 1.98-5.38 1.98-9.46v-4.87c0-.5.15-.86.45-1.09.3-.23.69-.27 1.17-.14l.18.04c4.01-.48 7.37-1.14 10.08-1.98.34-.09.6-.1.78-.03.18.07.41.22.67.45.94.89.85 1.49-.26 1.8-2.83.76-6.28 1.38-10.36 1.87v1.58h-.01Zm-.15 5.75h9.42c.35 0 .53-.17.53-.53v-2.22c0-.35-.18-.53-.53-.53h-9.26c0 1.07-.05 2.16-.15 3.27l-.01.01Zm22.64.25c0 3.83-.95 7.43-2.85 10.78-.34.58-.82.74-1.45.46-.73-.31-.92-.82-.55-1.54 1.45-2.88 2.17-6.12 2.17-9.7 0-3.58-.72-6.78-2.17-9.66-.37-.73-.19-1.25.53-1.56.64-.28 1.13-.12 1.47.48 1.9 3.32 2.85 6.9 2.85 10.74ZM6.54 160.7c-.36.35-.79.53-1.28.53s-.93-.18-1.28-.54a1.76 1.76 0 0 1-.54-1.29c0-.5.18-.94.54-1.29.36-.35.79-.53 1.28-.53s.93.18 1.28.53c.35.35.54.78.54 1.29s-.18.94-.54 1.3Zm13.36-11.06h15.74c.44 0 .79.14 1.06.41.27.27.41.62.41 1.06v16.25c0 .44-.14.79-.41 1.06-.27.27-.63.41-1.06.41H19.9c-.44 0-.79-.13-1.07-.41-.28-.28-.41-.62-.41-1.06v-16.25c0-.44.14-.79.41-1.06.27-.27.63-.41 1.07-.41Zm14.16 2.04H21.35c-.35 0-.53.17-.53.53v14.05c0 .37.18.55.53.55h12.71c.35 0 .53-.18.53-.55v-14.05c0-.35-.17-.53-.53-.53Zm-12.08 10.47h7.05v-.04c0-.18.13-.32.38-.44.26-.12.5-.18.74-.18s.47.06.71.18.36.26.36.44v.04h.66c.42 0 .42-.22-.02-.66-.06-.06-.1-.09-.11-.11-2.39.09-5.55.18-9.48.29-.21 0-.35-.05-.44-.15-.09-.1-.14-.27-.15-.5-.01-.26.02-.45.1-.57.08-.12.24-.18.47-.18h4.35v-.75h-2.94c-.44 0-.79-.14-1.06-.41-.27-.27-.41-.63-.41-1.07v-1.65c0-.44.13-.79.41-1.06.27-.27.63-.41 1.06-.41h2.94v-.4c0-.19-.1-.29-.29-.29h-4.04c-.48 0-.72-.23-.72-.7s.24-.72.72-.72h4.33v-.04c0-.25.11-.44.32-.58.21-.14.46-.21.76-.21s.55.07.76.21c.21.14.32.33.32.58v.04h4.35c.47 0 .7.24.7.72s-.23.7-.7.7h-3.8c-.37 0-.55.18-.55.55v.13h3.01c.44 0 .79.14 1.07.41.27.27.41.63.41 1.06v2.06c0 .32-.09.58-.29.77-.2.19-.45.29-.77.29h-.07c.37.29.72.61 1.08.94.22.23.31.5.29.79-.02.29-.18.54-.46.75l-.24.15h.62c.48 0 .72.24.72.72s-.24.7-.72.7h-1.62c-.35 0-.53.18-.53.55v.9c0 .44-.05.75-.15.92-.1.17-.31.31-.64.4-.42.12-1.07.18-1.93.18-.53 0-.86-.17-.99-.5-.12-.28-.1-.48.05-.62.15-.13.4-.19.74-.18.07 0 .16 0 .26-.01.1 0 .16-.01.18-.01.19 0 .29-.09.29-.26v-.81c0-.37-.17-.55-.53-.55h-3.4c.48.48.87.92 1.16 1.32.1.15.12.31.05.49a.57.57 0 0 1-.38.36c-.75.35-1.35.23-1.8-.37-.57-.73-.38-1.33.57-1.8h-2.72c-.48 0-.72-.23-.72-.7s.24-.72.72-.72l-.04.01Zm4.61-6.13H24.7c-.35 0-.53.18-.53.53v.13h2.42v-.66Zm0 1.71h-2.06c-.23 0-.35.11-.35.33v.09c0 .16.08.24.24.24h2.17v-.66Zm2.15-1.05h2.35v-.4c0-.18-.09-.26-.26-.26h-2.09v.66Zm0 1.71h2c.23 0 .35-.12.35-.35v-.07c0-.16-.09-.24-.26-.24h-2.09v.66Zm2.31 1.12h-2.31v.72h1.78c-.18-.13-.23-.21-.18-.24l.7-.48h.01Zm12.52-3.46H56.9c.44 0 .79.13 1.06.41.27.28.41.62.41 1.06v7.03c0 .44-.14.79-.41 1.07-.27.27-.63.41-1.06.41h-2.04c1.48.45 2.88.92 4.19 1.4.41.16.68.33.81.52s.14.38.03.6c-.11.22-.34.47-.69.75-.31.23-.57.38-.78.43-.21.05-.49.01-.85-.12-1.14-.48-2.61-1.03-4.41-1.65-.59-.18-.9-.42-.96-.75-.05-.32.17-.67.67-1.03l.22-.15h-6.04l.92.64c.23.16.35.33.35.52s-.11.33-.33.45c-1.57.8-3.32 1.49-5.25 2.04-.59.16-1.11.03-1.58-.4-.89-.85-.7-1.43.59-1.76 1.42-.44 2.68-.94 3.78-1.49h-1.98c-.44 0-.79-.14-1.07-.41-.27-.27-.41-.63-.41-1.07v-7.03c0-.44.14-.79.41-1.06.27-.27.63-.41 1.07-.41h.02Zm.99-6.46h11.57c.44 0 .79.14 1.06.41.27.27.41.62.41 1.06v2.7c0 .44-.14.79-.41 1.05-.27.26-.63.39-1.06.39H44.56c-.44 0-.79-.13-1.06-.39s-.41-.62-.41-1.05v-2.7c0-.44.14-.79.41-1.06.27-.27.63-.41 1.06-.41Zm10.67 8.28h-9.97c-.37 0-.55.18-.55.55v.42h10.93v-.55c0-.28-.14-.42-.42-.42h.01Zm.42 2.66H44.72v.97h10.93v-.97Zm0 2.68H44.72v.57c0 .28.15.42.44.42h9.95c.37 0 .55-.18.55-.55v-.44h-.01Zm-9.33-10.06h8.45v-1.45h-8.45c-.37 0-.55.18-.55.53v.39c0 .35.18.53.55.53Zm16.94 6.86h13.26c.54 0 .81.26.81.79s-.27.79-.81.79h-6.85v5.76c0 .27.13.37.38.28.68-.25 1.34-.62 1.99-1.09-.37-.44-.71-.94-1.02-1.5-.15-.31-.18-.58-.08-.81.1-.24.31-.39.63-.47l.05-.02h-.77c-.5 0-.76-.26-.76-.77s.25-.76.76-.76h4.76c.37 0 .64.12.79.35.15.24.17.58.05 1.03-.41 1.17-.98 2.17-1.71 2.98.56.35 1.1.63 1.63.84.88.26 1.08.72.59 1.37-.3.42-.72.53-1.28.33-.87-.34-1.62-.77-2.27-1.28-.52.4-1.14.78-1.88 1.15-.3.12-.58.14-.85.06-.27-.08-.48-.25-.63-.5-.13-.19-.25-.35-.36-.49v.43c0 .62-.32.94-.96.94-.64 0-.96-.31-.96-.94v-.43c-.33.03-1.04.1-2.13.21-1.09.1-1.9.18-2.41.22-.27.02-.47-.03-.6-.16s-.2-.34-.22-.63c-.05-.58.2-.89.76-.92.13-.01.34-.03.63-.05v-5.12h-.51c-.54 0-.81-.26-.81-.79s.27-.79.81-.79l-.03-.01Zm2.26-5.81h8.78c.33 0 .6.1.8.3.2.2.3.47.3.8v2.98c0 .33-.1.6-.3.8-.2.2-.47.3-.8.3h-8.78c-.33 0-.6-.1-.8-.3-.2-.2-.3-.47-.3-.8v-2.98c0-.33.1-.59.3-.8.2-.2.47-.3.8-.3Zm.08 8.07h2.16v-.68H65.6v.68Zm2.16 1.4H65.6v.71h2.16v-.71Zm-2.16 2.91c.24-.02.6-.05 1.09-.08.49-.03.84-.06 1.07-.08v-.66H65.6v.82Zm.72-10.41h7.08v-.4c0-.2-.09-.3-.28-.3h-6.41c-.26 0-.4.14-.4.41v.28l.01.01Zm.3 1.93h6.37c.27 0 .41-.14.41-.41v-.3h-7.08v.41c0 .2.1.3.3.3Zm6.69 7.29c.43-.46.8-1.01 1.12-1.65H72.6c-.26 0-.34.13-.21.38.25.46.56.88.92 1.27Zm19.9-8.62H80.3c-.56 0-.84-.29-.84-.86 0-.57.28-.84.84-.84h5.34v-.43c0-.66.34-.99 1.02-.99.68 0 .99.33.99.99v.43h5.57c.56 0 .84.28.84.84 0 .56-.28.86-.84.86h-.01Zm-11.99 5.05h11.2c.33 0 .59.1.8.3.2.2.3.47.3.8v4.36c0 .93-.29 1.53-.86 1.78-.35.16-.85.26-1.48.3-.4.01-.72-.07-.97-.24a1.14 1.14 0 0 1-.48-.72 1.22 1.22 0 0 0-.07-.2.81.81 0 0 0-.08-.18h-4.94c-.33 0-.6-.1-.8-.3-.2-.2-.3-.46-.3-.79v-1.6c0-.33.1-.59.3-.79.2-.2.47-.3.8-.3h4.18c.33 0 .59.1.8.3.2.2.3.46.3.79v2.17c.64.02 1.05.02 1.25 0 .22-.01.33-.1.33-.26v-3.36c0-.26-.14-.4-.41-.4h-8.63c-.27 0-.41.13-.41.4v4.56c0 .64-.32.96-.96.96-.64 0-.97-.32-.97-.96v-5.53c0-.33.1-.59.3-.8.2-.2.46-.3.79-.3l.01.01Zm8.99-.71h-6.92c-.33 0-.59-.1-.79-.3-.2-.2-.3-.46-.3-.79v-1.52c0-.33.1-.59.3-.8.2-.2.46-.3.79-.3h6.92c.33 0 .59.1.79.3.2.2.3.47.3.8v1.52c0 .33-.1.59-.3.79-.2.2-.46.3-.79.3Zm-5.71-1.35h4.38c.27 0 .41-.13.41-.4v-.23c0-.26-.14-.4-.41-.4H84.5c-.27 0-.41.13-.41.4v.23c0 .26.14.4.41.4Zm1.19 6.92h2.49v-.69c0-.26-.14-.39-.41-.39h-2.08c-.26 0-.4.13-.4.39v.3c0 .26.13.4.4.4v-.01Z" fill="#000"/><path d="M104.25 162.76H97.5c-.53 0-.95-.16-1.26-.47-.32-.32-.47-.74-.47-1.26v-.24c0-.49.12-.93.37-1.32l6.46-10.49c.39-.67.97-1 1.77-1h1.84c.53 0 .95.16 1.26.49.32.33.47.75.47 1.28v10.01h.87c1 0 1.5.5 1.5 1.5s-.5 1.5-1.5 1.5h-.87v3.35c0 1.23-.61 1.84-1.82 1.84s-1.87-.61-1.87-1.84v-3.35Zm-4.64-3h4.64v-4.08c0-.44.05-1.82.16-4.14h-.11c-.54 1.21-1.07 2.29-1.58 3.24l-3.11 4.98Z" fill="#C1272D"/><path d="M117.25 159.74c0 1.08-.25 1.96-.74 2.67-.49.7-1.19 1.05-2.11 1.05-.85 0-1.53-.33-2.05-.99-.52-.66-.78-1.57-.78-2.73s.26-2.04.78-2.69c.52-.65 1.2-.97 2.05-.97.85 0 1.54.32 2.06.97.52.65.78 1.54.78 2.69h.01Zm-3.69 1.84c.21.38.49.57.85.57s.65-.2.88-.59c.23-.39.34-1 .34-1.82 0-1.57-.4-2.35-1.21-2.35-.81 0-1.2.78-1.2 2.35 0 .81.12 1.42.35 1.84h-.01Zm8.53-4.72c-1.81 3.43-3.72 7.06-5.72 10.9-.14.27-.37.4-.69.4-.57 0-.73-.26-.48-.78l5.7-10.88c.14-.28.37-.41.69-.41.58 0 .75.26.49.78l.01-.01Zm3.63 7.59c0 1.08-.25 1.96-.74 2.66-.49.7-1.19 1.04-2.11 1.04-.84 0-1.52-.33-2.04-.99-.52-.66-.78-1.56-.78-2.71s.26-2.06.78-2.71c.52-.65 1.2-.98 2.05-.98.85 0 1.54.33 2.06.98.52.66.78 1.56.78 2.71Zm-3.7 1.83c.21.37.49.55.86.55s.66-.19.88-.58c.22-.38.33-.99.33-1.81 0-.82-.11-1.42-.33-1.81-.22-.38-.51-.58-.88-.58s-.66.19-.88.58c-.22.38-.33.99-.33 1.81 0 .75.12 1.36.35 1.83v.01Z" fill="#000"/></svg>