<svg width="151" height="194" fill="none" xmlns="http://www.w3.org/2000/svg"><path d="M75.33 193.72c41.515 0 75.17-33.655 75.17-75.17s-33.655-75.17-75.17-75.17S.16 77.035.16 118.55s33.655 75.17 75.17 75.17Z" fill="#fff"/><path d="M89.9 98.69a3.72 3.72 0 0 0-3.72 3.72v13.88c0 5.89-4.73 10.69-10.62 10.78-6.02.09-10.95-4.76-10.95-10.78v-13.88a3.72 3.72 0 0 0-3.72-3.72c-2.06 0-3.73 1.66-3.73 3.72v14.2a36.053 36.053 0 0 0 6.5 20.67v35.2a3.51 3.51 0 0 0 3.52 3.51h3.73c1.94 0 3.51-1.57 3.51-3.51v-17.87c0-.48.4-.87.88-.87s.88.39.88.87v17.87a3.51 3.51 0 0 0 3.52 3.51h2.66c2.61 0 4.73-2.12 4.73-4.73v-34c4.22-6.06 6.5-13.26 6.5-20.65V102.4a3.72 3.72 0 0 0-3.72-3.72l.03.01Z" fill="#F15A24"/><path d="M73.8 109.6c-.25.05-.49.11-.73.19-.48.15-.94.34-1.37.58a7.61 7.61 0 0 0-4 6.71 7.61 7.61 0 0 0 2.78 5.89c.38.31.78.59 1.22.82.43.23.89.43 1.37.58.24.07.48.14.73.19.5.1 1.01.16 1.54.16 4.21 0 7.63-3.41 7.63-7.63s-3.41-7.63-7.63-7.63c-.53 0-1.04.05-1.54.15v-.01Z" fill="#F15A24"/><path d="M114.96 128.25c-.2.2-.4.4-.62.58a9.854 9.854 0 0 1-12.74.01c-.22-.19-.43-.39-.63-.59-3.89 1.26-6.7 4.9-6.7 9.21v13.06c0 2.1 1.7 3.8 3.8 3.8h.94v17.98c0 2.04 1.65 3.69 3.69 3.69h.65c2.04 0 3.69-1.65 3.69-3.69v-11.33c0-.5.42-.92.92-.92s.92.42.92.92v11.33c0 2.04 1.65 3.69 3.69 3.69h.64c2.04 0 3.69-1.65 3.69-3.69v-17.98h.95c2.1 0 3.8-1.7 3.8-3.8v-13.06c0-4.31-2.82-7.96-6.71-9.21h.02Z" fill="#2459A5"/><path d="M103.05 127.11c.29.25.61.47.94.67 1.16.72 2.52 1.14 3.98 1.14s2.81-.42 3.97-1.14a7.588 7.588 0 0 0 3.66-6.49c0-4.21-3.42-7.63-7.63-7.63s-7.63 3.41-7.63 7.63a7.58 7.58 0 0 0 2.71 5.82Zm-53.24 1.14c-.2.2-.4.4-.62.58a9.854 9.854 0 0 1-12.74.01c-.22-.19-.43-.39-.63-.59-3.89 1.26-6.7 4.9-6.7 9.21v13.06c0 2.1 1.7 3.8 3.8 3.8h.94v17.98c0 2.04 1.65 3.69 3.69 3.69h.65c2.04 0 3.69-1.65 3.69-3.69v-11.33c0-.5.42-.92.92-.92s.92.42.92.92v11.33c0 2.04 1.65 3.69 3.69 3.69h.64c2.04 0 3.69-1.65 3.69-3.69v-17.98h.95c2.1 0 3.8-1.7 3.8-3.8v-13.06c0-4.31-2.82-7.96-6.71-9.21h.02Z" fill="#2459A5"/><path d="M37.9 127.11c.29.25.61.47.94.67 1.16.72 2.52 1.14 3.98 1.14s2.81-.42 3.97-1.14a7.588 7.588 0 0 0 3.66-6.49 7.635 7.635 0 0 0-11.9-6.33c-.41.27-.78.59-1.13.93a7.608 7.608 0 0 0-2.23 5.4 7.568 7.568 0 0 0 2.71 5.82Z" fill="#2459A5"/><path d="M78.06 43.37h-5.45v28.52h5.45V43.37Z" fill="#FCB042"/><path d="M78.06 44.04v12.7l-2.72-1.44-2.73 1.44v-12.7h5.45Z" fill="#F2A33B"/><path d="m85.51 20.97 22.76 3.31L91.8 40.33l3.89 22.66L75.34 52.3 54.98 63l3.89-22.67L42.4 24.28l22.76-3.3L75.33.35l10.18 20.62Z" fill="#FCEFB9"/><path d="M95.69 62.99 75.33 31.68l16.47 8.65 3.89 22.66ZM75.33 31.68 54.98 63l20.36-10.7-.01-20.62Zm-32.93-7.4 16.47 16.05 16.46-8.65-32.93-7.4ZM75.33.35 65.16 20.98l10.17 10.7V.35Zm10.18 20.62L75.33 31.68l32.94-7.4-22.76-3.31Z" fill="#FFC552"/><path d="M90.39 70.15H60.27a1.41 1.41 0 0 0-1.41 1.41v3.65c0 .779.631 1.41 1.41 1.41h30.12a1.41 1.41 0 0 0 1.41-1.41v-3.65a1.41 1.41 0 0 0-1.41-1.41Z" fill="#F9B13D"/><path d="M88.57 70.15v2.74c0 .78-.63 1.41-1.41 1.41h-28.3v-2.74c0-.77.63-1.41 1.41-1.41h28.3Z" fill="#FFC552"/><path d="M98.09 80.07v12.49c0 1.9-1.54 3.46-3.46 3.46H56.02a3.449 3.449 0 0 1-3.45-3.46V80.07c0-1.9 1.54-3.45 3.45-3.45h38.61c.53 0 1.03.12 1.48.34 1.17.55 1.97 1.73 1.97 3.11h.01Z" fill="#F95050"/><path d="M98.09 80.07v12.49c0 1.9-1.54 3.46-3.46 3.46H56.02c-1.54 0-2.85-1.01-3.29-2.41 35.76-3.25 42.56-11.76 43.38-16.64 1.17.55 1.97 1.73 1.97 3.11l.01-.01Z" fill="#EF4848"/><path d="M87.47 80.42H63.36a1.1 1.1 0 0 0-1.1 1.1v9.94a1.1 1.1 0 0 0 1.1 1.1h24.11a1.1 1.1 0 0 0 1.1-1.1v-9.94a1.1 1.1 0 0 0-1.1-1.1Z" fill="#E6E6E6"/><path d="M80.02 80.42c-1.82 2.5-6.69 7.27-17.76 8.3v-7.2c0-.61.49-1.1 1.1-1.1h16.66Zm23.24-61.09-3-6.63-6.64-3.01 6.69-2.95 2.95-6.69 2.8 6.84 6.85 2.8-7.19 2.46-2.46 7.18Zm6.72 21-1.51-3.31-3.31-1.51 3.34-1.47 1.48-3.35 1.4 3.42 3.42 1.4-3.59 1.23-1.23 3.59Z" fill="#fff"/></svg>