<svg width="176" height="136" fill="none" xmlns="http://www.w3.org/2000/svg"><path d="M9.23 24.89S44.25-11.56 91.99 3.76c47.73 15.32 56.51 28.33 83.74 2.84 0 0-16.96 53.75-58.73 42.3-41.76-11.45-85.56 12-85.74 47.74" fill="#F15A24"/><path d="M35.9 133.8c.52 1.68 2.46 2.58 4.33 2 1.88-.58 2.98-2.41 2.46-4.09L7.48 14.01c-.52-1.68-2.46-2.58-4.33-2-1.88.58-2.98 2.41-2.46 4.09l35.22 117.7h-.01Z" fill="#333"/><path d="M47.37 22.57c-.24.33-.48.48-.71.48-.18 0-.68-.21-1.52-.68-1.07-.54-1.61-.83-1.64-.86-1.22-.54-2.35-.8-3.42-.8-.71 0-1.37.18-1.91.48-.68.36-1.01.89-1.01 1.55 0 1.1.54 1.85 1.67 2.2.51.18 1.19.36 2.02.48 1.22.21 1.91.33 2.05.33 3.96.83 5.95 2.83 5.95 5.98 0 2.11-.89 3.72-2.62 4.82-1.49.95-3.33 1.4-5.54 1.4-1.4 0-2.95-.24-4.64-.71-2.23-.62-3.33-1.46-3.33-2.47v-3.9c.71 1.04 1.93 1.91 3.6 2.56 1.52.66 2.98.95 4.38.95 1.01 0 1.91-.18 2.71-.54 1.01-.45 1.52-1.13 1.52-2.02 0-.59-.33-1.13-.92-1.61-.51-.36-1.1-.62-1.79-.8-1.43-.3-2.83-.57-4.2-.86-1.58-.39-2.74-.95-3.48-1.7-.98-.92-1.46-2.26-1.46-3.99 0-1.73.77-3.01 2.32-4.08 1.37-.95 2.92-1.43 4.67-1.43 2.38 0 4.44.48 6.22 1.37.33.21.83.51 1.52.86.21.12.45.18.68.18.23 0 .51-.03.77-.15-.42.68-1.04 1.67-1.91 2.98l.02-.02Zm13.61 14.44c-.15.45-.45.71-.92.77-.62.12-1.67.15-3.16.15-2.35 0-3.51-1.52-3.51-4.55 0-2.77.06-5.09.24-6.94-.54-.03-1.04-.06-1.52-.09-.51-.12-.74-.51-.74-1.16 0-.24 0-.77.03-1.58V22c.12.33.24.54.3.6.12.24.3.36.48.36.54.06 1.1.12 1.76.15.06-.89.12-2.32.21-4.35v-.15c0-.42-.39-.8-1.22-1.1h3.66c.92 0 1.4.45 1.4 1.31 0 .12-.12 1.55-.3 4.32h.48c.65.03 1.31 0 1.93-.06.39-.03.71-.27.98-.74 0 1.25-.03 2.2-.06 2.89-.06.71-.45 1.07-1.22 1.13-.54.03-1.34.06-2.38.09-.18 1.85-.24 4.14-.24 6.94 0 .8.42 1.19 1.31 1.19 1.13 0 2.2-.21 3.21-.65-.12.71-.36 1.73-.71 3.1l-.01-.02Zm13.9-5.8c-1.07.15-2.11.21-3.16.21-.62 0-1.99-.03-4.11-.15.06.89.3 1.64.77 2.23.51.71 1.16 1.07 2 1.07.71 0 1.31-.09 1.76-.3.42-.18.8-.59 1.22-1.19.15-.24.24-.42.24-.57 0-.18-.09-.42-.24-.66.66.21 1.61.57 2.89 1.04.48.24.71.54.71.92 0 .18-.06.36-.12.54-1.04 2.38-3.19 3.57-6.4 3.57-2.2 0-3.9-.74-5.12-2.26-1.13-1.37-1.7-3.16-1.7-5.42s.57-4.11 1.7-5.63c1.22-1.64 2.92-2.47 5.12-2.47 1.99 0 3.6.6 4.79 1.79 1.19 1.22 1.82 2.83 1.82 4.82 0 1.43-.74 2.26-2.17 2.44v.02ZM72.32 26c-.51-.36-1.1-.57-1.79-.57-1.31 0-2.26.89-2.8 2.65.95.09 2.14.12 3.6.12h.8c.62 0 .95-.21.95-.63 0-.65-.27-1.19-.77-1.58l.01.01Zm19.91 8.12c-1.34 1.19-3.07 1.79-5.18 1.79-.89 0-1.82-.15-2.74-.51-.06.68-.15 1.67-.27 2.98-.15.8-.57 1.22-1.22 1.22h-3.54c.54-.36.8-.74.86-1.13.24-2.44.36-4.79.36-7.03v-.68c0-1.55.03-3.1.06-4.64-.12-2.14-.59-3.45-1.43-3.93.83 0 1.7-.03 2.53-.03.71 0 1.13.03 1.31.06.42.09.74.33 1.01.74 1.13-.54 2.17-.8 3.07-.8 2.17 0 3.9.66 5.21 1.91 1.28 1.25 1.93 2.98 1.93 5.15 0 2.17-.65 3.75-1.96 4.91v-.01Zm-5.18-8.54c-.95 0-1.88.33-2.77.92.09 1.96.12 3.78.12 5.45.65.42 1.55.62 2.65.62.95 0 1.73-.3 2.35-.95.6-.59.92-1.4.92-2.35 0-2.44-1.1-3.69-3.27-3.69Zm25.42 11.01c-.27.42-.51.68-.68.8-.21.12-.57.21-1.07.27-1.31.15-3.16.21-5.6.21h-2.65c-2.47 0-3.69-.74-3.69-2.23 0-.74.83-1.96 2.53-3.66 1.55-1.52 3.12-3.04 4.7-4.58 1.7-1.76 2.56-3.1 2.56-4.02 0-1.61-.86-2.41-2.53-2.41-.77 0-1.52.3-2.2.86-.21.18-.71.74-1.52 1.64-.54.59-.95.86-1.28.86-.3 0-1.46-.77-3.48-2.38.71-.06 1.31-.36 1.79-.95.42-.54.74-.92 1.01-1.16 1.76-1.67 3.69-2.5 5.83-2.5 1.61 0 3.07.51 4.32 1.46 1.37 1.07 2.08 2.38 2.08 3.96s-.71 3.25-2.11 5.12c-.92 1.25-2.23 2.65-3.9 4.2-1.4 1.31-2.08 2.02-2.08 2.14 0 .12.18.15.6.15 2.77 0 5.75-.36 8.93-1.07-.33.77-.83 1.88-1.55 3.3l-.01-.01Z" fill="#fff"/></svg>