<svg width="247" height="65" fill="none" xmlns="http://www.w3.org/2000/svg"><path d="M77.7 8.27h-7.11c-.45 0-.68-.23-.68-.68v-.07a20.095 20.095 0 0 1-4.02 3.01c-.35.19-.66.26-.91.22-.26-.04-.51-.21-.76-.5-.34-.44-.46-.79-.37-1.05.09-.26.38-.52.88-.77.92-.56 1.7-1.1 2.33-1.62-.37-.37-.84-.77-1.43-1.21-.66-.44-.7-.94-.13-1.51.41-.41.86-.46 1.36-.15.75.45 1.33.9 1.76 1.34.6-.64 1.16-1.38 1.69-2.22h-3.49c-.72 0-1.08-.36-1.08-1.08 0-.72.36-1.08 1.08-1.08h5.25c.51 0 .87.16 1.08.47.21.32.21.77.02 1.37-.44 1.08-1 2.07-1.67 2.96-.19.23-.1.35.26.35h4.65c.35 0 .42-.14.2-.42-.76-.98-1.49-2.17-2.2-3.58-.37-.8-.14-1.33.68-1.58.72-.22 1.23 0 1.54.68.15.31.38.72.7 1.25.41-.31.9-.75 1.47-1.32.48-.53 1.04-.58 1.67-.15.38.29.57.57.56.83 0 .26-.2.55-.58.86-.88.67-1.52 1.15-1.93 1.43.2.25.55.63 1.03 1.14.64-.51 1.24-1.03 1.8-1.56.44-.5.97-.54 1.58-.13.72.51.72 1.06.02 1.65-.82.67-1.43 1.14-1.82 1.41.73.53 1.33.92 1.8 1.16.57.28.91.57 1.02.89.11.32-.02.72-.38 1.22-.26.34-.55.52-.86.56-.31.04-.65-.05-1.03-.25-1.3-.73-2.5-1.66-3.6-2.79v.55c0 .25-.12.37-.37.37h-.01Zm4.79 12.36H65.54c-.73 0-1.1-.37-1.1-1.12 0-.75.37-1.1 1.1-1.1h4.3c-.18-.51-.34-.94-.51-1.3-.16-.32-.19-.6-.09-.84s.32-.4.66-.47l.07-.02h-1.3c-.35 0-.63-.1-.83-.31-.21-.21-.31-.48-.31-.83v-3.62c0-.44.14-.79.41-1.05.27-.26.63-.4 1.06-.4h9.95c.44 0 .79.13 1.06.4.27.26.41.61.41 1.05v3.32c0 .44-.14.79-.41 1.05-.27.26-.63.4-1.06.4h-.53l.48.13c.25.04.31.19.18.44-.28.59-.64 1.27-1.1 2.06h4.5c.73 0 1.1.37 1.1 1.1 0 .73-.37 1.12-1.1 1.12l.01-.01Zm-5.36-8.96h-6.5c-.35 0-.53.18-.53.55v.92c0 .35.18.53.53.53h6.5c.37 0 .55-.17.55-.53v-.92c0-.37-.18-.55-.55-.55Zm-.53 4.11h-5.18c.37.58.64 1.14.83 1.67.15.47-.05.79-.59.97h4.37l-.35-.09c-.16-.03-.21-.1-.13-.22.42-.82.78-1.6 1.05-2.33Zm11.03-8.92c-.28.28-.57.25-.88-.09-.32-.35-.49-.74-.51-1.16-.01-.42.14-.8.46-1.14.91-1 1.69-2.14 2.35-3.45.12-.26.32-.48.6-.66.29-.18.6-.26.93-.26h.35c.45 0 .86.14 1.21.42 1.01.89 1.87 1.75 2.59 2.57.18.21.26.48.24.82-.02.34-.14.66-.37.93l-.66.81h.04v1.19c0 .32-.09.58-.27.76-.18.18-.44.27-.76.27h-1.1v1.65h1.65c.75 0 1.12.37 1.12 1.12 0 .75-.37 1.12-1.12 1.12h-1.65v5.47c.23-.04.58-.11 1.04-.2.46-.09.81-.15 1.04-.2.22-.04.4-.01.55.09.15.1.23.26.24.48v.07c.91-.51 1.79-1.05 2.66-1.6.47-.29.88-.39 1.24-.29.36.1.63.39.82.86l.02.09v-5.99h-3.47c-.73 0-1.1-.36-1.1-1.08 0-.72.37-1.08 1.1-1.08h5.77c.01-.15.08-.62.2-1.43h-3.69v.04c-.06.21-.18.37-.37.48-.19.12-.4.16-.61.13-1.13-.1-1.6-.56-1.4-1.36.53-2.37.87-4.04 1.03-5.01.1-.79.56-1.15 1.36-1.08.88.07 1.24.53 1.08 1.36v.04h4.28c.45 0 .8.14 1.05.42.25.28.35.64.31 1.08-.09.76-.33 2.53-.72 5.31h1.36c.72 0 1.08.36 1.08 1.08 0 .72-.36 1.08-1.08 1.08H102v.68c.2.86.53 1.73.97 2.61.45-.64.84-1.27 1.16-1.87.34-.67.84-.84 1.52-.5.75.35.83.91.26 1.67-.04.06-.31.4-.79 1.01-.19.22-.43.35-.71.39-.29.04-.57 0-.87-.15l-.4-.22c.66 1.23 1.49 2.21 2.5 2.94.51.29.82.58.93.87.11.29 0 .66-.32 1.13-.26.34-.54.52-.82.54-.29.02-.61-.09-.98-.34-.95-.72-1.77-1.68-2.46-2.88v2.11c0 .59-.06 1.04-.18 1.37-.12.33-.34.58-.68.76-.34.18-.71.29-1.13.35-.42.06-.82.02-1.2-.12-.38-.14-.63-.4-.75-.78-.15-.45-.13-.78.06-.99.18-.21.52-.3 1.02-.29h.02c.21 0 .31-.11.31-.33v-1.54c-.59.42-1.71 1.21-3.36 2.37-.22.16-.46.21-.71.15-.26-.06-.46-.22-.63-.48l-.04-.07c-1.74.38-4.03.85-6.87 1.41-.4.07-.7.03-.9-.12-.21-.15-.34-.44-.42-.84-.07-.42-.04-.75.09-.98.13-.23.4-.37.81-.43.38-.04 1.09-.16 2.13-.35v-5.86h-1.91c-.76 0-1.14-.37-1.14-1.12 0-.75.38-1.12 1.14-1.12h1.91V7.85h-1.05c-.28 0-.5-.08-.66-.24-.16-.16-.24-.38-.24-.66v-.11l.02.02Zm-.26 9.13c-.15-.98-.27-1.69-.37-2.13-.15-.57.07-.92.66-1.05.56-.13.9.07 1.03.61.19.73.34 1.51.46 2.33.06.48-.18.8-.7.94-.66.18-1.02-.06-1.08-.7Zm1.91-10.34h4.19a17.42 17.42 0 0 0-2.57-3.1c-.59 1.01-1.18 1.89-1.78 2.63-.26.31-.21.46.15.46l.01.01Zm5.25 8.23c-.06.22-.16.55-.3.98-.14.43-.24.75-.3.96-.15.45-.48.61-.99.48-.53-.15-.72-.47-.59-.97.12-.48.25-1.11.4-1.89.1-.67.48-.93 1.12-.77.64.15.86.55.66 1.21Zm1.89.11c-.06-.12-.29-.47-.7-1.05-.47-.6-.37-1.1.31-1.49.51-.29.96-.23 1.34.18.6.79.96 1.28 1.08 1.47.31.54.18.98-.4 1.32-.73.44-1.27.3-1.62-.42l-.01-.01Zm2.31-9.02h3.51l.11-.9c.04-.37-.11-.55-.46-.55h-2.85l-.31 1.45Zm12.98 5.23c-.21-.12-.52-.3-.96-.55-.43-.25-.77-.44-1-.57-.73-.4-.83-.96-.31-1.69.41-.58.92-.73 1.54-.44.69.34 1.43.72 2.24 1.14.38.22.59.46.64.74.04.27-.07.59-.33.96-.26.4-.53.63-.81.69-.28.07-.61-.03-1.01-.27v-.01Zm-2.06 7.79c1.2-1.89 2.14-3.46 2.83-4.72.5-.91 1.12-1.01 1.87-.31.51.5.61 1.06.31 1.69a119.29 119.29 0 0 1-2.68 4.87c-.53.85-1.19.96-1.98.33-.37-.31-.58-.6-.64-.87-.06-.27.04-.6.29-1v.01Zm3.05-13.94c-.53-.34-1.16-.71-1.89-1.12-.76-.41-.86-.98-.29-1.71.42-.57.94-.71 1.56-.42.37.19 1.1.58 2.2 1.19.38.23.59.49.61.76.03.27-.1.59-.37.96-.54.72-1.15.83-1.82.35v-.01Zm13.99 16.09h-8.67c-.44 0-.79-.13-1.06-.4-.27-.26-.41-.62-.41-1.05v-5.25c0-.44.14-.79.41-1.07.27-.27.63-.41 1.06-.41h3.07V9.13h-4.63c-.85 0-1.27-.42-1.27-1.27 0-.85.42-1.27 1.27-1.27h4.63V3.96c-1.05.15-2.12.28-3.21.4-.4.03-.71-.02-.94-.15-.23-.13-.41-.38-.53-.75-.26-.85.12-1.33 1.14-1.45 3.34-.39 6.02-.94 8.06-1.65.37-.1.65-.12.86-.04.2.07.45.26.72.55.88.89.75 1.52-.4 1.89-.94.26-2 .51-3.18.75v3.1h4.37c.85 0 1.27.42 1.27 1.27 0 .85-.42 1.27-1.27 1.27h-4.37v2.83h3.07c.44 0 .79.14 1.06.41.27.27.41.63.41 1.07v5.25c0 .44-.14.79-.41 1.05-.27.26-.63.4-1.06.4l.01-.02Zm-7.2-2.42h5.62c.35 0 .53-.18.53-.55v-2.22c0-.37-.18-.55-.53-.55h-5.62c-.37 0-.55.18-.55.55v2.22c0 .37.18.55.55.55Zm27.35-12.59h3.45c.37 0 .63.15.8.45.17.3.24.86.23 1.68-.1 4.42-.23 7.5-.37 9.24-.15 1.74-.39 2.85-.72 3.31-.35.5-.73.82-1.13.96-.4.14-1.04.23-1.92.27-.47-.01-.85-.13-1.15-.36-.3-.23-.49-.54-.56-.93 0-.01 0-.03-.01-.04 0-.01-.01-.03-.01-.04-.16-.38-.16-.67 0-.87.16-.2.48-.28.97-.25.2.02.46.02.77.02.34 0 .59-.12.77-.37.42-.57.7-3.75.81-9.53.01-.42-.02-.71-.11-.86-.09-.15-.23-.22-.42-.22h-1.45c-.15 2.93-.51 5.41-1.1 7.45-.59 2.04-1.54 3.76-2.88 5.17-.32.31-.67.45-1.05.42-.38-.03-.72-.23-1.01-.59a6.19 6.19 0 0 0-.57-.59c-4.65.47-7.29.73-7.9.79-.35.03-.61-.03-.77-.19-.16-.15-.26-.42-.31-.8-.06-.4-.02-.7.11-.9.13-.2.39-.31.77-.33.03 0 1.19-.08 3.49-.24v-1.36h-2.99c-.63 0-.94-.31-.94-.94 0-.63.31-.94.94-.94h2.99v-.88h-2.39c-.44 0-.79-.13-1.05-.4-.26-.26-.4-.61-.4-1.05V8.17c0-.44.13-.79.4-1.05.26-.26.61-.39 1.05-.39h2.39v-.88h-3.42c-.64 0-.97-.32-.97-.97 0-.65.32-.97.97-.97h3.42v-.9c-1.33.09-2.3.14-2.9.15-.6.01-.98-.25-1.14-.79-.21-.72.1-1.1.92-1.14 2.87-.19 5.41-.48 7.62-.88.29-.06.53-.04.7.07.17.11.34.29.5.57.47.79.27 1.27-.59 1.45-1.01.16-1.92.29-2.72.37v1.1h3.12c.37 0 .65.1.86.31.2.21.31.49.31.86v.07h2.09c.01-.72.02-1.85.02-3.4 0-.86.42-1.29 1.27-1.29.85 0 1.27.43 1.27 1.29 0 .86-.01 1.97-.04 3.4l-.02-.02ZM135.55 8.4h-1.4c-.23 0-.35.12-.35.35v.64h1.76V8.4h-.01Zm0 2.57h-1.76v.59c0 .28.14.42.42.42h1.34v-1.01Zm6.67-5.14h-4.28v.88h2.48c.44 0 .79.13 1.06.39s.41.62.41 1.05v4.04c0 .44-.14.79-.41 1.05-.27.26-.63.4-1.06.4h-2.48v.88h3.1c.63 0 .94.32.94.94 0 .62-.31.94-.94.94h-3.1v1.14c.92-.06 2.21-.16 3.86-.31.82-1.16 1.41-2.51 1.77-4.06.36-1.55.58-3.42.67-5.6h-1.08c-.63 0-.94-.31-.94-.94v-.81.01Zm-2.96 2.57h-1.32v.99h1.73v-.57c0-.28-.14-.42-.42-.42h.01Zm-1.32 3.58h1.38c.23 0 .35-.12.35-.35v-.66h-1.73v1.01Zm17.79-10.87h16.2c.8 0 1.21.4 1.21 1.21 0 .81-.4 1.21-1.21 1.21h-6.52c-.06.19-.14.45-.25.78-.11.33-.17.52-.19.58h5.16c.44 0 .79.13 1.05.4s.4.62.4 1.05v8.74c0 .44-.13.79-.4 1.05-.26.26-.61.4-1.05.4h-2.83c1.95.7 3.65 1.38 5.12 2.02.61.31.91.6.88.88-.03.28-.34.62-.94 1.03-.32.22-.6.35-.82.38-.23.04-.52-.03-.87-.19-.92-.48-2.19-1.07-3.8-1.76-.57-.23-.9-.53-.98-.89-.08-.36.1-.72.54-1.09l.42-.4h-5.95l1.01.81c.28.22.41.44.41.67 0 .23-.15.41-.43.56-1.55.79-3.34 1.52-5.38 2.2-.63.19-1.18.03-1.65-.48-.78-.88-.56-1.49.64-1.82 1.96-.67 3.5-1.32 4.61-1.93h-2.2c-.44 0-.79-.13-1.06-.4-.27-.26-.41-.61-.41-1.05V6.33c0-.44.14-.79.41-1.05.27-.26.63-.4 1.06-.4h4.19c.09-.41.17-.86.24-1.36h-6.61c-.81 0-1.21-.4-1.21-1.21 0-.81.4-1.21 1.21-1.21v.01Zm12.93 5.82h-8.91c-.37 0-.55.18-.55.55v.68h9.46V6.93Zm0 3.14h-9.46v1.25h9.46v-1.25Zm0 3.18h-9.46v.68c0 .37.18.55.55.55h8.91v-1.23Z" fill="#000"/><path d="M148.38 34.24h-38.86c-8.329 0-15.08 6.752-15.08 15.08 0 8.329 6.751 15.08 15.08 15.08h38.86c8.328 0 15.08-6.751 15.08-15.08 0-8.328-6.752-15.08-15.08-15.08Z" fill="#F15A24"/><path d="M109.87 39.77h15.74c.44 0 .79.14 1.06.41.27.27.41.62.41 1.06v16.25c0 .44-.14.79-.41 1.06-.27.27-.63.41-1.06.41h-15.74c-.44 0-.79-.13-1.06-.41-.27-.27-.41-.62-.41-1.06V41.24c0-.44.14-.79.41-1.06.27-.27.63-.41 1.06-.41Zm14.16 2.04h-12.71c-.35 0-.53.17-.53.53v14.05c0 .37.18.55.53.55h12.71c.35 0 .53-.18.53-.55V42.34c0-.35-.18-.53-.53-.53Zm-12.08 10.47H119v-.04c0-.18.13-.32.38-.44.26-.12.5-.18.74-.18s.47.06.71.18.36.26.36.44v.04h.66c.42 0 .42-.22-.02-.66-.06-.06-.1-.09-.11-.11-2.39.09-5.55.18-9.48.29-.21 0-.35-.05-.44-.15-.09-.1-.14-.27-.15-.5-.02-.26.02-.45.1-.57.08-.12.24-.18.47-.18h4.35v-.75h-2.94c-.44 0-.79-.14-1.06-.41-.27-.27-.41-.63-.41-1.07v-1.65c0-.44.14-.79.41-1.06.27-.27.63-.41 1.06-.41h2.94v-.4c0-.19-.1-.29-.29-.29h-4.04c-.48 0-.72-.23-.72-.7s.24-.72.72-.72h4.33v-.04c0-.25.11-.44.32-.58.21-.14.46-.21.76-.21s.54.07.76.21c.21.14.32.33.32.58v.04h4.35c.47 0 .7.24.7.72s-.23.7-.7.7h-3.8c-.37 0-.55.18-.55.55v.13h3.01c.44 0 .79.14 1.06.41.27.27.41.63.41 1.06v2.06c0 .32-.1.58-.29.77-.19.19-.45.29-.77.29h-.07c.37.29.72.61 1.08.94.22.23.31.5.29.79-.03.29-.18.54-.46.75l-.24.15h.61c.48 0 .72.24.72.72s-.24.7-.72.7h-1.62c-.35 0-.53.18-.53.55v.9c0 .44-.05.75-.15.92-.1.17-.31.31-.64.4-.42.12-1.07.18-1.93.18-.53 0-.86-.17-.99-.5-.12-.28-.1-.48.06-.62.15-.13.4-.19.74-.18.07 0 .16 0 .26-.01.1 0 .16-.01.18-.01.19 0 .29-.09.29-.26v-.81c0-.37-.18-.55-.53-.55h-3.4c.48.48.87.92 1.16 1.32.1.15.12.31.06.49a.55.55 0 0 1-.38.36c-.75.35-1.35.23-1.8-.37-.57-.73-.38-1.33.57-1.8h-2.72c-.48 0-.72-.23-.72-.7s.24-.72.72-.72l-.04.01Zm4.61-6.13h-1.89c-.35 0-.53.18-.53.53v.13h2.42v-.66Zm0 1.71h-2.06c-.23 0-.35.11-.35.33v.09c0 .16.08.24.24.24h2.17v-.66Zm2.15-1.05h2.35v-.4c0-.18-.09-.26-.26-.26h-2.09v.66Zm0 1.71h2c.23 0 .35-.12.35-.35v-.07c0-.16-.09-.24-.26-.24h-2.09v.66Zm2.31 1.12h-2.31v.72h1.78c-.18-.13-.23-.21-.18-.24l.7-.48h.01Zm27.89 9.69h-17.32c-.88 0-1.32-.44-1.32-1.32 0-.88.44-1.3 1.32-1.3h7.16v-4.35h-5.05c-.85 0-1.27-.43-1.27-1.3 0-.87.42-1.29 1.27-1.29h5.05v-3.89h-6.21c-.88 0-1.32-.43-1.32-1.29 0-.86.44-1.32 1.32-1.32h7.6c-.57-.54-1.27-1.14-2.09-1.8-.82-.63-.78-1.26.11-1.89.56-.38 1.1-.39 1.65-.02 1.07.75 1.92 1.4 2.55 1.95.26.25.38.54.34.86-.04.32-.23.61-.58.86l-.04.04h5.75c.88 0 1.32.44 1.32 1.32 0 .88-.44 1.29-1.32 1.29h-6.15v3.89h5.09c.85 0 1.27.43 1.27 1.29 0 .86-.42 1.3-1.27 1.3h-5.09v4.35h7.25c.88 0 1.32.43 1.32 1.3 0 .87-.44 1.32-1.32 1.32h-.02Z" fill="#fff"/><path d="M231.48 34.24h-38.86c-8.328 0-15.08 6.752-15.08 15.08 0 8.329 6.752 15.08 15.08 15.08h38.86c8.329 0 15.08-6.751 15.08-15.08 0-8.328-6.751-15.08-15.08-15.08Z" fill="#2459A5"/><path d="M192.97 39.77h15.74c.44 0 .79.14 1.06.41.27.27.41.62.41 1.06v16.25c0 .44-.14.79-.41 1.06-.27.27-.63.41-1.06.41h-15.74c-.44 0-.79-.13-1.06-.41-.27-.27-.41-.62-.41-1.06V41.24c0-.44.14-.79.41-1.06.27-.27.63-.41 1.06-.41Zm14.16 2.04h-12.71c-.35 0-.53.17-.53.53v14.05c0 .37.18.55.53.55h12.71c.35 0 .53-.18.53-.55V42.34c0-.35-.18-.53-.53-.53Zm-12.08 10.47h7.05v-.04c0-.18.13-.32.38-.44.26-.12.5-.18.74-.18s.47.06.71.18.36.26.36.44v.04h.66c.42 0 .42-.22-.02-.66-.06-.06-.1-.09-.11-.11-2.39.09-5.55.18-9.48.29-.21 0-.35-.05-.44-.15-.09-.1-.14-.27-.15-.5-.02-.26.02-.45.1-.57.08-.12.24-.18.47-.18h4.35v-.75h-2.94c-.44 0-.79-.14-1.06-.41-.27-.27-.41-.63-.41-1.07v-1.65c0-.44.14-.79.41-1.06.27-.27.63-.41 1.06-.41h2.94v-.4c0-.19-.1-.29-.29-.29h-4.04c-.48 0-.72-.23-.72-.7s.24-.72.72-.72h4.33v-.04c0-.25.11-.44.32-.58.21-.14.46-.21.76-.21s.54.07.76.21c.21.14.32.33.32.58v.04h4.35c.47 0 .7.24.7.72s-.23.7-.7.7h-3.8c-.37 0-.55.18-.55.55v.13h3.01c.44 0 .79.14 1.06.41.27.27.41.63.41 1.06v2.06c0 .32-.1.58-.29.77-.19.19-.45.29-.77.29h-.07c.37.29.72.61 1.08.94.22.23.31.5.29.79-.03.29-.18.54-.46.75l-.24.15h.61c.48 0 .72.24.72.72s-.24.7-.72.7h-1.62c-.35 0-.53.18-.53.55v.9c0 .44-.05.75-.15.92-.1.17-.31.31-.64.4-.42.12-1.07.18-1.93.18-.53 0-.86-.17-.99-.5-.12-.28-.1-.48.06-.62.15-.13.4-.19.74-.18.07 0 .16 0 .26-.01.1 0 .16-.01.18-.01.19 0 .29-.09.29-.26v-.81c0-.37-.18-.55-.53-.55h-3.4c.48.48.87.92 1.16 1.32.1.15.12.31.06.49a.55.55 0 0 1-.38.36c-.75.35-1.35.23-1.8-.37-.57-.73-.38-1.33.57-1.8h-2.72c-.48 0-.72-.23-.72-.7s.24-.72.72-.72l-.04.01Zm4.61-6.13h-1.89c-.35 0-.53.18-.53.53v.13h2.42v-.66Zm0 1.71h-2.06c-.23 0-.35.11-.35.33v.09c0 .16.08.24.24.24h2.17v-.66Zm2.15-1.05h2.35v-.4c0-.18-.09-.26-.26-.26h-2.09v.66Zm0 1.71h2c.23 0 .35-.12.35-.35v-.07c0-.16-.09-.24-.26-.24h-2.09v.66Zm2.31 1.12h-2.31v.72h1.78c-.18-.13-.23-.21-.18-.24l.7-.48h.01Zm12.52-3.46h13.33c.44 0 .79.13 1.06.41.27.27.41.62.41 1.06v7.03c0 .44-.14.79-.41 1.07-.27.27-.63.41-1.06.41h-2.04c1.48.45 2.88.92 4.19 1.4.41.16.68.33.81.52s.14.38.03.6c-.11.22-.34.47-.69.75-.31.23-.57.38-.78.43-.21.05-.49.01-.85-.12-1.14-.48-2.61-1.03-4.41-1.65-.59-.18-.9-.42-.96-.75-.05-.32.17-.67.67-1.03l.22-.15h-6.04l.92.64c.23.16.35.33.35.52s-.11.33-.33.45c-1.57.8-3.31 1.49-5.25 2.04-.59.16-1.11.03-1.58-.4-.89-.85-.7-1.43.59-1.76 1.42-.44 2.68-.94 3.78-1.49h-1.98c-.44 0-.79-.14-1.06-.41-.27-.27-.41-.63-.41-1.07v-7.03c0-.44.14-.79.41-1.06.27-.27.63-.41 1.06-.41h.02Zm.99-6.46h11.57c.44 0 .79.14 1.06.41.27.27.41.62.41 1.06v2.7c0 .44-.14.79-.41 1.05-.27.26-.63.39-1.06.39h-11.57c-.44 0-.79-.13-1.06-.39s-.41-.62-.41-1.05v-2.7c0-.44.14-.79.41-1.06.27-.27.63-.41 1.06-.41ZM228.3 48h-9.97c-.37 0-.55.18-.55.55v.42h10.93v-.55c0-.28-.14-.42-.42-.42h.01Zm.42 2.66h-10.93v.97h10.93v-.97Zm0 2.68h-10.93v.57c0 .28.15.42.44.42h9.95c.37 0 .55-.18.55-.55v-.44h-.01Zm-9.33-10.06h8.45v-1.45h-8.45c-.37 0-.55.18-.55.53v.39c0 .35.18.53.55.53Z" fill="#fff"/><path d="M1.84 42.76h6.59c.7 0 1.05.35 1.05 1.05 0 .7-.35 1.05-1.05 1.05H1.84c-.7 0-1.05-.35-1.05-1.05 0-.7.35-1.05 1.05-1.05Zm8.72 5.93h8.39c.51 0 .87.16 1.08.48.2.32.23.79.07 1.41-.64 2.06-1.62 3.8-2.94 5.2.8.53 1.7.97 2.68 1.32 1.3.4 1.6 1.07.88 2.02-.44.6-1.08.76-1.91.48-1.29-.51-2.51-1.19-3.67-2.04-1.07.78-2.31 1.44-3.73 2-.42.15-.81.15-1.16.02-.35-.13-.62-.38-.81-.75-.26-.45-.52-.83-.77-1.12v.64c0 .34-.16.5-.48.5H3.25c-.44 0-.79-.14-1.06-.41-.27-.27-.41-.63-.41-1.06v-3.86c0-.44.14-.79.41-1.05.27-.26.63-.4 1.06-.4h3.97c.44 0 .79.13 1.05.4.26.26.4.61.4 1.05v4.15c1.71-.42 3.21-1.08 4.5-1.95-.64-.72-1.25-1.54-1.82-2.46-.22-.44-.26-.83-.13-1.16.13-.34.42-.58.88-.72l.79-.26H11c-.38 0-.67-.15-.88-.45-.21-.3-.31-.66-.31-1.09 0-.23.06-.44.19-.62.12-.17.29-.26.49-.26h.04c-.56-.64-1.17-1.19-1.84-1.62v.5c0 .23-.12.35-.35.35H2.85c-.67 0-1.01-.34-1.01-1.03s.34-1.01 1.01-1.01h4.83c.31 0 .55.09.74.27.18.18.27.43.27.74v.07c1.45-1 2.17-2.53 2.17-4.61v-1.41c0-.38.11-.69.34-.92.23-.23.53-.35.91-.35h4.74c.44 0 .79.14 1.06.41.27.27.41.63.41 1.07v3.58c0 .31.01.5.04.57.03.07.11.11.24.11h.53c.1 0 .18-.03.22-.09.06-.63.21-1.1.45-1.41.24-.31.6-.36 1.06-.15.29.12.48.38.57.79.09.41.1.83.04 1.25-.16.7-.4 1.19-.71 1.47-.31.28-.77.42-1.35.42h-1.3c-.88 0-1.48-.21-1.8-.62-.32-.42-.48-1.18-.48-2.29v-2.2c0-.35-.18-.53-.55-.53h-1.62c-.22 0-.33.1-.33.31v.07c0 2.9-.92 4.99-2.77 6.28v-.03Zm-7.75.26h4.87c.66 0 .99.33.99.99 0 .66-.33 1.01-.99 1.01H2.81c-.66 0-.99-.34-.99-1.01 0-.67.33-.99.99-.99Zm.11-9.22h4.7c.67 0 1.01.34 1.01 1.01 0 .67-.34 1.03-1.01 1.03h-4.7c-.67 0-1.01-.34-1.01-1.03s.34-1.01 1.01-1.01ZM4 54.7v1.51c0 .37.18.55.55.55h1.27c.37 0 .55-.18.55-.55V54.7c0-.35-.18-.53-.55-.53H4.55c-.37 0-.55.18-.55.53Zm13.17-3.6h-4.24c.54 1.1 1.26 2.11 2.15 3.03.85-.85 1.54-1.86 2.09-3.03Zm11.63-5.31h9.7c.85 0 1.27.42 1.27 1.25 0 .83-.42 1.3-1.27 1.3h-3.51v2.81h4.9c.83 0 1.25.42 1.25 1.25 0 .83-.42 1.25-1.25 1.25h-4.9v3.36c.8.09 1.65.13 2.55.13 1.92 0 3.43 0 4.54-.02.64-.01 1.06.1 1.25.34.19.24.19.66 0 1.26-.23.72-.78 1.08-1.62 1.08h-4.3c-2.25 0-4.11-.27-5.57-.81s-2.66-1.57-3.61-3.07c-.56 1.32-1.23 2.42-2.02 3.32-.34.34-.65.52-.93.54-.29.02-.61-.11-.98-.41-.44-.37-.66-.71-.66-1.04 0-.33.21-.69.64-1.09 1.24-1.45 2.07-3.45 2.48-5.99.07-.48.25-.86.52-1.14.27-.28.63-.39 1.06-.35.95.09 1.35.61 1.19 1.58-.04.37-.14.83-.29 1.41.63 1.65 1.65 2.83 3.05 3.54v-7.93H28.8c-.85 0-1.27-.43-1.27-1.3 0-.87.42-1.25 1.27-1.25v-.02Zm11.11-1.93H27.29c-.35 0-.53.18-.53.53v1.25c0 .86-.44 1.29-1.32 1.29-.88 0-1.3-.43-1.3-1.29v-2.85c0-.44.13-.79.4-1.07.26-.27.61-.41 1.05-.41h6.63v-.86c0-.92.47-1.38 1.41-1.38s1.38.46 1.38 1.38v.86h6.72c.44 0 .79.13 1.05.41.26.27.4.63.4 1.07v2.79c0 .91-.45 1.36-1.36 1.36-.91 0-1.38-.45-1.38-1.36v-1.19c0-.35-.18-.53-.53-.53Zm17.13-2.68h4.22c.4 0 .71.12.96.35.24.23.36.55.36.94v4.94c.04-.06.11-.15.2-.27.09-.12.15-.22.2-.27.5-.73 1.14-.91 1.93-.53.92.45 1.09 1.11.5 1.95-.78 1.05-1.72 2.14-2.83 3.25v5.25c0 .79-.09 1.4-.27 1.82-.18.42-.51.74-.98.94-.63.28-1.58.44-2.85.48-1.14 0-1.84-.37-2.09-1.12-.19-.58-.12-1.01.21-1.27.33-.26.85-.38 1.57-.35.19 0 .41 0 .66-.01.25 0 .39-.01.42-.01.4 0 .59-.17.59-.5v-2.88c-2.97 2.28-6.61 4.13-10.91 5.55-.85.28-1.5.09-1.95-.55-.72-1-.43-1.67.86-2.02 2.66-.82 5.12-1.87 7.38-3.16-.38.03-1.52.12-3.41.29-1.9.16-3.27.27-4.14.33-.41.01-.71-.07-.9-.25-.19-.18-.31-.49-.37-.93-.13-.94.24-1.43 1.12-1.47.85-.03 1.51-.05 1.98-.07v-8.96c0-.44.13-.79.4-1.06.26-.27.61-.41 1.05-.41h3.16c.04-.12.14-.39.29-.81.28-.91.89-1.32 1.82-1.23 1.23.13 1.54.78.92 1.93 0 .01 0 .03-.02.05-.01.02-.03.04-.04.06h-.04Zm-4.92 3.6h7.71v-.77c0-.37-.18-.55-.55-.55h-6.63c-.35 0-.53.18-.53.55v.77Zm0 3.25h7.71v-1.34h-7.71v1.34Zm7.71 1.95h-7.71v1.49c1.29-.06 3.59-.18 6.89-.37.1-.09.25-.21.44-.37s.31-.27.37-.33v-.42h.01Zm13.34-5.42v14.21c0 .82-.41 1.23-1.23 1.23-.82 0-1.25-.41-1.25-1.23V48.52l-.13.15c-.06.07-.1.12-.13.15-.85.98-1.55.93-2.11-.15-.21-.41-.29-.77-.25-1.08.04-.31.21-.63.52-.97 1.45-1.68 2.69-3.77 3.73-6.26.32-.83.89-1.12 1.71-.86.85.26 1.12.8.81 1.62-.59 1.32-1.14 2.46-1.67 3.42v.02Zm3.47 3.47h8.58c.34 0 .41-.14.22-.42-1.05-1.49-1.87-3.36-2.46-5.6h-3.32c-.78 0-1.16-.39-1.16-1.16 0-.77.39-1.19 1.16-1.19h4.06c.4 0 .74.12 1.03.36.29.24.48.58.57 1 .63 2.25 1.55 4.05 2.77 5.4.83.73.87 1.54.11 2.42-.56.64-1.13.67-1.73.07v.24c-.07 3.31-.17 5.65-.3 7.04-.12 1.38-.33 2.28-.63 2.69-.32.42-.68.71-1.06.86-.39.15-.93.22-1.64.22-.98 0-1.57-.37-1.78-1.1-.16-.56-.12-.95.12-1.17.24-.23.68-.33 1.31-.3h.02c.32 0 .56-.1.72-.31.29-.4.5-2.61.61-6.63h-2.77c-.21 1.93-.61 3.61-1.23 5.04-.62 1.43-1.56 2.65-2.83 3.68-.82.57-1.47.55-1.95-.07-.56-.72-.34-1.42.66-2.11.89-.78 1.54-1.7 1.95-2.77.41-1.07.68-2.33.81-3.78h-1.25c-.34 0-.61-.1-.81-.3-.21-.2-.31-.46-.31-.8v-.66c-.6.89-1.24 1-1.93.31-.59-.58-.59-1.19 0-1.82.94-1.17 1.71-2.58 2.33-4.21.25-.78.78-1.06 1.58-.86.88.23 1.16.78.83 1.62-.79 1.8-1.56 3.23-2.31 4.3l.03.01Zm97.28-8.06c-1.62 6.56-3.3 13.24-5.03 20.04-.15.6-.53.9-1.14.9-.83 0-1.16-.41-.97-1.23l5.03-20.05c.15-.6.53-.9 1.14-.9.83 0 1.16.41.97 1.23v.01Z" fill="#000"/></svg>