<svg width="33" height="43" fill="none" xmlns="http://www.w3.org/2000/svg"><path d="M.095 29.414v-.048a10.443 10.443 0 0 1-.047-.608v-.143l-.036-.643v-.085c0-.203-.012-.405-.012-.596v-.906c0-.215 0-.43.024-.644v-.036c0-.226.024-.453.036-.68v-.131a11.5 11.5 0 0 1 .06-.691v-.107c.023-.226.047-.453.083-.68v-.059c.035-.238.06-.477.107-.727v-.132c.036-.238.071-.464.119-.703v-.047c0-.024 0-.048.012-.084.047-.226.083-.465.13-.691v-.024c.049-.239.096-.465.156-.704 0-.024 0-.047.012-.083 0-.024 0-.048.012-.06.047-.214.107-.44.154-.655v-.036a.17.17 0 0 1 .024-.072c.048-.202.108-.393.155-.596a.22.22 0 0 1 .024-.083c0-.012 0-.024.012-.048.06-.215.12-.43.19-.644 0-.012 0-.036.012-.048 0-.024.024-.06.024-.083.06-.203.12-.405.19-.596 0-.024.013-.048.025-.06v-.024c.083-.238.167-.489.25-.727a.17.17 0 0 1 .024-.072.09.09 0 0 1 .024-.047c.095-.274.202-.549.297-.823 0-.024.012-.036.024-.06 0-.023.012-.047.024-.06.084-.202.155-.405.238-.607 0-.024.024-.06.036-.084.072-.179.143-.357.227-.536.011-.024.023-.06.035-.084a.09.09 0 0 1 .024-.047c.12-.275.238-.549.37-.823.011-.036.035-.072.047-.095l.393-.823c0-.024.012-.036.024-.06 0-.012.012-.024.024-.036.107-.214.214-.417.322-.62.023-.047.047-.083.071-.13.107-.215.226-.418.346-.633.166-.298.345-.608.512-.894 0 0 0-.012.012-.024 0-.012.024-.035.036-.047.143-.239.286-.465.428-.704V9.11c.143-.214.286-.44.43-.656 0-.011.023-.035.035-.047 0 0 0-.012.012-.024.143-.203.274-.405.417-.608.012-.024.024-.036.036-.06 0-.012.024-.024.036-.047.142-.203.285-.394.44-.597 0-.012.024-.035.036-.047a.093.093 0 0 1 .048-.048c.155-.203.31-.393.464-.584 0 0 .012-.024.024-.024.012-.012.024-.036.036-.048.167-.202.334-.405.5-.596v-.012s.024-.024.024-.036c.167-.202.346-.393.524-.584.167-.19.346-.37.525-.548a.165.165 0 0 0 .035-.048l.024-.024a18.23 18.23 0 0 1 .536-.524c.012-.012.024-.024.048-.036.155-.155.322-.298.489-.441 0 0 .023-.024.035-.024.024-.012.036-.036.06-.048.155-.143.322-.274.488-.405h.012c.167-.131.322-.263.489-.382.024-.012.035-.036.06-.048l.13-.095c.131-.095.25-.19.382-.274 0 0 .023-.012.035-.024.024-.012.036-.024.06-.036l.429-.286c.012 0 .036-.024.048-.036 0 0 .011 0 .023-.012l.465-.286c.012 0 .036-.024.048-.024.023 0 .035-.023.06-.035.154-.096.32-.18.476-.263.166-.083.321-.167.488-.238.024 0 .036-.024.06-.024.012 0 .024 0 .035-.024.155-.071.31-.143.465-.203 0 0 .024 0 .036-.011A.09.09 0 0 0 14.5.668c.166-.072.333-.131.5-.191.167-.06.334-.107.5-.155.012 0 .036 0 .048-.012.012 0 .036 0 .048-.012l.143-.036c.06-.012.119-.035.166-.047.048 0 .096-.024.143-.036a.225.225 0 0 0 .096-.024c.024 0 .047 0 .06-.012.047 0 .095-.024.154-.036.048 0 .107-.024.155-.024s.095-.011.155-.023c.024 0 .06 0 .083-.012h.06a.92.92 0 0 0 .179-.024.58.58 0 0 0 .143-.012A.9.9 0 0 0 17.31 0h.871c.107 0 .214 0 .31.012h.107c.107 0 .203.024.31.036h.047c.155.024.31.047.453.083a.15.15 0 0 1 .072.012l.429.107h.035c.024 0 .036.012.06.024.06.024.12.036.167.06.035.012.083.024.119.036l.179.071c.035.012.071.024.107.048.06.024.119.048.19.083.036.012.06.024.096.036.095.048.179.084.274.131l5.98 3.124c-.095-.048-.178-.095-.273-.131-.036-.012-.06-.024-.096-.036-.06-.024-.119-.06-.19-.083a.424.424 0 0 1-.107-.048l-.18-.072c-.035-.011-.083-.023-.118-.035-.06-.024-.12-.036-.167-.06-.036 0-.072-.024-.095-.036a2.824 2.824 0 0 0-.43-.107c-.023 0-.047 0-.07-.012a6.025 6.025 0 0 0-.454-.083h-.047l-.31-.036h-.107c-.108 0-.215-.012-.31-.012h-.857c-.06 0-.12 0-.18.012-.047 0-.095 0-.142.012-.06 0-.12.012-.18.024a.697.697 0 0 0-.154.023c-.048 0-.095.012-.155.024-.048 0-.107.024-.155.024-.047 0-.095.024-.155.036-.06 0-.107.024-.167.036-.047 0-.095.024-.142.035-.06.012-.12.024-.167.048l-.143.036c-.036 0-.072.024-.096.024-.166.047-.333.107-.5.155-.167.06-.334.119-.5.19-.024 0-.06.024-.084.036-.155.06-.31.131-.464.203-.036.012-.06.036-.096.048-.155.071-.321.155-.488.238-.155.084-.322.167-.477.262-.036.024-.071.036-.107.06l-.465.286c-.023.012-.047.036-.071.048l-.43.286c-.035.024-.059.036-.094.06-.132.083-.25.179-.382.274l-.178.143c-.167.131-.334.25-.489.382l-.012.011c-.167.132-.322.275-.488.406-.024.024-.06.048-.084.071-.166.143-.321.287-.488.442-.036.023-.06.06-.095.083-.167.155-.334.322-.489.477-.024.024-.036.048-.06.06-.178.178-.345.357-.524.548l-.012.012c-.178.19-.357.381-.524.584a.165.165 0 0 0-.036.048c-.166.19-.333.393-.5.596-.024.024-.036.048-.06.072-.155.19-.31.393-.464.584-.024.035-.048.071-.072.095-.143.19-.298.394-.44.596l-.072.108a17.32 17.32 0 0 0-.417.608c-.012.023-.036.047-.048.071-.143.215-.286.43-.429.656 0 0 0 .012-.011.024-.144.226-.286.465-.43.703-.011.024-.035.048-.047.072-.179.298-.346.596-.512.894-.12.215-.227.417-.346.632-.024.048-.048.083-.071.131-.108.203-.215.417-.322.62-.012.036-.036.06-.048.095-.13.275-.262.549-.393.823-.012.036-.036.072-.048.096-.13.274-.25.548-.369.822-.024.048-.036.084-.06.131-.07.18-.154.358-.226.537 0 .024-.024.048-.036.083-.083.203-.154.406-.238.608-.012.048-.036.084-.047.132a22.84 22.84 0 0 0-.298.822c-.012.036-.024.084-.048.12a50.51 50.51 0 0 0-.25.727.22.22 0 0 1-.024.083c-.06.203-.131.406-.19.597a1.942 1.942 0 0 1-.036.13c-.06.215-.131.43-.191.645l-.036.13c-.06.191-.107.394-.155.597 0 .036-.023.071-.023.107-.06.215-.108.441-.155.656 0 .048-.024.095-.036.143-.048.238-.107.465-.155.703v.036a14.1 14.1 0 0 0-.131.692c0 .047-.012.083-.024.13-.048.24-.083.466-.119.704a.43.43 0 0 1-.024.131l-.107.728v.06c-.024.226-.06.453-.083.679 0 .036 0 .072-.012.12-.024.226-.048.464-.06.69v.144c-.012.226-.036.453-.036.68v.047c0 .215-.012.43-.024.644v.906c0 .203 0 .405.012.596v.072c0 .214.024.43.036.644v.143c.012.203.036.405.048.608v.083c.024.203.047.418.071.608 0 .036 0 .072.012.108.024.202.06.417.095.62 0 .035.012.083.024.119.036.215.084.43.12.632 0 .024.011.06.023.083.048.227.096.441.155.656v.024c.06.238.131.477.203.715.035.131.083.25.119.37.012.036.024.083.048.12.023.083.06.166.083.238a.82.82 0 0 0 .048.119c.035.083.071.167.107.262.024.048.036.095.06.131.035.072.059.155.095.227.024.047.035.083.06.131.047.107.095.203.142.31.012.024.024.06.036.083.06.12.131.25.19.358 0 .024.024.036.036.06.096.167.19.322.286.477.096.155.203.298.298.44.012.025.024.037.036.06.083.12.167.227.25.334.024.024.036.048.06.072.071.095.155.19.238.274.012.012.024.036.048.048.095.095.178.202.274.298l.071.071c.083.084.179.167.262.25l.036.037c.095.083.202.166.298.25.024.024.047.036.071.06.096.071.19.143.298.214 0 0 .012 0 .024.012l.322.215c.024.012.047.035.083.047.107.072.226.132.334.191L5.04 38.845c-.108-.06-.227-.119-.334-.19-.024-.012-.048-.036-.083-.048-.108-.072-.215-.131-.322-.215 0 0-.012 0-.024-.012-.095-.071-.202-.143-.298-.214-.023-.024-.047-.036-.071-.06-.107-.083-.203-.167-.298-.25l-.036-.036c-.083-.084-.178-.167-.262-.25l-.071-.072a3.25 3.25 0 0 1-.274-.298c-.012-.012-.024-.036-.048-.048l-.238-.274c-.024-.024-.036-.048-.06-.072a8.126 8.126 0 0 1-.25-.333s0-.012-.012-.024c0 0-.012-.024-.024-.036a5.715 5.715 0 0 1-.298-.441c-.095-.155-.19-.31-.286-.477 0-.012-.012-.024-.023-.036 0 0 0-.012-.012-.024-.072-.119-.131-.238-.191-.357-.012-.024-.024-.06-.036-.084-.047-.095-.095-.203-.143-.31 0-.024-.024-.036-.024-.06 0-.023-.023-.047-.023-.071a1.837 1.837 0 0 1-.096-.227c-.023-.047-.035-.095-.06-.13-.035-.084-.07-.168-.106-.263 0-.036-.024-.06-.036-.095v-.024c-.036-.084-.06-.167-.084-.239-.012-.036-.023-.083-.047-.119-.048-.12-.084-.25-.12-.37a10.263 10.263 0 0 1-.202-.715v-.012a10.56 10.56 0 0 1-.155-.656c0-.011 0-.035-.012-.047v-.024A9.908 9.908 0 0 1 .262 31c0-.024 0-.036-.012-.06v-.06a9.483 9.483 0 0 1-.095-.62v-.107l-.072-.608v-.047l.012-.084Z" fill="#FFB241"/><path d="M17.37 5.508C10.15 10.862 5.088 22.94 6.065 32.502c.977 9.563 7.637 12.972 14.857 7.619S33.205 22.69 32.228 13.127C31.25 3.565 24.59.167 17.37 5.508Z" fill="#FFE365"/><path d="m20.457 12.03-.024 2.468c.858-.608 1.525-.691 2.001-.25.477.453.703 1.443.691 2.969l-1.417 1.288c0-1.062-.155-1.741-.489-2.051-.333-.31-.798-.203-1.382.334a5.627 5.627 0 0 0-1.406 1.967c-.333.751-.5 1.55-.5 2.373 0 .763.155 1.216.5 1.359.334.143.894.048 1.68-.298.775-.334 1.394-.49 1.823-.441.44.047.75.274.953.667.203.406.298 1.002.298 1.8-.012 1.265-.286 2.517-.81 3.768a11.325 11.325 0 0 1-2.204 3.363l-.024 2.146-1.144 1.037.024-2.146c-.953.74-1.704.918-2.228.548-.536-.37-.798-1.3-.786-2.778l1.43-1.287c0 1.037.166 1.669.535 1.896.37.226.894.023 1.585-.609a6.737 6.737 0 0 0 1.597-2.146 5.854 5.854 0 0 0 .595-2.456c0-.691-.155-1.12-.476-1.288-.322-.167-.882-.095-1.668.239-1.084.5-1.883.596-2.371.262-.489-.322-.739-1.097-.727-2.301 0-1.228.262-2.456.763-3.684.5-1.228 1.18-2.313 2.037-3.243l.024-2.456 1.143-1.038-.023-.012Z" fill="#fff"/></svg>