<svg width="34" height="39" fill="none" xmlns="http://www.w3.org/2000/svg"><path d="M33.35 25.325v-.036c0-.18 0-.37-.013-.549v-.131c0-.19-.024-.393-.035-.584v-.06c-.012-.178-.036-.37-.048-.548v-.119l-.072-.585v-.119a9.95 9.95 0 0 0-.095-.584v-.036a13.93 13.93 0 0 0-.12-.62c0-.024.001-.047-.01-.071a.11.11 0 0 0-.013-.06c-.047-.203-.083-.417-.13-.62v-.036c0-.024 0-.047-.013-.071a13.69 13.69 0 0 0-.155-.62v-.048l-.178-.644c0-.024-.012-.047-.024-.071 0-.012 0-.036-.012-.048-.06-.215-.131-.417-.19-.632 0-.012 0-.024-.013-.048a.17.17 0 0 0-.023-.071c-.072-.203-.132-.418-.203-.62v-.024c-.072-.203-.155-.417-.227-.62a.169.169 0 0 0-.023-.072c0-.023-.012-.035-.024-.06-.072-.19-.155-.393-.226-.583v-.024c0-.024-.024-.048-.024-.072-.072-.179-.143-.346-.215-.524 0-.024-.024-.048-.035-.072 0-.012 0-.024-.012-.036l-.25-.572a.09.09 0 0 0-.024-.048c0-.024-.024-.047-.036-.071l-.25-.537c0-.024-.012-.036-.024-.06v-.023l-.322-.644c0-.024-.024-.048-.036-.06 0-.012-.012-.024-.023-.047-.131-.239-.25-.49-.394-.728 0-.024-.024-.036-.024-.06 0-.023-.023-.035-.035-.059-.096-.179-.203-.358-.298-.537l-.036-.071c-.095-.155-.178-.31-.274-.465a.25.25 0 0 0-.047-.072c0-.012-.024-.023-.024-.047a24.347 24.347 0 0 0-.453-.728c-.024-.023-.036-.06-.06-.083-.154-.239-.321-.477-.476-.715 0-.012-.024-.036-.036-.048 0-.012-.012-.024-.024-.036-.13-.179-.25-.358-.381-.536-.024-.036-.048-.072-.083-.108-.131-.179-.274-.37-.405-.548-.203-.262-.406-.525-.608-.775 0 0 0-.012-.012-.024s-.024-.036-.036-.048a26.349 26.349 0 0 0-.5-.596l-.012-.012c-.167-.19-.322-.381-.489-.56a.164.164 0 0 1-.035-.048s-.012-.012-.012-.024c-.155-.179-.322-.345-.477-.512l-.047-.048-.036-.036-.5-.5-.036-.036-.048-.048c-.167-.167-.345-.334-.512-.5l-.024-.025c-.012-.012-.024-.024-.048-.035a11.11 11.11 0 0 0-.56-.501h-.012s-.024-.012-.035-.024a11.895 11.895 0 0 0-.584-.489c-.19-.155-.381-.31-.572-.453-.012 0-.036-.024-.048-.036 0 0-.012 0-.024-.012L21.4 2.97c-.012-.012-.036-.024-.047-.036-.012 0-.036-.024-.048-.036-.179-.119-.345-.25-.524-.357 0 0-.024-.012-.036-.024-.024-.012-.036-.024-.06-.036-.166-.12-.345-.227-.524-.334h-.012c-.178-.107-.345-.214-.524-.31-.024 0-.036-.024-.06-.036a1.302 1.302 0 0 1-.13-.071c-.132-.072-.275-.143-.406-.215 0 0-.023-.012-.035-.024-.024 0-.036-.023-.06-.035a8.015 8.015 0 0 0-.453-.227c-.024 0-.035-.024-.06-.024h-.023c-.167-.083-.334-.155-.489-.226a.09.09 0 0 1-.047-.024c-.024 0-.036-.012-.06-.024a8.795 8.795 0 0 0-.5-.203l-.5-.179c-.024 0-.036-.011-.06-.023-.012 0-.024 0-.048-.012-.167-.048-.322-.108-.476-.155h-.036c-.012 0-.036 0-.048-.012a8.072 8.072 0 0 0-.512-.131L15.11.108h-.096c-.047 0-.095-.012-.143-.024-.06 0-.119-.023-.166-.023a.602.602 0 0 1-.144-.024c-.035 0-.071 0-.107-.012h-.06c-.047 0-.095 0-.154-.012-.048 0-.107 0-.155-.012h-1.264c-.107 0-.214.012-.322.024h-.059c-.107 0-.203.024-.31.036-.036 0-.072 0-.095.012a2.632 2.632 0 0 0-.298.06h-.048c-.143.035-.298.07-.44.106a.17.17 0 0 0-.072.024c-.143.036-.274.084-.405.131 0 0-.024 0-.036.012-.024 0-.036.012-.06.024-.06.024-.107.048-.166.06-.036.012-.072.036-.107.048-.06.023-.108.047-.167.071-.036.012-.072.036-.108.048-.06.024-.119.06-.178.083-.024.012-.06.024-.084.048l-.25.143L4.1 4.245l.25-.143c.024-.012.06-.024.083-.048a1.2 1.2 0 0 1 .18-.084c.035-.012.07-.035.106-.047.06-.024.108-.048.167-.072.036-.012.072-.036.107-.048.06-.023.108-.047.167-.06.036-.011.06-.023.096-.035.13-.048.274-.095.405-.131a.171.171 0 0 0 .071-.024c.143-.036.286-.083.44-.107h.049c.095-.024.202-.036.297-.06.036 0 .072 0 .096-.012l.31-.036h.06c.106 0 .214-.023.32-.023H8.58c.047 0 .107 0 .154.012.048 0 .096 0 .155.011.06 0 .108.012.167.024.048 0 .095.012.143.024.06 0 .12.012.167.024.048 0 .095.012.143.024.036 0 .071.012.095.024.167.035.346.071.513.107h.011c.167.036.334.083.513.131a.22.22 0 0 1 .083.024c.155.048.322.095.477.155.035 0 .071.024.095.036l.5.179c.167.06.334.13.5.202.037.012.072.036.108.048.167.072.322.143.489.227.023.011.047.023.083.035.155.072.298.143.453.227.035.012.06.036.095.048.131.071.274.143.405.214.072.036.131.072.203.107.178.096.357.203.524.31h.012c.179.108.345.215.524.334.036.024.06.036.095.06.179.12.358.238.524.358.036.023.06.047.096.071l.536.394c.024.012.048.035.071.047a18.851 18.851 0 0 1 .584.465c.19.155.393.322.584.49.012.011.024.023.048.035.19.167.369.334.56.5a.29.29 0 0 0 .071.06c.179.167.346.334.512.501l.084.084.5.5.084.084c.166.167.321.346.476.512l.06.06c.167.179.333.37.488.56l.012.024c.167.203.334.394.5.596a.256.256 0 0 0 .048.06c.203.25.405.513.608.775.143.179.274.37.405.549.024.035.048.071.083.107.131.179.25.357.382.536.023.024.035.06.06.084.166.238.32.477.476.715.024.024.035.06.06.084.154.238.31.477.452.727.024.036.048.083.072.12.095.154.19.31.274.464l.035.072c.108.179.203.357.298.536.024.036.036.072.06.108.13.238.262.477.381.727.024.036.036.071.06.107l.321.644.036.072.25.536c.024.036.036.084.06.12l.25.572c.012.035.036.071.048.119.071.179.143.346.214.524.012.036.024.06.036.096.083.19.155.393.226.584.012.048.036.084.048.131.083.203.155.418.226.62v.024c.072.203.143.417.203.62.012.036.024.084.036.12.071.214.13.417.19.631.012.036.024.084.036.12l.179.643c0 .012 0 .036.011.048a9.5 9.5 0 0 1 .155.62c0 .036.012.072.024.107.048.203.096.418.131.62 0 .048.012.084.024.131.036.203.084.418.12.62v.048c.035.19.059.394.095.584 0 .036 0 .084.011.12l.072.584c0 .036 0 .083.012.12.024.178.036.369.047.547v.072l.036.584v.131c0 .191.012.37.012.549v.739c0 .19-.012.382-.024.572v.108c-.012.203-.035.393-.047.584v.072c-.024.202-.048.405-.084.608v.023c-.035.227-.071.453-.119.668-.024.12-.047.239-.083.346 0 .036-.024.071-.024.107-.024.072-.036.155-.06.227 0 .035-.023.071-.035.107a6.034 6.034 0 0 1-.072.239l-.036.13-.071.215c-.012.036-.024.084-.048.12l-.107.286c0 .023-.024.047-.036.071-.047.12-.095.227-.143.346 0 .024-.024.036-.024.06a5.36 5.36 0 0 1-.226.453c-.083.143-.155.286-.25.429 0 .012-.024.036-.036.048l-.214.322c-.012.023-.036.047-.048.071-.06.095-.131.179-.202.274-.012.012-.024.036-.036.048-.084.095-.155.19-.238.286-.024.024-.036.048-.06.06-.072.083-.155.167-.227.25l-.035.036c-.084.083-.179.167-.262.25-.024.024-.048.036-.072.06-.083.071-.178.155-.262.226 0 0-.012 0-.024.012-.095.072-.19.143-.298.215-.023.012-.047.036-.071.048-.095.071-.203.13-.31.202l5.516-3.314c.108-.06.203-.131.31-.203.024-.012.048-.036.072-.048.095-.071.202-.143.297-.214 0 0 .012 0 .024-.012.096-.072.18-.143.263-.227.023-.024.047-.036.071-.06.095-.083.179-.166.262-.25l.036-.035a4.6 4.6 0 0 0 .226-.25c.024-.025.036-.049.06-.06.083-.096.167-.191.238-.287.012-.012.024-.035.036-.047.071-.084.13-.18.202-.274.012-.024.036-.048.048-.072l.214-.322s0-.012.012-.024c0 0 .012-.024.024-.036l.25-.429c.084-.143.155-.298.227-.453 0-.012.012-.024.024-.036v-.024c.047-.107.095-.226.142-.345 0-.024.024-.048.036-.072l.108-.286c0-.024.011-.036.023-.06 0-.023.012-.047.024-.06l.072-.214c.012-.048.024-.083.035-.131.024-.084.048-.155.072-.239 0-.023.012-.06.024-.083v-.024c.024-.071.035-.155.06-.226 0-.036.023-.072.023-.108.024-.119.06-.226.083-.345.048-.215.084-.441.12-.668v-.012c.035-.203.06-.405.083-.608v-.072c.024-.19.036-.381.048-.584v-.107c0-.19.023-.37.023-.573v-.69l-.095-.083Z" fill="#FFB241"/><path d="M13.726 4.972c7.685 4.292 14 14.868 14.107 23.643.107 8.764-6.04 12.388-13.725 8.096S.108 21.831 0 13.068C-.106 4.304 6.041.68 13.727 4.972Z" fill="#FFE365"/><path d="m13.786 12.781.024 1.849a6.127 6.127 0 0 1 1.942 2.253c.465.918.703 1.944.727 3.1l-1.358-.751c0-.787-.18-1.514-.513-2.158-.333-.644-.786-1.133-1.346-1.443-.584-.322-1.025-.405-1.335-.226-.31.167-.452.56-.452 1.18 0 .572.178 1.12.5 1.633.334.525.87 1.133 1.62 1.825.751.691 1.335 1.323 1.764 1.895.429.56.738 1.121.941 1.682.203.548.31 1.12.322 1.716 0 .942-.227 1.562-.715 1.86-.489.298-1.18.25-2.085-.143l.024 1.598-1.085-.608-.023-1.598a6.565 6.565 0 0 1-2.157-2.313 6.29 6.29 0 0 1-.81-3.064l1.358.763c0 .775.19 1.479.56 2.099.358.62.87 1.108 1.525 1.478.643.358 1.144.465 1.513.322.358-.143.548-.525.536-1.133 0-.512-.166-1.037-.488-1.562-.322-.524-.858-1.144-1.609-1.848-1.048-.942-1.81-1.848-2.299-2.694-.488-.847-.739-1.73-.739-2.623 0-.918.215-1.538.68-1.86.464-.322 1.096-.322 1.918.023l-.024-1.836 1.096.608-.012-.024Z" fill="#fff"/></svg>