<svg width="258" height="125" fill="none" xmlns="http://www.w3.org/2000/svg"><path d="m0 29.772 4.766-.992V16.16H.638V8.208h4.13V1.707h9.15v6.5h3.69v7.953h-3.69v10.708l3.81-.843V33.9l-3.81.843v16.061H3.371L.701 44.53h4.066v-7.875L0 37.647v-7.875Zm43.097-6.806c0-.205.007-.41.028-.609a5.92 5.92 0 0 0 .029-.61V.63h8.767v22.563l-.254 2.903c-.085.56-.156 1.12-.22 1.686-.064.56-.135 1.119-.22 1.685l2.67-.609 5.596 19.886-5.85 2.138L48.43 39.41a42.528 42.528 0 0 1-2.925 6.005 56.925 56.925 0 0 1-3.69 5.467l-5.786-3.286c1.947-3.52 3.498-7.025 4.638-10.516 1.148-3.491 1.884-7.153 2.224-10.977h-5.276l-1.65-18.738-4.002.687v5.198h4.384v6.727h-4.384v2.373h3.435l2.351 15.07h-4.065L31.97 26.408V50.5h-8.137V19.985h-.383L22.055 48.51h-4.066l1.396-28.525h-1.211v-6.728h5.659V8.286h-5.34V1.629H28.79L36.928.48v5.2h4.703l1.459 17.287h.007ZM82.249 1.013h39.662l3.81 4.589v45.125H65.718V1.013h11.127v6.5l5.404-6.5Zm-5.404 43.75h37.501V10.12l-2.096-2.6H76.845v37.25-.006ZM90.889 9.2v-.765h9.342V9.2h12.968v3.746h-12.968v.921h9.724l2.543 3.137v9.178h-12.267v1.374l4.639-.156-.064-.46h8.138l1.084 5.05h-8.138l-.127-.539-28.033.843v-4.051l13.16-.382v-1.686H78.622V13.86h8.584v3.668l3.18-3.668h.51v-.92H77.864V9.191h13.031l-.007.007Zm19.895 23.25v.92h2.351v4.285h-2.351v6.196H98.262l-2.351-3.746h5.786v-2.45h-23.96V33.37h23.96v-.92h9.087Zm-27.523 6.345h8.393l1.778 4.971h-8.393l-1.778-4.971Zm3.875-16.366h3.746v-.92h-3.746v.92Zm.063-3.902h3.69v-.92H87.2v.92Zm13.032-.92v.92h3.626v-.156l-.701-.765h-2.925Zm3.499 3.901h-3.499v.92h3.499v-.92Zm31.977 22.186V24.496l-1.65-1.912h-1.842v-7.04h11.63l4.32 5.128v23.022h43.791v6.962h-56.128l-4.002-6.962h3.881Zm30.766-5.353-16.02 3.286V1.855h9.788l6.225-1.069v7.57l-5.085.921V32.45l5.085-1.07v6.962h.007ZM191.708 6.6v32.505h-9.533l-3.562-6.728v10.325h-10.234V2.238h10.234v6.728l3.498-6.728h5.978l3.626 4.362h-.007Zm-10.425 25.317v-20.65l-1.332-1.686h-1.211v22.336h2.543Zm25.227-6.735v-2.068h-8.647v-6.883h3.052l-1.083-4.816h9.66l1.084 4.816h2.415l1.147-4.816h9.661l-1.148 4.816h3.117v6.883h-8.648v2.068h8.265v6.806h-8.265v19.12h-9.278l-2.989-5.736-.51 4.511h-6.48l1.969-16.217h6.48l-1.331 10.63h1.522V31.98h-8.265v-6.806h8.265l.007.007ZM216.936 3.23h8.456v6.883h-27.14V3.236h7.564l-.51-2.217h11.127l.51 2.217-.007-.007Zm.382 30.437h6.481l1.841 15.297-.191.92h-6.169l-1.969-16.217h.007ZM258 16.996v6.657h-4.894v26.924h-10.68V23.653h-3.874V40.4L236.2 50.648h-10.935l.191-.765h.319l-.128-.92 1.969-8.57V2.472h18.811l10.426-1.53v6.884l-8.832 1.53h-9.469v7.648H258v-.007ZM36 76.356h50.597a86.835 86.835 0 0 1 2.26 2.676 209.33 209.33 0 0 0 2.195 2.677v17.287H74.776l-4.32-6.884h7.118v-5.658l-2.606-3.06h-13.16l-9.915 15.68H36.701l9.916-15.68H36v-7.038Zm54.407 30.437v16.522H37.53v-22.103h13.35v7.344l4.512-7.344h30.384l4.639 5.581h-.008Zm-39.534 1.756v7.493h26.191v-4.589l-2.479-2.904H50.873Zm64.458-30.515h10.808l-.829-3.286h13.159l.829 3.286h19.958v5.354h-19.958v2.45h19.703v5.432h-19.703v2.45h19.257v5.354h-19.257v2.599h20.149v5.509h-22.501V125h-13.159v-8.951h-4.894l-6.169 7.804h-12.203l6.105-7.804h-5.914v-6.119h23.075v-2.755H103V90.81h-3.18l4.703-15.757h11.693l-.892 2.981h.007Zm-1.587 5.354-.701 2.45h13.096v-2.45h-12.395Zm12.395 7.875H114.7v2.45h11.439v-2.45Zm0 7.804H114.7v2.599h11.439v-2.6Zm33.436 10.863v6.119h-5.532l6.169 7.804h-12.267L137.01 109.93h22.565Zm66.285-22.18-3.811 8.186-27.459-9.404a47.687 47.687 0 0 1-11.565 6.154c-4.108 1.501-8.605 2.592-13.478 3.25l-2.861-8.569c4.362-1.324 8.378-3.024 12.047-5.084a37.645 37.645 0 0 0 9.759-7.918l16.524 2.295c-2.458 2.96-4.979 5.51-7.564 7.648l12.012-5.892 16.396 9.334Zm-6.106 11.012 2.479 5.58-9.979 12.62 6.927.609v7.039l-46.78-3.902v-7.57l25.617 2.45 7.947-9.404h-35.278v-7.422h49.067Z" fill="#005BAB"/><path d="M138.923 13.045a6.523 6.523 0 1 0 0-13.046 6.523 6.523 0 0 0 0 13.046Zm-83.602 10.87a6.523 6.523 0 1 0 0-13.045 6.523 6.523 0 0 0 0 13.045Zm140.36 78.855a6.522 6.522 0 1 0 0-13.044 6.523 6.523 0 1 0 0 13.044Z" fill="#F15A24"/></svg>