<svg width="349" height="162" fill="none" xmlns="http://www.w3.org/2000/svg"><g clip-path="url(#a)" fill="#F15A24"><path d="M74.058 87.82V18.097H63.82c-2.575 0-4.787-.816-6.648-2.46-1.862-1.644-2.793-3.625-2.793-5.94 0-2.317.907-4.285 2.72-5.88 1.813-1.597 4.013-2.401 6.576-2.401h21.54c3.107 0 5.537.876 7.314 2.64 1.777 1.764 2.66 3.96 2.66 6.6V87.82H74.045h.012Zm28.588-43.202c0-3.444.327-6.96 1.004-10.56a53.9 53.9 0 0 1 3.058-10.5 43.551 43.551 0 0 1 5.391-9.601c2.212-3 4.92-5.58 8.111-7.74a37.679 37.679 0 0 1 8.909-4.38c3.191-1.08 6.648-1.62 10.372-1.62 3.723 0 7.18.515 10.371 1.56a36.17 36.17 0 0 1 8.909 4.32 32.206 32.206 0 0 1 7.978 7.56 44.575 44.575 0 0 1 5.452 9.54 50.866 50.866 0 0 1 3.118 10.5c.665 3.6 1.004 7.08 1.004 10.441 0 3.36-.315 6.984-.931 10.62a51.676 51.676 0 0 1-2.998 10.62 42.892 42.892 0 0 1-5.391 9.661 33.84 33.84 0 0 1-7.978 7.74c-2.744 1.849-5.742 3.325-8.982 4.44-3.239 1.117-6.757 1.681-10.565 1.681-3.807 0-7.18-.564-10.371-1.68a39.3 39.3 0 0 1-8.909-4.44c-3.106-2.16-5.766-4.716-7.978-7.68a44.578 44.578 0 0 1-5.452-9.541 48.643 48.643 0 0 1-3.058-10.5c-.616-3.6-.931-7.08-.931-10.441h-.133Zm52.789-8.22a36.033 36.033 0 0 0-2.527-9.12c-1.245-2.917-2.925-5.425-5.053-7.501-2.127-2.076-4.919-3.12-8.377-3.12-3.457 0-6.116 1.044-8.244 3.12-2.127 2.076-3.807 4.608-5.052 7.56a37.036 37.036 0 0 0-2.527 9.18c-.447 3.157-.664 5.857-.664 8.101 0 2.244.205 5.1.604 8.34a35.77 35.77 0 0 0 2.393 9.24c1.197 2.917 2.877 5.425 5.053 7.501 2.176 2.076 4.98 3.12 8.45 3.12 3.469 0 6.273-1.044 8.437-3.12 2.176-2.076 3.856-4.596 5.053-7.56a38.876 38.876 0 0 0 2.466-9.3c.447-3.24.665-6.025.665-8.341 0-2.316-.218-4.944-.665-8.1h-.012Zm43.673 21.541a11.874 11.874 0 0 1-1.897 3.48 9.313 9.313 0 0 1-3.059 2.52c-1.221.636-2.623.96-4.218.96-1.596 0-2.938-.312-4.159-.936a9.293 9.293 0 0 1-3.058-2.46 11.7 11.7 0 0 1-1.898-3.384 11.032 11.032 0 0 1-.665-3.78c0-1.285.218-2.557.665-3.84a11.067 11.067 0 0 1 1.934-3.457 10.146 10.146 0 0 1 3.095-2.496c1.221-.636 2.623-.96 4.219-.96 1.595 0 2.925.312 4.122.924a10.18 10.18 0 0 1 3.058 2.4 9.943 9.943 0 0 1 1.898 3.36c.423 1.26.628 2.532.628 3.816a11.55 11.55 0 0 1-.665 3.84v.013Zm-10.697-7.56c-.448.275-.81.635-1.1 1.055-.291.42-.496.876-.629 1.38a5.772 5.772 0 0 0-.206 1.464c0 .444.073.924.206 1.44.133.516.338.996.629 1.44.29.445.64.805 1.063 1.08.423.277.943.42 1.56.42.616 0 1.148-.143 1.595-.455.447-.3.798-.672 1.064-1.105.266-.444.471-.923.604-1.44.133-.516.206-1.02.206-1.5s-.073-.96-.206-1.44a4.504 4.504 0 0 0-.604-1.344 3.19 3.19 0 0 0-1.028-1.02c-.423-.264-.942-.396-1.559-.396-.616 0-1.148.144-1.595.42Zm25.662-2.46c-.084.24-.181.48-.266.72l-19.473 38.58c-.085.157-.399.697-.931 1.62l-5.984-3.3c.218-.515.351-.815.399-.9l19.74-39.061a2.818 2.818 0 0 1 1.257-1.284 3.99 3.99 0 0 1 1.862-.456c1.015 0 1.861.324 2.526.96.665.636.991 1.416.991 2.34 0 .276-.048.54-.133.78h.012Zm7.144 34.02a10.868 10.868 0 0 1-1.861 3.457 9.52 9.52 0 0 1-3.059 2.484c-1.22.636-2.623.96-4.218.96-1.596 0-2.938-.312-4.159-.936-1.22-.624-2.248-1.428-3.094-2.436a10.169 10.169 0 0 1-1.898-3.384 11.913 11.913 0 0 1-.628-3.817c0-1.284.217-2.544.664-3.804a10.472 10.472 0 0 1 1.934-3.36c.847-.984 1.886-1.776 3.119-2.4 1.245-.624 2.635-.936 4.183-.936 1.547 0 2.925.3 4.122.9 1.196.6 2.2 1.38 3.022 2.34a9.994 9.994 0 0 1 1.861 3.3c.423 1.236.629 2.496.629 3.78 0 1.284-.206 2.557-.629 3.84l.012.013Zm-10.734-7.56a3.303 3.303 0 0 0-1.064 1.056 5.26 5.26 0 0 0-.604 1.38 5.77 5.77 0 0 0-.206 1.465c0 .468.073.983.206 1.5.133.516.338.996.604 1.416.266.42.617.756 1.064 1.02.447.264.979.396 1.596.396.665 0 1.233-.144 1.692-.42a3.369 3.369 0 0 0 1.136-1.08c.29-.444.484-.936.605-1.477.108-.54.169-1.068.169-1.584 0-.96-.278-1.884-.834-2.76-.556-.876-1.451-1.32-2.696-1.32-.665 0-1.221.144-1.668.42v-.012Zm21.746 14.689c-1.958-.048-3.421-.492-4.291-1.344-.87-.756-1.305-2.328-1.257-4.644V47.006c-.048-2.316.435-3.888 1.354-4.536.81-.696 2.224-1.032 4.182-1.032h36.445c2.285-.048 3.808.324 4.618 1.08.87.816 1.306 2.328 1.354 4.476v36.074c0 2.22-.435 3.78-1.306 4.644-.81.912-2.393 1.344-4.678 1.344h-36.445l.024.012Zm4.183-40.286c-1.136 0-1.741.108-1.958.324-.278.264-.375.864-.375 1.992v27.974c0 1.127.109 1.836.326 2.1.218.372.871.54 2.019.54h28.225c1.257-.048 2.019-.216 2.224-.48.278-.264.375-.972.375-2.16V51.097c0-1.14-.157-1.728-.483-1.992-.218-.216-.979-.324-2.116-.324h-28.237Zm5.004 29.858c-1.571-.049-2.72-.48-3.481-1.297-.592-.756-.87-1.944-.81-3.672v-17.34c0-1.405.278-2.437.979-3.18.653-.757 1.741-1.14 3.312-1.08h17.89c1.463 0 2.66.263 3.53.863.919.648 1.354 1.776 1.414 3.397v17.34c0 1.62-.374 2.808-1.196 3.612-.762.864-2.007 1.296-3.748 1.344h-17.89v.013Zm4.412-19.441c-.604-.048-.979.048-1.136.216-.169.156-.218.54-.218 1.14v9.024c0 .864.109 1.404.327 1.56.157.264.544.372 1.027.372h9.139l1.74-.216.17-1.728v-9.024c0-.588-.109-.972-.375-1.14-.218-.156-.762-.216-1.523-.216h-9.139l-.012.012Zm36.445-5.065h-.048c-.761-.264-1.463-.804-2.019-1.56-.483-.756-.809-1.56-.87-2.424-.048-.756.326-1.452 1.028-2.004a34.594 34.594 0 0 0 3.698-3.024c1.088-1.032 2.454-2.592 3.917-4.536.544-.648 1.354-1.08 2.442-1.14 1.088-.06 2.115.156 3.046.696l6.793 4.812c.701.432 1.197 1.14 1.258 1.944 0 .708-.218 1.56-.653 2.376-.375.756-1.028 1.404-1.789 1.836-.701.384-1.475.384-2.285-.048-1.354-1.344-2.828-2.7-4.182-3.948a2.223 2.223 0 0 0-1.306-.432c-.435 0-.919.372-1.354.924-1.196 1.668-2.393 3.024-3.312 4.056l-1.354 1.296h2.394v-1.296c0-.924.375-1.62 1.088-2.052a5.04 5.04 0 0 1 2.441-.648c.919 0 1.789.264 2.442.648.605.432.979 1.14.979 2.052v1.296h1.463c2.442 0 3.747 1.248 3.747 3.672v12.853c0 2.424-1.305 3.672-3.747 3.672h-7.724V75.1h8.921c.652 0 1.088.264 1.414.756.326.54.484 1.14.484 1.776 0 .636-.17 1.248-.484 1.728-.326.48-.762.757-1.414.757h-8.921v1.728h8.921c.652 0 1.088.264 1.414.756.326.54.484 1.14.484 1.776 0 .636-.17 1.248-.484 1.728-.326.48-.762.756-1.414.756h-8.921v.648c0 .804-.375 1.452-1.028 1.884-.604.432-1.414.588-2.345.588-.81 0-1.692-.156-2.393-.588-.592-.432-.979-1.08-.979-1.884v-30.89c0-1.02.217-1.884.652-2.484Zm10.819 4.969c0-.697-.435-1.14-1.245-1.14h-2.345c-.701 0-1.136.431-1.136 1.14v1.452h4.726v-1.452Zm-4.726 9.024h3.481c.81 0 1.245-.432 1.245-1.188v-1.404h-4.726v2.592Zm39.54-5.292c.652.48 1.027 1.452 1.027 2.808v14.52c0 1.249-.375 2.269-.979 2.917l-.653.492c.592.324 1.414.756 2.176 1.188.701.432 1.197 1.02 1.197 1.836a5.5 5.5 0 0 1-.544 2.376c-.435.804-1.088 1.404-1.741 1.728-.604.324-1.414.324-2.176-.108-2.671-1.344-4.895-2.376-6.576-2.856-.822-.216-1.353-.816-1.583-1.56a4.527 4.527 0 0 1 0-2.052h-6.528c.218.492.327 1.032.327 1.512 0 .756-.435 1.404-1.197 1.896-1.027.588-2.115 1.248-3.155 1.728-.979.48-2.393 1.032-4.243 1.62-.822.264-1.583.156-2.236-.372a5.248 5.248 0 0 1-1.306-2.112c-.326-.804-.386-1.668-.169-2.436.218-.696.762-1.236 1.584-1.512l2.284-.912c-.108-.108-.278-.216-.374-.324-.484-.588-.81-1.668-.81-3.025v-14.52c0-1.14.266-2.112.761-2.7.544-.6 1.572-.924 2.829-.924h19.147c1.136 0 2.176.264 2.938.816v-.024Zm-9.079-7.885h9.9c.762 0 1.415.324 1.741.924.327.588.544 1.344.544 2.16 0 .757-.217 1.513-.544 2.113-.326.54-.979.864-1.741.864h-25.723c-.761 0-1.414-.324-1.789-.912-.326-.648-.544-1.404-.544-2.16 0-.804.218-1.56.544-2.1.375-.54 1.028-.865 1.789-.865h8.921v-1.62h-7.506c-1.693 0-2.611-.924-2.611-2.592V44.39c0-1.728.93-2.592 2.611-2.592h7.506v-.06c0-.912.327-1.56 1.028-1.992a4.64 4.64 0 0 1 2.441-.696c.98 0 1.802.264 2.454.696.653.432.979 1.08.979 1.992v.06h7.507c1.692 0 2.611.864 2.611 2.592v6.372c0 1.668-.919 2.592-2.611 2.592h-7.507v1.62-.024Zm-9.682-8.148c-.387 0-.604.216-.604.54v.372c0 .372.217.588.604.588h2.768V46.79h-2.768v.012ZM322.2 68.079c0-.492-.109-.756-.278-.864-.157-.108-.653-.156-1.245-.156h-10.662c-.374 0-.761.048-.87.156-.109.108-.169.432-.169.864v.48h13.212v-.48h.012Zm0 4.212h-13.212v1.56H322.2v-1.56Zm-12.995 6.528c.158.156.484.276.81.276h10.662c.81 0 1.305-.108 1.354-.168.109-.108.157-.54.157-1.344h-13.212c0 .648.109 1.14.217 1.248l.012-.012Zm12.403-30.505c.374 0 .604-.216.604-.588v-.372c0-.324-.217-.54-.604-.54h-2.768v1.512h2.768v-.012ZM8.312 19.873h-1.04c-.7 0-1.172-.264-1.438-.78a3.27 3.27 0 0 1-.52-1.812c0-.684.17-1.212.484-1.68.266-.516.786-.78 1.475-.78h37.206c.653 0 1.136.252 1.39.732.35.564.52 1.128.52 1.812 0 .684-.17 1.212-.483 1.68-.266.564-.786.816-1.439.816H26.275V38.39c0 .732-.302 1.296-.87 1.596-.605.384-1.306.564-2.092.564-.785 0-1.39-.168-1.91-.516-.568-.348-.87-.912-.87-1.644v-1.344L7.611 38.822c-.701.132-1.257-.084-1.656-.564-.387-.516-.653-1.128-.786-1.86-.084-.684 0-1.296.266-1.86.266-.564.701-.912 1.439-.996l1.438-.169V19.85v.024Zm4.485-6.096c-1.173.048-1.959-.252-2.527-.864-.483-.48-.7-1.38-.7-2.593V3.156c0-1.08.265-1.86.785-2.424.471-.552 1.257-.768 2.43-.732H38.41c1.04.048 1.91.216 2.526.696.605.48.92 1.248.92 2.46v7.164c0 1.128-.267 1.993-.823 2.545-.568.564-1.39.864-2.61.912h-25.64.013Zm7.748 7.476v-1.38h-6.479v1.38h6.48Zm0 5.4v-1.38h-6.479v1.38h6.48Zm0 5.016v-.996h-6.479v1.896l6.48-.912v.012ZM35.933 5.4v-.132c0-.432-.084-.696-.266-.78-.133-.132-.52-.168-1.088-.168H16.435c-.387-.048-.652 0-.785.132l-.17.828v.132h20.453V5.4ZM15.48 8.376c0 .384.085.684.218.78.133.168.387.264.737.264H34.58c.701 0 1.136-.048 1.221-.168l.085-.864H15.48v-.012Zm14.615 32.006c-.701.264-1.306.168-1.874-.264-.484-.384-.822-.912-1.136-1.644a3.846 3.846 0 0 1-.17-2.112c.133-.6.569-1.08 1.258-1.344 1.692-.564 3.094-1.08 4.134-1.645l.35-.167c-1.257-1.249-2.526-2.725-3.832-4.453-.386-.564-.483-1.08-.266-1.644.351-.912.87-1.548 1.523-1.728h-.604c-.604 0-1.088-.216-1.39-.696-.302-.432-.435-.996-.435-1.596 0-.648.17-1.212.483-1.68.303-.468.738-.696 1.354-.696h11.883c1.257-.084 2.175.264 2.659.996.568.912.737 1.896.568 3.072-.919 3.024-2.309 5.748-4.086 8.077l4.618 2.16c.701.3 1.136.78 1.257 1.38a3.209 3.209 0 0 1-.217 1.992c-.266.732-.653 1.296-1.221 1.728-.569.432-1.137.516-1.826.264-2.006-.732-4.134-2.028-6.443-3.756-2.659 1.86-4.87 3.108-6.575 3.756h-.012Zm6.394-10.32c.822-1.033 1.475-2.077 1.874-2.977.133-.564.133-.948.048-1.212-.17-.3-.483-.48-.919-.48h-4.956l.35.348c1.173 1.728 2.346 3.156 3.615 4.32h-.012Zm-13.647 21.18c0-.816.302-1.344.87-1.68a3.996 3.996 0 0 1 2.128-.6c.773 0 1.438.168 1.958.564.653.384.955.912.955 1.728v.384h15.533c.7 0 1.22.264 1.523.732.35.6.52 1.296.52 1.98 0 .732-.17 1.297-.52 1.776-.302.565-.822.864-1.523.864H7.09c-.737 0-1.257-.264-1.571-.828-.35-.6-.52-1.248-.52-1.98 0-.696.17-1.296.52-1.776.302-.516.822-.78 1.571-.78h15.75v-.384Zm-5.355 35.162c-1.04.048-1.874-.216-2.394-.78-.435-.516-.652-1.344-.652-2.544v-4.32c-.049-1.033.217-1.765.7-2.329.484-.516 1.258-.78 2.346-.78h15.485c1.003.048 1.825.264 2.441.696.605.48.919 1.248.919 2.425v4.32c-.048.732-.17 1.344-.435 1.812h.133l2.744-.084c.133.048.217-.432.217-1.512V75.83c0-.864-.435-1.296-1.305-1.296H13.4c-.87-.048-1.305.384-1.305 1.248V88.18c0 .78-.303 1.344-.87 1.644-.654.384-1.39.6-2.177.6-.785 0-1.39-.168-1.958-.564-.604-.348-.918-.912-.918-1.68V72.027c0-.78.217-1.464.652-2.028.484-.564 1.173-.816 2.26-.816H42.28c.738-.048 1.354.216 1.874.78.483.432.701 1.044.737 1.776v14.34c0 2.077-.7 3.457-2.043 4.021-1.789.696-4.351.78-7.651.348-.701-.132-1.221-.48-1.475-1.08-.483-1.032-.52-1.98-.085-2.94H17.5l-.012-.024ZM14.44 68.043c-1.137.048-1.91-.264-2.478-.828-.435-.516-.653-1.344-.701-2.592v-3.408c0-1.044.265-1.812.737-2.34.483-.564 1.257-.816 2.442-.78h22.145c1.04.048 1.873.252 2.478.696.604.432.919 1.248.919 2.424v3.408c-.049 1.128-.303 1.944-.822 2.508-.52.6-1.354.912-2.563.912H14.44Zm3.65-5.748c-.387 0-.652.048-.737.168-.133.132-.218.348-.17.732v-.048l.218.432c.133.168.387.264.701.264h14.663l1.173-.168.084-.996c-.17-.252-.604-.384-1.257-.384H18.091Zm2.962 17.544c-.387 0-.653.049-.738.168-.133.132-.169.384-.133.78v.133c0 .6.085.948.17 1.08.133.168.386.264.7.264h8.22c.702 0 1.088-.048 1.173-.168l.133-1.164V80.8c0-.432-.084-.697-.266-.78-.133-.132-.52-.168-1.04-.168h-8.22v-.013Z"/></g><g clip-path="url(#b)"><path d="M326.98 118H22.02C9.859 118 0 127.85 0 140s9.859 22 22.02 22h304.96c12.161 0 22.02-9.85 22.02-22s-9.859-22-22.02-22Z" fill="#005BAB"/><path d="M28.78 153.428c-1.102-.039-1.934-.282-2.433-.768-.487-.435-.743-1.318-.704-2.636v-20.522c-.026-1.318.243-2.213.768-2.584.46-.397 1.255-.589 2.368-.589h18.435c1.293-.025 2.151.179 2.612.614.486.461.743 1.318.768 2.546v20.51c0 1.254-.243 2.149-.742 2.635-.461.525-1.357.768-2.638.768H28.78v.026Zm2.368-22.915c-.615 0-.986.064-1.101.179-.154.154-.218.486-.218 1.139v5.898h16.592v-5.898c0-.653-.09-.985-.282-1.139-.128-.128-.55-.179-1.203-.179H31.135h.013ZM46.42 141.9H29.829v5.834c0 .64.064 1.049.18 1.203.127.217.524.307 1.139.307h13.8c.705-.026 1.101-.128 1.255-.269.154-.153.218-.55.218-1.228V141.9Zm29.471 4.427c-.397 3.007-1.293 5.31-2.547 6.909-.679.793-1.319 1.203-1.818 1.164a3.094 3.094 0 0 1-1.293-.486 3.47 3.47 0 0 1-.986-1.254l-.064-.089c-.46.153-.896.217-1.255.179-.46-.064-.793-.269-1.011-.742l-1.05-1.868c-.614-.896-.858-1.561-.678-1.932.09-.346.243-.614.525-.832h-3.137l.46.589c.218.396.218.793 0 1.228-1.446 2.367-2.892 4.017-4.3 4.887-.526.371-1.012.461-1.473.243a2.917 2.917 0 0 1-1.1-1.049c-.308-.46-.436-.947-.334-1.509.09-.397.372-.743.832-1.075 1.383-1.203 2.394-2.329 3.009-3.288v-.026h-2.432c-.525 0-.858-.179-1.101-.589a2.818 2.818 0 0 1-.372-1.407c0-.486.128-.921.372-1.254.243-.396.588-.55 1.1-.55h.986v-11.912h-1.1c-.526 0-.858-.179-1.102-.588-.243-.397-.371-.896-.371-1.407 0-.487.128-.922.371-1.254.244-.371.59-.55 1.101-.55h1.101v-1.229c0-.55.218-.921.615-1.164.397-.269.896-.397 1.472-.397.525 0 .986.128 1.319.371.435.282.64.64.64 1.203v1.228h4.365v-1.356c0-.55.18-.921.59-1.164.434-.269.895-.397 1.472-.397.55 0 .985.128 1.356.371.436.282.615.64.615 1.203v1.356h.614c.333 0 .615.09.858.307v-.128c0-.588.218-1.074.615-1.509a1.83 1.83 0 0 1 1.51-.615h8.015c.524 0 .985.218 1.408.64.371.371.55.793.55 1.318v22.761c0 1.139-.281 2.06-.832 2.674-.832.947-2.83 1.228-5.966.793-.55-.089-.947-.371-1.165-.895-.179-.461-.217-.947-.128-1.561.218-1.51.922-2.124 2.125-1.932.705.064 1.204.064 1.357-.038.333-.154.525-.589.551-1.254v-3.685h-4.122l-.18 1.599.013-.038Zm-9.243-13.204v-1.471h-4.365v1.471h4.365Zm0 5.284v-1.471h-4.365v1.471h4.365Zm0 5.156v-1.356h-4.365v1.356h4.365Zm4.98 3.685-.589.128h-2.522l1.69 2.738.461-.678c.435-.64.742-1.382.947-2.175l.013-.013Zm.525-15.942a1.241 1.241 0 0 1-.858.333h-.614v11.911h.371c.46 0 .794.128 1.011.461l.09-2.303v-10.415.013Zm8.053 2.15v-2.789c-.026-.653-.333-.986-.948-.947h-2.176c-.55 0-.858.307-.858.921v2.827h3.994l-.012-.012Zm0 7.459v-3.659H76.21v3.659h3.995Zm24.311-9.596c.461.435.678 1.011.678 1.817 0 .742-.243 1.382-.768 1.868-.435.46-1.049.678-1.779.678-.794 0-1.383-.218-1.844-.678-.486-.486-.704-1.139-.704-1.868 0-.793.179-1.382.64-1.817.487-.486 1.101-.742 1.908-.742.742 0 1.382.243 1.869.742Zm0 13.076c.461.435.678 1.011.678 1.817 0 .742-.243 1.356-.768 1.868-.435.46-1.049.678-1.779.678-.794 0-1.383-.218-1.844-.678-.486-.525-.704-1.139-.704-1.868 0-.794.179-1.382.64-1.817.487-.525 1.101-.742 1.908-.742.742 0 1.382.217 1.869.742Zm20.842 7.062v-17.835h-2.369a2.13 2.13 0 0 1-1.536-.627 2.02 2.02 0 0 1-.64-1.522c0-.602.205-1.101.627-1.51.423-.41.922-.614 1.524-.614h4.98c.717 0 1.28.23 1.69.678.409.448.614 1.01.614 1.689v19.741h-4.89Zm13.545 0v-17.835h-2.369a2.128 2.128 0 0 1-1.536-.627 2.02 2.02 0 0 1-.64-1.522c0-.602.205-1.101.627-1.51.423-.41.922-.614 1.524-.614h4.98c.717 0 1.28.23 1.689.678.41.448.615 1.01.615 1.689v19.741h-4.89Zm11.458 0a3.207 3.207 0 0 1-1.703-.486c-.525-.332-.781-.844-.781-1.535 0-.282.051-.55.166-.781.116-.23.256-.46.41-.665l1.05-1.126c.345-.371.691-.742 1.05-1.087.025-.026.102-.128.256-.32.153-.192.345-.435.563-.717.23-.281.474-.601.755-.934.282-.332.538-.665.794-.998.256-.332.486-.614.678-.857.193-.243.346-.435.449-.55.345-.409.742-.883 1.165-1.407.435-.538.832-1.075 1.216-1.651.384-.563.691-1.1.947-1.625.256-.524.384-.972.384-1.33 0-.614-.23-1.113-.691-1.485a2.458 2.458 0 0 0-1.588-.562c-.601 0-1.088.115-1.485.358a4.15 4.15 0 0 0-1.049.908 6.642 6.642 0 0 0-.781 1.228c-.231.448-.461.896-.704 1.318-.077.103-.154.205-.218.32a1.066 1.066 0 0 1-.243.294 1.537 1.537 0 0 1-1.05.397c-.717 0-1.268-.23-1.664-.704-.384-.473-.589-1.049-.589-1.714 0-.921.217-1.766.64-2.533a8.285 8.285 0 0 1 1.536-1.984c1.562-1.407 3.418-2.123 5.595-2.123.896 0 1.792.14 2.662.409a7.509 7.509 0 0 1 2.318 1.203 5.905 5.905 0 0 1 1.626 1.957c.409.781.614 1.651.614 2.636 0 .678-.128 1.343-.371 2.009a13.05 13.05 0 0 1-.922 1.97 18.347 18.347 0 0 1-1.229 1.881c-.448.614-.883 1.19-1.293 1.727a55.542 55.542 0 0 1-1.792 2.239 78.773 78.773 0 0 1-1.793 2.06h7.81v4.299h-12.751l.013-.039Zm28.241-21.494-.768 1.919c-.307.768-.64 1.599-.999 2.482-.358.896-.691 1.715-.998 2.469l-1.101 2.7c-.026.026-.026.038-.026.064-.038.077-.205.448-.473 1.1-.282.653-.615 1.446-1.025 2.38-.409.934-.857 1.932-1.331 3.007-.487 1.074-.935 2.06-1.37 2.968a49.982 49.982 0 0 1-1.139 2.252c-.333.601-.538.908-.615.908a7.93 7.93 0 0 1-.998-.051c-.295-.038-.551-.102-.768-.23a1.134 1.134 0 0 1-.487-.55c-.115-.243-.166-.576-.166-.986 0-.102.051-.294.14-.562.09-.269.154-.461.205-.538l8.36-20.752.154-.333c.077-.166.153-.307.217-.409.064-.116.09-.18.09-.205.717.269 1.293.486 1.715.678.436.179.82.358 1.178.537.359.179.538.295.538.359 0 .025-.102.281-.307.793h-.026Zm8.04 21.494v-17.835h-2.369a2.13 2.13 0 0 1-1.536-.627 2.02 2.02 0 0 1-.64-1.522c0-.602.205-1.101.627-1.51.423-.41.922-.614 1.524-.614h4.98c.717 0 1.28.23 1.69.678.409.448.614 1.01.614 1.689v19.741h-4.89Zm13.557 0v-17.835h-2.368a2.128 2.128 0 0 1-1.536-.627 2.016 2.016 0 0 1-.64-1.522c0-.602.204-1.101.627-1.51.422-.41.922-.614 1.523-.614h4.98c.717 0 1.281.23 1.69.678.41.448.615 1.01.615 1.689v19.741H200.2Zm20.343-21.494-.768 1.919c-.307.768-.64 1.599-.999 2.482-.358.896-.691 1.715-.998 2.469l-1.101 2.7c-.026.026-.026.038-.026.064a26.38 26.38 0 0 0-.474 1.1c-.281.653-.614 1.446-1.024 2.38-.409.934-.857 1.932-1.331 3.007-.487 1.074-.935 2.06-1.37 2.968a49.982 49.982 0 0 1-1.139 2.252c-.333.601-.538.908-.615.908a7.93 7.93 0 0 1-.998-.051c-.295-.038-.551-.102-.769-.23a1.137 1.137 0 0 1-.486-.55c-.115-.243-.166-.576-.166-.986 0-.102.051-.294.14-.562.09-.269.154-.461.205-.538l8.36-20.752.154-.333a3.65 3.65 0 0 1 .217-.409c.064-.116.09-.18.09-.205.717.269 1.293.486 1.715.678.436.179.82.358 1.178.537.359.179.538.295.538.359 0 .025-.103.281-.307.793h-.026Zm8.04 21.494v-17.835h-2.369a2.128 2.128 0 0 1-1.536-.627 2.02 2.02 0 0 1-.64-1.522c0-.602.205-1.101.627-1.51.423-.41.922-.614 1.524-.614h4.98c.717 0 1.28.23 1.69.678.409.448.614 1.01.614 1.689v19.741h-4.89Zm18.627-7.369h-8.936a.895.895 0 0 1-.563-.218 1.773 1.773 0 0 1-.487-.537 3.303 3.303 0 0 1-.307-.716 1.857 1.857 0 0 1-.051-.794c.038-.281.153-.537.358-.755a2.43 2.43 0 0 1 .666-.524 4.13 4.13 0 0 1 .781-.307c.269-.077.512-.103.691-.103h7.835l.026 3.967-.013-.013Zm8.91 7.369v-17.835h-2.368a2.128 2.128 0 0 1-1.536-.627 2.017 2.017 0 0 1-.641-1.522c0-.602.205-1.101.628-1.51.422-.41.922-.614 1.523-.614h4.98c.717 0 1.281.23 1.69.678.41.448.615 1.01.615 1.689v19.741h-4.891Zm11.458 0a3.204 3.204 0 0 1-1.702-.486c-.525-.332-.781-.844-.781-1.535 0-.282.051-.55.166-.781.115-.23.256-.46.41-.665l1.049-1.126c.346-.371.692-.742 1.05-1.087.026-.026.103-.128.256-.32.154-.192.346-.435.564-.717.23-.281.473-.601.755-.934.282-.332.538-.665.794-.998.256-.332.486-.614.678-.857.192-.243.346-.435.448-.55.346-.409.743-.883 1.165-1.407.436-.538.832-1.075 1.216-1.651.385-.563.692-1.1.948-1.625.256-.524.384-.972.384-1.33 0-.614-.231-1.113-.691-1.485a2.458 2.458 0 0 0-1.588-.562c-.602 0-1.088.115-1.485.358a4.155 4.155 0 0 0-1.05.908 6.748 6.748 0 0 0-.781 1.228c-.23.448-.461.896-.704 1.318a2.852 2.852 0 0 0-.217.32 1.052 1.052 0 0 1-.244.294 1.534 1.534 0 0 1-1.049.397c-.717 0-1.268-.23-1.665-.704-.384-.473-.589-1.049-.589-1.714 0-.921.218-1.766.64-2.533a8.314 8.314 0 0 1 1.537-1.984c1.562-1.407 3.418-2.123 5.594-2.123.896 0 1.793.14 2.663.409a7.492 7.492 0 0 1 2.317 1.203 5.882 5.882 0 0 1 1.626 1.957c.41.781.615 1.651.615 2.636 0 .678-.128 1.343-.372 2.009-.243.665-.55 1.317-.921 1.97a18.516 18.516 0 0 1-1.229 1.881c-.448.614-.884 1.19-1.293 1.727a54.69 54.69 0 0 1-1.793 2.239 76.935 76.935 0 0 1-1.792 2.06h7.809v4.299h-12.751l.013-.039Zm28.242-21.494-.768 1.919c-.308.768-.64 1.599-.999 2.482-.358.896-.691 1.715-.998 2.469l-1.101 2.7c-.026.026-.026.038-.026.064a26.38 26.38 0 0 0-.474 1.1c-.281.653-.614 1.446-1.024 2.38-.41.934-.858 1.932-1.331 3.007-.487 1.074-.935 2.06-1.37 2.968a49.87 49.87 0 0 1-1.14 2.252c-.332.601-.537.908-.614.908-.371 0-.704-.013-.999-.051-.294-.038-.55-.102-.768-.23a1.137 1.137 0 0 1-.486-.55c-.115-.243-.167-.576-.167-.986 0-.102.052-.294.141-.562.09-.269.154-.461.205-.538l8.36-20.752.153-.333c.077-.166.154-.307.218-.409.064-.116.09-.18.09-.205.717.269 1.293.486 1.715.678.435.179.82.358 1.178.537.358.179.538.295.538.359 0 .025-.103.281-.308.793h-.025Zm18.166 17.567a7.324 7.324 0 0 1-1.831 2.264 8.417 8.417 0 0 1-2.586 1.459 8.671 8.671 0 0 1-2.944.524 9.014 9.014 0 0 1-2.048-.256 9.424 9.424 0 0 1-2.023-.767 8.08 8.08 0 0 1-1.754-1.241 5.267 5.267 0 0 1-1.216-1.689 4.289 4.289 0 0 1-.256-.717 2.659 2.659 0 0 1-.103-.78c0-.589.218-1.113.64-1.561a2.076 2.076 0 0 1 1.562-.678c.512 0 .935.179 1.28.524.333.346.679.742 1.025 1.165.345.422.755.819 1.216 1.164.461.345 1.075.525 1.83.525.794 0 1.486-.244 2.074-.743.589-.486.871-1.151.871-1.995 0-.576-.141-1.011-.435-1.318a3.185 3.185 0 0 0-1.076-.755 12.748 12.748 0 0 0-1.395-.525 5.814 5.814 0 0 1-1.434-.665 3.83 3.83 0 0 1-.614-.461c-.18-.166-.308-.422-.372-.767a.436.436 0 0 1-.102-.205c-.026-.09-.026-.154.013-.205-.128-.511-.039-.895.243-1.164.282-.269.666-.499 1.126-.691.461-.192.948-.409 1.46-.627a3.213 3.213 0 0 0 1.293-1.011c.064-.102.128-.23.218-.383.076-.154.128-.32.128-.512a1.99 1.99 0 0 0-.602-1.459 1.993 1.993 0 0 0-1.46-.601c-.281 0-.64.077-1.062.23a8.735 8.735 0 0 0-1.28.589c-.436.243-.832.486-1.204.767-.371.282-.627.525-.768.755l-.025-.038s-.116-.115-.295-.358c-.179-.231-.358-.499-.563-.794a16.934 16.934 0 0 0-.589-.806c-.179-.243-.282-.383-.307-.396-.026 0-.052-.039-.103-.128-.051-.077-.102-.167-.166-.243-.064-.077-.115-.154-.167-.231-.051-.064-.089-.102-.102-.102 0-.026-.026-.051-.064-.09a13.028 13.028 0 0 1 3.021-2.469c1.088-.64 2.407-.972 3.918-.972.845 0 1.651.141 2.432.396.781.269 1.46.64 2.061 1.139a5.565 5.565 0 0 1 1.434 1.817c.359.716.538 1.51.538 2.392 0 .883-.192 1.728-.589 2.547a5.229 5.229 0 0 1-1.664 2.021c1.062.512 1.92 1.216 2.547 2.098.64.896.948 1.932.948 3.122 0 1.062-.231 2.035-.692 2.917l.013-.012Zm6.683 3.927v-17.835H318.3a2.13 2.13 0 0 1-1.536-.627 2.02 2.02 0 0 1-.64-1.522c0-.602.205-1.101.627-1.51.423-.41.922-.614 1.524-.614h4.98c.717 0 1.28.23 1.69.678.409.448.614 1.01.614 1.689v19.741h-4.89Z" fill="#fff"/></g><defs><clipPath id="a"><path fill="#fff" transform="translate(5)" d="M0 0h326v91H0z"/></clipPath><clipPath id="b"><path fill="#fff" transform="translate(0 118)" d="M0 0h349v44H0z"/></clipPath></defs></svg>