<svg width="481" height="448" fill="none" xmlns="http://www.w3.org/2000/svg"><g clip-path="url(#a)"><path d="m0 55.494 8.886-1.848V30.123H1.188V15.3h7.698V3.181h17.06V15.3h6.88v14.824h-6.88v19.96l7.104-1.572v14.68l-7.104 1.57V94.7H6.286l-4.98-11.696h7.58V68.325L0 70.173V55.494ZM80.347 42.81c0-.383.013-.766.053-1.135.04-.383.053-.766.053-1.136V1.175h16.346V43.23l-.475 5.412a81.668 81.668 0 0 0-.41 3.142 89.081 89.081 0 0 1-.409 3.142l4.978-1.135 10.432 37.066-10.907 3.987L90.29 73.46c-1.585 3.987-3.394 7.722-5.454 11.194a106.11 106.11 0 0 1-6.879 10.19L67.17 88.72c3.632-6.56 6.523-13.095 8.65-19.603 2.138-6.508 3.511-13.332 4.145-20.46h-9.837l-3.076-34.929-7.46 1.28v9.69h8.173v12.54H59.59v4.422h6.404l4.384 28.09h-7.58l-3.195-20.526v44.908H44.432v-56.88h-.713l-2.601 53.17h-7.58l2.602-53.17h-2.258v-12.54h10.55v-9.268h-9.956V3.037h19.199L68.846.898v9.689h8.768l2.72 32.222h.013ZM153.34 1.888h73.943l7.103 8.553v84.113H122.521V1.888h20.744v12.118L153.34 1.888ZM143.265 83.44h69.916V18.863l-3.909-4.844h-66.007v69.434-.013Zm26.184-66.293v-1.425h17.416v1.425h24.177v6.983h-24.177v1.716h18.129l4.74 5.848v17.108h-22.869v2.56l8.649-.29-.119-.858h15.171l2.02 9.412h-15.171l-.238-1.003-52.262 1.57v-7.55l24.534-.713v-3.14h-22.87V25.833h16.003v6.838l5.929-6.838h.951v-1.716h-24.296v-6.983h24.296l-.013.013Zm37.09 43.337V62.2h4.384v7.986h-4.384v11.55h-23.345l-4.384-6.982h10.788v-4.568h-44.669V62.2h44.669v-1.716h16.941Zm-51.311 11.828h15.647l3.314 9.266h-15.647l-3.314-9.266Zm7.222-30.506h6.985V40.09h-6.985v1.716Zm.119-7.274h6.88v-1.716h-6.88v1.716Zm24.296-1.716v1.716h6.76v-.29l-1.307-1.426h-5.453Zm6.523 7.274h-6.523v1.716h6.523V40.09Zm59.616 41.356V45.66l-3.076-3.564h-3.433V28.975h21.681l8.054 9.557v42.914h81.641v12.976H253.229l-7.461-12.976h7.236Zm57.359-9.98-29.868 6.126V3.459h18.248l11.607-1.994v14.111l-9.481 1.716v43.192l9.481-1.993v12.976h.013Zm47.046-59.163v60.59h-17.772l-6.642-12.54v19.245h-19.08V4.171h19.08v12.54l6.523-12.54h11.144l6.761 8.132h-.014Zm-19.436 47.191V21.002l-2.483-3.142h-2.257v41.634h4.74Zm47.033-12.554v-3.854h-16.122v-12.83h5.691l-2.021-8.977h18.011l2.02 8.976h4.503l2.139-8.976h18.01l-2.139 8.976h5.81v12.831h-16.122v3.855h15.409v12.685h-15.409v35.641h-17.298l-5.572-10.692-.951 8.409h-12.081l3.67-30.23h12.082l-2.482 19.814h2.839V59.613h-15.409V46.927h15.409l.013.014Zm19.436-40.92h15.766v12.83H369.61V6.033h14.102l-.951-4.132h20.744l.951 4.132-.014-.014Zm.713 56.735h12.082l3.433 28.512-.356 1.717h-11.501l-3.671-30.23h.013ZM481 31.68v12.408h-9.124v50.188h-19.912V44.09h-7.223v31.22l-4.383 19.1h-20.387l.356-1.425h.594l-.237-1.716 3.67-15.973V4.607h35.07l19.437-2.851v12.83l-16.466 2.852h-17.654v14.256H481v-.013ZM3.314 142.327h94.33c1.664 1.9 3.064 3.564 4.213 4.989a376.844 376.844 0 0 0 4.093 4.99v32.222H75.607l-8.055-12.831h13.27V161.15l-4.859-5.702H51.43l-18.486 29.225H4.621l18.486-29.225H3.314v-13.121Zm101.434 56.735v30.796H6.166V188.66h24.89v13.689l8.411-13.689h56.646l8.649 10.402h-.014Zm-73.705 3.274v13.966h48.829v-8.554l-4.622-5.412H31.043Zm120.171-56.881h20.149l-1.545-6.125h24.534l1.544 6.125h37.21v9.98h-37.21v4.567h36.734v10.125h-36.734v4.567h35.902v9.979h-35.902v4.845h37.566v10.27h-41.949V233h-24.534v-16.685h-9.124l-11.5 14.547h-22.751l11.382-14.547H123.96V204.91h43.019v-5.135h-38.754v-30.506h-5.928l8.767-29.371h21.8l-1.664 5.557h.014Zm-2.958 9.98-1.307 4.567h24.414v-4.567h-23.107Zm23.107 14.678h-21.324v4.568h21.324v-4.568Zm0 14.547h-21.324v4.845h21.324v-4.845Zm62.337 20.25v11.405h-10.313l11.501 14.547h-22.869l-20.387-25.952H233.7Zm123.577-41.344-7.103 15.26-51.193-17.53c-6.721 4.844-13.904 8.672-21.562 11.471-7.659 2.798-16.043 4.831-25.128 6.059l-5.334-15.973c8.134-2.468 15.62-5.636 22.46-9.478 6.827-3.854 12.9-8.765 18.195-14.758l30.806 4.277c-4.582 5.518-9.283 10.27-14.102 14.257l22.394-10.983 30.567 17.398Zm-11.382 20.527 4.622 10.401-18.605 23.524 12.914 1.135v13.121l-87.213-7.273v-14.112l47.759 4.568 14.815-17.53h-65.77v-13.834h91.478Z" fill="#005BAB"/><path d="M258.999 24.315c6.716 0 12.161-5.443 12.161-12.157C271.16 5.443 265.715 0 258.999 0c-6.716 0-12.161 5.443-12.161 12.158 0 6.714 5.445 12.157 12.161 12.157ZM103.137 44.578c6.717 0 12.161-5.443 12.161-12.158 0-6.714-5.444-12.157-12.161-12.157-6.716 0-12.16 5.443-12.16 12.157 0 6.715 5.444 12.158 12.16 12.158Zm197.878 146.986c6.716 0 12.161-5.443 12.161-12.158 0-6.714-5.445-12.157-12.161-12.157-6.717 0-12.161 5.443-12.161 12.157 0 6.715 5.444 12.158 12.161 12.158Z" fill="#F15A24"/></g><g clip-path="url(#b)" fill="#F15A24"><path d="M80.236 370.645v-73.554h-10.71c-2.693 0-5.007-.861-6.954-2.595-1.947-1.735-2.92-3.823-2.92-6.267 0-2.443.948-4.519 2.844-6.203 1.897-1.684 4.198-2.532 6.879-2.532h22.532c3.25 0 5.79.924 7.65 2.785 1.858 1.861 2.781 4.178 2.781 6.963v81.403H80.223h.013Zm29.903-45.576c0-3.633.342-7.342 1.05-11.14a57.16 57.16 0 0 1 3.199-11.078 46.071 46.071 0 0 1 5.639-10.128c2.314-3.165 5.146-5.886 8.484-8.165a39.272 39.272 0 0 1 9.319-4.621c3.338-1.139 6.954-1.709 10.849-1.709 3.894 0 7.51.544 10.848 1.646a37.659 37.659 0 0 1 9.319 4.557 33.795 33.795 0 0 1 8.345 7.976 47.115 47.115 0 0 1 5.703 10.065 54.056 54.056 0 0 1 3.262 11.077c.695 3.798 1.049 7.469 1.049 11.014 0 3.545-.328 7.368-.973 11.204a54.8 54.8 0 0 1-3.136 11.204 45.341 45.341 0 0 1-5.639 10.191 35.543 35.543 0 0 1-8.345 8.166c-2.871 1.95-6.006 3.507-9.395 4.684-3.389 1.177-7.068 1.773-11.051 1.773-3.983 0-7.51-.596-10.849-1.773a40.937 40.937 0 0 1-9.318-4.684c-3.25-2.279-6.032-4.975-8.345-8.102a47.072 47.072 0 0 1-5.703-10.065 51.632 51.632 0 0 1-3.199-11.077c-.645-3.798-.973-7.47-.973-11.015h-.14Zm55.217-8.672a38.207 38.207 0 0 0-2.642-9.621c-1.303-3.076-3.06-5.722-5.285-7.912-2.226-2.191-5.147-3.292-8.763-3.292-3.616 0-6.398 1.101-8.623 3.292-2.226 2.19-3.983 4.861-5.285 7.975a39.283 39.283 0 0 0-2.643 9.685c-.468 3.33-.695 6.178-.695 8.545 0 2.368.214 5.381.632 8.799.417 3.418 1.251 6.672 2.503 9.748 1.252 3.077 3.01 5.723 5.286 7.913 2.275 2.19 5.209 3.291 8.838 3.291 3.629 0 6.562-1.101 8.825-3.291 2.276-2.19 4.034-4.849 5.286-7.976a41.257 41.257 0 0 0 2.579-9.811c.468-3.419.695-6.356.695-8.799 0-2.443-.227-5.216-.695-8.546h-.013Zm45.684 22.725a12.578 12.578 0 0 1-1.985 3.671 9.757 9.757 0 0 1-3.199 2.659c-1.277.671-2.744 1.013-4.413 1.013s-3.073-.329-4.35-.988a9.739 9.739 0 0 1-3.199-2.595 12.352 12.352 0 0 1-1.985-3.57 11.715 11.715 0 0 1-.695-3.988c0-1.355.227-2.697.695-4.051a11.684 11.684 0 0 1 2.023-3.646 10.612 10.612 0 0 1 3.237-2.633c1.277-.671 2.744-1.013 4.413-1.013s3.06.329 4.312.975a10.66 10.66 0 0 1 3.199 2.532 10.519 10.519 0 0 1 1.985 3.544c.442 1.33.657 2.672.657 4.026 0 1.355-.227 2.697-.695 4.051v.013Zm-11.19-7.976a3.86 3.86 0 0 0-1.151 1.114 4.605 4.605 0 0 0-.657 1.456 6.1 6.1 0 0 0-.215 1.545c0 .468.075.975.215 1.519.139.544.354 1.051.657 1.519.303.469.67.848 1.113 1.139.442.292.986.444 1.631.444s1.201-.152 1.669-.482a3.748 3.748 0 0 0 1.113-1.164 5.77 5.77 0 0 0 .632-1.519 6.435 6.435 0 0 0 .215-1.583c0-.506-.076-1.013-.215-1.519a4.79 4.79 0 0 0-.632-1.418 3.368 3.368 0 0 0-1.075-1.076c-.443-.279-.986-.418-1.631-.418s-1.202.152-1.669.443Zm26.843-2.595c-.088.253-.189.506-.278.76l-20.37 40.701c-.088.165-.417.734-.973 1.709l-6.259-3.481c.227-.545.367-.861.417-.95l20.648-41.208a2.96 2.96 0 0 1 1.315-1.354 4.139 4.139 0 0 1 1.947-.481c1.062 0 1.947.341 2.643 1.012.695.671 1.037 1.494 1.037 2.469 0 .291-.051.57-.139.823h.012Zm7.473 35.891a11.53 11.53 0 0 1-1.947 3.646 9.975 9.975 0 0 1-3.199 2.62c-1.277.671-2.744 1.013-4.413 1.013s-3.073-.329-4.35-.987c-1.277-.659-2.352-1.507-3.237-2.57a10.764 10.764 0 0 1-1.985-3.57 12.685 12.685 0 0 1-.657-4.026c0-1.355.227-2.684.695-4.013a11.05 11.05 0 0 1 2.023-3.545c.885-1.038 1.973-1.874 3.262-2.532 1.303-.658 2.757-.988 4.375-.988 1.619 0 3.06.317 4.312.95a10.016 10.016 0 0 1 3.161 2.469 10.546 10.546 0 0 1 1.947 3.481 12.31 12.31 0 0 1 .658 3.988c0 1.355-.215 2.697-.658 4.051l.013.013Zm-11.228-7.976a3.463 3.463 0 0 0-1.113 1.114c-.278.443-.48.924-.632 1.456a6.145 6.145 0 0 0-.215 1.545c0 .493.076 1.038.215 1.582a5.27 5.27 0 0 0 .632 1.494c.278.443.645.797 1.113 1.076.468.278 1.024.418 1.669.418.695 0 1.29-.152 1.77-.443a3.546 3.546 0 0 0 1.189-1.14 4.71 4.71 0 0 0 .632-1.557c.114-.57.177-1.127.177-1.671 0-1.013-.291-1.988-.873-2.912-.581-.924-1.517-1.392-2.819-1.392-.696 0-1.277.152-1.745.443v-.013Zm22.747 15.496c-2.049-.051-3.579-.519-4.489-1.418-.91-.798-1.366-2.456-1.315-4.9v-38.055c-.051-2.444.455-4.102 1.416-4.786.847-.734 2.327-1.088 4.375-1.088h38.122c2.39-.051 3.983.341 4.83 1.139.911.861 1.366 2.456 1.416 4.722v38.056c0 2.342-.455 3.988-1.365 4.899-.847.962-2.504 1.418-4.894 1.418h-38.122l.026.013Zm4.375-42.5c-1.189 0-1.821.114-2.049.342-.291.279-.392.912-.392 2.102v29.51c0 1.19.114 1.937.342 2.216.227.392.91.569 2.111.569h29.524c1.315-.05 2.112-.228 2.327-.506.291-.279.392-1.026.392-2.279v-29.51c0-1.203-.165-1.823-.506-2.102-.228-.228-1.024-.342-2.213-.342H250.06Zm5.234 31.498c-1.644-.05-2.845-.506-3.641-1.367-.62-.798-.911-2.051-.847-3.874v-18.293c0-1.482.29-2.57 1.024-3.355.683-.798 1.82-1.203 3.464-1.14h18.714c1.53 0 2.781.279 3.692.912.961.683 1.416 1.873 1.479 3.583v18.293c0 1.709-.392 2.963-1.252 3.811-.796.911-2.099 1.367-3.919 1.418h-18.714v.012Zm4.615-20.509c-.632-.05-1.024.051-1.188.228-.177.165-.228.57-.228 1.203v9.52c0 .912.114 1.481.342 1.646.164.278.569.392 1.074.392h9.559l1.821-.228.177-1.823v-9.52c0-.62-.114-1.025-.392-1.203-.227-.164-.796-.227-1.593-.227h-9.559l-.013.012Zm38.122-5.342h-.05c-.797-.279-1.53-.848-2.112-1.646-.505-.798-.847-1.646-.91-2.557-.051-.798.341-1.532 1.075-2.114a36.237 36.237 0 0 0 3.869-3.191c1.138-1.089 2.567-2.734 4.096-4.785.569-.684 1.417-1.14 2.555-1.203 1.138-.063 2.212.165 3.186.734l7.106 5.077c.733.456 1.252 1.203 1.315 2.051 0 .747-.228 1.646-.683 2.507-.392.797-1.075 1.481-1.871 1.937-.734.405-1.543.405-2.39-.051-1.416-1.418-2.959-2.849-4.375-4.165a2.308 2.308 0 0 0-1.365-.456c-.456 0-.961.392-1.417.975-1.251 1.76-2.503 3.19-3.464 4.279l-1.416 1.367h2.503v-1.367c0-.975.392-1.709 1.138-2.165a5.248 5.248 0 0 1 2.554-.684c.961 0 1.872.279 2.555.684.632.456 1.024 1.203 1.024 2.165v1.367h1.53c2.554 0 3.919 1.317 3.919 3.874v13.559c0 2.557-1.365 3.874-3.919 3.874h-8.08v2.051h9.331c.683 0 1.138.278 1.48.797a3.6 3.6 0 0 1 .506 1.874c0 .671-.177 1.317-.506 1.823-.342.506-.797.797-1.48.797h-9.331v1.824h9.331c.683 0 1.138.278 1.48.797a3.6 3.6 0 0 1 .506 1.874c0 .671-.177 1.316-.506 1.823-.342.506-.797.797-1.48.797h-9.331v.684c0 .848-.392 1.532-1.075 1.988-.632.455-1.479.62-2.453.62-.847 0-1.77-.165-2.503-.62-.62-.456-1.024-1.14-1.024-1.988v-32.587c0-1.076.227-1.987.682-2.62Zm11.317 5.241c0-.734-.455-1.203-1.302-1.203h-2.453c-.734 0-1.189.456-1.189 1.203v1.532h4.944v-1.532Zm-4.944 9.52h3.642c.847 0 1.302-.456 1.302-1.253v-1.481h-4.944v2.734Zm41.359-5.583c.683.507 1.075 1.532 1.075 2.963v15.318c0 1.317-.392 2.393-1.024 3.076l-.683.52c.619.341 1.479.797 2.276 1.253.733.456 1.252 1.076 1.252 1.937 0 .797-.165 1.646-.569 2.506-.456.849-1.138 1.482-1.821 1.824-.632.341-1.479.341-2.276-.114-2.794-1.418-5.121-2.507-6.878-3.013-.86-.228-1.417-.861-1.657-1.646a4.823 4.823 0 0 1 0-2.165h-6.828c.228.519.342 1.089.342 1.595 0 .798-.456 1.481-1.252 2-1.075.621-2.213 1.317-3.3 1.823-1.024.507-2.504 1.089-4.438 1.709-.86.279-1.657.165-2.339-.392a5.551 5.551 0 0 1-1.366-2.228c-.341-.848-.405-1.76-.177-2.57.228-.734.797-1.304 1.656-1.595l2.39-.962c-.114-.114-.291-.228-.392-.342-.506-.621-.847-1.76-.847-3.191v-15.318c0-1.203.278-2.228.797-2.849.569-.633 1.643-.974 2.958-.974h20.029c1.188 0 2.276.278 3.072.861v-.026Zm-9.496-8.317h10.356c.796 0 1.479.341 1.821.974a4.79 4.79 0 0 1 .569 2.279c0 .798-.228 1.595-.569 2.228-.342.57-1.025.912-1.821.912h-26.907c-.796 0-1.479-.342-1.871-.962-.342-.684-.569-1.481-.569-2.279 0-.848.227-1.646.569-2.215.392-.57 1.075-.912 1.871-.912h9.332v-1.709h-7.852c-1.771 0-2.732-.975-2.732-2.735v-6.722c0-1.823.974-2.735 2.732-2.735h7.852v-.063c0-.962.341-1.646 1.074-2.101a4.822 4.822 0 0 1 2.554-.735c1.025 0 1.884.279 2.567.735.683.455 1.024 1.139 1.024 2.101v.063h7.852c1.771 0 2.731.912 2.731 2.735v6.722c0 1.76-.96 2.735-2.731 2.735h-7.852v1.709-.025Zm-10.128-8.596c-.404 0-.632.227-.632.569v.393c0 .392.228.62.632.62h2.896v-1.595h-2.896v.013Zm13.656 22.446c0-.519-.114-.798-.291-.912-.164-.114-.683-.164-1.302-.164H327.05c-.392 0-.797.05-.911.164-.113.114-.177.456-.177.912v.506h13.82v-.506h.013Zm0 4.443h-13.82v1.646h13.82v-1.646Zm-13.592 6.887c.164.165.505.291.847.291h11.152c.847 0 1.365-.114 1.416-.177.114-.114.164-.57.164-1.418h-13.82c0 .684.114 1.203.228 1.317l.013-.013Zm12.973-32.181c.391 0 .632-.228.632-.621v-.392c0-.342-.228-.57-.632-.57h-2.896v1.595h2.896v-.012ZM11.464 298.965h-1.087c-.733 0-1.226-.279-1.505-.823a3.472 3.472 0 0 1-.543-1.912c0-.721.177-1.278.506-1.772.278-.545.821-.823 1.542-.823h38.919c.683 0 1.188.266 1.454.772a3.47 3.47 0 0 1 .544 1.912c0 .721-.177 1.279-.506 1.772-.278.595-.822.861-1.505.861h-19.03v19.547c0 .772-.315 1.367-.91 1.684-.632.405-1.365.595-2.187.595-.822 0-1.454-.177-1.998-.545-.594-.367-.91-.962-.91-1.734v-1.418l-13.517 1.874c-.733.139-1.315-.089-1.732-.595-.405-.545-.683-1.19-.822-1.963-.088-.721 0-1.367.278-1.962s.734-.962 1.505-1.051l1.504-.177v-14.268.026Zm4.691-6.431c-1.226.05-2.048-.266-2.642-.912-.506-.506-.733-1.456-.733-2.734v-7.558c0-1.14.278-1.963.821-2.558.493-.582 1.315-.81 2.542-.772h26.805c1.088.051 1.998.228 2.643.734.632.507.961 1.317.961 2.596v7.558c0 1.19-.278 2.101-.86 2.683-.594.595-1.454.912-2.73.963h-26.82.014Zm8.105 7.887v-1.456h-6.777v1.456h6.777Zm0 5.697v-1.456h-6.777v1.456h6.777Zm0 5.291v-1.05h-6.777v2l6.777-.962v.012Zm16.096-27.712v-.139c0-.456-.088-.735-.278-.823-.139-.139-.544-.177-1.138-.177H19.961c-.404-.051-.682 0-.821.139l-.178.873v.14h21.394v-.013Zm-21.394 3.14c0 .405.089.721.228.823.14.177.405.278.771.278h18.98c.733 0 1.188-.051 1.276-.177l.089-.912H18.963v-.012Zm15.287 33.764c-.733.278-1.365.177-1.96-.279-.505-.405-.86-.962-1.188-1.734a4.094 4.094 0 0 1-.177-2.229c.139-.633.594-1.139 1.315-1.417 1.77-.595 3.237-1.14 4.324-1.735l.367-.177c-1.315-1.317-2.643-2.874-4.008-4.697-.405-.595-.506-1.139-.279-1.734.367-.962.91-1.633 1.594-1.823h-.633c-.632 0-1.138-.228-1.454-.735-.316-.455-.455-1.05-.455-1.683 0-.684.177-1.279.506-1.773.316-.493.771-.734 1.416-.734h12.43c1.314-.089 2.275.279 2.781 1.051.594.962.771 2 .594 3.241-.96 3.19-2.415 6.064-4.273 8.52l4.83 2.279c.733.316 1.188.822 1.315 1.455a3.414 3.414 0 0 1-.228 2.102c-.278.772-.683 1.367-1.277 1.823-.594.456-1.189.544-1.91.279-2.098-.773-4.324-2.14-6.739-3.963-2.781 1.962-5.095 3.279-6.878 3.963h-.013Zm6.689-10.888c.86-1.089 1.543-2.19 1.96-3.14.139-.595.139-1 .05-1.278-.177-.317-.505-.507-.96-.507h-5.185l.367.367c1.227 1.824 2.453 3.33 3.78 4.558h-.012Zm-14.275 22.345c0-.861.316-1.418.91-1.773a4.155 4.155 0 0 1 2.226-.633c.809 0 1.504.178 2.048.595.683.406.999.963.999 1.823v.406h16.248c.733 0 1.276.278 1.593.772.366.633.543 1.367.543 2.089 0 .772-.177 1.367-.543 1.873-.316.595-.86.912-1.593.912H10.187c-.77 0-1.315-.279-1.643-.874A4.054 4.054 0 0 1 8 335.159c0-.734.177-1.367.544-1.873.316-.545.86-.823 1.643-.823h16.476v-.405Zm-5.602 37.093c-1.087.051-1.96-.228-2.503-.823-.455-.544-.683-1.418-.683-2.684v-4.557c-.05-1.089.228-1.861.733-2.456.506-.544 1.315-.823 2.453-.823H37.26c1.049.051 1.909.279 2.554.734.632.507.96 1.317.96 2.558v4.557c-.05.772-.176 1.418-.455 1.912h.14l2.87-.089c.139.051.227-.456.227-1.595v-7.887c0-.912-.455-1.367-1.365-1.367H16.788c-.91-.051-1.366.405-1.366 1.316v13.078c0 .823-.316 1.418-.91 1.734a4.431 4.431 0 0 1-2.276.633c-.822 0-1.454-.177-2.049-.595-.632-.367-.96-.962-.96-1.772v-17.04c0-.823.227-1.545.682-2.14.506-.595 1.227-.861 2.365-.861h34.72c.772-.05 1.417.228 1.96.823.506.456.734 1.102.772 1.874v15.128c0 2.191-.734 3.646-2.137 4.242-1.871.734-4.552.822-8.004.367-.733-.14-1.277-.507-1.543-1.14-.505-1.089-.543-2.089-.088-3.101h-16.88l-.013-.026Zm-3.186-19.369c-1.189.05-1.998-.279-2.592-.874-.455-.544-.683-1.418-.733-2.734v-3.596c0-1.101.278-1.912.771-2.469.506-.595 1.315-.86 2.554-.822H41.04c1.088.05 1.96.265 2.592.734.632.456.961 1.316.961 2.557v3.596c-.05 1.19-.316 2.05-.86 2.645-.543.633-1.416.963-2.68.963H17.875Zm3.819-6.064c-.405 0-.683.05-.772.177-.139.139-.227.367-.177.772v-.051l.228.456c.139.177.405.279.733.279h15.338l1.226-.178.089-1.05c-.177-.266-.633-.405-1.315-.405h-15.35Zm3.097 18.508c-.404 0-.682.051-.77.178-.14.139-.178.405-.14.822v.14c0 .633.089 1 .177 1.139.14.177.405.279.733.279h8.598c.734 0 1.138-.051 1.227-.178l.139-1.228v-.139c0-.456-.089-.734-.278-.823-.14-.139-.544-.177-1.088-.177h-8.598v-.013Z"/></g><g clip-path="url(#c)"><path d="M344.971 402H26.029C13.31 402 3 412.297 3 425s10.31 23 23.03 23h318.94c12.719 0 23.03-10.297 23.03-23s-10.311-23-23.029-23Z" fill="#005BAB"/><path d="M33.099 439.038c-1.152-.04-2.022-.294-2.544-.802-.509-.455-.777-1.378-.737-2.756v-21.455c-.026-1.378.255-2.314.804-2.702.482-.415 1.312-.615 2.477-.615h19.28c1.352-.027 2.25.187 2.731.642.51.481.777 1.378.804 2.662v21.441c0 1.311-.255 2.247-.777 2.756-.482.548-1.42.802-2.758.802h-19.28v.027Zm2.477-23.956c-.643 0-1.031.067-1.152.187-.16.16-.227.508-.227 1.19v6.167h17.352v-6.167c0-.682-.094-1.03-.295-1.19-.134-.134-.575-.187-1.258-.187H35.562h.014Zm15.973 11.904H34.197v6.1c0 .669.066 1.097.187 1.257.134.228.549.321 1.192.321h14.433c.736-.027 1.152-.134 1.312-.281.16-.16.228-.575.228-1.284v-6.113Zm30.821 4.628c-.415 3.144-1.352 5.551-2.664 7.223-.71.83-1.379 1.258-1.901 1.218a3.225 3.225 0 0 1-1.352-.509 3.627 3.627 0 0 1-1.031-1.31l-.067-.094c-.482.16-.938.227-1.313.187-.481-.067-.83-.281-1.057-.776l-1.098-1.953c-.643-.936-.897-1.631-.71-2.019.094-.361.255-.642.55-.87h-3.281l.482.616c.228.414.228.829 0 1.284-1.513 2.474-3.026 4.2-4.499 5.109-.549.388-1.058.482-1.54.254a3.056 3.056 0 0 1-1.151-1.096c-.321-.482-.455-.99-.348-1.579.093-.414.388-.776.87-1.123 1.446-1.258 2.504-2.435 3.147-3.438v-.027h-2.544c-.55 0-.897-.187-1.152-.615a2.946 2.946 0 0 1-.388-1.471c0-.509.134-.963.388-1.311.255-.415.616-.575 1.152-.575h1.03v-12.453h-1.15c-.55 0-.898-.188-1.152-.616-.255-.414-.389-.936-.389-1.471 0-.508.134-.963.389-1.311.254-.388.616-.575 1.151-.575h1.152v-1.284c0-.575.227-.963.642-1.217.415-.281.938-.415 1.54-.415.549 0 1.031.134 1.38.388.454.294.668.669.668 1.257v1.284h4.566v-1.418c0-.575.188-.963.616-1.217.455-.281.937-.414 1.54-.414.576 0 1.03.133 1.42.387.454.295.642.669.642 1.258v1.418h.642c.349 0 .643.093.898.321v-.134c0-.615.227-1.124.642-1.578a1.916 1.916 0 0 1 1.58-.643h8.382c.549 0 1.03.228 1.472.669.389.388.576.83.576 1.378v23.796c0 1.19-.294 2.153-.87 2.795-.87.99-2.96 1.285-6.24.83-.575-.094-.99-.388-1.218-.937-.187-.481-.227-.989-.134-1.631.228-1.579.964-2.221 2.223-2.02.736.067 1.258.067 1.42-.04.347-.161.548-.616.575-1.311v-3.852h-4.311l-.188 1.672.014-.041Zm-9.666-13.804v-1.538h-4.566v1.538h4.566Zm0 5.525v-1.539h-4.566v1.539h4.566Zm0 5.39v-1.418h-4.566v1.418h4.566Zm5.208 3.852-.616.134h-2.638l1.768 2.863.482-.709c.455-.669.776-1.445.99-2.274l.014-.014Zm.549-16.666a1.303 1.303 0 0 1-.897.348h-.643v12.453h.388c.483 0 .83.134 1.058.481l.094-2.407v-10.888.013Zm8.422 2.247v-2.916c-.027-.682-.349-1.03-.991-.99h-2.276c-.576 0-.897.321-.897.963v2.957h4.177l-.013-.014Zm0 7.798v-3.825h-4.178v3.825h4.178Zm25.426-10.032c.482.455.709 1.057.709 1.9 0 .776-.254 1.444-.803 1.953-.455.481-1.098.709-1.861.709-.83 0-1.446-.228-1.928-.709-.509-.509-.737-1.191-.737-1.953 0-.83.188-1.445.67-1.9.509-.508 1.151-.775 1.995-.775.776 0 1.446.254 1.955.775Zm0 13.671c.482.454.709 1.056.709 1.899 0 .776-.254 1.418-.803 1.953-.455.481-1.098.709-1.861.709-.83 0-1.446-.228-1.928-.709-.509-.548-.737-1.191-.737-1.953 0-.829.188-1.445.67-1.899.509-.549 1.151-.776 1.995-.776.776 0 1.446.227 1.955.776Zm21.797 7.383v-18.646h-2.477a2.23 2.23 0 0 1-1.607-.655 2.113 2.113 0 0 1-.669-1.592c0-.629.214-1.15.656-1.578a2.194 2.194 0 0 1 1.593-.642h5.209c.749 0 1.338.24 1.767.708.428.469.643 1.057.643 1.766v20.639h-5.115Zm14.166 0v-18.646h-2.477a2.228 2.228 0 0 1-1.607-.655 2.113 2.113 0 0 1-.669-1.592c0-.629.214-1.15.656-1.578a2.192 2.192 0 0 1 1.593-.642h5.208c.75 0 1.339.24 1.768.708.428.469.642 1.057.642 1.766v20.639h-5.114Zm11.983 0a3.36 3.36 0 0 1-1.781-.508c-.549-.348-.817-.883-.817-1.605 0-.294.054-.575.174-.816a4.63 4.63 0 0 1 .429-.696l1.098-1.177c.361-.388.723-.776 1.098-1.137.026-.026.107-.134.268-.334.16-.201.361-.455.589-.749.241-.294.495-.629.79-.977.294-.347.562-.695.83-1.043.267-.348.508-.642.709-.896.201-.254.362-.455.469-.575.361-.428.777-.923 1.218-1.472.456-.561.871-1.123 1.272-1.725.402-.589.723-1.151.991-1.699s.402-1.017.402-1.391c0-.642-.241-1.164-.723-1.552a2.57 2.57 0 0 0-1.66-.588c-.63 0-1.139.12-1.554.374a4.363 4.363 0 0 0-1.098.95 7.006 7.006 0 0 0-.816 1.284c-.241.468-.482.936-.737 1.378-.08.107-.16.214-.227.334a1.119 1.119 0 0 1-.255.308 1.607 1.607 0 0 1-1.098.415c-.749 0-1.325-.241-1.74-.736-.402-.495-.616-1.097-.616-1.793 0-.963.228-1.845.669-2.648a8.662 8.662 0 0 1 1.607-2.073c1.634-1.472 3.575-2.221 5.851-2.221.937 0 1.875.147 2.785.428a7.858 7.858 0 0 1 2.423 1.258 6.164 6.164 0 0 1 1.701 2.046c.428.816.643 1.726.643 2.756 0 .709-.134 1.404-.389 2.1a13.56 13.56 0 0 1-.964 2.06 19.014 19.014 0 0 1-1.285 1.966c-.469.642-.924 1.244-1.352 1.806a57.594 57.594 0 0 1-1.875 2.34 78.01 78.01 0 0 1-1.874 2.154h8.167v4.494h-13.336l.014-.04Zm29.536-22.471-.803 2.006c-.321.802-.67 1.672-1.044 2.595-.375.936-.723 1.792-1.045 2.581-.321.79-.709 1.739-1.151 2.823-.027.027-.027.04-.027.067-.04.08-.214.468-.495 1.15-.295.682-.643 1.511-1.072 2.488-.428.976-.897 2.02-1.392 3.143a156.78 156.78 0 0 1-1.433 3.104c-.455.936-.843 1.725-1.191 2.354-.348.628-.563.949-.643.949a8.26 8.26 0 0 1-1.044-.053c-.308-.04-.576-.107-.804-.241a1.19 1.19 0 0 1-.508-.575c-.121-.254-.175-.602-.175-1.03 0-.107.054-.308.148-.589.093-.28.16-.481.214-.561l8.743-21.696.161-.348c.08-.174.16-.321.227-.428.067-.12.094-.187.094-.214.75.281 1.352.508 1.794.709.455.187.857.374 1.232.562.375.187.562.307.562.374 0 .027-.107.295-.321.83h-.027Zm8.409 22.471v-18.646h-2.477a2.228 2.228 0 0 1-1.607-.655 2.114 2.114 0 0 1-.67-1.592c0-.629.215-1.15.656-1.578a2.196 2.196 0 0 1 1.594-.642h5.208c.75 0 1.339.24 1.768.708.428.469.642 1.057.642 1.766v20.639H198.2Zm14.179 0v-18.646h-2.477a2.228 2.228 0 0 1-1.607-.655 2.114 2.114 0 0 1-.67-1.592c0-.629.215-1.15.657-1.578a2.192 2.192 0 0 1 1.593-.642h5.208c.75 0 1.339.24 1.768.708.428.469.642 1.057.642 1.766v20.639h-5.114Zm21.275-22.471-.803 2.006c-.322.802-.67 1.672-1.045 2.595-.375.936-.723 1.792-1.044 2.581l-1.152 2.823c-.026.027-.026.04-.026.067-.041.08-.215.468-.496 1.15-.294.682-.642 1.511-1.071 2.488-.428.976-.897 2.02-1.392 3.143a162.733 162.733 0 0 1-1.433 3.104 53.241 53.241 0 0 1-1.192 2.354c-.348.628-.562.949-.642.949-.389 0-.737-.013-1.045-.053-.308-.04-.575-.107-.803-.241a1.187 1.187 0 0 1-.509-.575c-.12-.254-.174-.602-.174-1.03 0-.107.054-.308.147-.589.094-.28.161-.481.215-.561l8.743-21.696.16-.348c.081-.174.161-.321.228-.428.067-.12.094-.187.094-.214.75.281 1.352.508 1.794.709.455.187.857.374 1.232.562.375.187.562.307.562.374 0 .027-.107.295-.321.83h-.027Zm8.408 22.471v-18.646h-2.477a2.225 2.225 0 0 1-1.606-.655 2.11 2.11 0 0 1-.67-1.592c0-.629.214-1.15.656-1.578a2.194 2.194 0 0 1 1.593-.642h5.209c.75 0 1.339.24 1.767.708.429.469.643 1.057.643 1.766v20.639h-5.115Zm19.481-7.704h-9.345a.933.933 0 0 1-.589-.228 1.861 1.861 0 0 1-.509-.562 3.376 3.376 0 0 1-.321-.749 1.94 1.94 0 0 1-.054-.829c.04-.294.161-.562.375-.789a2.53 2.53 0 0 1 .696-.549c.254-.133.536-.24.817-.321a2.7 2.7 0 0 1 .723-.107h8.194l.027 4.147-.014-.013Zm9.319 7.704v-18.646h-2.477a2.23 2.23 0 0 1-1.607-.655 2.113 2.113 0 0 1-.669-1.592c0-.629.214-1.15.656-1.578a2.194 2.194 0 0 1 1.593-.642h5.209c.75 0 1.339.24 1.767.708.429.469.643 1.057.643 1.766v20.639h-5.115Zm11.983 0a3.36 3.36 0 0 1-1.78-.508c-.549-.348-.817-.883-.817-1.605 0-.294.053-.575.174-.816.12-.241.268-.482.428-.696l1.098-1.177c.362-.388.723-.776 1.098-1.137.027-.026.107-.134.268-.334.161-.201.362-.455.589-.749.241-.294.496-.629.79-.977.295-.347.562-.695.83-1.043.268-.348.509-.642.71-.896.201-.254.361-.455.468-.575.362-.428.777-.923 1.219-1.472a22.87 22.87 0 0 0 1.272-1.725c.401-.589.723-1.151.991-1.699.267-.548.401-1.017.401-1.391 0-.642-.241-1.164-.723-1.552a2.57 2.57 0 0 0-1.66-.588c-.629 0-1.138.12-1.553.374a4.346 4.346 0 0 0-1.098.95 7.01 7.01 0 0 0-.817 1.284c-.241.468-.482.936-.736 1.378-.08.107-.161.214-.228.334a1.115 1.115 0 0 1-.254.308 1.607 1.607 0 0 1-1.098.415c-.75 0-1.326-.241-1.741-.736-.401-.495-.616-1.097-.616-1.793 0-.963.228-1.845.67-2.648a8.637 8.637 0 0 1 1.607-2.073c1.633-1.472 3.574-2.221 5.851-2.221.937 0 1.874.147 2.785.428a7.88 7.88 0 0 1 2.423 1.258 6.149 6.149 0 0 1 1.7 2.046c.429.816.643 1.726.643 2.756 0 .709-.134 1.404-.388 2.1a13.755 13.755 0 0 1-.964 2.06 19.023 19.023 0 0 1-1.286 1.966c-.468.642-.923 1.244-1.352 1.806a57.583 57.583 0 0 1-1.874 2.34c-.63.75-1.259 1.472-1.875 2.154h8.168v4.494h-13.336l.013-.04Zm29.537-22.471-.804 2.006c-.321.802-.669 1.672-1.044 2.595-.375.936-.723 1.792-1.044 2.581l-1.152 2.823c-.027.027-.027.04-.027.067-.04.08-.214.468-.495 1.15-.295.682-.643 1.511-1.071 2.488-.429.976-.897 2.02-1.393 3.143a157.044 157.044 0 0 1-1.432 3.104 53.241 53.241 0 0 1-1.192 2.354c-.348.628-.562.949-.642.949-.389 0-.737-.013-1.045-.053-.308-.04-.576-.107-.803-.241a1.187 1.187 0 0 1-.509-.575c-.12-.254-.174-.602-.174-1.03 0-.107.054-.308.147-.589.094-.28.161-.481.214-.561l8.744-21.696.16-.348c.081-.174.161-.321.228-.428.067-.12.094-.187.094-.214.749.281 1.352.508 1.794.709.455.187.857.374 1.232.562.374.187.562.307.562.374 0 .027-.107.295-.321.83h-.027Zm18.999 18.365a7.65 7.65 0 0 1-1.915 2.367 8.786 8.786 0 0 1-2.704 1.525 9.074 9.074 0 0 1-3.08.549 9.474 9.474 0 0 1-2.142-.268 9.878 9.878 0 0 1-2.116-.802 8.455 8.455 0 0 1-1.834-1.298 5.505 5.505 0 0 1-1.272-1.766 4.487 4.487 0 0 1-.268-.749 2.798 2.798 0 0 1-.107-.816c0-.615.228-1.163.67-1.631.442-.469.99-.709 1.633-.709.536 0 .978.187 1.339.548.348.361.71.776 1.071 1.217.362.442.79.856 1.272 1.217.482.362 1.125.549 1.915.549.83 0 1.553-.254 2.169-.776.616-.508.91-1.204.91-2.087 0-.601-.147-1.056-.455-1.377a3.309 3.309 0 0 0-1.125-.789 13.276 13.276 0 0 0-1.459-.549 6.093 6.093 0 0 1-1.5-.695 4.044 4.044 0 0 1-.642-.482c-.188-.174-.322-.441-.389-.803a.454.454 0 0 1-.107-.214c-.026-.093-.026-.16.014-.214-.134-.535-.04-.936.254-1.217.295-.281.696-.521 1.178-.722.482-.201.991-.428 1.527-.656.535-.227.99-.588 1.352-1.056.067-.107.134-.241.228-.401a1.18 1.18 0 0 0 .134-.536c0-.601-.215-1.11-.63-1.524a2.081 2.081 0 0 0-1.526-.629c-.295 0-.67.08-1.111.241-.442.16-.884.361-1.339.615a10.46 10.46 0 0 0-1.259.803c-.388.294-.656.548-.803.789l-.027-.04s-.121-.121-.308-.375c-.187-.241-.375-.522-.589-.829a16.99 16.99 0 0 0-.616-.843c-.187-.254-.295-.401-.321-.415-.027 0-.054-.04-.107-.133-.054-.081-.108-.174-.175-.254a3.221 3.221 0 0 1-.174-.241c-.053-.067-.093-.107-.107-.107 0-.027-.026-.054-.067-.094a13.562 13.562 0 0 1 3.16-2.581c1.138-.669 2.517-1.017 4.097-1.017.884 0 1.727.147 2.544.415a6.752 6.752 0 0 1 2.156 1.19 5.814 5.814 0 0 1 1.499 1.899c.375.75.563 1.579.563 2.502 0 .923-.201 1.806-.616 2.662a5.467 5.467 0 0 1-1.741 2.113c1.112.535 2.009 1.271 2.665 2.194.669.936.99 2.019.99 3.263 0 1.111-.241 2.127-.723 3.05l.014-.013Zm6.989 4.106v-18.646h-2.477a2.23 2.23 0 0 1-1.607-.655 2.113 2.113 0 0 1-.669-1.592c0-.629.214-1.15.656-1.578a2.194 2.194 0 0 1 1.593-.642h5.209c.749 0 1.338.24 1.767.708.428.469.643 1.057.643 1.766v20.639h-5.115Z" fill="#fff"/></g><defs><clipPath id="a"><path fill="#fff" d="M0 0h481v233H0z"/></clipPath><clipPath id="b"><path fill="#fff" transform="translate(8 278)" d="M0 0h341v96H0z"/></clipPath><clipPath id="c"><path fill="#fff" transform="translate(3 402)" d="M0 0h365v46H0z"/></clipPath></defs></svg>