<svg width="460" height="223" fill="none" xmlns="http://www.w3.org/2000/svg"><g clip-path="url(#a)"><path d="m0 53.112 8.498-1.768V28.83H1.136V14.642h7.362V3.045h16.315v11.597h6.58V28.83h-6.58v19.103l6.794-1.504v14.049l-6.794 1.503v28.654H6.011L1.25 79.441h7.247V65.393L0 67.16V53.112Zm76.84-12.14c0-.367.012-.733.05-1.087.038-.366.05-.733.05-1.087V1.124h15.633v40.252l-.454 5.18a78.373 78.373 0 0 0-.392 3.006c-.113.998-.24 1.997-.391 3.007l4.76-1.086 9.976 35.476-10.43 3.815-9.294-20.467c-1.516 3.816-3.245 7.39-5.215 10.714a101.578 101.578 0 0 1-6.58 9.753l-10.316-5.862c3.473-6.28 6.238-12.533 8.271-18.761 2.046-6.229 3.359-12.76 3.965-19.583h-9.408L64.123 13.14l-7.134 1.226v9.273h7.816V35.64H56.99v4.232h6.124l4.192 26.885h-7.248l-3.056-19.646v42.98h-14.51V35.654h-.682l-2.488 50.889h-7.248l2.488-50.89h-2.16V23.65h10.09v-8.869h-9.521V2.906h18.36L65.841.859v9.273h8.384l2.602 30.84h.012Zm69.805-39.165h70.715l6.793 8.186v80.503H117.172V1.806h19.838v11.599l9.635-11.598Zm-9.635 78.052h66.863V18.054l-3.737-4.637H137.01v66.454-.012Zm25.041-63.448v-1.364h16.655v1.364h23.122v6.684h-23.122v1.642h17.338l4.533 5.597v16.373h-21.871v2.451l8.272-.278-.114-.82h14.509l1.932 9.007h-14.509l-.227-.96-49.981 1.503v-7.226l23.463-.682v-3.007h-21.872v-21.97h15.305v6.544l5.67-6.545h.909v-1.642h-23.235v-6.683h23.235l-.012.012Zm35.471 41.477v1.643h4.192v7.643h-4.192V78.23h-22.326l-4.192-6.683h10.316v-4.372h-42.719v-7.643h42.719v-1.643h16.202Zm-49.071 11.32h14.963l3.17 8.87H151.62l-3.169-8.87Zm6.907-29.197h6.68V38.37h-6.68v1.642Zm.114-6.96h6.579v-1.643h-6.579v1.642Zm23.234-1.643v1.642h6.466v-.278l-1.25-1.364h-5.216Zm6.238 6.961h-6.238v1.642h6.238V38.37Zm57.014 39.581V43.7l-2.942-3.41h-3.283V27.73h20.734l7.703 9.147V77.95h78.077v12.42H242.173l-7.135-12.42h6.92Zm54.855-9.55-28.564 5.862V3.31H285.7l11.1-1.908v13.506l-9.066 1.642v41.338l9.066-1.907V68.4h.013Zm44.992-56.625v57.99h-16.997l-6.351-12.003v18.42H300.21V3.992h18.247v12.002l6.238-12.002h10.657l6.466 7.783h-.013ZM323.217 56.94V20.1l-2.374-3.007h-2.159V56.94h4.533Zm44.98-12.014v-3.69h-15.418v-12.28h5.442l-1.932-8.59h17.224l1.932 8.59h4.306l2.046-8.59h17.224l-2.046 8.59h5.556v12.28h-15.418v3.69h14.737v12.141h-14.737v34.111h-16.542l-5.329-10.233-.909 8.048h-11.554l3.51-28.932h11.554l-2.374 18.964h2.715v-21.97h-14.736V44.912h14.736l.013.013ZM386.785 5.76h15.077v12.28h-48.389V5.774h13.486l-.909-3.955h19.838l.909 3.955-.012-.013Zm.682 54.3h11.554l3.283 27.29-.341 1.642h-10.998l-3.511-28.932h.013ZM460 30.321v11.876h-8.726V90.23h-19.042V42.197h-6.908v29.879l-4.192 18.281h-19.497l.341-1.364h.568l-.227-1.643 3.51-15.287V4.41h33.539l18.588-2.729v12.28l-15.746 2.73h-16.884v13.644H460v-.013ZM3.17 136.218h90.21c1.591 1.82 2.93 3.411 4.029 4.776a370.959 370.959 0 0 0 3.914 4.775v30.84H72.306l-7.703-12.28h12.69v-10.095l-4.646-5.458H49.185l-17.68 27.972H4.42l17.678-27.972H3.17v-12.558Zm97.005 54.301v29.474H5.897v-39.43H29.7v13.101l8.044-13.101h54.172l8.272 9.956h-.013Zm-70.487 3.133v13.366h46.697v-8.186l-4.42-5.18H29.687Zm114.924-54.44h19.27l-1.478-5.862h23.462l1.478 5.862h35.584v9.551h-35.584v4.372h35.13v9.69h-35.13v4.371h34.334v9.551h-34.334v4.637h35.925v9.829h-40.118V223h-23.462v-15.969h-8.725l-10.999 13.922h-21.758l10.885-13.922h-10.544v-10.916h41.141V191.2h-37.062v-29.196h-5.67l8.385-28.111h20.848l-1.591 5.319h.013Zm-2.829 9.551-1.25 4.372h23.349v-4.372h-22.099Zm22.099 14.049h-20.394v4.372h20.394v-4.372Zm0 13.923h-20.394v4.636h20.394v-4.636Zm59.615 19.38v10.916h-9.862l10.998 13.922h-21.871l-19.497-24.838h40.232Zm118.182-39.569-6.794 14.605-48.957-16.778c-6.428 4.637-13.297 8.3-20.621 10.979-7.324 2.678-15.343 4.624-24.031 5.799l-5.101-15.287c7.778-2.363 14.938-5.395 21.479-9.071 6.529-3.689 12.338-8.389 17.401-14.125l29.461 4.093c-4.382 5.281-8.878 9.829-13.487 13.645l21.417-10.511 29.233 16.651Zm-10.885 19.646 4.419 9.955-17.792 22.514 12.35 1.086v12.558l-83.406-6.961v-13.506l45.675 4.372 14.168-16.778h-62.899v-13.24h87.485Z" fill="#005BAB"/><path d="M247.691 23.271c6.423 0 11.63-5.209 11.63-11.635S254.114 0 247.691 0c-6.423 0-11.63 5.21-11.63 11.636 0 6.426 5.207 11.636 11.63 11.636ZM98.635 42.665c6.423 0 11.63-5.21 11.63-11.636 0-6.426-5.207-11.636-11.63-11.636-6.424 0-11.63 5.21-11.63 11.636 0 6.426 5.206 11.636 11.63 11.636Zm189.238 140.677c6.423 0 11.63-5.209 11.63-11.635 0-6.427-5.207-11.636-11.63-11.636-6.424 0-11.631 5.209-11.631 11.636 0 6.426 5.207 11.635 11.631 11.635Z" fill="#F15A24"/></g><defs><clipPath id="a"><path fill="#fff" d="M0 0h460v223H0z"/></clipPath></defs></svg>