<svg width="239" height="31" fill="none" xmlns="http://www.w3.org/2000/svg"><g clip-path="url(#a)"><path d="M223.29 0H15.03C6.73 0 0 6.73 0 15.03v.01c0 8.3 6.73 15.03 15.03 15.03h208.26c8.301 0 15.03-6.73 15.03-15.03v-.01c0-8.3-6.729-15.03-15.03-15.03Z" fill="#005BAB"/><path d="M19.66 24.2c-.76-.02-1.32-.19-1.66-.52-.34-.3-.5-.9-.48-1.8V7.86c-.02-.9.17-1.51.52-1.76.31-.27.86-.4 1.62-.4h12.59c.88-.02 1.47.13 1.78.42.34.31.5.9.52 1.74v14.02c0 .86-.17 1.47-.5 1.8-.31.36-.92.52-1.8.52H19.66Zm1.62-15.65c-.42 0-.67.04-.76.13-.11.1-.15.33-.15.78v4.03H31.7V9.46c0-.44-.06-.67-.19-.78-.08-.08-.38-.13-.82-.13h-9.42.01Zm10.43 7.78H20.38v3.99c0 .44.04.71.13.82.08.15.36.21.78.21h9.42c.48-.02.76-.08.86-.19.11-.11.15-.38.15-.84v-3.99h-.01Zm20.11 3.03c-.27 2.06-.88 3.63-1.74 4.72-.46.55-.9.82-1.24.8-.34-.04-.63-.17-.88-.34-.27-.21-.5-.5-.67-.86l-.04-.06c-.31.1-.61.15-.86.12-.32-.04-.55-.19-.69-.5l-.71-1.28c-.42-.61-.59-1.07-.46-1.32.06-.23.17-.42.36-.57h-2.14l.31.4c.15.27.15.55 0 .84-.99 1.62-1.97 2.75-2.94 3.34-.36.25-.69.31-1.01.17a2.18 2.18 0 0 1-.76-.71c-.21-.31-.29-.65-.23-1.03.06-.27.25-.5.57-.73.94-.82 1.64-1.59 2.06-2.25v-.02h-1.66c-.36 0-.59-.13-.76-.4a1.86 1.86 0 0 1-.25-.96c0-.34.08-.63.25-.86.17-.27.4-.38.76-.38h.67V9.34H39c-.36 0-.59-.13-.76-.4-.17-.27-.25-.61-.25-.96 0-.34.08-.63.25-.86.17-.25.4-.38.76-.38h.76V5.9c0-.38.15-.63.42-.8.27-.19.61-.27 1.01-.27.36 0 .67.08.9.25.29.19.44.44.44.82v.84h2.98v-.92c0-.38.13-.63.4-.8.29-.19.61-.27 1.01-.27.38 0 .67.08.92.25.29.19.42.44.42.82v.92h.42c.23 0 .42.06.59.21v-.08c0-.4.15-.73.42-1.03.27-.3.63-.44 1.03-.42h5.48c.36 0 .67.15.97.44.25.25.38.54.38.9v15.55c0 .78-.19 1.41-.57 1.83-.57.65-1.93.84-4.07.54-.38-.06-.65-.25-.8-.61-.13-.32-.15-.65-.08-1.07.15-1.03.63-1.45 1.45-1.32.48.04.82.04.92-.02.23-.1.36-.4.38-.86v-2.52h-2.81l-.13 1.09-.02-.01Zm-6.32-9.02V9.33h-2.98v1.01h2.98Zm0 3.61v-1.01h-2.98v1.01h2.98Zm0 3.53v-.92h-2.98v.92h2.98ZM48.9 20l-.4.08h-1.72l1.15 1.87.32-.46c.29-.44.5-.94.65-1.49Zm.36-10.89c-.17.15-.36.23-.59.23h-.42v8.14h.25c.32 0 .55.08.69.31l.06-1.57V9.11h.01Zm5.5 1.47V8.67c-.02-.44-.23-.67-.65-.65h-1.49c-.38 0-.59.21-.59.63v1.93h2.73Zm0 5.1v-2.5h-2.73v2.5h2.73ZM71.38 9.1c.31.29.46.69.46 1.24 0 .5-.17.94-.52 1.28-.29.32-.71.46-1.22.46-.55 0-.94-.15-1.26-.46-.34-.33-.48-.78-.48-1.28 0-.55.13-.94.44-1.24.34-.34.76-.5 1.3-.5.5 0 .94.17 1.28.5Zm0 8.94c.31.29.46.69.46 1.24 0 .5-.17.92-.52 1.28-.29.32-.71.46-1.22.46-.55 0-.94-.15-1.26-.46-.34-.36-.48-.78-.48-1.28 0-.55.13-.94.44-1.24.34-.36.76-.5 1.3-.5.5 0 .94.15 1.28.5Zm14.22 4.82V10.67h-1.62c-.41 0-.76-.14-1.05-.43-.29-.29-.44-.63-.44-1.04 0-.41.14-.75.43-1.03s.63-.42 1.04-.42h3.4c.49 0 .87.15 1.15.46.28.31.42.69.42 1.15v13.49h-3.34l.01.01Zm9.25 0V10.67h-1.62c-.41 0-.76-.14-1.05-.43-.29-.29-.44-.63-.44-1.04 0-.41.14-.75.43-1.03s.63-.42 1.04-.42h3.4c.49 0 .87.15 1.15.46.28.31.42.69.42 1.15v13.49h-3.34l.01.01Zm7.83 0c-.42 0-.81-.11-1.16-.33-.36-.22-.54-.57-.54-1.05 0-.19.04-.37.12-.53.08-.16.17-.31.28-.45.24-.25.48-.51.71-.77.24-.26.48-.51.71-.74.01-.01.07-.09.18-.22.11-.13.23-.3.39-.49.15-.19.33-.41.51-.64.19-.23.37-.46.55-.68.17-.22.33-.42.46-.59.13-.17.23-.29.3-.38.24-.28.5-.6.8-.96.29-.36.57-.74.83-1.12.26-.38.48-.75.65-1.11.17-.36.26-.66.26-.91 0-.42-.16-.76-.47-1.02a1.63 1.63 0 0 0-1.08-.39c-.41 0-.74.08-1.02.24-.27.16-.51.37-.71.62-.2.25-.38.53-.54.84-.15.31-.31.61-.48.9-.06.07-.11.14-.15.22-.04.08-.1.14-.17.2-.21.18-.45.27-.71.27-.49 0-.87-.16-1.13-.48-.27-.32-.4-.71-.4-1.17 0-.63.15-1.21.44-1.73.29-.52.64-.98 1.05-1.35 1.06-.96 2.34-1.45 3.82-1.45.62 0 1.22.1 1.82.28.59.19 1.12.46 1.58.82.46.36.83.8 1.11 1.33.28.53.42 1.13.42 1.8 0 .46-.08.92-.25 1.37-.17.46-.38.9-.63 1.34-.25.44-.53.87-.84 1.29-.31.42-.6.81-.88 1.18-.41.53-.82 1.04-1.23 1.53-.41.49-.82.96-1.23 1.41h5.33v2.94h-8.71l.01-.02Zm19.28-14.69c-.14.35-.31.79-.52 1.31-.21.52-.44 1.09-.68 1.7-.25.61-.47 1.17-.68 1.69-.21.52-.46 1.13-.76 1.85-.01.01-.02.03-.02.04-.03.06-.14.31-.33.75-.19.45-.42.99-.7 1.63-.28.64-.58 1.32-.91 2.06-.33.73-.64 1.41-.93 2.03-.29.61-.55 1.13-.78 1.54-.22.41-.36.62-.42.62-.25 0-.48-.01-.68-.03-.2-.02-.38-.07-.52-.16a.793.793 0 0 1-.34-.38c-.08-.17-.12-.39-.12-.67 0-.07.03-.2.09-.39s.11-.31.14-.37l5.71-14.18s.05-.12.1-.23c.06-.11.11-.21.15-.28a.52.52 0 0 0 .06-.14c.49.18.88.34 1.17.46.29.13.56.25.81.37.24.12.37.2.37.24 0 .01-.07.2-.21.55v-.01Zm5.5 14.69V10.67h-1.62c-.41 0-.76-.14-1.05-.43-.29-.29-.44-.63-.44-1.04 0-.41.14-.75.43-1.03s.63-.42 1.04-.42h3.4c.49 0 .87.15 1.15.46.28.31.42.69.42 1.15v13.49h-3.34l.01.01Zm9.25 0V10.67h-1.62c-.41 0-.76-.14-1.05-.43-.29-.29-.44-.63-.44-1.04 0-.41.14-.75.43-1.03s.63-.42 1.04-.42h3.4c.49 0 .87.15 1.15.46.28.31.42.69.42 1.15v13.49h-3.34l.01.01ZM150.6 8.17c-.14.35-.31.79-.52 1.31-.21.52-.44 1.09-.68 1.7-.25.61-.47 1.17-.68 1.69-.21.52-.46 1.13-.76 1.85-.01.01-.02.03-.02.04-.03.06-.14.31-.33.75-.19.45-.42.99-.7 1.63-.28.64-.58 1.32-.91 2.06-.33.73-.64 1.41-.93 2.03-.29.61-.55 1.13-.78 1.54-.22.41-.36.62-.42.62-.25 0-.48-.01-.68-.03-.2-.02-.38-.07-.52-.16a.902.902 0 0 1-.34-.38c-.08-.17-.12-.39-.12-.67 0-.07.03-.2.09-.39s.11-.31.14-.37l5.71-14.18s.05-.12.1-.23c.06-.11.11-.21.15-.28a.52.52 0 0 0 .06-.14c.49.18.88.34 1.17.46.29.13.56.25.81.37.24.12.37.2.37.24 0 .01-.07.2-.21.55v-.01Zm5.5 14.69V10.67h-1.62c-.41 0-.76-.14-1.05-.43-.29-.29-.44-.63-.44-1.04 0-.41.14-.75.43-1.03s.63-.42 1.04-.42h3.4c.49 0 .87.15 1.15.46.28.31.42.69.42 1.15v13.49h-3.34l.01.01Zm12.71-5.03h-6.11c-.13 0-.26-.05-.39-.15-.13-.1-.24-.22-.34-.37-.09-.15-.16-.31-.21-.49-.05-.18-.06-.36-.03-.54.03-.2.11-.37.24-.51.13-.15.28-.27.45-.36.17-.09.35-.16.53-.21.18-.05.35-.07.47-.07h5.35l.02 2.71.02-.01Zm6.09 5.03V10.67h-1.62c-.41 0-.76-.14-1.05-.43-.29-.29-.44-.63-.44-1.04 0-.41.14-.75.43-1.03s.63-.42 1.04-.42h3.4c.49 0 .87.15 1.15.46.28.31.42.69.42 1.15v13.49h-3.34l.01.01Zm7.82 0c-.42 0-.81-.11-1.16-.33-.36-.22-.54-.57-.54-1.05 0-.19.04-.37.12-.53.08-.16.17-.31.28-.45.24-.25.48-.51.71-.77.24-.26.48-.51.71-.74.01-.01.07-.09.18-.22.11-.13.23-.3.39-.49.15-.19.33-.41.51-.64.19-.23.37-.46.55-.68.17-.22.33-.42.46-.59.13-.17.23-.29.3-.38.24-.28.5-.6.8-.96.29-.36.57-.74.83-1.12.26-.38.48-.75.65-1.11.17-.36.26-.66.26-.91 0-.42-.16-.76-.47-1.02a1.63 1.63 0 0 0-1.08-.39c-.41 0-.74.08-1.02.24-.27.16-.51.37-.71.62-.2.25-.38.53-.54.84-.15.31-.31.61-.48.9-.06.07-.11.14-.15.22-.04.08-.1.14-.17.2-.21.18-.45.27-.71.27-.49 0-.87-.16-1.13-.48-.27-.32-.4-.71-.4-1.17 0-.63.15-1.21.44-1.73.29-.52.64-.98 1.05-1.35 1.06-.96 2.34-1.45 3.82-1.45.62 0 1.22.1 1.82.28.59.19 1.12.46 1.58.82.46.36.83.8 1.11 1.33.28.53.42 1.13.42 1.8 0 .46-.08.92-.25 1.37-.17.46-.38.9-.63 1.34-.25.44-.53.87-.84 1.29-.31.42-.6.81-.88 1.18-.41.53-.82 1.04-1.23 1.53-.41.49-.82.96-1.23 1.41h5.33v2.94h-8.71l.01-.02Zm19.29-14.69c-.14.35-.31.79-.52 1.31-.21.52-.44 1.09-.68 1.7-.25.61-.47 1.17-.68 1.69-.21.52-.46 1.13-.76 1.85-.01.01-.02.03-.02.04-.03.06-.14.31-.33.75-.19.45-.42.99-.7 1.63-.28.64-.58 1.32-.91 2.06-.33.73-.64 1.41-.93 2.03-.29.61-.55 1.13-.78 1.54-.22.41-.36.62-.42.62-.25 0-.48-.01-.68-.03-.2-.02-.38-.07-.52-.16a.902.902 0 0 1-.34-.38c-.08-.17-.12-.39-.12-.67 0-.07.03-.2.09-.39s.11-.31.14-.37l5.71-14.18s.05-.12.1-.23c.06-.11.11-.21.15-.28a.52.52 0 0 0 .06-.14c.49.18.88.34 1.17.46.29.13.56.25.81.37.24.12.37.2.37.24 0 .01-.07.2-.21.55v-.01Zm12.41 12c-.31.6-.73 1.12-1.25 1.54-.52.43-1.11.76-1.76 1-.66.24-1.33.36-2.01.36-.45 0-.91-.06-1.4-.18-.48-.12-.94-.29-1.38-.53-.44-.23-.84-.51-1.2-.85a3.71 3.71 0 0 1-.83-1.15c-.07-.15-.13-.32-.18-.49-.05-.17-.07-.35-.07-.53 0-.41.15-.76.44-1.07.29-.31.65-.46 1.07-.46.35 0 .64.12.87.36.23.24.46.5.7.8.24.3.51.56.83.8.31.24.73.36 1.25.36.55 0 1.02-.17 1.42-.5.4-.34.6-.79.6-1.36 0-.39-.1-.69-.29-.9-.2-.21-.44-.38-.73-.52-.29-.13-.61-.25-.95-.36-.34-.11-.67-.26-.98-.45-.15-.1-.29-.2-.42-.31-.13-.11-.21-.29-.25-.52a.303.303 0 0 1-.07-.14c-.02-.06-.02-.11.01-.14-.08-.35-.03-.61.17-.8.2-.18.45-.34.77-.47.32-.13.65-.28 1-.43.35-.15.64-.38.88-.69.04-.07.09-.16.15-.26.06-.11.08-.22.08-.35 0-.39-.14-.72-.41-1-.27-.28-.61-.41-1-.41-.2 0-.44.05-.72.16-.29.1-.58.24-.87.4-.29.16-.57.34-.82.52-.25.19-.43.36-.52.52l-.02-.02s-.08-.08-.2-.24c-.12-.16-.25-.34-.39-.55-.14-.2-.27-.39-.4-.55-.13-.17-.2-.26-.21-.27-.01 0-.04-.03-.07-.08-.04-.06-.07-.11-.12-.17-.04-.06-.08-.11-.12-.16-.04-.05-.06-.07-.07-.07 0-.01-.01-.03-.04-.06.63-.69 1.32-1.25 2.07-1.69.75-.44 1.64-.66 2.68-.66.57 0 1.13.09 1.66.27.53.18 1 .44 1.41.78.41.33.73.75.98 1.24.24.49.37 1.03.37 1.64 0 .61-.13 1.18-.4 1.74s-.64 1.02-1.13 1.38c.73.35 1.31.83 1.74 1.44.43.61.65 1.32.65 2.13 0 .73-.16 1.39-.47 1.99l-.05-.04Zm4.56 2.69V10.67h-1.62c-.41 0-.76-.14-1.05-.43-.29-.29-.44-.63-.44-1.04 0-.41.14-.75.43-1.03s.63-.42 1.04-.42h3.4c.49 0 .87.15 1.15.46.28.31.42.69.42 1.15v13.49h-3.34l.01.01Z" fill="#fff"/></g><defs><clipPath id="a"><path fill="#fff" d="M0 0h238.32v30.07H0z"/></clipPath></defs></svg>