<svg width="363" height="118" fill="none" xmlns="http://www.w3.org/2000/svg"><path d="M38.1 8.33c.82.94 1.36 1.71 1.66 2.3.32.69.49 1.36.49 2 0 1.04-.22 2.38-.62 4.01-.4 1.9-.89 3.49-1.43 4.75-.4 1.38-.79 2.08-1.14 2.08-.15 0-.84-.27-2.08-.79 0 0-.49-.2-1.48-.57.27 0 .52-.17.77-.47.82-1.9 1.51-3.86 2.05-5.89.45-1.41.67-2.45.67-3.12 0-.37-.27-.82-.82-1.36a7.56 7.56 0 0 0-1.61-1.33c-.2-.2-.44-.3-.77-.3l1.46-1.29c.79-.69 1.34-1.04 1.63-1.04.25 0 .64.35 1.21 1.01l.01.01Zm1.56-5.29c.59.52.89.99.89 1.39 0 .2-.1.42-.3.67l-1.83 2.23c.05-.1.1-.2.1-.27 0-.4-.4-.84-1.19-1.38-1.83-1.38-2.87-2.1-3.07-2.1-.1 0-.22.05-.37.1l1.73-2.05c.35-.37.62-.57.87-.57.54 0 1.58.67 3.17 2v-.02Zm2.15-.35c1.43 0 3.12-.07 5.07-.25 2.18-.12 4.21-.32 6.08-.57 1.46-.2 2.25-.47 2.37-.84.44 1.76.67 2.72.67 2.92 0 .27-.54.5-1.61.67-1.51.25-3.07.47-4.65.62.1.89.17 1.93.22 3.14 2.13 0 3.78-.07 5.02-.2.45-.05.87-.2 1.31-.47v2.52c0 .49-.17.82-.49.96-.57.1-2.52.17-5.84.17 0 .89-.02 1.58-.05 2.08.42-.02.79-.05 1.11-.05 1.09 0 2 .1 2.75.3.67.17 1.19.57 1.53 1.21.32.54.49 1.53.49 2.99 0 .77-.02 1.39-.02 1.83.22-.07.42-.17.62-.32v2.52c0 .47-.17.79-.49.94-.54.12-2.57.2-6.08.2-2.28 0-3.96-.05-5-.1-.02.05-.02.07-.02.1-.15.45-.45.67-.89.67h-2.77c.35-.15.57-.59.62-1.36.02-1.31.05-2.47.05-3.46 0-1.26-.07-2.65-.22-4.16-.1-.69-.27-1.11-.54-1.26h2.7c.49 0 .79.22.92.64.57-.02 1.24-.1 1.98-.25v-.02c0-.92.02-1.76.05-2.5-2.97 0-4.82-.07-5.54-.17-.35-.17-.49-.52-.49-1.01V7.71c.37.27.92.42 1.63.47 1.46.1 2.92.17 4.35.17-.05-.89-.1-1.81-.2-2.77v-.1c-1.95.15-3.46.2-4.53.2-.59 0-.87-.27-.87-.87V2.19c.2.35.47.5.77.5h-.01Zm8.01 17.39c1.01 0 1.93 0 2.75-.02v-.27c.02-.54.05-1.16.05-1.88 0-.64-.12-1.09-.35-1.38-.25-.2-.64-.3-1.24-.3-1.51 0-2.77.17-3.76.47-1.14.4-1.88.62-2.28.72v2.5c1.61.12 3.22.17 4.82.17l.01-.01ZM60.16 1.83c1.11 0 2.42-.05 3.96-.15 1.68-.07 3.27-.2 4.72-.35 1.14-.1 1.76-.27 1.85-.47.37 1.39.57 2.15.57 2.3 0 .2-.42.37-1.24.47-.94.15-1.85.25-2.79.32 0 .42.02.82.02 1.21 1.48 0 2.7-.07 3.61-.17.35-.05.72-.2 1.09-.47v.99c.42-.05.87-.15 1.34-.25v-.94c0-1.98-.22-3.04-.67-3.19h2.57c.25 0 .47.07.69.2.25.17.4.82.4 1.93 0 .5-.02.96-.02 1.41.69-.1 1.29-.15 1.78-.15.74 0 1.39.25 1.88.69.44.47.72 1.29.84 2.42.25 1.95.37 4.21.37 6.75v3.56c-.1 2.42-.4 3.93-.92 4.58-.47.54-1.26.84-2.37.84-.54 0-.99-.05-1.34-.15-.3-.05-.47-.27-.57-.69-.22-.59-.45-1.19-.64-1.83-.07.62-.12 1.24-.17 1.83-.15.74-.47 1.14-.96 1.14-.07 0-1.04-.1-2.89-.3.54-.2.89-1.06 1.04-2.55.47-5.17.77-9.47.92-12.89-.79.25-1.34.35-1.66.35-.37 0-.67-.15-.89-.5-.05-.05-.07-.1-.1-.15-.77.05-1.86.07-3.27.07v.62c.67-.02 1.21-.05 1.66-.05.52 0 .94.07 1.26.2.59.17 1.01.42 1.26.72.3.42.47 1.04.47 1.88 0 1.21-.05 2.23-.15 3.07.15-.07.3-.15.42-.25v1.83c0 .35-.1.59-.27.69-.44.1-2 .17-4.62.17v.87c1.26 0 2.28-.05 3.07-.15.32-.05.64-.17.96-.42v1.83c0 .35-.1.59-.3.69-.4.1-1.66.17-3.78.17-.02.32-.02.62-.02.92.67-.05 1.31-.1 1.93-.17 1.24-.12 1.88-.3 1.98-.54.4 1.34.59 2.08.59 2.23 0 .2-.45.35-1.34.49-1.71.25-3.49.42-5.34.54-2.23.15-3.91.22-5.02.22-.52 0-.77-.25-.77-.72v-2.18c.2.32.42.47.67.47 1.19 0 2.55-.05 4.13-.17 0-.37.02-.74.05-1.09-2.23 0-3.64-.07-4.18-.17-.2-.12-.27-.37-.27-.74v-1.68h-.49c.32-.1.52-.49.57-1.19.02-1.14.05-2.13.05-2.97 0-1.09-.07-2.28-.22-3.56-.07-.59-.25-.96-.49-1.06h2.47c.4 0 .67.15.82.45.54-.03 1.16-.05 1.86-.1-.02-.3-.02-.57-.02-.84-2.6 0-4.21-.07-4.82-.2-.27-.15-.4-.42-.4-.84V4.51c.32.27.77.42 1.34.47 1.26.1 2.52.17 3.81.17-.02-.35-.05-.67-.05-.99-1.66.1-2.94.15-3.83.15-.52 0-.77-.22-.77-.72V1.43c.17.27.4.4.67.4h-.04Zm4.08 14.74c-.72 0-1.31 0-1.76-.05-.15.32-.4.47-.72.47h-1.93c.27.17.62.27 1.04.3 1.11.1 2.23.17 3.34.17 0-.3 0-.59.02-.89h.01Zm.02-5.22v-.87c-.69.1-1.24.17-1.61.22 0 .2.02.4.02.57a17 17 0 0 0 1.58.07l.01.01Zm0 3.07v-1.01c-.64 0-1.16 0-1.56-.03 0 .35-.02.67-.02.94.54.05 1.06.07 1.58.1Zm3.07-3.07c.64 0 1.21 0 1.71-.05v-.22c0-.25-.07-.47-.22-.62-.17-.15-.42-.22-.74-.22-.25 0-.49.02-.74.02v1.09h-.01Zm.02 3.12c.54 0 1.06 0 1.53-.03.02-.3.05-.64.07-1.06-.45.03-.99.03-1.61.03v1.06h.01Zm7.96 5.96c.35.3.84.42 1.46.42.45 0 .77-.1.94-.32.17-.2.27-.59.32-1.14v-5c0-3.66-.15-5.94-.4-6.78-.1-.25-.35-.4-.77-.4-.25 0-.47.02-.67.02-.15 3.81-.45 8.21-.89 13.18l.01.02Zm9.35-17.49c-.1-1.06-.3-1.71-.54-1.9h2.7c.54 0 .87.27.96.79.05.42.07.87.12 1.31.54.03 1.06.03 1.61.03h1.34v-.12c-.1-1.11-.27-1.78-.54-2h2.7c.54 0 .87.27.96.79.02.37.05.77.1 1.16.1 0 .17 0 .27-.03.32-.05.64-.2.99-.47v2.65c0 .54-.17.89-.49 1.04-.12.05-.32.07-.59.07 0 .89.02 1.78.02 2.72 0 3.69-.05 6.06-.15 7.15.1 0 .2 0 .3-.03.35-.05.67-.2 1.01-.47v2.67c0 .52-.17.87-.49 1.01-.25.07-.84.12-1.73.15.35.62.74 1.21 1.16 1.78.12.2.42.3.87.3-.62.54-.92.82-.92.82-.92.99-1.58 1.48-1.98 1.48-.1 0-.22-.12-.4-.37-.35-.47-.79-1.09-1.29-1.88-.37-.52-.54-.87-.54-1.01 0-.22.27-.57.87-1.06h-2.82l.05.02c.35.25.54.45.54.64 0 .15-.05.3-.15.49-.54 1.04-1.11 1.93-1.66 2.67-.25.32-.4.49-.49.49-.32 0-1.34-.54-3.02-1.63.17 0 .4-.2.67-.54.54-.69 1.04-1.41 1.53-2.15 0 0 .02-.03.02-.05-.84-.02-1.43-.07-1.73-.15-.35-.17-.49-.52-.49-1.06v-2.62c.3.27.72.42 1.26.47h.07c.05-.25.07-.54.1-.89.02-2.13.05-3.98.05-5.57 0-1.06-.02-2.2-.07-3.39-.32 0-.57-.02-.72-.07-.35-.2-.49-.54-.49-1.06V2.5c.25.25.59.4 1.04.45l-.01-.01Zm4.8 13.38c.52 0 1.01 0 1.46-.02.05-.3.1-.67.12-1.09v-.1c-.45.05-1.04.05-1.78.05-.49 0-.92 0-1.26-.02-.02.49-.05.89-.07 1.16.49.02 1.01.02 1.53.02Zm-.2-8.51c.72 0 1.31-.02 1.81-.07-.02-.47-.05-.94-.05-1.39h-2.97c0 .47.02.94.02 1.41.4.05.79.05 1.19.05Zm0 4.35c.72 0 1.34-.02 1.83-.1v-1.31c-.47.05-1.09.05-1.83.05-.49 0-.89 0-1.19-.02 0 .49-.02.94-.02 1.34.4.05.82.05 1.21.05v-.01Zm8.63-11.13c.54 0 .89.27.99.79v.22c.74-.05 1.48-.22 2.18-.47.99-.22 1.81-.35 2.47-.35.84 0 1.43.35 1.81 1.04.47.94.72 4.33.72 10.12 0 3.96-.17 6.73-.49 8.29-.12.84-.4 1.56-.79 2.18-.4.47-1.16.72-2.3.72-1.31 0-2-.32-2.08-.92 0 0-.25-.67-.72-2 .96.2 1.71.3 2.23.3.35 0 .59-.35.74-1.06.1-.45.15-1.61.2-3.44-.54.05-1.24.05-2.08.05-.69 0-1.24 0-1.66-.03-.02 3.39-.07 5.44-.12 6.21-.15.52-.47.79-.92.79h-2.84c.35-.32.57-1.31.64-2.99.02-2.89.05-5.44.05-7.62 0-2.72-.1-5.76-.25-9.1-.1-1.53-.27-2.42-.54-2.72h2.77l-.01-.01Zm2.87 6.68c.82 0 1.51-.02 2.08-.07-.05-1.58-.1-2.47-.15-2.72-.07-.32-.22-.49-.42-.49-.35 0-.99.12-1.93.37-.57.25-1.01.37-1.31.37 0 .79.02 1.63.05 2.47.54.05 1.11.07 1.68.07Zm0 5.79c.84 0 1.53-.02 2.1-.07v-2.77c-.52.05-1.21.05-2.1.05-.69 0-1.24 0-1.66-.02v2.75c.54.05 1.09.07 1.66.07v-.01Zm10.76-12.37c.49 0 .79.2.92.57.05 0 .1-.02.15-.02 1.31-.22 2.35-.35 3.09-.35.74 0 1.36.15 1.85.44.62.32 1.06.79 1.34 1.39.2.52.32 1.41.32 2.65 0 .59-.05 1.46-.15 2.65.15-.1.3-.2.45-.35v2.38c0 .47-.15.77-.4.89-.37.15-1.68.2-3.93.2-.99 0-1.81 0-2.42-.05v.77c0 5.94-.05 9.4-.12 10.49-.17.52-.47.79-.92.79h-2.84c.35-.32.57-1.31.64-2.99.02-2.89.05-5.44.05-7.62 0-2.75-.1-5.79-.25-9.1-.1-1.53-.27-2.42-.54-2.72h2.77l-.01-.02Zm2.67 4.06c.67 0 1.26 0 1.78-.05-.05-.45-.15-.79-.3-.99-.2-.2-.45-.3-.79-.3-.54 0-1.19.1-1.95.3-.15.05-.25.07-.32.1 0 .3.02.59.02.89.52.05 1.04.05 1.56.05Zm.96 3.59h.49c.02-.15.05-.32.07-.47.02-.22.05-.42.1-.62-.47.02-1.01.02-1.63.02-.62 0-1.09 0-1.48-.02v.99c.84.07 1.66.1 2.45.1Zm7.07-7.54c.52 0 .84.22.96.67.3-.05.64-.15.99-.25 1.09-.27 2-.42 2.75-.42s1.26.12 1.61.32c.49.25.84.57 1.04.99.25.42.42 1.31.57 2.67.22 2.18.35 4.67.35 7.52 0 4.25-.1 7-.25 8.24-.2 1.04-.59 1.71-1.24 2-.74.4-1.85.59-3.34.59-.79 0-1.29-.27-1.53-.82-.05-.15-.12-.27-.17-.42-.79.05-1.85.07-3.24.07-1.26 0-2.25-.02-2.99-.05-.15.47-.4.72-.77.72h-2.89c.37-.2.57-.64.57-1.36v-7.62c0-.82-.2-1.36-.57-1.66h2.57c.54 0 .92.22 1.06.64.17-.02.35-.05.52-.1 1.34-.22 2.4-.35 3.17-.35s1.41.15 1.9.42c.64.27 1.09.69 1.36 1.24.2.47.32 1.26.32 2.4 0 .57-.05 1.43-.15 2.6-.02.15-.05.25-.05.35.25-.07.47-.22.69-.42v1.98c.52-.05.89-.15 1.09-.32.49-.2.74-2.92.74-8.14v-1.31c-.54.05-1.31.05-2.3.05-.72 0-1.31 0-1.76-.02-.2.35-.47.52-.82.52h-2.87c.37-.15.59-.62.64-1.43.02-1.39.05-2.6.05-3.64 0-1.31-.1-2.77-.25-4.35-.07-.74-.25-1.16-.52-1.31h2.76Zm-2.75 15.26c.94 0 1.71-.03 2.3-.07-.05-.54-.15-.94-.3-1.19-.2-.17-.45-.27-.77-.27-.59 0-1.31.1-2.15.3-.3.1-.54.15-.74.17v.99c.54.05 1.11.07 1.66.07Zm1.24 3.39h.74c.02-.27.05-.57.1-.92 0-.15.02-.27.05-.4-.57.05-1.29.05-2.13.05-.64 0-1.21 0-1.66-.02v1.16c.96.1 1.93.12 2.89.12l.01.01Zm4.28-14.69c.74 0 1.36 0 1.9-.05-.07-.59-.15-.96-.25-1.11-.12-.1-.32-.17-.59-.17-.64 0-1.36.1-2.1.25-.22.1-.4.17-.54.22 0 .27 0 .54.02.82.52.05 1.04.05 1.56.05V5.2Zm0 3.59c.87 0 1.61-.02 2.2-.1-.05-.35-.07-.69-.07-1.01-.54.05-1.24.05-2.13.05-.62 0-1.14 0-1.56-.02v1.01c.52.05 1.04.07 1.56.07Zm9.13-4.86c.4.07.82.12 1.21.15-.05-.54-.12-1.01-.17-1.36-.1-.77-.27-1.29-.52-1.58h2.72c.45 0 .72.54.84 1.58.05.42.07.87.12 1.34.3-.03.57-.07.82-.12.17-.05.35-.2.52-.47v2.67c0 .52-.17.87-.49 1.01-.12.05-.35.1-.69.12 0 .96.02 2 .02 3.12v.37c.1-.05.2-.12.3-.2.37-.17.59-.52.67-1.01.42 1.16.64 1.73.64 1.73.07.2.12.37.12.5 0 .45-.2.84-.59 1.19-.37.25-.77.49-1.16.74-.07 4.75-.3 7.59-.64 8.53-.35.99-1.04 1.51-2.03 1.51-.4 0-.82-.07-1.29-.2-.35-.1-.54-.27-.62-.57-.15-.5-.32-1.09-.52-1.73.17.2.4.32.69.4.3.05.59.07.87.07.2 0 .32-.4.4-1.14.05-.99.1-2.72.15-5.14-.15.1-.3.17-.42.25-.52.3-.82.45-.92.45-.32 0-.57-.2-.72-.64 0 0-.25-.74-.72-2.25.15.2.27.27.37.27.12 0 .35-.05.64-.2.62-.27 1.21-.57 1.78-.87V10.4c0-1.16-.02-2.2-.02-3.09-.82 0-1.34-.05-1.53-.15-.32-.2-.47-.54-.47-1.06V3.48c.15.27.35.42.64.47v-.02Zm6.6-1.53c.67 0 1.48-.07 2.42-.25 1.04-.1 2-.3 2.89-.57.69-.17 1.09-.45 1.16-.82.37 1.46.57 2.25.57 2.4 0 .32-.27.59-.79.79-.37.15-.74.25-1.09.35.02.74.05 1.56.1 2.4.07 0 .15-.03.22-.05.17-.05.35-.17.52-.37-.02-.4-.02-.77-.02-1.16 0-.3.02-.57.12-.77.1-.12.22-.2.4-.22h2.1c-.2.17-.3.4-.3.69 0 1.26.05 2.5.17 3.73.25-2.5.4-4.75.4-6.73-.02-.25-.15-.49-.37-.69 1.53.1 2.3.12 2.3.12.4.05.59.32.59.77 0 2.23-.17 4.87-.52 7.89-.05.62-.12 1.24-.2 1.86.05.3.12.57.22.84.12-.25.22-.54.27-.89.64-2.79.99-5.32.99-7.59 0-.3-.17-.52-.47-.67 1.46.05 2.2.07 2.2.07.52.02.79.35.79.99 0 2-.4 4.53-1.14 7.59-.2.82-.62 1.21-1.29 1.21-.1 0-.49-.03-1.19-.07.2.77.44 1.61.72 2.55.52 1.86 1.16 3.71 1.93 5.54.15.25.42.37.77.37-.67.49-1.34.99-1.98 1.48-.4.25-.67.37-.82.37-.12 0-.35-.57-.67-1.71-.42-1.31-.82-2.87-1.21-4.65-.35 1.76-.74 3.59-1.19 5.49-.2.57-.52.87-1.01.87-.1 0-.87-.17-2.3-.5.44-.12.77-.67.96-1.66.4-1.71.74-3.46 1.09-5.27-.2.25-.3.35-.3.35-.49.59-.82.89-.99.89-.15 0-.37-.07-.72-.22-.05 3.12-.1 5-.15 5.71-.15.4-.4.59-.74.59h-2.25c.27-.3.44-1.19.49-2.72 0-1.83.02-3.49.05-4.97-.1-.05-.2-.12-.3-.17-.22-.1-.4-.2-.54-.3-.05 1.83-.12 3.78-.22 5.89-.05 1.31-.17 1.98-.35 1.98-.15 0-.99-.07-2.52-.2.22-.3.37-1.09.45-2.38.3-4.06.47-7.74.52-11.08-.15 0-.25-.02-.3-.07-.25-.15-.37-.47-.37-.94V6.16c.15.27.4.42.72.47.92.15 1.83.2 2.77.2-.02-.42-.05-.84-.05-1.29-.02-.25-.05-.5-.05-.69-1.06.17-1.88.25-2.42.25s-.77-.27-.77-.82V1.93c.17.32.4.47.67.47h.03Zm2.77 10.46c0-1.04-.02-2.1-.05-3.21h-.69c-.02.89-.05 1.81-.05 2.77.25.15.52.3.79.44Zm5.1.32-.52.05c-.3 0-.47-.2-.57-.59-.17-.4-.35-1.33-.49-2.87-.1-.64-.15-1.29-.2-1.95v.74c0 .47-.15.77-.4.89-.07.05-.2.07-.35.1 0 1.19.02 2.47.02 3.81v.84c.25.12.47.25.72.35.82.42 1.31.64 1.46.69.12-.69.22-1.36.32-2.05l.01-.01Zm12.34-11.85c.52 0 .84.27.94.77v.05c.69-.07 1.53-.17 2.52-.32 2.55-.32 5.27-.49 8.14-.49 1.29 0 2.3.1 3.07.3 1.01.3 1.78.72 2.3 1.21.72.57 1.16 1.33 1.36 2.3.25 1.21.4 3.26.4 6.13s-.02 5.29-.05 7.27c-.05.64-.07 1.16-.1 1.56.2-.05.37-.12.54-.22v2.18c0 .4-.15.67-.4.82-.84.12-4.01.2-9.45.2-3.93 0-6.7-.05-8.31-.1-.2.32-.45.49-.79.49h-2.7c.35-.32.54-1.31.59-2.94.02-2.87.05-5.37.05-7.52 0-2.7-.07-5.69-.22-8.98-.1-1.53-.27-2.42-.52-2.7h2.62l.01-.01Zm1.36 19.02c2.65.15 5.29.22 7.92.22 2.47 0 4.53-.03 6.16-.1.02-.35.05-.87.07-1.56.05-1.19.07-2.62.1-4.35-.35.2-.54.3-.54.3-.54.35-.92.5-1.06.5-.1 0-.25-.12-.45-.42-.1-.1-.17-.2-.25-.32-.2.05-.45.1-.72.12-.1.03-.17.03-.25.03 0 .05.02.05.02.05.1.3.17.69.22 1.14.54-.02 1.01-.05 1.43-.1.37-.05.74-.17 1.14-.4v1.66c0 .35-.1.54-.3.64-.32.07-1.09.12-2.28.15-.1 1.14-.35 1.83-.74 2.08-.42.27-1.21.4-2.4.4-.47 0-.99-.05-1.56-.17-.45-.05-.69-.22-.77-.47-.2-.4-.42-.84-.67-1.39.25.2.59.32 1.04.4.47.05.89.07 1.29.07s.67-.05.82-.2c.1-.15.2-.37.27-.67h-1.43c-1.29 0-2.35 0-3.24-.02.59.45.96.77 1.06.99 0 .2-.1.35-.27.47-.49.35-.96.72-1.46 1.09.05-.12.1-.22.1-.3-.2-.3-.59-.64-1.14-1.04-.45-.35-.79-.52-1.09-.52.27-.25.57-.5.87-.74-.64-.02-1.09-.07-1.36-.12-.2-.1-.27-.32-.27-.67v-1.63c.32.22.79.35 1.39.4 1.81.12 3.61.17 5.42.17h1.48c-.05-.4-.1-.72-.17-.96-.84.07-1.66.12-2.47.17-2.23.15-3.88.22-4.97.22-.32 0-.47-.17-.47-.52v-1.53c.12.2.27.3.47.3 1.19 0 2.6-.03 4.23-.1.15 0 .27 0 .42-.02v-.74c-.94 0-1.66-.02-2.2-.05-.15.25-.32.35-.57.35h-2.45c.3-.15.47-.54.47-1.16V8.61c0-.72-.17-1.19-.47-1.43h2.15c.4 0 .67.12.82.32.49-.02 1.06-.05 1.73-.1.17 0 .35-.03.52-.03v-.69c-2.62 0-4.25-.02-4.85-.1-.2-.1-.27-.32-.27-.64V4.56s-.07.02-.1.02c-.25.05-.47.1-.64.15.07 2.18.12 4.72.12 7.64 0 3.56-.02 6.21-.07 7.99.07.02.15.02.22.02v-.03ZM167.88 4c-.42.05-.82.07-1.16.1-1.43.15-2.62.27-3.56.37.25.07.54.12.84.12 1.29.07 2.6.1 3.88.1V4Zm0 5.42v-.64c-.15.03-.27.03-.37.03-.69.05-1.26.1-1.66.12v.42c.69.05 1.36.07 2.03.07Zm0 2.03v-.54c-.84 0-1.53 0-2.03-.03v.5c.69.05 1.36.07 2.03.07Zm8.48 2.65c.05.1.1.15.17.2 0-.94.02-1.95.02-3.02 0-2.97-.1-4.82-.27-5.56-.15-.69-.52-1.19-1.09-1.46-.57-.25-1.68-.4-3.34-.4-.47 0-.92.02-1.34.02.02.1.05.17.05.25v.59c1.39 0 2.47-.05 3.31-.12.35-.02.69-.12 1.04-.27v1.61c0 .32-.1.52-.3.62-.42.05-1.78.1-4.06.1v.57h.72c.89 0 1.63.1 2.23.25.74.17 1.29.42 1.61.72.25.27.37.72.37 1.36 0 .32-.02.82-.07 1.48-.02.12-.02.22-.02.3.17-.02.35-.07.5-.12v1.11c0 .22-.07.37-.2.42-.1.02-.2.02-.35.02.32.5.67.94 1.01 1.34l.01-.01Zm-5.79-4.65c.79 0 1.46-.02 2-.07-.05-.25-.22-.45-.47-.57-.27-.07-.67-.12-1.19-.12h-.35v.77l.01-.01Zm0 2.03h1.86c0-.15.02-.35.07-.59-.52.03-1.16.03-1.93.03v.57-.01Zm2.7 1.71c-.1-.12-.17-.25-.22-.35h-2.47v.64c.67 0 1.31-.05 1.95-.1.3 0 .57-.02.82-.07-.05-.05-.07-.07-.07-.12h-.01ZM189 1.13c.79 0 1.21.37 1.29 1.06v.47c1.36 0 2.45-.07 3.26-.17.32-.05.64-.22.99-.47v2.45c0 .47-.15.77-.4.92-.17.05-.49.1-.99.12-.02.2-.05.37-.07.57-.1.74-.17 1.48-.27 2.18.25 0 .49-.02.72-.07.35-.05.67-.2 1.01-.47v2.45c0 .49-.15.79-.4.94-.42.12-1.78.2-4.08.2.05.49.07.99.1 1.51 1.36 0 2.42-.07 3.22-.17.32-.05.64-.22.96-.47v2.38c0 .47-.15.77-.4.92-.1.02-.22.05-.37.05.2 2.55.42 4.67.67 6.41 0 .12.17.27.47.44.07-.64.12-1.51.17-2.67.27-6.36.42-12.09.42-17.19 0-.4-.2-.69-.59-.87 1.76.05 2.65.07 2.65.07.45.03.72.25.84.67a13.1 13.1 0 0 0 1.68-.17c1.14-.07 2.18-.22 3.17-.42.77-.15 1.19-.35 1.24-.64.45 1.68.69 2.62.69 2.82 0 .2-.3.37-.89.5a24 24 0 0 1-3.49.54c-.94.1-1.71.15-2.3.17-.02.69-.02 1.41-.02 2.13.84.1 1.66.12 2.47.12 1.48 0 2.62-.05 3.41-.2.22-.05.47-.2.72-.47v2.52c0 .49-.17.82-.5.96-.2.07-.64.12-1.34.15.1 1.53.15 3.31.15 5.37 0 4.03-.07 6.38-.17 7.12-.15.45-.42.69-.84.69h-2.62c.35-.22.54-.92.59-2.05.02-1.98.05-3.69.05-5.17 0-1.81-.07-3.78-.2-5.94-.74 0-1.34 0-1.81-.05-.1 3.07-.22 6.43-.37 10.14-.07 1.83-.25 2.77-.49 2.77-.15 0-1.06-.07-2.79-.2.05-.15.1-.37.15-.64-.99.17-1.48.27-1.48.27-.54.1-.92.17-1.09.17-.07 0-.15-.07-.22-.22-.1-.35-.27-1.53-.47-3.61-.17-1.58-.27-2.72-.32-3.41h-.84v.82c0 3.54-.07 5.59-.17 6.23-.15.45-.44.69-.84.69h-2.65c.35-.2.54-.79.62-1.78.03-1.73.05-3.26.05-4.58 0-.45-.02-.92-.02-1.39h-.87c0 .1-.02.2-.02.3-.22 2.1-.47 4.16-.77 6.13-.12.67-.22 1.01-.32 1.01-.17 0-.44-.07-.82-.17-.52-.15-1.09-.27-1.71-.4.12-.1.22-.44.32-.99.25-1.73.5-3.56.74-5.54 0-.15.02-.32.05-.47-.2 0-.35-.03-.45-.05-.25-.17-.37-.5-.37-.96v-2.33c.25.27.64.42 1.16.47.96.1 1.93.15 2.89.17-.03-.42-.05-.84-.07-1.24 0-.1-.03-.17-.03-.27-2.13-.03-3.44-.1-3.96-.2-.27-.17-.4-.49-.4-.96V7.71c.3.27.69.42 1.24.47.17.03.32.03.47.03-.05-.2-.07-.42-.07-.64-.1-.89-.17-1.58-.2-2.08-.35-.03-.59-.05-.74-.1-.27-.15-.4-.47-.4-.96v-2.4c.27.27.67.42 1.19.47.99.1 1.98.15 2.97.17v-.74c0-.3-.15-.54-.4-.79h2.3l.01-.01Zm-.37 7.25h1.41c.12-.82.22-1.66.32-2.52 0-.1.02-.2.02-.27h-3.46c.07 1.04.17 1.98.27 2.77.5.02.96.02 1.43.02h.01Zm22.75 13.01c-.22 1.43-.74 2.18-1.58 2.18-.15 0-1.16-.07-2.99-.2.64-.35 1.04-1.24 1.24-2.65.96-4.95 1.46-9.42 1.46-13.41 0-.45-.2-.77-.57-.96 1.88.07 2.84.1 2.84.1.57.03.89.32.96.92 1.36-.05 3.09-.2 5.22-.42 3.17-.32 5.64-.5 7.4-.5.87 0 1.53.17 2 .52.54.45.84 1.26.89 2.42v1.36c0 .99-.12 2.03-.35 3.07.42-.07.82-.22 1.21-.42v2.67c0 .54-.17.87-.47 1.01-.79.15-3.76.2-8.88.2-3.64 0-6.21-.02-7.74-.1-.2 1.34-.4 2.75-.64 4.21ZM209.03 2.1c2.18.1 5.27.15 9.32.15 3.81-.03 7.07-.12 9.79-.32.42 0 .74-.22.96-.69v2.65c0 .69-.37 1.04-1.06 1.04-2.28.22-5.49.32-9.7.32-4.21 0-7.35-.02-9.52-.12-.72-.03-1.06-.37-1.06-1.01V1.53c.17.4.59.57 1.26.57h.01Zm3.41 11.8c2.45.15 4.9.2 7.32.2 1.93 0 3.61-.02 5.05-.07.1-.57.15-1.24.15-2.03 0-.3-.02-.67-.05-1.09.03-.79-.22-1.21-.72-1.26-2.13 0-4.5.17-7.07.49-2.15.25-3.61.4-4.4.45-.07 1.06-.17 2.18-.27 3.31h-.01ZM235.1 1.93c.47 0 .77.17.89.52.42-.02.89-.07 1.43-.15-.05-.57-.2-.96-.47-1.16h2.1c.59 0 .94.3.99.89.77-.05 1.41-.1 1.93-.1.67 0 1.19.12 1.53.37.42.35.64.99.67 1.88v.64c.2-.05.4-.15.59-.3V6.2c0 .35-.1.54-.3.64-.1.02-.25.05-.4.05-.05.32-.1.62-.15.92.15-.05.3-.1.44-.2v1.61c0 .32-.1.52-.27.62-.4.07-1.73.1-4.06.1v.69c.89-.07 1.61-.12 2.2-.12.67 0 1.19.1 1.56.27.12.07.22.15.32.25.57-2.08 1.09-4.28 1.53-6.65.3-1.51.47-2.42.47-2.75 0-.1-.1-.27-.3-.49.84.12 1.66.22 2.45.32.42.07.64.3.64.64 0 .2-.1.79-.3 1.78.62.05 1.24.07 1.86.07 1.38 0 2.45-.07 3.19-.22.2-.05.42-.2.67-.47v2.4c0 .47-.15.77-.4.89-.1.05-.25.07-.44.1-.1 1.09-.35 2.4-.77 3.98-.35 1.21-.87 2.7-1.51 4.43-.05.15-.12.3-.17.42.79 1.93 1.78 3.93 2.92 5.99.15.3.4.45.74.45-.74.44-1.39.84-1.95 1.19-.4.25-.67.37-.84.37-.22 0-.59-.59-1.11-1.78-.47-.89-.89-1.81-1.29-2.72-.52 1.06-1.09 2.1-1.68 3.14-.47.96-.92 1.46-1.33 1.46-.25 0-1.06-.42-2.42-1.24-.12.05-.25.12-.37.17-.05 0-.1 0-.12.03-.07.69-.32 1.04-.77 1.04h-2.7c.25-.12.42-.35.52-.67-.52.05-.99.1-1.41.15-1.14.07-2.03.12-2.67.12-.54 0-1.19-.12-1.88-.37-.57-.22-.99-.64-1.29-1.26-.15-.35-.22-.69-.22-1.06 0-.2.02-.44.07-.79-.42-.02-.74-.05-.94-.1-.2-.12-.3-.37-.3-.77V16.9c.32.25.77.37 1.36.4.17.02.35.02.5.02.05-.17.07-.27.07-.32 0-.1-.05-.2-.12-.3h-1.51c.37-.15.57-.52.57-1.16v-3.56c0-.67-.2-1.11-.57-1.36h2.23c.54 0 .87.2.99.54.54-.05 1.16-.1 1.9-.2V9.95c-.59 0-1.09-.03-1.48-.05-.12.3-.32.42-.57.42h-2.4c.32-.12.5-.47.5-1.04V6.95c-.5-.02-.87-.05-1.06-.1-.2-.1-.3-.32-.3-.67V4.52c.3.25.74.37 1.31.4h.05V3.26c0-.67-.17-1.11-.5-1.34h2.13l.02.01Zm10.17 18.92c1.11-2.1 2.03-4.01 2.77-5.71-.35-.96-.67-1.95-.92-2.97-.1-.35-.2-.64-.27-.94-.07.25-.15.49-.2.72-.3.87-.57 1.29-.82 1.29-.15 0-.42-.05-.79-.2-.2-.05-.4-.07-.57-.12-.03.3-.05.59-.1.84.12-.05.25-.15.4-.25v1.83c0 .37-.1.59-.3.69-.45.15-2.1.2-4.97.2-1.83 0-3.17-.02-4.01-.07-.1.25-.2.42-.35.47.74.1 1.14.12 1.14.12.5.05.74.3.74.72.52.03 1.04.03 1.56.03.74 0 1.43 0 2.08-.03-.1-.4-.27-.69-.54-.87h2.38c.62 0 .99.25 1.09.74.12 0 .25 0 .37-.03.37-.05.74-.17 1.11-.42v1.95c0 .4-.1.64-.3.74-.2.05-.59.1-1.16.12v.72c.59-.15 1.11-.35 1.56-.54-.45 1.33-.64 1.98-.64 1.98.22-.22.47-.57.74-1.01Zm-7.84-6.8v-1.09c-.84.12-1.43.2-1.83.25v.72c.62.05 1.24.1 1.83.12Zm0-8.95v-.99c-.59.07-1.06.12-1.36.17v.79c.45.02.92.02 1.36.02v.01Zm0 2.87v-.92c-.49 0-.96 0-1.36-.02v.89c.45.05.92.05 1.36.05Zm3.29 11.82h-4.3c-.05.15-.05.25-.05.3 0 .79.37 1.16 1.16 1.16 1.01 0 2.08-.07 3.19-.25v-1.21Zm-.67-14.67c.54 0 1.04-.03 1.51-.05v-.02c0-.84-.17-1.26-.54-1.29-.32 0-.64.02-.96.02v1.34h-.01Zm1.38 2.87c.05-.3.1-.62.12-.96-.47.02-.96.02-1.51.02v.96c.52 0 .99 0 1.38-.02h.01Zm.42 6.06c0-.12.02-.27.02-.42 0-.15-.02-.3-.05-.47.02-.32-.15-.49-.54-.52-.42 0-.84.03-1.24.05v1.41c.67 0 1.26 0 1.81-.05ZM248.97 9c.15.69.32 1.39.54 2.08 0-.05.02-.07.02-.1.52-1.68.87-3.09 1.01-4.23h-.07c-.79 0-1.41 0-1.91-.02.07.64.2 1.38.4 2.28l.01-.01Zm13.09.15c.32.52.5 1.73.5 3.61v2.82c0 1.61-.05 2.84-.1 3.73.1.02.17.05.25.05 1.98.47 4.63.87 7.94 1.19 3.07.27 5.74.4 8.04.4.17 0 .35-.1.5-.3l-.15 1.38c-.05.74-.15 1.19-.3 1.29-.15.15-.3.25-.45.25-1.88 0-4.16-.12-6.83-.37-3.81-.35-6.65-.74-8.53-1.16-.67-.22-1.14-.32-1.43-.32-.05 0-.35.32-.84.96-.57.64-.99.99-1.29.99-.2 0-.62-.25-1.26-.69 0 0-.47-.32-1.36-.96.4 0 .72-.17.96-.47l1.21-1.19c.17-.2.35-.35.5-.5.02-1.04.05-2.47.05-4.28v-2.8c0-.87-.07-1.31-.2-1.31-.25 0-.47.15-.69.45-.2.17-.4.25-.57.25-.35 0-.59-.15-.74-.45-.45-.72-.89-1.41-1.29-2.08.99 0 1.86-.17 2.6-.54.77-.4 1.48-.62 2.13-.62.65 0 1.06.22 1.36.67h-.01Zm.3-5.05c.57.52.87.99.87 1.39 0 .2-.1.42-.27.64l-1.76 2.15c.05-.1.1-.2.1-.27 0-.37-.4-.82-1.16-1.36-1.78-1.34-2.79-2.03-2.99-2.03h-.4l1.68-1.98c.32-.35.59-.54.84-.54.52 0 1.56.67 3.09 2Zm3.04-1.58c1.43.1 2.87.15 4.3.15-.05-.74-.27-1.26-.69-1.53h2.65c.74 0 1.16.37 1.24 1.06v.5c1.78-.03 3.21-.07 4.28-.17.4-.05.82-.17 1.21-.42v2.03c0 .4-.1.67-.27.79-.54.12-2.28.2-5.22.2v1.06c2 0 3.59-.07 4.77-.17.45-.05.87-.17 1.31-.42v2.1c0 .42-.15.69-.4.79-.27.05-.84.1-1.71.12-.07.35-.15.72-.25 1.14.5 0 .96-.02 1.36-.07.45-.05.92-.17 1.36-.4v2.08c0 .42-.12.69-.37.82-.59.12-2.55.2-5.81.2v.94c1.56 0 2.82-.05 3.76-.15.4-.05.79-.17 1.19-.42v2.1c0 .42-.15.69-.4.79-.5.1-2 .17-4.55.2v.87c1.88-.02 3.39-.07 4.5-.17.45-.02.87-.15 1.31-.4v2.1c0 .42-.15.69-.4.79-.54.12-2.37.2-5.47.2-.1.64-.37.96-.82.96h-2.99c.35-.15.57-.47.64-.96-3.31 0-5.37-.07-6.16-.2-.25-.15-.37-.42-.37-.84v-2.05c.37.25.92.37 1.61.4 1.63.1 3.29.15 4.95.15v-.84c-2.97 0-4.8-.07-5.49-.2-.27-.12-.4-.4-.4-.82v-2.08c.35.25.82.37 1.46.4 1.48.1 2.97.17 4.43.17v-.77c0-.07-.02-.12-.02-.17-3.54 0-5.71-.07-6.53-.2-.27-.15-.4-.42-.4-.84V9.29c.4.22.96.35 1.71.4.54.05 1.11.07 1.68.07a.251.251 0 0 1-.07-.17c-.17-.4-.3-.72-.37-.94-1.06-.02-1.78-.07-2.18-.15-.25-.15-.37-.42-.37-.82V5.6c.37.25.92.37 1.61.4 1.56.1 3.12.17 4.67.17V5.13c-2.97 0-4.8-.07-5.52-.2-.2-.15-.3-.42-.3-.82v-2c.35.25.87.37 1.51.42l.02-.01Zm5.86 7.32c.82 0 1.58 0 2.28-.02.07-.42.12-.79.17-1.14h-4.87c.12.45.25.82.4 1.14.67.02 1.34.02 2.03.02h-.01Zm10.98-6.11c.92.15 1.83.22 2.77.22v-.02c-.07-1.51-.22-2.4-.45-2.7h2.28c.45 0 .72.25.82.69.05.59.07 1.24.1 1.88.12-.02.25-.05.35-.07.2-.05.42-.2.62-.47v2.45c0 .49-.12.79-.37.94-.1.07-.27.12-.5.15.05 1.58.07 3.31.07 5.19.37.32.74.62 1.11.92.79.67 1.24.99 1.34.99.17 0 .4-.02.67-.1-.05.05-.07.1-.07.1h.37c.64 0 1.04.27 1.14.82.67-.07 1.53-.2 2.62-.35 2.38-.25 4.16-.37 5.34-.37.69 0 1.24.07 1.63.2.54.2.96.45 1.24.74.32.32.5.82.5 1.48 0 1.85-.05 3.19-.1 3.98.22-.07.45-.17.67-.32v2.25c0 .42-.15.69-.4.84-.67.12-3.14.2-7.42.2-4.28 0-6.65-.07-7.54-.2-.27-.15-.4-.45-.4-.89v-2.2c.27.2.62.35 1.06.4v-5.09l-.05.05c-.59.72-.99 1.06-1.19 1.06-.12 0-.3-.07-.52-.25-.05 3.61-.1 5.81-.17 6.63-.15.4-.4.59-.74.59h-2.35c.3-.32.47-1.31.52-2.97 0-2.42.02-4.6.02-6.53-.35-.25-.62-.49-.84-.72-.07 2.08-.15 4.28-.25 6.63-.07 1.48-.22 2.23-.42 2.23-.12 0-.89-.05-2.33-.1.22-.35.37-1.24.45-2.72.3-4.6.47-8.76.52-12.49-.22-.05-.37-.1-.47-.15-.27-.15-.4-.47-.4-.96V3.27c.17.27.42.42.77.47v-.01Zm2.72 5.15c0 .2.05.4.2.57 0-.82-.02-1.66-.05-2.5h-.64c0 .84-.02 1.71-.02 2.6.15-.17.32-.4.52-.67h-.01Zm11.01-3.69c.54.02.96.1 1.26.25.1.05.2.12.25.17.35-.89.64-1.81.94-2.77.25-.79.37-1.26.37-1.41 0-.1-.12-.27-.4-.47.84.1 1.66.2 2.45.3.42.07.64.3.64.67 0 .1-.1.47-.27 1.11-.07.3-.15.54-.25.79.2.02.42.02.62.02.79 0 1.41-.05 1.83-.17.12-.05.25-.17.4-.42v2.1c0 .42-.15.69-.4.82-.17.12-.79.17-1.83.17-.69 0-1.19-.02-1.46-.07-.1.25-.2.5-.3.69-.2.45-.37.64-.57.64-.17 0-.45-.05-.84-.17-.22-.05-.45-.1-.64-.15 0 .3-.05.59-.12.84.2-.05.42-.17.64-.42v1.68c0 .35-.1.54-.3.64-.25.1-.92.17-2.03.17v1.43c.1 0 .22-.02.35-.05.94-.15 1.71-.37 2.28-.67V8.86c.12.27.3.42.52.47.69.15 1.41.2 2.1.2.94 0 1.66-.05 2.15-.2.15-.05.3-.2.45-.47v2.25c0 .45-.15.72-.4.84-.2.15-.94.2-2.2.2-1.26 0-2-.05-2.25-.2a.682.682 0 0 1-.32-.45c-.27.89-.4 1.33-.4 1.33-.15.3-.42.52-.82.64-1.16.17-2.1.27-2.84.32-.74.05-1.31.07-1.71.07-.59 0-1.26-.15-2.03-.45-.62-.25-1.09-.77-1.39-1.56-.17-.4-.25-.84-.25-1.29 0-.64 0-1.66.05-2.99.1-1.88.17-3.51.25-4.92.05-.82.07-1.31.07-1.46 0-.15-.12-.32-.37-.57 1.63.2 2.47.3 2.47.3.47.05.72.27.72.67v.25c.59.05 1.19.05 1.81.05 1.34 0 2.35-.05 3.07-.15.2-.05.42-.15.62-.35v1.88c0 .4-.1.64-.27.74-.2.05-.77.07-1.66.07v1.06l.01.05Zm-2.4 5.05c-.59 0-1.06-.03-1.46-.05v.05c0 1.04.47 1.58 1.46 1.63v-1.63Zm.89-1.95c.4 0 .77 0 1.11-.03 0-.1.03-.17.03-.27 0-.15-.03-.3-.05-.5.02-.35-.12-.54-.45-.54-.64 0-1.36.07-2.1.2-.35.05-.62.1-.82.1 0 .32-.02.64-.02.94.77.07 1.53.1 2.3.1Zm-2.18-3.76c-.03.32-.05.67-.05 1.06.35-.02.69-.07 1.09-.15.07 0 .15-.02.25-.02V4.13h-1.26c-.02.15-.02.27-.02.4h-.01Zm1.29 16.18v-3.83c-.45.07-.82.12-1.06.15v3.64c.35.02.72.05 1.06.05v-.01Zm2.99.05h.57v-4.33c-.37.05-.77.07-1.16.1v4.23h.59Zm4.35-.07c.05-.54.07-1.73.07-3.59 0-.42-.17-.67-.52-.74-.2 0-.49-.03-.92-.03v4.4c.5 0 .94-.03 1.36-.05l.01.01Zm17.43-6.22c-.64.54-1.24.84-1.76.92l-1.04-.82c.72-.32 1.19-.64 1.43-.96-1.31-.12-1.95-.82-1.95-2.08 0-.62.2-1.14.64-1.58.42-.4.94-.62 1.58-.62.59 0 1.16.22 1.66.67.47.45.72.94.72 1.53 0 1.29-.45 2.28-1.29 2.94h.01ZM4.43 71.19c-.12 1.9-.37 2.87-.77 2.87-.12 0-.96-.07-2.52-.2.22-.45.37-1.61.45-3.49.35-6.58.52-12.52.52-17.76 0-.4-.2-.69-.57-.89 1.76.05 2.65.07 2.65.07.45.02.72.25.87.67.77-.05 1.73-.15 2.89-.3 1.81-.22 3.22-.35 4.23-.35.84 0 1.48.12 1.95.37.52.32.79.89.84 1.73v.96c0 .54-.07 1.11-.2 1.66.2-.1.4-.22.59-.37v2.3c0 .47-.15.77-.4.89-.49.15-2.25.2-5.32.2-2.18 0-3.73-.02-4.63-.1-.15 3.49-.35 7.4-.59 11.72l.01.02Zm.67-14.54c1.51.15 3.02.2 4.55.2.74 0 1.43 0 2.08-.03.02-.2.05-.42.05-.67 0-.25-.02-.5-.05-.79.02-.59-.22-.89-.72-.92-1.09 0-2.3.1-3.61.27-1.14.17-1.9.27-2.28.3 0 .54-.02 1.09-.02 1.63v.01Zm2 4.35c.4 0 .64.2.72.59 0 .1.02.2.02.27.3-.02.62-.07 1.01-.15v-.02c-.07-.99-.22-1.56-.47-1.76h2.35c.47 0 .74.25.84.69 0 .25.02.47.05.69.17 0 .32-.02.45-.02.72 0 1.29.12 1.73.35.64.3 1.09.72 1.34 1.24s.4 1.83.4 3.93c0 2.23-.1 3.69-.27 4.38-.25.67-.64 1.11-1.14 1.36-.4.22-.94.35-1.58.35-.3 0-.57-.03-.82-.03-.02.4-.05.69-.05.89-.15.37-.4.57-.77.57H8.49c.3-.2.49-.84.54-1.9.02-1.86.05-3.49.05-4.9 0-1.09-.05-2.23-.1-3.46-.45.2-.79.3-1.01.35 0 .77.02 1.58.02 2.42 0 3.22-.02 5.07-.07 5.67-.12.32-.35.49-.67.49H5.2c.25-.2.4-.72.45-1.61 0-1.53.02-2.89.02-4.06 0-1.46-.07-3.09-.17-4.87-.05-.82-.17-1.31-.37-1.46h1.98-.01Zm4.67 5.96c0 1.38-.02 2.55-.02 3.49.1.03.22.03.32.03.4 0 .67-.07.82-.27.22-.3.35-1.43.35-3.39 0-1.53-.17-2.47-.49-2.79-.2-.15-.54-.22-1.01-.27.02.99.05 2.05.05 3.22l-.02-.02Zm6.16-13.78c.49 0 .79.22.89.67.15 1.93.22 4.4.22 7.47 0 4.35-.05 6.93-.12 7.72-.15.44-.42.67-.82.67h-2.57c.32-.22.52-.96.57-2.2.02-2.13.05-4.01.05-5.61 0-2.03-.07-4.25-.2-6.7-.1-1.14-.25-1.81-.49-2h2.47v-.02Zm4.01-1.46c.45 0 .72.54.84 1.61.2 1.73.3 4.33.3 7.77 0 6.6-.25 10.46-.72 11.58-.37.99-1.09 1.48-2.18 1.48-.67 0-1.44-.1-2.28-.25-.62-.1-.99-.3-1.11-.59-.3-.54-.62-1.16-.96-1.88.37.05.87.07 1.51.07.64.03 1.24.03 1.78.03.35 0 .57-.35.69-1.06.17-1.46.27-4.58.27-9.38 0-3.88-.12-6.48-.35-7.77-.1-.77-.27-1.31-.52-1.61h2.73Zm14.96 8.21h.4c3.91 0 6.88-.05 8.9-.2.59-.05 1.21-.2 1.81-.47v2.65c0 .54-.17.89-.5 1.04-.92.12-4.33.17-10.22.17h-.67c0 .2.02.37.02.54 1.73 1.24 3.86 2.55 6.36 3.98 1.43.87 2.23 1.29 2.37 1.29.2 0 .42-.02.69-.1-.94 1.06-1.41 1.61-1.41 1.63-.59.72-.99 1.06-1.21 1.06-.54 0-2.33-1.06-5.29-3.22-.54-.32-1.01-.64-1.41-.94 0 3.39-.05 5.37-.15 5.99-.17.52-.49.79-.94.79h-2.92c.37-.2.59-.77.67-1.73.02-1.68.05-3.14.05-4.4 0-1.48-.07-3.14-.22-4.92-3.29 0-5.39-.05-6.31-.15-.32-.2-.47-.54-.47-1.06v-2.62c.52.27 1.26.42 2.23.47 1.63.1 3.29.15 4.92.15v-6.41c0-.87-.22-1.46-.67-1.76h2.7c.77 0 1.19.4 1.26 1.16v1.31c1.11.1 2.23.15 3.36.15 1.83 0 3.22-.05 4.18-.2.27-.05.57-.22.87-.47v2.65c0 .54-.17.87-.49 1.01-.42.15-1.93.2-4.55.2-1.48 0-2.6-.02-3.36-.07v2.48Zm17.71-.22c.96.94 1.63 1.68 1.98 2.28.4.69.59 1.36.59 2 0 .99-.22 2.25-.67 3.81-.45 1.78-.96 3.29-1.56 4.48-.45 1.31-.87 1.98-1.26 1.98-.15 0-.84-.27-2.1-.79 0 0-.49-.2-1.46-.57.27 0 .52-.17.77-.5.92-1.78 1.68-3.61 2.28-5.49.47-1.31.72-2.28.72-2.92 0-.37-.35-.84-.99-1.41a11.8 11.8 0 0 0-2-1.38c-.2-.12-.45-.2-.77-.2l1.41-1.26c.77-.69 1.29-1.04 1.58-1.04.29 0 .79.35 1.48 1.01Zm1.56-5.05c.59.59.92 1.14.92 1.61 0 .2-.1.4-.27.59l-1.76 2.1c.05-.1.1-.2.1-.27 0-.42-.42-.94-1.24-1.56-1.85-1.53-2.89-2.33-3.12-2.33-.1 0-.22.05-.37.1l1.61-1.98c.3-.35.57-.52.79-.52.57 0 1.68.77 3.34 2.25v.01Zm8.93-2.94c.84 0 1.29.37 1.36 1.06v4.77c.87-.05 1.68-.1 2.47-.12-.52-.22-1.19-.54-1.98-.96.25-.05.49-.3.74-.74.96-1.73 1.46-2.7 1.46-2.94 0-.07-.05-.22-.1-.47 1.66.84 2.5 1.26 2.5 1.26.4.3.59.57.59.87 0 .2-.47 1.04-1.39 2.52-.15.3-.3.47-.4.57.07.02.15.05.22.05.74.22 1.26.72 1.56 1.51.2.69.3 2.67.3 5.94 0 3.46-.15 5.71-.4 6.75-.25 1.11-.69 1.78-1.29 2.03-.49.22-1.09.35-1.78.35h-1.51c-.79 0-1.29-.07-1.43-.22-.2-.12-.4-.42-.59-.87a47.8 47.8 0 0 0-1.01-2.3c1.04.44 2.25.67 3.66.67.27 0 .47-.05.59-.15.17-.15.3-.77.35-1.85 0-.07.02-.17.02-.27-.89.05-2.1.05-3.59.05-1.86 0-3.24-.02-4.16-.07-.02 2.3-.07 3.69-.17 4.23-.15.45-.45.69-.89.69h-2.77c.35-.25.57-.96.64-2.18.02-2.13.05-3.98.05-5.57 0-1.98-.1-4.18-.25-6.6-.1-1.11-.27-1.78-.54-1.98h2.42c-.37-.3-.79-.84-1.29-1.58-.69-.96-1.04-1.61-1.04-1.91 0-.3.59-.74 1.78-1.33 0 0 .47-.22 1.41-.69-.17.22-.27.42-.3.57 0 .2.32.74.99 1.66 0 .02.47.67 1.43 1.93.05.1.17.17.37.22v-3.98c0-.32-.17-.62-.47-.89h2.4l.04-.03Zm-1.93 6.23v-1.11c-.72.3-1.06.45-1.06.45-.64.35-1.09.54-1.38.64.1.1.17.2.22.32.54-.05 1.29-.15 2.23-.3h-.01Zm2.25 4.2c1.53 0 2.77-.02 3.76-.1-.07-.79-.17-1.31-.27-1.56s-.4-.37-.89-.37c-.69 0-1.9.12-3.59.32-1.53.3-2.6.47-3.19.52 0 .35.02.69.05 1.01 1.38.12 2.75.17 4.13.17v.01Zm.05 4.35c1.53 0 2.77-.02 3.76-.1 0-.47.02-.94.02-1.39v-.2c-.94.05-2.23.05-3.83.05-1.83 0-3.19-.02-4.08-.07v1.53c1.39.12 2.77.17 4.13.17v.01Zm11.02-13.82c.4 0 2.3-.05 5.71-.2v-.27c-.02-.4-.2-.72-.49-.96 1.73.22 2.6.32 2.6.32.64.07.99.35.99.84.84 0 1.63-.02 2.32-.05-.1-.49-.27-.82-.49-.92h2.7c.54 0 .87.27.96.77 0 .05.02.1.02.1h.47c1.06 0 1.9.07 2.5.22.84.2 1.48.47 1.9.82.47.35.72.87.72 1.56v.27c.2-.05.37-.1.57-.17v1.53c0 .32-.1.52-.27.59-.64.1-2.5.17-5.59.2-.02.27-.02.52-.02.72 1.58-.02 2.97-.05 4.16-.05.52 0 .99.07 1.39.2.37.12.62.32.74.62.12.37.2.94.2 1.68 0 .92-.1 1.51-.27 1.81-.17.27-.42.45-.77.5-.25.07-.52.12-.82.12.32.35.49.84.49 1.46 0 2.65-.07 4.35-.17 5.12.15-.05.32-.12.47-.2v1.68c0 .35-.1.54-.3.64-.35.05-1.04.1-2.1.12 1.98.54 3.07.84 3.27.84.12 0 .3-.07.49-.2-.42.64-.82 1.26-1.21 1.86-.15.25-.32.37-.54.37-.44 0-1.61-.32-3.44-.92-1.9-.64-2.84-1.09-2.84-1.31 0-.12.1-.32.3-.57h-2.75c-1.66 0-3.07 0-4.25-.03.35.22.52.45.52.69 0 .12-1.14.64-3.36 1.53-.77.32-1.43.49-2.03.49-.3 0-1.24-.42-2.82-1.26.64-.03 1.31-.17 1.98-.42.49-.2.94-.4 1.34-.54h-2.45c.35-.15.54-.62.62-1.43.02-1.39.05-2.62.05-3.69 0-1.31-.07-2.77-.22-4.38-.1-.74-.27-1.16-.52-1.31h2.6c.52 0 .84.25.94.69.67-.05 1.51-.1 2.52-.17-.57-.12-1.36-.32-2.4-.62.35-.07.62-.45.87-1.09-1.04.02-1.73.02-2.1.02-.02.02-.02.05-.02.05-.15.42-.27.62-.37.62-.2 0-.47-.05-.87-.17-.57-.12-1.19-.25-1.86-.4.15-.05.27-.25.37-.62.3-1.06.59-2.2.84-3.44.15-.74.25-1.21.25-1.36 0-.1-.12-.27-.4-.47.84.1 1.66.2 2.45.3.37.07.57.25.62.5.07.02.17.02.27.02.67.05 1.34.05 2 .05.05-.4.1-.77.15-1.11-2.82.1-4.5.15-5 .15-.3 0-.54-.27-.74-.87 0 0-.15-.35-.42-1.06.2.12.4.17.57.17l-.03.02Zm5.12 4.6c-.94 0-1.68-.03-2.25-.07-.1.4-.17.79-.25 1.16.64 0 1.41 0 2.25-.05.1-.37.2-.72.25-1.04Zm-1.53 14.44h-.25c-.05.07-.07.12-.07.15.1-.05.22-.1.32-.15Zm6.33-7.15c2.82 0 4.97-.05 6.51-.15-.12-.42-.35-.67-.67-.77-.32-.02-.92-.05-1.81-.05-1.04 0-3.02.05-5.94.15-2.03.15-3.54.22-4.53.27 0 .15.02.27.02.37 2.13.12 4.28.17 6.41.17l.01.01Zm-6.36 5.12c2.45.15 4.9.2 7.32.2 2.18 0 4.01-.02 5.49-.07 0-.1.02-.22.05-.35 0-.1.02-.25.05-.44-1.34.07-3.54.1-6.6.1-2.87 0-4.97-.02-6.33-.07v.64h.02v-.01Zm6.31-2.52c2.89 0 5.12-.05 6.65-.15v-.62c-1.34.07-3.54.1-6.6.1-2.87 0-5-.02-6.36-.1v.59c2.13.12 4.23.17 6.31.17v.01Zm-2.6-5.27c3.41-.15 6.01-.22 7.74-.22.49 0 .92.02 1.26.05-.15-.25-.37-.57-.62-1.01.64.25 1.21.37 1.73.37.32 0 .57 0 .74-.05.15-.05.22-.22.22-.54 0-.22-.07-.37-.22-.42-.15-.03-.35-.05-.64-.05-.67 0-1.66.02-2.99.02-.05.27-.07.47-.1.57-.15.45-.45.67-.89.67h-2.77c.35-.1.54-.5.62-1.16-.3.03-.57.03-.82.03-1.11.05-2.1.07-2.94.07-.12.35-.25.69-.35 1.01-.15.35-.27.59-.37.69.12 0 .25 0 .4-.02v-.01Zm4.16-4.58H84.8c-.05.32-.12.62-.17.89.3 0 .62-.02.92-.05.84 0 1.63-.03 2.37-.07v-.77Zm-2.84-1.85c.84.02 1.66.02 2.47.02h.35c-.02-.45-.05-.89-.07-1.34-.77.03-1.63.05-2.6.05l-.15 1.26v.01Zm6.04 0c.84 0 1.61-.03 2.3-.05-.07-.69-.37-1.11-.92-1.24-.3-.03-.79-.05-1.46-.05.02.45.05.89.07 1.34h.01Zm11.36 5.72c2.97.15 5.91.2 8.88.2 4.01 0 7.07-.05 9.18-.2.62-.05 1.24-.22 1.85-.47v2.18c0 .42-.15.69-.4.82-.96.15-4.45.2-10.44.2.05.4.07.77.1 1.16.45.12.92.17 1.46.17.64 0 1.68-.15 3.14-.49 1.04-.17 2.2-.27 3.51-.27.74 0 1.34.2 1.81.54.54.45.82.94.82 1.48-.1.84-1.06 2.1-2.94 3.81.69.45 1.29.82 1.83 1.09.72.35 1.16.52 1.31.52.1 0 .27-.07.57-.2-1.01.99-1.51 1.51-1.51 1.51-.57.67-.99 1.01-1.29 1.01-.45 0-1.09-.27-1.88-.79-.42-.25-.92-.57-1.51-1.01-1.43 1.19-2.42 1.81-2.99 1.81-.25 0-.52-.15-.79-.4-.52-.42-1.04-.82-1.53-1.21-.05.37-.07.64-.1.82-.15.45-.44.69-.87.69h-2.7c.25-.12.42-.45.52-.94-1.19.15-2.37.27-3.61.37-1.81.1-3.17.17-4.06.17-.54 0-.79-.25-.79-.72v-2.18c.2.25.42.37.69.37h.87v-7.25s-.02-.12-.02-.2c-.45 0-.79-.02-1.04-.07-.27-.15-.4-.45-.4-.87v-2.13c.54.27 1.31.42 2.32.47l.01.01Zm1.31-9.57c.54 0 .92.22 1.09.62.89-.05 2.05-.12 3.49-.25 2.72-.25 4.85-.37 6.38-.37 1.43 0 2.62.15 3.59.42 1.21.3 2.08.72 2.6 1.29.4.5.59 1.31.59 2.45 0 .59-.02 1.46-.02 2.65-.02.87-.02 1.38-.02 1.58-.02.3-.05.42-.05.42l-3.19-.1c0-.07.02-.2.02-.37 0-.25.02-.87.05-1.85 0-1.04.02-1.83.02-2.33 0-.84-.42-1.43-1.21-1.78-.67-.2-1.66-.32-2.97-.32-1.53 0-3.39.1-5.61.3-1.68.17-2.87.27-3.54.32v4.77c0 1.04-.3 1.56-.87 1.56h-2.92c.4-.17.59-.62.59-1.36v-5.99c0-.82-.2-1.36-.59-1.66h2.57Zm2.72 13.16c.79 0 1.44-.02 1.95-.07-.02-.27-.05-.54-.05-.79-1.43 0-2.67-.03-3.71-.05v.82c.59.07 1.21.1 1.81.1v-.01Zm0 3.09c.84 0 1.53-.02 2.1-.07 0-.32-.02-.64-.02-.94-.52.05-1.21.05-2.08.05-.74 0-1.36 0-1.81-.05v.92c.59.07 1.21.1 1.81.1v-.01Zm1.63 2.94c.17 0 .32-.02.47-.05 0-.3.02-.57.02-.82-.52.05-1.24.05-2.13.05-.74 0-1.36 0-1.81-.05v1.14c1.24-.05 2.37-.15 3.44-.27h.01Zm-1.04-12.89c1.48.12 2.97.17 4.45.17 1.98 0 3.51-.05 4.58-.17.3-.05.62-.17.94-.4v1.95c0 .4-.1.64-.3.74-.47.15-2.2.2-5.22.2-3.02 0-4.7-.05-5.32-.2-.2-.12-.27-.37-.27-.77v-1.93c.25.22.64.35 1.14.4v.01Zm.17-3.17c1.43.1 2.89.15 4.33.15 1.93 0 3.41-.05 4.45-.15.3-.02.62-.12.92-.32v1.88c0 .37-.1.62-.3.72-.45.07-2.15.1-5.07.1-2.92 0-4.58-.03-5.17-.1-.2-.12-.3-.37-.3-.74v-1.86c.27.2.64.3 1.14.32Zm7.42 15.86c-1.29-1.01-1.95-1.68-1.98-1.98 0-.15.15-.4.45-.69-.4-.05-.69-.27-.87-.69-.2-.5-.42-.96-.62-1.41.02.67.05 1.36.05 2.1 0 1.86-.02 3.26-.05 4.21.77-.2 1.78-.69 3.02-1.53v-.01Zm1.71-2.35c.25.2.49.37.74.52 1.01-.82 1.53-1.36 1.56-1.61 0-.17-.12-.27-.37-.27-.59 0-1.56.22-2.94.62.25.2.59.44 1.01.74Zm20.16-16.54c.92 0 1.41.4 1.48 1.16v.2c3.19-.05 5.99-.15 8.38-.3.35 0 .59-.15.79-.47v2.15c0 .57-.3.84-.89.84-2.45.22-5.96.32-10.56.32-4.6 0-7.79-.03-10.09-.12-.59-.02-.89-.3-.89-.84v-2.15c.15.32.49.47 1.06.47 2.08.07 4.95.12 8.61.12v-.49c0-.32-.17-.62-.49-.89h2.6Zm-8.68 11.4c.54 0 .87.27.96.79v.02c1.04-.07 2.45-.2 4.2-.4 3.31-.35 5.54-.52 6.63-.52 1.48 0 2.7.12 3.59.35 1.36.3 2.3.67 2.84 1.16.54.49.82 1.76.82 3.78 0 2.15-.1 3.54-.3 4.21-.25.64-.64 1.06-1.16 1.29-.42.22-.96.35-1.63.35-1.19 0-2.13-.05-2.82-.15-.35-.05-.62-.32-.84-.77-.15-.3-.32-.62-.49-.94h-2.42c-1.58 0-2.77-.02-3.59-.02-.1.59-.35.92-.74.92h-2.62c.37-.17.57-.57.57-1.16v-4.35c0-.72-.2-1.21-.57-1.46h2.3c.54 0 .87.22 1.01.62.47-.05 1.04-.1 1.73-.2 1.81-.2 3.02-.32 3.66-.32.35 0 .69.05 1.04.15.4.12.72.3.96.5.3.22.49.52.64.87.15.37.25.74.25 1.11 0 .25-.07.54-.17.94.17-.05.35-.15.54-.27v1.88c0 .35-.05.54-.15.64h.07c.52 0 .89-.1 1.09-.3.3-.3.45-1.48.45-3.51 0-1.48-.4-2.37-1.19-2.67-.59-.2-1.85-.3-3.73-.3-1.26 0-3.22.12-5.86.37-1.76.27-3.04.45-3.83.52.02.64.05 1.31.05 2 0 2.97-.07 4.67-.22 5.22-.15.45-.44.69-.89.69h-2.77c.35-.17.57-.67.64-1.48.02-1.41.05-2.65.05-3.74 0-1.33-.1-2.84-.25-4.48-.1-.74-.27-1.19-.54-1.34h2.7-.01Zm1.61-6.85c.57 0 .94.22 1.11.67.84-.07 2.03-.2 3.56-.35 2.94-.2 5.14-.32 6.63-.32.84 0 1.51.1 2 .25.69.2 1.19.47 1.51.82.4.35.59.89.59 1.63 0 .32-.02.59-.02.82.2-.05.4-.12.59-.22v1.95c0 .4-.1.64-.27.74-.69.15-3.31.2-7.82.2-3.22 0-5.47-.02-6.8-.1-.15.4-.4.59-.74.59h-2.92c.4-.2.59-.64.59-1.36V57.9c0-.79-.2-1.34-.59-1.63h2.58Zm1.36 3.69c2.18.12 4.35.17 6.53.17 1.68 0 3.12 0 4.33-.05v-.32c0-.64-.22-1.01-.64-1.11-.27-.03-.79-.05-1.53-.05-.84 0-2.45.07-4.82.2-1.88.17-3.22.27-4.01.32v.82s.1.02.15.02h-.01Zm6.41 10.14h1.41c.12-.32.25-.72.35-1.16 0-.12-.05-.22-.15-.32-.17-.05-.35-.07-.54-.07-.52 0-1.51.1-2.94.3-.72.15-1.29.25-1.68.3v.84c1.19.1 2.37.12 3.56.12l-.01-.01Zm106.11-17.79c.54 0 .89.27.99.77v.2c.96-.1 2.23-.27 3.81-.57 2.28-.4 4.53-.59 6.75-.59 1.63 0 2.94.15 3.91.45 1.19.42 2 1.04 2.42 1.88.45.84.69 2.77.69 5.76 0 2.55-.12 5-.32 7.37-.05 1.01-.12 1.81-.17 2.4.25-.05.47-.15.69-.27v2.45c0 .47-.15.79-.4.94-.82.17-3.91.27-9.25.27-3.78 0-6.46-.05-8.04-.15v.05c-.17.52-.47.79-.92.79h-2.84c.35-.3.57-1.26.64-2.89.02-2.82.05-5.27.05-7.4 0-2.65-.1-5.59-.25-8.83-.1-1.48-.27-2.35-.54-2.62h2.77l.01-.01Zm1.36 17.86c2.6.15 5.19.2 7.77.2 2.18 0 4.03-.02 5.57-.07.05-.49.12-1.21.22-2.1.25-2.82.37-5.47.37-7.99 0-2.18-.1-3.51-.3-4.03-.25-.57-.72-.94-1.36-1.11-.52-.15-1.34-.25-2.45-.25s-2.23.1-3.46.25c-1.26.1-2.77.32-4.5.67-.92.2-1.61.32-2.1.42.05 2.03.1 4.35.1 6.95 0 3.02-.02 5.37-.02 7.05.05.03.12.03.17.03l-.01-.02Zm3.79-13.13c.52 0 .84.25.94.72.15-.02.32-.07.52-.12 1.29-.32 2.28-.49 3.02-.49.74 0 1.34.17 1.83.47.62.32 1.06.79 1.31 1.43.2.54.32 1.46.32 2.75 0 .64-.05 1.63-.15 2.97-.05.2-.07.37-.07.52.05 0 .07-.03.12-.03.25-.05.52-.22.77-.47v2.45c0 .49-.15.79-.4.92-.37.15-1.76.2-4.13.2-1.29 0-2.3-.02-2.99-.07 0 .1-.02.15-.02.17-.15.47-.45.69-.89.69h-2.77c.35-.17.57-.72.64-1.63.02-1.56.05-2.92.05-4.08 0-1.48-.1-3.12-.25-4.92-.1-.82-.27-1.31-.54-1.46h2.7l-.01-.02Zm4.08 8.41h.3c.02-.3.07-.64.12-1.04.15-1.19.25-2.08.25-2.62 0-.87-.12-1.46-.32-1.81-.15-.2-.4-.32-.72-.32-.52 0-1.16.15-1.9.42-.25.1-.45.2-.59.25.02.74.05 1.56.05 2.4 0 .99-.02 1.86-.02 2.6.94.1 1.9.12 2.84.12h-.01Zm24.28-13.24c.42 0 .72.15.87.45.45-.02.99-.07 1.58-.15v-.3c0-.25-.12-.47-.37-.67h2.1c.59 0 .96.22 1.11.67.84-.05 1.56-.1 2.1-.1.74 0 1.34.1 1.73.27.47.22.72.64.77 1.26v.69c0 .35-.02.67-.07.99.12-.05.25-.12.37-.22v1.83c0 .35-.1.59-.3.69-.42.12-1.93.17-4.53.17v.89c1.66 0 2.97-.07 3.96-.17.35-.05.72-.17 1.06-.42v2.03c0 .4-.1.67-.3.77-.54.15-2.52.2-5.99.2s-5.37-.05-6.08-.2c-.2-.12-.3-.4-.3-.79v-1.76c-.42.25-.74.4-.96.49.3.3.49.64.62.99.15.49.25 1.33.25 2.52 0 .59-.02 1.48-.07 2.7 0 .1-.02.17-.02.22.15-.1.32-.22.5-.4v2.23c0 .45-.15.74-.4.87-.32.12-1.48.17-3.51.17-1.09 0-1.9 0-2.5-.05-.05.84-.07 1.48-.07 1.9 0 .79.54 1.16 1.63 1.16.27 0 .62-.05 1.01-.17-.3-.84-.42-1.36-.42-1.58 0-.25.35-.42 1.04-.57 0 0 .62-.12 1.86-.4-.2.15-.3.3-.3.49.45 1.43.94 2.65 1.43 3.64.35-.03.69-.15 1.06-.35.69-.37 1.26-.64 1.66-.89h-2.6c.37-.15.57-.57.57-1.24v-7.15c0-.72-.2-1.21-.57-1.46h2.35c.42 0 .72.12.89.35.4-.05.87-.1 1.41-.2 1.53-.22 2.77-.35 3.66-.35.84 0 1.53.15 2.1.42.69.3 1.21.72 1.51 1.26.22.47.35 1.29.35 2.42 0 .57-.05 1.43-.1 2.62-.05.4-.07.69-.1.94.17-.05.35-.12.5-.22v1.76c0 .35-.1.57-.3.67-.3.05-1.01.07-2.18.07.59.35 1.26.64 1.98.99.1.1.37.17.77.17-.5.45-.74.67-.74.67-.72.79-1.24 1.19-1.56 1.19-.12 0-.32-.1-.57-.25-.5-.3-1.11-.72-1.83-1.24-.54-.35-.79-.57-.79-.64 0-.2.25-.5.79-.89h-3.46c.25.17.4.25.4.25.27.17.42.37.42.64 0 .12-.52.52-1.53 1.21-.82.54-1.36.82-1.66.82-.2 0-.45-.12-.74-.35 0 0-.54-.35-1.58-1.04.07.15.15.27.22.42 0 .1.2.22.57.37-1.11.25-1.66.37-1.66.37-.59.15-.96.22-1.14.22-.15 0-.3-.05-.44-.15-.12-.12-.27-.45-.47-.94-.05 0-.05.02-.05.02-.64.25-1.21.45-1.71.57-.67.12-1.09.2-1.29.2-.47 0-1.04-.12-1.73-.37-.54-.32-.92-.74-1.16-1.24-.2-.49-.3-1.11-.3-1.88 0-1.09.02-2.33.1-3.76.12-1.83.27-3.73.47-5.69h-.02c-.54-.12-1.11-.25-1.71-.4.27-.1.47-.4.62-.94.54-1.63 1.04-3.41 1.48-5.29.25-1.14.4-1.83.4-2.08 0-.1-.07-.27-.27-.49.79.1 1.53.2 2.28.3.37.05.57.22.59.49.99-.32 1.81-.49 2.42-.49.42 0 .82.27 1.16.82.42.67.96 1.88 1.63 3.64.12.35.25.59.35.77.02-.15.05-.3.05-.47v-3.09c0-.72-.17-1.21-.47-1.46h2.18l-.01.03Zm-8.29 6.36c.2.05.32.1.42.15.1-.03.17-.05.27-.07v-2.08c0-.2-.1-.4-.3-.59h1.81c.62 0 .96.3 1.01.87v1.26c.3 0 .57.05.82.12-.4-1.21-.74-2.18-1.04-2.92-.2-.44-.4-.67-.57-.67-.37 0-.94.2-1.68.57-.15.07-.25.12-.32.15a51.06 51.06 0 0 1-.84 3.14c.27.05.42.07.42.07Zm.12 6.85c.74.1 1.51.12 2.28.12h.64c0-.25.03-.52.05-.82 0-.1 0-.17.02-.27-.4.02-.84.02-1.38.02-.64 0-1.14 0-1.53-.05-.05.35-.07.69-.07.99l-.01.01Zm.37-3.98c-.03.17-.05.32-.05.47.45.05.87.05 1.29.05.59 0 1.09 0 1.48-.05-.05-.54-.12-.94-.22-1.19a.58.58 0 0 0-.52-.3c-.37 0-.82.15-1.34.4-.3.15-.49.25-.62.3 0 .1-.02.22-.02.32Zm5.74-3.22c.3.17.67.27 1.09.27 1.14.1 2.28.15 3.41.17v-.89c-.72 0-1.29 0-1.73-.05-.15.12-.3.17-.45.17h-1.76c-.22.12-.42.22-.57.32l.01.01Zm4.5-2.6v-1.21c-.67.1-1.14.17-1.43.2v.92c.47.05.94.1 1.43.1v-.01Zm1.43 8.36c1.34 0 2.4-.03 3.19-.1-.1-.15-.17-.3-.27-.42-.27-.22-.67-.35-1.16-.35-.79 0-1.73.1-2.87.27-.62.1-1.09.17-1.39.22v.3c.84.05 1.66.07 2.5.07v.01Zm0 2.62c1.43 0 2.57-.02 3.36-.12.02-.3.05-.54.05-.74-.69.07-1.83.1-3.41.1-1.04 0-1.88 0-2.5-.05v.72c.84.07 1.66.1 2.5.1v-.01Zm1.16 2.6c.69 0 1.34 0 1.93-.02.03-.2.05-.47.1-.82-.69.05-1.76.07-3.19.07-1.04 0-1.88 0-2.5-.05v.72c1.24.07 2.45.1 3.66.1Zm.32-13.5c.59 0 1.14 0 1.61-.03 0-.1.03-.17.03-.27 0-.17-.03-.4-.05-.64.02-.45-.17-.69-.62-.72-.32 0-.64.02-.96.02v1.63l-.01.01Zm13.1-3.16c.27.12.42.3.42.54 0 .15-.05.3-.1.5 2.25.12 4.5.17 6.73.17 3.22 0 5.66-.05 7.35-.2.49-.05.99-.2 1.48-.47v2.45c0 .5-.12.79-.37.94-.25.07-.64.12-1.21.15.03.96.05 1.9.07 2.79.25 0 .5-.02.74-.05.42 0 .74-.17.96-.57v2.5c0 .64-.37.96-1.06.96-.22.02-.42.05-.62.05-.03.94-.05 1.98-.07 3.17.15 0 .27 0 .42-.02.62-.05 1.24-.22 1.83-.47v2.45c0 .47-.15.77-.4.92-.35.1-1.04.15-2.08.17.2.35.54.87 1.06 1.51 0 .02.54.77 1.68 2.2.05.15.3.22.69.27-.99.44-1.46.69-1.46.69-.94.49-1.51.77-1.73.77-.5 0-1.19-.72-2.1-2.15-.79-1.11-1.19-1.85-1.19-2.2 0-.25.37-.57 1.14-1.01-1.04.02-2.23.05-3.59.05.15.3.47.84 1.01 1.58 0 .03.5.72 1.53 2.08.05.15.32.25.77.3-.96.42-1.43.64-1.43.64-.94.47-1.53.72-1.76.72-.45 0-1.06-.69-1.9-2.05-.74-1.06-1.09-1.76-1.09-2.1 0-.25.49-.64 1.48-1.16h-4.06c.1.3.42.84.96 1.63 0 .02.47.69 1.41 2.03.07.15.35.25.79.3-.94.42-1.41.64-1.41.64-.89.47-1.46.72-1.68.72-.45 0-1.09-.67-1.91-1.95-.74-1.01-1.09-1.68-1.09-2 0-.3.57-.74 1.73-1.33 0 0 .02 0 .07-.05-1.83 0-3.31-.02-4.45-.07.92.45 1.38.67 1.38.67.37.25.57.52.57.79 0 .25-.52 1.26-1.56 3.04-.37.67-.69 1.01-.94 1.01-.3 0-1.26-.47-2.92-1.36.3-.05.62-.35.92-.84 1.14-1.95 1.71-3.07 1.71-3.31v-.05c-.69-.05-1.21-.1-1.56-.15-.25-.15-.37-.47-.37-.96v-2.4c.54.27 1.29.42 2.25.47.2.02.37.02.57.02.05-1.09.1-2.08.12-2.97-.54 0-1.01-.02-1.41-.05-.72-.02-1.06-.35-1.06-.99V59c.17.4.59.59 1.26.59.37.02.77.05 1.19.05-.03-.74-.05-1.46-.07-2.1-.22.25-.45.49-.64.69-.22.2-.42.3-.57.3-.25 0-1.09-.54-2.5-1.66.22 0 .45-.07.67-.25 1.06-1.01 1.91-2.05 2.55-3.12.35-.69.54-1.16.54-1.46 0-.12-.07-.27-.2-.47 1.63.67 2.47.99 2.47.99l.04-.02Zm2.18 4.18c-.54 0-1.01-.02-1.41-.05.02 1.04.05 2.05.07 3.02.47 0 .96.02 1.46.02-.02-1.11-.07-2.1-.12-2.99Zm.03 8.88c.05-1.09.1-2.1.12-2.99-.54 0-1.01-.02-1.46-.02-.02.89-.05 1.88-.07 2.99.45.02.92.02 1.41.02Zm4.4-8.83h-1.38c.02 1.01.05 2 .07 2.94h.35c.37 0 .74 0 1.09-.02a97.81 97.81 0 0 0-.12-2.92h-.01Zm.02 8.88c.05-1.11.1-2.13.12-3.04h-1.43c-.02.89-.05 1.91-.07 3.04h1.38Zm4.53-8.9c-.47.02-.96.02-1.51.02.02.99.05 1.93.07 2.87.52 0 1.04-.02 1.56-.05-.02-1.06-.07-2-.12-2.84Zm.02 8.85c.05-1.14.1-2.15.12-3.09-.52.02-1.04.05-1.56.05-.03.89-.05 1.93-.07 3.07.52 0 1.01-.02 1.51-.02v-.01Zm17.14-13.58c.59 0 .96.3 1.09.87.12 1.66.2 3.66.25 6.04 1.26.1 2.5.15 3.71.15 2.08 0 3.66-.05 4.75-.2.32-.05.64-.2.96-.47v2.65c0 .54-.17.87-.5 1.01-.47.15-2.2.2-5.22.2-1.58 0-2.79 0-3.69-.05-.02 3.91-.1 6.46-.2 7.69h.74c3.91 0 6.9-.07 8.98-.22.59-.05 1.21-.2 1.8-.47v2.67c0 .52-.17.87-.49 1.01-.92.12-4.35.2-10.29.2-5.94 0-9.23-.07-10.46-.2-.35-.2-.5-.54-.5-1.06v-2.62c.54.3 1.29.45 2.25.47 1.53.1 3.04.15 4.55.17.05-.3.07-.67.1-1.09.02-2.5.05-4.67.05-6.55 0-2.37-.1-4.97-.27-7.84-.1-1.34-.3-2.1-.59-2.35h2.97l.01-.01Zm18.67 21.74c-.15.37-.4.57-.77.57h-2.42c.3-.32.5-1.31.54-2.99.02-2.92.05-5.47.05-7.69 0-2.77-.07-5.81-.22-9.18-.07-1.53-.22-2.45-.47-2.75h2.35c.47 0 .74.25.84.69v.07c.25-.05.5-.12.77-.22.54-.15 1.16-.25 1.85-.25 1.04 0 1.76.17 2.2.52.4.37.59.82.59 1.31 0 1.11-.59 3.24-1.73 6.36-.1.2-.15.37-.2.52.22.1.42.2.59.3.49.4.77 1.24.77 2.5 0 2.52-.15 4.7-.4 6.55-.17 1.29-.44 2.15-.84 2.62-.35.37-.96.57-1.85.57-.74 0-1.29-.07-1.63-.17 0 .27-.02.5-.02.67Zm.1-12.99c.12 0 .25-.02.37-.07.15-.4.32-.84.52-1.36.94-2.55 1.43-4.11 1.43-4.7 0-.2-.22-.3-.67-.3-.45 0-.92.1-1.41.3-.15.05-.27.1-.35.12.05 1.78.07 3.78.1 6.01h.01Zm-.02 10.12c.27.05.54.07.79.07.27 0 .47-.15.59-.45.3-.89.47-3.07.47-6.53 0-.69-.3-1.04-.87-1.04-.3 0-.62.05-.96.12 0 3.41-.02 6.01-.02 7.82v.01Zm13.46-5.44c.45.64.89 1.26 1.39 1.86.12-.07.25-.15.37-.25 1.29-.82 1.93-1.31 1.93-1.51 0-.15-.05-.32-.1-.49 1.48 1.31 2.23 1.95 2.23 1.95.17.2.27.37.27.57 0 .17-.27.42-.77.72-.42.3-1.11.74-2.08 1.29.57.69 1.16 1.38 1.78 2.05.12.2.42.3.87.3-.62.54-.92.82-.92.82-.92.99-1.58 1.51-1.98 1.51-.22 0-.62-.37-1.19-1.09-.25-.3-.47-.59-.69-.92-.12.35-.17.52-.17.52-.17.4-.54.69-1.14.89-1.06.22-1.93.37-2.6.47-.67.07-1.19.12-1.56.12-.54 0-1.19-.25-1.93-.69-.59-.42-1.01-1.24-1.31-2.42-.15-.64-.22-1.31-.22-2 0-1.19.02-2.97.07-5.34.1-3.31.2-6.21.3-8.68.05-1.48.1-2.35.1-2.6 0-.2-.12-.42-.37-.69 1.88.25 2.84.37 2.84.37.44.05.69.2.77.5.52-.03 1.09-.07 1.73-.17 1.56-.2 2.77-.3 3.64-.3.87 0 1.53.22 2 .64.54.54.84 1.56.89 3.02v1.68c0 1.43-.15 2.92-.4 4.45.27-.07.54-.22.79-.42v2.3c0 .45-.15.74-.4.89-.42.15-1.93.2-4.53.2.12.17.25.32.37.47l.02-.02Zm-4.38-.37c-.05 1.63-.07 2.77-.07 3.46 0 2 .35 2.99 1.06 2.99.82 0 1.68-.12 2.62-.4.3-.07.59-.17.87-.3-.67-.94-1.39-2-2.15-3.19-.96-1.29-1.51-2.18-1.66-2.7-.25 0-.47-.02-.67-.02v.16Zm.07-2.94c1.14.1 2.25.12 3.36.12.54 0 1.06 0 1.56-.03.1-.69.17-1.51.22-2.45-.67.05-1.66.07-2.99.07-.84 0-1.56 0-2.1-.02-.03.72-.05 1.48-.05 2.3v.01Zm.12-4.97c.69.05 1.36.07 2.03.07 1.24 0 2.23-.02 2.97-.12v-.1c.02-1.34-.22-2.05-.72-2.1-.89 0-1.86.1-2.92.25-.54.1-.99.15-1.29.17-.03.54-.05 1.14-.07 1.83Z" fill="#000"/><path d="M55.37 110.64c-1.51-2.74-2.27-5.61-2.27-8.61 0-3 .75-5.9 2.27-8.59.26-.47.65-.6 1.18-.39.59.25.73.67.42 1.26-1.15 2.31-1.72 4.88-1.72 7.71s.57 5.44 1.72 7.75c.3.59.16 1-.42 1.25-.53.21-.92.08-1.18-.39v.01Zm4.93-9.5h14.14c.56 0 .84.28.84.83 0 .55-.28.83-.84.83h-6.15c-.09.33-.19.62-.3.88h5.16c.35 0 .63.11.84.32.21.21.32.49.32.84v2.49c0 .46-.05.81-.15 1.06-.1.25-.29.44-.57.57-.28.15-.7.25-1.25.28-.64.02-1.05-.21-1.21-.69-.13-.38-.12-.64.03-.8.15-.16.42-.23.83-.22h.02c.18 0 .26-.08.26-.23v-1.54c0-.28-.15-.42-.44-.42h-1.51v2.86c0 .63-.32.95-.95.95-.63 0-.98-.32-.98-.95v-2.86h-1.88v2.88c0 .62-.31.93-.93.93-.62 0-.97-.31-.97-.93v-2.88h-1.37c-.29 0-.44.14-.44.42v2.49c0 .66-.33.98-.98.98-.65 0-1.02-.33-1.02-.98v-3.43c0-.35.11-.63.33-.84.22-.21.5-.32.85-.32h3.97c.07-.3.13-.6.19-.88h-5.85c-.56 0-.84-.28-.84-.83 0-.55.28-.83.84-.83l.01.02Zm1.28-8.06h11.5c.54 0 .81.28.81.83 0 .55-.27.81-.81.81H68.3v.63h5.73c.35 0 .63.11.84.33.21.22.32.5.32.85v1.41c0 .64-.32.97-.97.97-.65 0-.98-.32-.98-.97v-.7c0-.29-.15-.44-.44-.44h-4.5v2.86c0 .67-.33 1-.98 1-.65 0-1-.33-1-1V96.8h-4.46c-.29 0-.44.15-.44.44v.74c0 .62-.31.93-.93.93-.62 0-.93-.31-.93-.93v-1.44c0-.35.11-.63.32-.85.21-.22.49-.33.84-.33h5.6v-.63h-4.74c-.54 0-.81-.27-.81-.81s.27-.83.81-.83v-.01Zm3.5 7.39h-2.81c-.41 0-.61-.21-.61-.63 0-.4.2-.6.61-.6h2.81c.41 0 .61.2.61.6 0 .42-.21.63-.61.63Zm-2.39-3.09h2.37c.42 0 .63.21.63.63 0 .42-.21.63-.63.63h-2.37c-.42 0-.63-.21-.63-.63 0-.42.21-.63.63-.63Zm9.29 1.26h-2.39c-.42 0-.63-.21-.63-.63 0-.42.21-.63.63-.63h2.39c.42 0 .63.21.63.63 0 .42-.21.63-.63.63Zm.42 1.84h-2.81c-.42 0-.63-.21-.63-.62 0-.41.21-.63.63-.63h2.81c.42 0 .63.21.63.63 0 .42-.21.62-.63.62Zm15.94-1.43h-5.69c-.36 0-.54-.18-.54-.54v-.05c-.94.91-2.01 1.72-3.21 2.41-.28.15-.52.21-.73.17-.21-.04-.41-.17-.61-.4-.27-.35-.37-.63-.3-.84.07-.21.3-.42.7-.61.74-.45 1.36-.88 1.86-1.3-.29-.29-.67-.62-1.14-.97-.53-.35-.56-.76-.11-1.21.33-.33.69-.37 1.09-.12.6.36 1.07.72 1.4 1.07.48-.52.93-1.11 1.35-1.77h-2.79c-.57 0-.86-.29-.86-.86 0-.57.29-.86.86-.86h4.2c.41 0 .7.13.86.38.16.25.17.62.02 1.1-.35.87-.8 1.66-1.33 2.37-.15.19-.08.28.21.28h3.72c.28 0 .33-.11.16-.33-.61-.78-1.19-1.74-1.76-2.86-.29-.64-.11-1.07.54-1.26.57-.18.98 0 1.23.54.12.25.3.58.56 1 .33-.25.72-.6 1.18-1.05.39-.42.83-.46 1.33-.12.3.23.45.46.45.67 0 .21-.16.44-.47.69-.7.54-1.22.92-1.55 1.14.16.2.44.5.83.91.52-.41 1-.83 1.44-1.25.35-.4.77-.43 1.26-.11.57.41.58.85.02 1.32-.66.54-1.14.91-1.46 1.12.59.42 1.07.73 1.44.93.46.22.73.46.82.71.09.25-.02.58-.31.97-.21.27-.44.42-.69.45-.25.03-.52-.04-.83-.2-1.04-.59-2-1.33-2.88-2.23v.44c0 .2-.1.3-.3.3l.03-.03Zm3.83 9.89H78.61c-.59 0-.88-.3-.88-.9 0-.6.29-.88.88-.88h3.44c-.14-.41-.28-.75-.4-1.04-.13-.26-.15-.48-.07-.68.08-.19.26-.32.53-.38l.05-.02h-1.04c-.28 0-.5-.08-.67-.25-.16-.16-.25-.39-.25-.67v-2.9c0-.35.11-.63.32-.84.21-.21.5-.32.85-.32h7.96c.35 0 .64.11.85.32.22.21.32.49.32.84v2.65c0 .35-.11.63-.32.84-.22.21-.5.32-.85.32h-.42l.39.11c.2.04.25.15.14.35-.22.47-.52 1.02-.88 1.65h3.6c.59 0 .88.29.88.88 0 .59-.29.9-.88.9l.01.02Zm-4.29-7.17h-5.2c-.28 0-.42.15-.42.44v.74c0 .28.14.42.42.42h5.2c.29 0 .44-.14.44-.42v-.74c0-.29-.15-.44-.44-.44Zm-.42 3.28h-4.15c.29.47.52.91.67 1.33.12.38-.04.63-.47.77h3.5l-.28-.07c-.13-.02-.16-.08-.11-.18.34-.66.62-1.28.84-1.86v.01Zm8.82-7.12c-.22.22-.46.2-.7-.07-.26-.28-.39-.59-.4-.93-.01-.34.11-.64.37-.91.73-.8 1.35-1.71 1.88-2.76.09-.21.25-.39.48-.53.23-.14.48-.21.75-.21h.28c.36 0 .68.11.97.33.81.71 1.5 1.4 2.07 2.05.14.16.2.38.19.66-.01.28-.11.52-.3.75l-.53.65h.04v.95c0 .26-.07.46-.22.61-.15.15-.35.22-.61.22h-.88v1.32h1.32c.6 0 .9.3.9.9 0 .6-.3.9-.9.9h-1.32v4.37c.19-.04.47-.09.83-.16s.65-.12.83-.16c.18-.03.32-.01.44.07s.18.21.19.39v.05c.73-.41 1.43-.84 2.12-1.28.37-.23.71-.31.99-.23.29.08.51.31.66.69l.02.07v-4.79h-2.78c-.59 0-.88-.29-.88-.86 0-.57.29-.86.88-.86h4.62c.01-.12.06-.5.16-1.14h-2.95v.04a.708.708 0 0 1-.79.49c-.9-.08-1.28-.44-1.12-1.09.42-1.9.7-3.23.83-4 .08-.63.44-.92 1.09-.86.7.06.99.42.86 1.09v.04h3.42c.36 0 .64.11.84.33.2.22.28.51.25.86-.07.61-.26 2.03-.58 4.25h1.09c.57 0 .86.29.86.86 0 .57-.29.86-.86.86h-2.92v.54c.16.69.42 1.39.77 2.09.36-.51.67-1.01.93-1.49.27-.54.67-.67 1.21-.4.6.28.67.73.21 1.33l-.63.81c-.15.18-.34.28-.57.32-.23.04-.46 0-.69-.12l-.32-.18c.53.98 1.19 1.77 2 2.35.41.23.66.47.75.69.09.23 0 .53-.25.9-.21.27-.43.41-.66.43-.23.02-.49-.07-.78-.27-.76-.57-1.42-1.34-1.97-2.3v1.69c0 .47-.05.83-.14 1.1-.09.26-.28.47-.54.61s-.57.23-.9.28c-.33.05-.65.01-.96-.1-.3-.11-.5-.32-.6-.62-.12-.36-.1-.63.04-.79.14-.16.42-.24.82-.23h.02c.16 0 .25-.09.25-.26v-1.23c-.47.34-1.36.97-2.69 1.9a.66.66 0 0 1-.57.12c-.21-.05-.37-.18-.5-.39l-.04-.05c-1.39.3-3.23.68-5.5 1.12-.32.06-.56.03-.72-.1-.16-.12-.28-.35-.33-.68-.06-.34-.04-.6.07-.78.11-.18.32-.29.65-.34.3-.04.87-.13 1.7-.28v-4.69H96.3c-.61 0-.91-.3-.91-.9 0-.6.3-.9.91-.9h1.53v-1.32h-.84c-.22 0-.4-.06-.53-.19s-.19-.3-.19-.53v-.09l.01-.01Zm-.21 7.31c-.12-.78-.22-1.35-.3-1.7-.12-.46.06-.74.53-.84.44-.11.72.06.83.49.15.58.27 1.21.37 1.86.05.39-.14.64-.56.76-.53.14-.81-.05-.86-.56l-.01-.01Zm1.53-8.27h3.35a13.72 13.72 0 0 0-2.05-2.48c-.47.81-.94 1.51-1.42 2.11-.21.25-.17.37.12.37Zm4.2 6.59c-.05.18-.13.44-.24.78-.11.34-.19.6-.24.76-.12.36-.38.49-.79.39-.42-.12-.58-.38-.47-.77.09-.39.2-.89.32-1.51.08-.54.38-.74.9-.62s.69.44.53.97h-.01Zm1.51.09c-.05-.09-.23-.37-.56-.84-.37-.48-.29-.88.25-1.19.41-.23.77-.19 1.07.14.48.63.77 1.02.86 1.18.25.43.14.78-.32 1.05-.59.35-1.02.24-1.3-.33v-.01Zm1.84-7.22h2.81l.09-.72c.04-.29-.09-.44-.37-.44h-2.28l-.25 1.16Zm18.21 4.04c0 .95-.27 1.79-.8 2.51-.53.72-1.2 1.25-2.01 1.58-.49.17-.83.04-1-.42-.09-.25-.08-.47.04-.68.12-.2.32-.36.59-.46.84-.48 1.3-1.08 1.37-1.79-.04.01-.1.02-.19.02-.47 0-.87-.14-1.2-.43-.33-.29-.5-.68-.5-1.17 0-.49.17-.87.51-1.17.34-.3.76-.45 1.25-.45.63 0 1.12.22 1.45.65.33.43.5 1.04.5 1.81h-.01Zm22.96 7.94h-14c-.73 0-1.09-.36-1.09-1.09 0-.73.36-1.07 1.09-1.07h5.29V93.83c0-.75.38-1.12 1.14-1.12.76 0 1.14.38 1.14 1.12v4.02h5.2c.71 0 1.07.36 1.07 1.07 0 .71-.36 1.11-1.07 1.11h-5.2v6.22h6.43c.73 0 1.09.36 1.09 1.07 0 .71-.36 1.09-1.09 1.09Zm6.36-4.88c.55 0 .83-.39.83-1.16 0-.77-.23-1.58-.7-2.35-.41-.53-.54-1.03-.4-1.51.21-.74.51-1.85.9-3.34h-1.14c-.28 0-.42.15-.42.44v12.7c0 .66-.33.98-1 .98-.67 0-.98-.33-.98-.98V94.43c0-.35.11-.63.32-.84.21-.21.49-.32.84-.32h3.48c.41 0 .7.13.88.39.18.26.2.63.09 1.11-.49 1.87-.93 3.27-1.3 4.2.9 1.08 1.35 2.3 1.35 3.67.01.98-.18 1.7-.56 2.13-.39.44-1.03.66-1.93.66-.16 0-.3-.04-.4-.12a.667.667 0 0 1-.2-.23c-.03-.07-.06-.21-.1-.41-.04-.2-.06-.34-.07-.39-.09-.23-.1-.42 0-.55.09-.13.25-.2.5-.18h.05l-.04-.02Zm4.71-10.24h5.92c.35 0 .63.11.85.32.22.21.33.49.33.84v6.02c0 .35-.11.63-.33.85-.22.22-.5.33-.85.33h-1.93c.16.63.39 1.26.67 1.9.4-.37.73-.71 1-1.02.22-.27.44-.42.66-.45.22-.03.47.06.75.25.57.42.58.9.02 1.42-.33.3-.85.74-1.56 1.3.43.62.95 1.17 1.56 1.63.42.26.67.51.76.76.08.25-.01.57-.28.96-.23.3-.47.47-.72.5-.25.03-.53-.07-.84-.29-1.83-1.35-3.11-3.67-3.85-6.97h-1.3v4.64c.7-.12 1.23-.21 1.58-.28.67-.13 1.03.15 1.09.83.06.57-.2.92-.77 1.05-1.1.26-2.5.56-4.2.91-.32.07-.57.05-.75-.07-.18-.12-.33-.34-.43-.67-.25-.75 0-1.18.75-1.3.15-.02.39-.06.72-.11V94.43c0-.35.11-.63.32-.84.21-.21.49-.32.84-.32l-.01.02Zm.84 3.27h4.15v-.98c0-.29-.15-.44-.44-.44h-3.27c-.29 0-.44.15-.44.44v.98Zm4.15 1.74h-4.15v1.51h3.71c.29 0 .44-.14.44-.42V98.3Zm12.32 9.43h-5.88c-.7 0-1.05-.36-1.05-1.07 0-.71.35-1.07 1.05-1.07h1.81v-8.41h-1.6c-.54 0-.81-.29-.81-.86 0-.23.08-.44.23-.61.15-.18.35-.29.58-.35.76-.2 1.39-.43 1.9-.7.26-.15.54-.23.84-.23h.58c.28 0 .5.08.67.25.17.17.25.39.25.67v10.26h1.44c.71 0 1.07.36 1.07 1.07 0 .71-.36 1.07-1.07 1.07l-.01-.02Zm9.01-14.34h4.22v-.04c0-.28.1-.5.29-.64.19-.14.44-.22.75-.22s.56.07.76.22c.2.15.3.36.3.64v.04h2.69c.59 0 .88.29.88.88 0 .59-.29.9-.88.9h-2.69v.04c0 .22-.11.4-.32.53-.22.13-.46.19-.73.19-.27 0-.49-.06-.71-.19-.22-.13-.33-.3-.33-.53v-.04h-4.22v.04c0 .22-.11.4-.32.53-.22.13-.45.19-.71.19-.26 0-.51-.06-.73-.19-.22-.13-.33-.3-.33-.53v-.04H179c-.59 0-.88-.3-.88-.9 0-.6.29-.88.88-.88h2.63v-.04c0-.28.1-.5.3-.64.2-.14.45-.22.75-.22s.55.07.75.22c.2.15.29.36.29.64v.04h-.01Zm-2.63 2.79h9.68c.35 0 .63.11.84.32.21.21.32.49.32.84v3.41c0 .35-.11.63-.32.84-.21.21-.49.32-.84.32h-3.93v.72h5.16c.35 0 .63.11.85.33.22.22.33.5.33.85v3.53c0 .46-.05.81-.14 1.05-.09.25-.28.44-.54.58-.23.13-.57.21-1.02.25-.8.02-1.29-.3-1.48-.97-.07-.21-.11-.33-.12-.35l-.51.12c-.27.07-.45-.08-.54-.44-.01-.04-.02-.08-.04-.14a1.63 1.63 0 0 0-.05-.21c-1.8.13-3.89.26-6.27.4-.29.01-.5-.04-.62-.17s-.19-.34-.21-.66c-.06-.62.19-.94.74-.95.12 0 .47-.02 1.06-.05.59-.04 1.06-.06 1.41-.07v-1.33h-3.58c-.29 0-.44.14-.44.42v3.46c0 .67-.33 1-1 1-.67 0-1-.33-1-1v-4.48c0-.35.11-.63.32-.85.21-.22.49-.33.84-.33h4.87v-.72h-3.76c-.35 0-.63-.11-.85-.32-.22-.21-.33-.49-.33-.84v-3.41c0-.35.11-.63.33-.84.22-.21.5-.32.85-.32l-.01.01Zm3.76 1.39h-2.48c-.28 0-.42.15-.42.44v.39h2.9v-.83Zm0 2.12h-2.9v.47c0 .23.12.35.35.35h2.55v-.83.01Zm1.98-1.3h2.95v-.47c0-.23-.11-.35-.33-.35h-2.62v.83-.01Zm0 2.12h2.53c.28 0 .42-.14.42-.42v-.4h-2.95v.83-.01Zm1.32 5.06c-.12-.32-.23-.54-.33-.69-.06-.09-.03-.15.09-.18l1.25-.32h-2.32v1.25l1.32-.07-.01.01Zm2.97 1.74v-2.49c0-.28-.15-.42-.44-.42h-1.35c.62 1.04 1.03 2.1 1.23 3.16h.32c.16-.01.25-.09.25-.25h-.01Zm17.93 1.19h-8.64c-.35 0-.63-.11-.84-.32-.21-.22-.32-.5-.32-.85v-3.6c-.47.15-1.01.32-1.62.49-.69.16-1.18-.03-1.48-.58-.22-.42-.27-.74-.14-.97.13-.23.43-.39.91-.49a25.56 25.56 0 0 0 4.78-1.79c-.66-.66-1.59-1.46-2.79-2.42-.27.19-.5.33-.69.42-.61.33-1.12.25-1.53-.23-.55-.64-.33-1.22.67-1.74 1.69-.96 3.02-2.1 4-3.41.16-.23.35-.38.56-.44.21-.06.46-.05.76.04.98.21 1.18.72.58 1.53-.01.01-.03.03-.05.06a.38.38 0 0 1-.05.06h5.62c.43 0 .72.13.86.38s.11.62-.09 1.1c-1.1 2.21-2.79 4.05-5.08 5.5h4.57c.35 0 .63.11.84.33.21.22.32.5.32.85v4.92c0 .35-.11.64-.32.85-.21.22-.49.32-.84.32l.01-.01Zm-2.06-12.29h-5.69c-.14.13-.36.31-.67.54 1.35 1 2.36 1.83 3.04 2.49 1.38-.9 2.49-1.92 3.32-3.04v.01Zm.62 6.97h-6.25v2.97c0 .28.14.42.42.42h5.83c.29 0 .44-.14.44-.42v-2.53c0-.29-.15-.44-.44-.44Zm16.28-2.71c0 .95-.27 1.79-.8 2.51a4.56 4.56 0 0 1-2.01 1.58c-.49.17-.83.04-1-.42-.09-.25-.08-.47.04-.68.12-.2.32-.36.59-.46.84-.48 1.3-1.08 1.37-1.79-.04.01-.1.02-.19.02-.47 0-.87-.14-1.2-.43-.33-.29-.5-.68-.5-1.17 0-.49.17-.87.51-1.17.34-.3.75-.45 1.25-.45.63 0 1.12.22 1.45.65.33.43.5 1.04.5 1.81h-.01Zm14.58 7.77h-4.57c-.35 0-.63-.11-.84-.33-.21-.22-.32-.5-.32-.85v-2.78c-.27.09-.48.03-.63-.19-.25-.33-.35-.65-.31-.96.04-.31.24-.54.59-.68.8-.4 1.52-.87 2.18-1.42l-1.18-.83c-.45.45-.88.47-1.32.09-.52-.48-.46-.95.16-1.41.78-.68 1.43-1.46 1.95-2.35.23-.48.63-.66 1.18-.53.61.15.79.5.53 1.04l-.02.02v.02h1.84c.4 0 .68.13.83.38.16.25.17.61.03 1.08-.29.8-.72 1.55-1.28 2.25.76.53 1.35.95 1.77 1.28.18.12.23.31.17.58-.06.27-.16.52-.28.75-.12.23-.27.44-.43.64l-.04.02-.02-.02v3.72c.98-.43 1.82-.92 2.51-1.48.35-.33.78-.34 1.28-.04.33.21.51.42.54.62.03.2-.1.44-.39.69-.68.53-1.39.97-2.13 1.32-.25.11-.5.13-.77.07s-.49-.19-.67-.39c-.04-.04-.09-.09-.18-.17-.08-.08-.15-.13-.19-.17l.01.03Zm-1.18-12.59h-3.39c-.28 0-.42.14-.42.42v.04c0 .53-.28.79-.83.79-.6 0-.9-.29-.9-.86v-1.07c0-.29.09-.53.26-.7.17-.17.42-.26.72-.26h1.86v-.47c0-.66.33-.98.98-.98.65 0 1 .33 1 .98v.47h1.72c.35 0 .63.11.85.32.22.21.33.49.33.84v.84c0 .6-.32.9-.95.9-.55 0-.83-.26-.83-.79v-.04c0-.28-.14-.42-.42-.42l.02-.01Zm-2.35 10.94h1.74v-1.65h-2.16v1.23c0 .28.14.42.42.42Zm-.39-3.3h2.56c.29 0 .34-.08.14-.25-.15-.11-.38-.27-.67-.49-.29-.22-.47-.36-.54-.42-.52.48-1.01.87-1.49 1.16Zm1.26-3.51c.26-.29.55-.71.88-1.26h-1.74c-.05.06-.11.13-.19.23s-.14.17-.18.23l1.23.81v-.01Zm4.62-6.57h6.53c.6 0 .9.3.9.9 0 .6-.3.91-.9.91h-2.2c-.04.12-.18.53-.44 1.23h2c.35 0 .63.11.84.32.21.21.32.49.32.84v7.15c0 .35-.11.63-.32.84-.21.21-.49.32-.84.32h-5.09c-.35 0-.64-.11-.85-.32-.21-.21-.32-.49-.32-.84v-7.15c0-.35.11-.63.32-.84.21-.21.5-.32.85-.32h1.07c.13-.77.2-1.18.21-1.23h-2.09c-.6 0-.9-.3-.9-.91 0-.61.3-.9.9-.9h.01Zm1.55 5.73h3.53v-.67c0-.28-.15-.42-.44-.42h-2.67c-.28 0-.42.14-.42.42v.67Zm0 2.58h3.53v-1.11h-3.53v1.11Zm.42 2.62h2.67c.29 0 .44-.14.44-.42v-.68h-3.53v.68c0 .28.14.42.42.42Zm3.83 4.57c-.19-.19-.63-.57-1.33-1.16-.56-.46-.53-.88.09-1.28.4-.25.76-.25 1.09 0 .64.47 1.2.9 1.67 1.3.26.26.37.48.33.66-.04.18-.21.38-.53.59-.5.33-.94.29-1.32-.11Zm5.11-8.68c-.35-.23-.66-.42-.91-.56-.63-.33-.73-.79-.28-1.39.32-.43.71-.55 1.19-.35.39.16.87.42 1.44.75.26.19.39.38.4.58.01.2-.08.43-.28.68-.45.63-.97.73-1.56.28v.01Zm-1.18 7.13c.71-1.7 1.22-2.97 1.53-3.83.26-.76.72-.91 1.39-.46.47.29.62.7.46 1.23-.45 1.37-.92 2.69-1.44 3.95-.29.7-.77.85-1.44.44-.59-.33-.75-.77-.49-1.33h-.01Zm10.64-7.87h3.71c.35 0 .63.1.83.31.2.21.31.48.31.83v7.03c0 .45-.05.78-.14.99-.09.22-.27.39-.53.52-.29.15-.74.24-1.35.26-.63.02-1.01-.19-1.14-.65-.18-.61.12-.9.9-.88.05-.01.11-.02.18-.02.16 0 .25-.08.25-.23v-1.19c-.18.15-.3.28-.39.37-.15.16-.29.16-.4-.02-.26-.38-.46-.81-.6-1.3-.11.35-.29.7-.56 1.05-.36.39-.7.38-1.02-.04l-.04-.04v1.95c0 .61-.3.91-.91.91-.61 0-.93-.3-.93-.91v-1.9c-.15.15-.26.26-.32.33-.12.13-.23.12-.33-.02-.22-.3-.42-.73-.6-1.26-.11.34-.28.7-.53 1.07-.16.2-.35.3-.54.3-.19 0-.38-.1-.53-.3l-.04-.04v1.91c0 .6-.3.9-.91.9-.61 0-.9-.3-.9-.9v-7.9c0-.35.11-.63.32-.84.22-.21.5-.32.85-.32h3.51v-.86h-1.33c-.35 0-.64-.11-.85-.33-.22-.22-.33-.5-.33-.85v-1.63h-1.35c-.33 0-.59-.1-.78-.3-.19-.2-.29-.46-.29-.79v-.05l-.6.81a.85.85 0 0 1-.54.4.622.622 0 0 1-.58-.17c-.48-.34-.85-.59-1.11-.74-.7-.37-.82-.87-.35-1.47.32-.45.73-.55 1.25-.32.87.47 1.51.87 1.93 1.21v-.26c0-.12.05-.18.16-.18h2.27v-.28c0-.66.33-.98.98-.98.65 0 1 .33 1 .98v.28h3.04v-.25c0-.68.34-1.02 1.04-1.02s1.04.34 1.04 1.02v.25h1.51c.61 0 .91.31.91.93 0 .62-.3.93-.91.93h-1.51v1.63c0 .35-.11.64-.33.85-.22.21-.5.33-.85.33h-1.56v.86l-.01.03Zm-1.84 1.77h-2.46c-.28 0-.42.15-.42.44v4.53c.48-.55.77-1.32.88-2.3.02-.22.13-.33.33-.33h.05l-.04-.42h-.44c-.23 0-.35-.12-.35-.35v-.09c0-.58.29-.88.88-.88.28 0 .5.09.67.28.16.19.26.43.28.74.09 1.21.3 2.12.62 2.76v-4.38Zm2.51-5.44h-3.04v.6c0 .28.14.42.42.42h2.18c.29 0 .44-.14.44-.42v-.6Zm1.9 5.44h-2.56v4.74c.45-.49.73-1.18.86-2.07.02-.22.15-.33.37-.33h.05l-.04-.42h-.47c-.23 0-.35-.12-.35-.37v-.07c0-.58.3-.88.9-.88.28 0 .5.1.65.29.15.19.24.44.26.75.12 1.31.37 2.28.77 2.92v-4.11c0-.29-.15-.44-.44-.44v-.01Zm17.74 3.36h-9.64c-.34 1.46-.87 2.74-1.58 3.83-.46.6-.96.68-1.49.25-.54-.43-.56-.99-.05-1.67 1.14-1.83 1.7-4.37 1.7-7.64v-1.14.04c-.43.57-.92.66-1.46.26-.33-.23-.51-.47-.54-.71-.04-.24.07-.52.32-.83.49-.69.95-1.55 1.39-2.58.12-.33.31-.56.58-.7.27-.14.57-.17.9-.09l.33.09c3.48-.2 6.41-.48 8.8-.84.33-.06.65.07.97.39.33.3.47.56.42.78-.05.22-.28.35-.7.41h-.04c.71.73 1.36 1.5 1.95 2.32.32.52.18.94-.42 1.26-.3.18-.57.25-.79.22-.22-.03-.42-.19-.58-.48-.43-.66-.89-1.27-1.37-1.84-.22-.25-.31-.49-.26-.74.05-.25.21-.44.49-.6l.05-.02c-1.37.18-2.65.31-3.85.4.25.48.44.98.58 1.51.07.28-.07.48-.42.6h2.55c.38 0 .67.11.87.33.2.22.28.53.24.91-.04.42-.11.95-.23 1.58h1.11c.29 0 .52.09.68.28.16.19.22.43.18.74-.01.13-.11.75-.28 1.88h1.14c.34 0 .58.14.73.41.15.28.2.76.15 1.47-.18 2.33-.45 3.71-.81 4.14-.25.29-.51.48-.78.55-.28.08-.71.11-1.29.11-.58 0-.96-.22-1.07-.67-.09-.36-.06-.61.09-.75.15-.13.42-.19.81-.17h.02c.23 0 .4-.06.51-.19.22-.27.4-1.05.53-2.35.01-.29-.01-.49-.07-.6-.06-.11-.16-.16-.32-.16l-.05.01Zm-10.34-7.54h4.18c-.06-.29-.15-.61-.28-.95-.09-.25-.09-.46 0-.64s.27-.3.53-.36l.37-.11c-1.76.12-3.06.19-3.92.21-.28.66-.57 1.27-.88 1.84v.01Zm2.76 9.38c-.21 1.07-.5 1.89-.86 2.48-.26.38-.6.45-1.04.23-.57-.28-.7-.68-.37-1.19.28-.56.5-1.15.65-1.77.12-.62.46-.85 1.02-.68.49.14.69.46.6.95v-.02Zm5.74-4.81h-7.31l-.12 1.16h7.66c.06-.35.1-.59.12-.72.05-.29-.07-.44-.35-.44Zm-1.67-2.85h-5.53v1.11h5.8c.02-.14.06-.36.11-.67.05-.29-.08-.44-.37-.44h-.01Zm-3.21 9.31c-.01-.07-.03-.3-.05-.69-.02-.39-.05-.68-.07-.87-.08-.5.13-.78.63-.83.46-.05.73.14.81.56.12.81.18 1.42.19 1.84 0 .42-.23.66-.69.7-.29.04-.51 0-.64-.11s-.2-.31-.18-.61v.01Zm2.48-.32c-.04-.4-.13-.86-.28-1.39-.15-.48.02-.77.53-.88.41-.08.68.07.83.46.2.57.35 1.12.44 1.63.02.22 0 .39-.1.49-.1.1-.25.19-.48.25-.55.14-.86-.05-.93-.56h-.01Zm2.25-.95c-.12-.35-.23-.63-.33-.84-.21-.46-.07-.76.42-.9.36-.11.63 0 .81.3.16.29.32.65.47 1.07.12.39-.02.65-.42.79-.5.19-.82.05-.95-.42Zm21.72 1.75h-14.1c-.71 0-1.07-.36-1.07-1.09 0-.73.36-1.05 1.07-1.05h1.18v-8.96c0-.74.38-1.11 1.12-1.11.74 0 1.11.37 1.11 1.11v8.96h3.23V93.62c0-.75.38-1.12 1.14-1.12.76 0 1.12.38 1.12 1.12v4.48h4.23c.73 0 1.09.36 1.09 1.09 0 .73-.36 1.07-1.09 1.07h-4.23v5.99h5.2c.71 0 1.07.35 1.07 1.05 0 .7-.36 1.09-1.07 1.09Zm7.22-6.35c0 3.07-.76 5.94-2.28 8.62-.27.47-.66.59-1.16.37-.59-.25-.73-.66-.44-1.23 1.16-2.31 1.74-4.89 1.74-7.76s-.58-5.42-1.74-7.73c-.29-.59-.15-1 .42-1.25.51-.22.91-.09 1.18.39a17.02 17.02 0 0 1 2.28 8.59Z" fill="#666"/><path d="M160.39 77.64c-.62 0-1.12-.5-1.12-1.12V43.73h-3.82c-1.52 0-2.85-.5-3.96-1.48-1.15-1.02-1.73-2.27-1.73-3.73s.57-2.7 1.69-3.7c1.08-.96 2.4-1.45 3.92-1.45h10.4c1.8 0 3.25.54 4.33 1.61 1.07 1.07 1.61 2.42 1.61 4.01v37.53c0 .62-.5 1.12-1.12 1.12h-10.21.01Z" fill="#F15A24"/><path d="M165.79 34.49c1.5 0 2.67.43 3.53 1.28.86.86 1.28 1.93 1.28 3.21v37.53h-10.21V42.6h-4.94c-1.24 0-2.31-.4-3.21-1.2-.9-.8-1.35-1.76-1.35-2.89 0-1.13.44-2.08 1.32-2.86.88-.78 1.94-1.17 3.18-1.17h10.4m0-2.25h-10.4c-1.8 0-3.37.58-4.67 1.73-1.36 1.2-2.07 2.77-2.07 4.54s.73 3.35 2.11 4.57c1.32 1.17 2.9 1.76 4.7 1.76h2.7v31.66c0 1.24 1.01 2.25 2.25 2.25h10.21c1.24 0 2.25-1.01 2.25-2.25V38.96c0-1.87-.67-3.53-1.94-4.8-1.29-1.29-3.01-1.94-5.12-1.94l-.02.01Z" fill="#FFE365"/><path d="M191.98 78.16c-1.92 0-3.73-.3-5.38-.88-1.63-.58-3.16-1.34-4.56-2.29a18.051 18.051 0 0 1-4.13-4 23.079 23.079 0 0 1-2.77-4.88c-.71-1.72-1.23-3.52-1.55-5.35-.29-1.67-.44-3.32-.46-4.91-.04-.11-.07-.23-.07-.36 0-1.74.17-3.53.5-5.34.33-1.82.85-3.61 1.54-5.32.7-1.74 1.62-3.39 2.74-4.92 1.14-1.56 2.55-2.91 4.19-4.03 1.4-.95 2.94-1.71 4.57-2.27 1.65-.56 3.46-.85 5.37-.85 1.91 0 3.71.27 5.36.81 1.63.54 3.17 1.29 4.58 2.24 1.6 1.08 2.99 2.41 4.13 3.94 1.12 1.51 2.05 3.15 2.77 4.88.71 1.72 1.24 3.52 1.58 5.33.33 1.81.5 3.58.5 5.28 0 1.7-.16 3.53-.46 5.35-.31 1.84-.82 3.66-1.51 5.39-.69 1.75-1.62 3.42-2.74 4.95-1.14 1.55-2.52 2.9-4.11 4.02-1.42.96-2.96 1.73-4.61 2.3-1.68.58-3.52.88-5.47.88l-.01.03Zm0-35.14c-1.33 0-2.38.39-3.19 1.19-.92.9-1.65 2.01-2.19 3.31-.56 1.34-.94 2.75-1.14 4.19-.21 1.48-.31 2.75-.31 3.79s.09 2.39.28 3.92c.18 1.47.54 2.88 1.08 4.21.52 1.27 1.25 2.36 2.18 3.26.84.81 1.92 1.2 3.3 1.2s2.46-.39 3.3-1.2c.93-.9 1.66-2 2.18-3.29.54-1.34.92-2.78 1.12-4.26.21-1.52.31-2.83.31-3.9 0-1.07-.1-2.3-.31-3.78-.2-1.43-.58-2.83-1.14-4.16-.54-1.28-1.28-2.38-2.19-3.28-.82-.8-1.88-1.19-3.25-1.19l-.03-.01Z" fill="#F15A24"/><path d="M191.98 33.9c1.8 0 3.47.25 5.01.76 1.54.51 2.97 1.21 4.3 2.1 1.5 1.01 2.78 2.24 3.85 3.68 1.07 1.44 1.95 2.99 2.63 4.64.68 1.65 1.19 3.36 1.51 5.11.32 1.75.48 3.44.48 5.08 0 1.64-.15 3.39-.45 5.17-.3 1.77-.78 3.49-1.44 5.17-.66 1.67-1.53 3.24-2.6 4.7a16.37 16.37 0 0 1-3.85 3.76c-1.33.9-2.77 1.62-4.33 2.16s-3.26.82-5.1.82c-1.84 0-3.47-.27-5.01-.82-1.54-.54-2.98-1.26-4.3-2.16-1.5-1.05-2.78-2.29-3.85-3.73a21.495 21.495 0 0 1-2.63-4.64c-.69-1.65-1.18-3.36-1.48-5.11-.3-1.75-.45-3.44-.45-5.08h-.06c0-1.67.16-3.39.48-5.14.32-1.75.81-3.45 1.48-5.11.66-1.65 1.53-3.21 2.6-4.67s2.38-2.71 3.92-3.76a18.15 18.15 0 0 1 4.3-2.13c1.54-.53 3.21-.79 5.01-.79m0 35.31c1.67 0 3.03-.51 4.08-1.52 1.05-1.01 1.86-2.24 2.44-3.68.58-1.44.97-2.95 1.19-4.52.21-1.58.32-2.93.32-4.06 0-1.13-.11-2.4-.32-3.94-.21-1.54-.62-3.02-1.22-4.44-.6-1.42-1.41-2.64-2.44-3.65-1.03-1.01-2.38-1.52-4.04-1.52-1.66 0-2.95.51-3.98 1.52-1.03 1.01-1.84 2.24-2.44 3.68-.6 1.44-1.01 2.93-1.22 4.47-.21 1.54-.32 2.85-.32 3.94 0 1.09.1 2.48.29 4.06.19 1.58.58 3.07 1.16 4.5.58 1.42 1.39 2.64 2.44 3.65 1.05 1.01 2.41 1.52 4.08 1.52m0-37.56c-2.04 0-3.97.31-5.73.91-1.72.59-3.35 1.39-4.83 2.39-1.75 1.2-3.26 2.64-4.47 4.3-1.18 1.6-2.14 3.34-2.87 5.16-.72 1.78-1.25 3.65-1.6 5.54-.34 1.88-.52 3.74-.52 5.54 0 .19.02.38.07.56.03 1.58.19 3.23.48 4.9.33 1.91.87 3.79 1.62 5.59.75 1.81 1.73 3.54 2.9 5.12 1.21 1.63 2.68 3.05 4.37 4.23 1.51 1.02 3.12 1.83 4.84 2.44 1.78.63 3.72.95 5.76.95 2.04 0 4.05-.32 5.84-.94 1.74-.61 3.37-1.42 4.85-2.42a18.97 18.97 0 0 0 4.41-4.3c1.18-1.61 2.15-3.36 2.88-5.2.72-1.81 1.25-3.7 1.57-5.62.32-1.89.48-3.75.48-5.54s-.17-3.61-.52-5.48c-.35-1.89-.9-3.77-1.64-5.56a23.95 23.95 0 0 0-2.9-5.12 18.11 18.11 0 0 0-4.4-4.2 19.76 19.76 0 0 0-4.86-2.38c-1.76-.58-3.68-.87-5.71-.87h-.02Zm0 35.31c-1.09 0-1.89-.28-2.52-.89-.83-.8-1.46-1.74-1.92-2.88-.5-1.23-.84-2.55-1.01-3.92-.18-1.48-.27-2.75-.27-3.78 0-1.03.1-2.21.3-3.63.19-1.34.55-2.66 1.07-3.91.48-1.16 1.13-2.14 1.94-2.94.6-.59 1.37-.87 2.4-.87 1.42 0 2.09.5 2.47.87.81.8 1.46 1.78 1.95 2.92.52 1.23.88 2.54 1.06 3.87.2 1.43.3 2.65.3 3.63s-.1 2.28-.3 3.75c-.19 1.39-.54 2.73-1.05 3.99-.46 1.15-1.09 2.1-1.92 2.9-.63.6-1.43.89-2.52.89h.02Z" fill="#FFE365"/><path d="M218.02 78.13c-.18 0-.37-.04-.54-.14l-2.89-1.6c-.5-.28-.71-.89-.49-1.42.13-.32.22-.5.24-.54l4.19-8.35c-.66.28-1.39.42-2.18.42-.93 0-1.78-.19-2.52-.58-.73-.37-1.35-.87-1.84-1.49-.47-.6-.84-1.26-1.1-1.98-.26-.72-.39-1.46-.39-2.21s.13-1.5.38-2.23c.25-.74.63-1.43 1.12-2.02a5.95 5.95 0 0 1 1.84-1.49c.75-.4 1.61-.6 2.56-.6s1.77.19 2.51.58c.71.37 1.32.85 1.81 1.44.5.59.88 1.27 1.13 2.01.11.33.2.67.26 1.01l1.73-3.45c.22-.47.6-.86 1.09-1.12.44-.23.92-.35 1.42-.35.78 0 1.47.27 2 .79.54.52.82 1.19.82 1.94 0 .27-.04.53-.13.77l-.13.35s-.03.08-.05.11l-4.08 8.15c.7-.31 1.48-.47 2.31-.47.92 0 1.76.19 2.5.56.71.36 1.32.84 1.81 1.42.48.57.86 1.23 1.11 1.97a6.945 6.945 0 0 1 0 4.42 6.52 6.52 0 0 1-1.09 2.03c-.49.62-1.11 1.12-1.83 1.5-.75.4-1.61.6-2.56.6s-1.77-.19-2.52-.58c-.72-.37-1.34-.86-1.84-1.46-.49-.59-.87-1.27-1.12-2.01-.11-.33-.2-.67-.25-1l-1.83 3.65c-.07.12-.22.39-.48.84-.21.36-.59.56-.98.56l.01-.03Zm9.05-7.24c-.15 0-.2.03-.2.03-.07.05-.12.1-.17.16-.07.11-.12.23-.15.36a1.65 1.65 0 0 0 .15 1.25c.03.05.07.09.14.13.03.02.11.03.2.03.11 0 .19-.01.23-.04.08-.05.14-.11.19-.18.06-.09.1-.2.13-.33.04-.19.06-.37.06-.55 0-.25-.08-.5-.23-.75-.03-.04-.07-.11-.35-.11Zm-10.69-11.67c-.08 0-.14.01-.17.03-.08.05-.15.12-.2.19-.07.1-.12.21-.15.33-.04.15-.06.29-.06.43 0 .12.02.26.06.43.03.13.08.25.16.36.06.09.12.16.2.21 0 0 .05.02.13.02s.12-.01.14-.02a.64.64 0 0 0 .18-.19c.07-.12.13-.25.17-.4.04-.16.06-.31.06-.45s-.02-.26-.06-.4c-.04-.13-.09-.25-.16-.35a.376.376 0 0 0-.14-.14c-.01 0-.06-.02-.16-.02v-.03Z" fill="#F15A24"/><path d="M216.41 55c.75 0 1.41.15 1.99.45.58.3 1.07.69 1.48 1.17.41.48.71 1.02.91 1.63.2.61.3 1.23.3 1.85 0 .62-.11 1.24-.32 1.87-.21.62-.52 1.19-.91 1.69-.4.51-.89.91-1.48 1.23-.59.31-1.27.47-2.04.47s-1.42-.15-2.01-.45c-.59-.3-1.08-.7-1.48-1.2-.4-.5-.7-1.05-.91-1.65-.21-.6-.32-1.22-.32-1.84 0-.62.11-1.24.32-1.87.21-.62.52-1.18.93-1.68.41-.5.9-.9 1.49-1.21.59-.31 1.27-.47 2.04-.47m-.06 7.32c.3 0 .56-.07.77-.22.21-.15.39-.32.51-.54.13-.21.22-.45.29-.7.06-.25.1-.5.1-.73 0-.23-.03-.47-.1-.7-.06-.23-.16-.45-.29-.66-.13-.2-.29-.37-.5-.5-.2-.13-.45-.19-.75-.19s-.56.07-.77.2c-.21.14-.39.31-.53.51-.14.21-.24.43-.3.67-.06.24-.1.48-.1.71 0 .21.03.45.1.7.06.25.17.49.3.7.14.21.31.39.51.53s.45.2.75.2m10.02-7.21c.49 0 .9.16 1.22.47.32.31.48.69.48 1.14 0 .14-.02.26-.06.38-.04.12-.09.23-.13.35l-9.41 18.77c-.04.08-.19.34-.45.79l-2.89-1.61c.11-.25.17-.4.19-.44l9.53-19c.13-.27.33-.48.61-.63.28-.15.58-.22.9-.22m.74 11.64c.75 0 1.41.15 1.99.44.58.29 1.06.67 1.46 1.14.4.47.7 1 .9 1.61.2.6.3 1.22.3 1.84 0 .62-.1 1.24-.3 1.87-.2.62-.5 1.18-.9 1.68s-.89.9-1.48 1.21c-.59.31-1.27.47-2.04.47s-1.42-.15-2.01-.45c-.59-.3-1.09-.7-1.49-1.18a4.94 4.94 0 0 1-.91-1.65c-.2-.61-.3-1.23-.3-1.85 0-.62.11-1.24.32-1.85.21-.61.52-1.16.93-1.63.41-.48.91-.87 1.51-1.17.6-.3 1.27-.45 2.02-.45m-.06 7.21c.32 0 .59-.07.82-.21.22-.14.41-.31.55-.52.14-.21.24-.45.29-.72.05-.26.08-.52.08-.77 0-.47-.13-.91-.4-1.34-.27-.43-.7-.64-1.3-.64-.32 0-.59.07-.8.2-.21.14-.39.31-.51.51-.13.21-.22.43-.29.67-.06.24-.1.48-.1.71 0 .23.03.48.1.73.06.25.16.48.29.69.13.2.3.37.51.5.21.13.47.19.77.19M216.4 52.74c-1.14 0-2.18.24-3.09.73-.85.45-1.59 1.05-2.18 1.78-.57.7-1.02 1.5-1.32 2.37-.29.85-.44 1.73-.44 2.6 0 .87.15 1.75.45 2.59.3.84.73 1.61 1.28 2.3.59.74 1.34 1.35 2.21 1.79.9.46 1.92.7 3.03.7h.15l-3.17 6.32c-.06.11-.12.25-.27.6a2.25 2.25 0 0 0 .98 2.84l2.89 1.61c.35.19.72.28 1.09.28.78 0 1.54-.41 1.95-1.13.27-.46.42-.73.46-.81.02-.03.03-.06.04-.08l.67-1.35c.2.33.42.64.66.93.6.72 1.34 1.3 2.19 1.74.9.46 1.92.7 3.03.7 1.11 0 2.18-.24 3.09-.73.86-.45 1.59-1.06 2.18-1.79.56-.71.99-1.51 1.28-2.38.28-.85.42-1.71.42-2.57 0-.86-.14-1.72-.42-2.56-.3-.87-.74-1.66-1.32-2.34-.59-.7-1.32-1.26-2.16-1.69-.89-.45-1.9-.68-3-.68h-.26l3.04-6.06c.04-.08.07-.15.1-.23l.05-.13.08-.22c.14-.38.2-.76.2-1.16 0-1.06-.4-2.01-1.16-2.75-.74-.72-1.71-1.1-2.79-1.1-.69 0-1.34.16-1.94.48-.7.37-1.24.93-1.58 1.63l-.57 1.13c-.2-.33-.42-.65-.68-.94a7.01 7.01 0 0 0-2.15-1.7c-.9-.47-1.92-.71-3.03-.71l.01-.01Z" fill="#FFE365"/></svg>