<svg width="325" height="56" fill="none" xmlns="http://www.w3.org/2000/svg"><g clip-path="url(#a)"><path d="M296.92 0H27.58C12.348 0 0 12.346 0 27.575 0 42.805 12.348 55.15 27.58 55.15h269.34c15.232 0 27.58-12.346 27.58-27.575C324.5 12.345 312.152 0 296.92 0Z" fill="#B2E0FD"/><path d="M99.08 28.2c0 2.7-1.71 7.65-5.11 14.84l-4.53-1.95c3.3-6.69 4.97-10.98 4.97-12.89 0-.66-1.67-1.95-4.97-3.86l3.41-3.1c4.13 2.8 6.24 5.11 6.24 6.96h-.01Zm-.65-14.11c.73.66 1.09 1.48 1.09 2.54 0 .99-.44 1.81-1.27 2.47-.8.59-1.63.86-2.43.86-1.09 0-1.99-.36-2.76-1.15-.62-.69-.91-1.42-.91-2.18 0-.92.25-1.68.83-2.34.73-.66 1.67-1.02 2.83-1.02.94 0 1.81.3 2.61.82h.01Zm22.89-.17v3.99h-8.2v3.73h9.36v3.73h-9.36v3.4c.73 0 1.34-.03 1.92-.03h.76c2.1 0 3.59.43 4.5 1.25.87.82 1.31 1.95 1.31 3.4 0 1.62-.07 3.43-.18 5.41h.62v3.73h-17.7v.4h-4.53V29.01h4.53v.4c1.56-.13 2.97-.23 4.24-.36v-3.66h-9.5v-3.73h9.5v-3.73h-8.09v-3.99h20.82v-.02Zm-4.42 24.86c.11-2.08.18-3.89.18-5.41 0-.86-.54-1.29-1.56-1.29-2.83 0-6.56.26-11.17.73v5.97h12.55Zm27.84-22.68c-2.32.4-4.46.66-6.35.82v.73h6.24v3.59h-6.24v.79h.83c1.99 0 3.41.43 4.28 1.22.8.79 1.23 1.88 1.23 3.3 0 1.06-.07 2.21-.22 3.46h.36v3.46h-6.49v1.06h6.35v3.73h-6.35v.76h6.78v1.55c1.16-4.48 2.03-8.74 2.58-12.76.29-2.18.51-4.85.73-8.01-.8.13-1.63.3-2.58.43l-.44-3.33c1.16-.2 2.25-.4 3.23-.56.07-1.05.11-2.14.18-3.33l4.1.26c-.04.89-.07 1.71-.07 2.51.51-.03.91-.07 1.2-.07h.58c2.54 0 3.99 1.25 4.39 3.73.29 2.31.51 5.74.58 10.22 0 5.14-.15 8.47-.36 10.02-.22 2.04-1.56 3.1-4.03 3.1-1.27 0-2.39-.1-3.41-.26l-.29-3.5c1.02.2 2.1.26 3.26.26.22 0 .36-.43.36-1.35.04-2.04.07-4.98.07-8.77 0-4.91-.18-7.95-.54-9.1-.11-.56-.51-.86-1.16-.86-.22 0-.51.03-.8.03-.18 3.46-.44 6.5-.76 9.07-.58 4.95-1.6 9.83-2.97 14.61l-3.84-1.09v.96h-18.14v-3.76h6.96v-.76h-6.09v-3.73h6.09v-1.06h-2.14v.4h-4.39V22.03h4.39v.33c.76-.03 1.49-.07 2.14-.13v-.99h-7.11v-3.59h7.11v-.43c-1.96.1-4.13.17-6.53.17l-.15-3.33c3.63-.03 6.46-.17 8.52-.36 2.39-.13 5.08-.46 8.05-.92l.83 3.33.03-.01ZM134 25.89v-.69c-.69.07-1.41.1-2.14.17v.53H134v-.01Zm0 4.12v-.89h-2.14v.89H134Zm4.39-4.12h1.92c-.15-.59-.62-.89-1.38-.89h-.54v.89Zm0 4.12h1.74c0-.3.04-.59.07-.89h-1.81v.89Zm31.37-12.23v.69c3.05-.36 5.77-.66 8.16-.86-.29-.46-.51-.76-.58-.82-.11-.2-.29-.3-.51-.3-.44 0-1.85.3-4.24.89l-1.71-3.33c3.34-.86 5.37-1.29 6.13-1.29h.51c.54 0 1.09.17 1.67.46.4.13 1.52 1.52 3.34 4.09.94-.03 1.78-.07 2.58-.07h1.41c4.03 0 6.67.63 7.94 1.85 1.02.99 1.56 4.16 1.63 9.43 0 5.14-.18 8.87-.51 11.21-.25 2.18-1.56 3.3-3.88 3.3s-4.97-.07-8.23-.13l-.4-3.76c3.34.2 5.84.26 7.51.26.51-.07.76-.99.83-2.8.04-.99.07-2.01.11-3.1l-3.37 1.91c-2.68-4.78-4.86-8.64-6.53-11.57-.65 1.25-1.38 2.47-2.18 3.66-1.74 2.7-3.7 5.34-5.88 7.91l-3.81-2.54v10.02h-4.68V17.76h4.68l.01.02Zm5.66 7.16c.8-1.19 1.52-2.37 2.18-3.56-2.39.2-5 .46-7.83.79v9.92c2.21-2.51 4.1-4.91 5.66-7.16l-.01.01Zm16.14 6.13v-2.54c-.07-4.02-.36-6.3-.87-6.76-.65-.49-2.43-.76-5.37-.76h-.25c1.78 2.7 3.95 6.03 6.49 10.06Zm28.54-18.2v1.81h2.58c3.55 0 6.13.23 7.76.63 2.1.59 3.19 1.85 3.26 3.76 0 1.38-.25 3.03-.73 4.88l-2.9-.4c.87.79 1.74 1.52 2.61 2.21l-3.23 2.57c-3.48-2.84-6.49-5.71-9.07-8.61l2.5-1.81h-.76c-2.54 0-5.66.2-9.39.59l2.83 2.24c-3.37 3.07-6.35 5.64-8.92 7.72l-3.41-2.44c.73-.59 1.45-1.19 2.21-1.81h-4.21v-9.27h4.53v1.12c3.84-.53 7.07-.89 9.65-1.12v-2.08h4.68l.01.01Zm-2.25 12.3c1.34-.2 2.36-.3 3.08-.3h.87c1.52 0 2.9.46 4.13 1.39 1.6 1.25 4.39 4.25 8.45 9.03l-4.1 2.21c-.22-.26-.4-.53-.58-.79-.04.73-.07 1.52-.14 2.31h.44v3.63h-19.55v.26h-4.39v-6.33c-.4.36-.76.69-1.12 1.02l-3.55-2.57c4.71-4.06 8.96-8.14 12.77-12.23l3.7 2.37h-.01Zm-6.31-6.53c-1.81.2-3.74.46-5.77.73v4.55c1.89-1.58 3.81-3.36 5.77-5.28Zm11.5 13.19h.87c.8 0 1.52.07 2.18.2-.87-1.06-1.7-2.01-2.47-2.84-.87-.73-1.81-1.12-2.83-1.12-.87 0-1.96.1-3.26.3-1.12.2-2.25.4-3.41.66-1.2 1.15-2.43 2.31-3.66 3.5 5.69-.46 9.9-.69 12.59-.69l-.01-.01Zm1.96 7.19c.11-1.06.18-2.01.18-2.8s-.54-1.19-1.56-1.19c-3.34 0-7.73.26-13.17.76v3.23H225Zm3.59-16.78c.36-1.48.54-2.44.58-2.9-.07-.63-.54-.99-1.49-1.12-1.05-.13-2.21-.2-3.52-.26 1.41 1.48 2.9 2.9 4.42 4.29l.01-.01Z" fill="#005BAB"/><path d="M308.592 39.706c6.685-5.896 7.325-16.095 1.429-22.78-5.896-6.686-16.095-7.326-22.78-1.43-6.686 5.896-7.326 16.095-1.43 22.78 5.896 6.686 16.096 7.326 22.781 1.43Z" fill="#FFE365"/><path d="M298.59 14.82c-7.04-.38-13.06 5.02-13.44 12.07-.38 7.04 5.02 13.06 12.07 13.44 7.04.38 13.06-5.02 13.44-12.07.38-7.04-5.02-13.06-12.07-13.44Zm-1.27 23.44c-5.9-.32-10.43-5.36-10.11-11.26.32-5.9 5.36-10.43 11.26-10.11 5.9.32 10.43 5.36 10.11 11.26-.32 5.9-5.36 10.43-11.26 10.11Z" fill="#FFB241"/><path d="M302.105 37.412c5.435-2.32 7.96-8.607 5.639-14.042-2.32-5.434-8.607-7.96-14.042-5.639-5.435 2.32-7.959 8.607-5.639 14.042 2.32 5.435 8.607 7.96 14.042 5.64Z" fill="#FFE365"/><path d="m298.62 33.57-.14 2.57-2.24-.12.14-2.59c-1.57-.3-3.06-1.04-4.14-2.03l1.32-2.34c1.15 1.11 2.95 1.95 4.17 2.01.91.05 1.5-.26 1.53-.88.11-2-6.16-1.13-5.93-5.29.1-1.87 1.52-3.09 3.69-3.32l.13-2.47 2.24.12-.13 2.45c1.37.23 2.66.77 3.61 1.46l-1.29 2.37c-1.21-.77-2.76-1.41-3.73-1.47-.74-.04-1.24.2-1.27.74-.11 1.95 6.16 1.18 5.93 5.41-.11 2.07-1.76 3.19-3.89 3.36v.02Z" fill="#fff"/><path d="M38.23 39.687c6.686-5.896 7.326-16.095 1.43-22.78-5.896-6.686-16.095-7.326-22.78-1.43-6.686 5.896-7.326 16.095-1.43 22.78 5.896 6.686 16.095 7.326 22.78 1.43Z" fill="#FFE365"/><path d="M28.24 14.82c-7.04-.38-13.06 5.02-13.44 12.07-.38 7.04 5.02 13.06 12.07 13.44 7.04.38 13.06-5.02 13.44-12.07.38-7.04-5.02-13.06-12.07-13.44Zm-1.27 23.44c-5.9-.32-10.43-5.36-10.11-11.26.32-5.9 5.36-10.43 11.26-10.11 5.9.32 10.43 5.36 10.11 11.26-.32 5.9-5.36 10.43-11.26 10.11Z" fill="#FFB241"/><path d="M31.748 37.418c5.435-2.32 7.96-8.607 5.64-14.042-2.321-5.435-8.608-7.96-14.043-5.64-5.435 2.32-7.96 8.608-5.639 14.043 2.32 5.434 8.607 7.96 14.042 5.639Z" fill="#FFE365"/><path d="m28.26 33.57-.14 2.57-2.24-.12.14-2.59c-1.57-.3-3.06-1.04-4.14-2.03l1.32-2.34c1.15 1.11 2.95 1.95 4.17 2.01.91.05 1.5-.26 1.53-.88.11-2-6.16-1.13-5.93-5.29.1-1.87 1.52-3.09 3.69-3.32l.13-2.47 2.24.12-.13 2.45c1.37.23 2.66.77 3.61 1.46l-1.29 2.37c-1.21-.77-2.76-1.41-3.73-1.47-.74-.04-1.24.2-1.27.74-.11 1.95 6.16 1.18 5.93 5.41-.11 2.07-1.76 3.19-3.89 3.36v.02Z" fill="#fff"/></g><defs><clipPath id="a"><path fill="#fff" d="M0 0h324.5v55.15H0z"/></clipPath></defs></svg>