<svg width="150" height="251" fill="none" xmlns="http://www.w3.org/2000/svg"><g clip-path="url(#a)"><path d="M79.02 153.8s-7.84 3.56-12.19 11.29c-4.36 7.73-5.25 18.43-5.25 18.43l13.4.14s-8.19-10.16 4.04-29.86Z" fill="#E6E6E6"/><path d="m82.96 159.11-2.85-6.73-7.16-1.47c-.82-.17-1.08-1.2-.46-1.74l5.52-4.79-.81-7.26c-.09-.83.8-1.4 1.52-.97l6.26 3.77 6.65-3.02c.76-.34 1.58.33 1.39 1.14l-1.65 7.12 4.93 5.4c.56.61.17 1.61-.66 1.68l-7.28.63-3.61 6.35c-.41.72-1.47.66-1.8-.11h.01Z" fill="#F15A24"/><path d="m101.81 96.2-5.11 3.41 2.86 4.96-4.89 3.58 2.15 5.08-3.22 3.28 1.66 1.62 4.3-4.38-2.03-4.81 5.08-3.73-2.81-4.88 4.63-3.09-2.62-1.04Zm34.22 25.8-5.92-1.63-1.88 5.4-5.9-1.35-2.44 4.95-4.58-.29-.15 2.32 6.13.39 2.31-4.69 6.14 1.41 1.85-5.32 5.37 1.48-.93-2.67ZM21.85 20.55l1.44-5.97-5.47-1.7 1.16-5.95-5.02-2.27.13-4.59L11.77 0l-.18 6.14 4.75 2.15-1.2 6.19 5.38 1.67-1.31 5.42 2.64-1.02Z" fill="#F7931E"/><path d="m113.42 149.04 2.33 4.37 5.05-.28 2.27 5.08 5.28-1.96 2.83 5.63 5.08-1.2 3.6 4.97-1.88 1.37-2.69-3.72-5.37 1.27-2.71-5.42-5.37 1.99-2.51-5.6-4.93.27-2.16-4.04-3.2.85-.6-2.24 4.98-1.34Z" fill="#E6E6E6"/><path d="m54.07 164.54-3.73.37-1.26-5.92-5.52-.12-1.67-4.27-2.17.84 2.24 5.72 5.23.12 1.32 6.16 5.6-.57-.04-2.33Z" fill="#3A6AAE"/><path d="m90.67 16.99-1.39 3.47-5.84-1.62-2.66 4.82-4.57-.5-.25 2.31 6.1.67 2.53-4.57 6.07 1.69 2.1-5.23-2.09-1.04Z" fill="#2723AA"/><path d="M122.23 198.55c-1.72.34-8.6 9.56-8.6 9.56l-.24.64s12.45-1.38 12.9-1.92c1.22-1.44-2.64-8.56-4.05-8.28h-.01Zm-8.52 9.76c2.27-2.9 7.45-7.14 8.57-8.04 1 1.02 2.5 4.03 2.7 5.38-1.43.29-7.64 2.22-11.27 2.66Zm-8.15-8.19c-3.39-2.21-4.32-2.19-5.3-1.63-.99.56-4.63 5.78-3 7.41s14.53 2.79 14.53 2.79l.29-.79s-3.13-5.57-6.52-7.78Zm-6.06 5.2c-.75-.75 1.12-3.88 1.97-4.54.22-.12 8.9 5.4 10.11 7.29-4.84-.52-11.38-2.12-12.08-2.74v-.01Z" fill="#91ACD2"/><path d="M111.89 206.39h.73c.72 0 1.3.58 1.3 1.3v2.14c0 .72-.58 1.3-1.3 1.3h-.73c-.72 0-1.3-.58-1.3-1.3v-2.14c0-.72.58-1.3 1.3-1.3Z" fill="#91ACD2"/><path d="m139.41 208.78-59.02-.18c-1.57 0-2.78 1.39-2.54 2.95l.91 6.02h2.96l1.78 30.3c.1 1.62 1.44 2.89 3.06 2.89h47.1l1.96-33.31h2.79l.99-8.67h.01Z" fill="#F15A24"/><path d="M134.68 250.76H98.52l-1.94-41.35h42.96l-1.8 38.48c-.08 1.61-1.42 2.88-3.06 2.88v-.01Z" fill="#F7931E"/><path d="m141.32 217.47-46.63.12-1.06-8.97 45.68.17c1.5 0 2.67 1.29 2.54 2.79l-.53 5.89Z" fill="#F7931E"/><path d="m94.68 217.6 44.48-.13-43.07 2.35-1.41-2.22Z" fill="#E25C59"/><path d="M113.42 208.69h-1.24v8.86h1.24v-8.86Zm3.9 8.82h-1.55v33.31h1.55v-33.31Z" fill="#91ACD2"/><path d="M87.29 188.8H39.44v61.96h47.85V188.8Z" fill="#3A6AAE"/><path d="M47.03 188.8H45.3v61.96h1.73V188.8Zm5.12 0h-1.73v61.96h1.73V188.8Zm5.11 0h-1.73v61.96h1.73V188.8Zm5.12 0h-1.73v61.96h1.73V188.8Zm5.11 0h-1.73v61.96h1.73V188.8Zm5.12 0h-1.73v61.96h1.73V188.8Zm5.11 0h-1.73v61.96h1.73V188.8Zm5.12 0h-1.73v61.96h1.73V188.8Z" fill="#91ACD2"/><path d="M87.29 188.8H39.44v2.55h47.85v-2.55Z" fill="#91ACD2"/><path d="M.21 169.49c1.53 1.57 15.84 2.46 15.84 2.46l.83-.18s-9.93-12.04-10.8-12.15c-2.33-.29-7.13 8.59-5.87 9.88v-.01Zm15.99 2.23c-4.58-.39-12.53-2.9-14.23-3.45.38-1.74 2.49-5.36 3.78-6.49 1.28 1.29 7.52 6.45 10.46 9.94h-.01Zm-2.98 14.1c0 5.04.66 6 1.91 6.65 1.26.65 9.19.88 9.78-1.92.59-2.8-7-17.06-7-17.06l-1.02.23s-3.67 7.06-3.67 12.1Zm9.56 2.78c-.27 1.3-4.81 1.47-6.08 1.04-.28-.14-.43-12.97.71-15.51 2.76 5.41 5.55 13.32 5.38 14.48l-.01-.01Z" fill="#F7931E"/><path d="m17.66 170.476-2.235 1.461a1.62 1.62 0 0 0-.47 2.242l.498.762a1.62 1.62 0 0 0 2.242.47l2.235-1.461a1.62 1.62 0 0 0 .47-2.243l-.498-.761a1.62 1.62 0 0 0-2.242-.47Z" fill="#F7931E"/><path d="m2.894 145.755 26.929 48.461 9.668-5.372-26.929-48.461-9.668 5.372Z" fill="#91ACD2"/><path d="M25.45 97.57c4.13 3.96 4.27 10.52.31 14.65-3.96 4.13-10.52 4.27-14.65.31-4.13-3.96-4.27-10.52-.31-14.65 3.96-4.13 10.52-4.27 14.65-.31Z" fill="#F7931E"/><path d="m25.23 106.23-4.41 1.36-1.38 4.4c-.11.36-.58.43-.8.12l-2.65-3.78-4.61.04c-.37 0-.59-.42-.36-.72l2.77-3.69-1.47-4.37a.45.45 0 0 1 .57-.57l4.36 1.5 3.71-2.75c.3-.22.72 0 .72.37l-.07 4.61 3.76 2.68c.3.22.23.69-.13.8h-.01Z" fill="#FFE365"/><path d="m59.86 109.56 2.43 4.03c.26.44.91.38 1.1-.09l1.73-4.38 4.59-1.06c.5-.12.65-.75.25-1.07L66.33 104l.41-4.69c.04-.51-.51-.85-.94-.57l-3.97 2.53-4.34-1.84c-.47-.2-.96.23-.84.72l1.18 4.56-3.09 3.56c-.33.39-.08.99.43 1.02l4.7.29-.01-.02Z" fill="#F7931E"/><path d="M41.15 131.11c1.16 0 2.1-.86 2.1-1.92 0-1.061-.94-1.92-2.1-1.92-1.16 0-2.1.859-2.1 1.92 0 1.06.94 1.92 2.1 1.92Z" fill="#92B5F9"/><path d="M110.64 173.08c0 1.16-1.02 2.1-2.27 2.1s-2.27-.94-2.27-2.1c0-1.16 1.02-2.1 2.27-2.1s2.27.94 2.27 2.1Z" fill="#0055AB"/><path d="m30.74 88.96-2.63-2.54c-1.38.39-2.89.61-4.27.67-1.14.05-2.48-.59-3.07-1.46l-.07-.1c-.65-.96-.15-1.82 1.11-1.86 1.29-.04 2.63-.22 3.83-.62 1.75-.59 2.33-1.58 1.17-2.66-1.11-1.02-2.79-1.34-5.76-1.24-4.23.15-7.81-.43-10.61-3.04-2.58-2.37-2.87-4.88-.45-6.57l-2.91-2.57 2.8-1.03 2.73 2.38c1.11-.34 2.14-.52 3.08-.6 1.16-.1 2.68.56 3.39 1.47.73.94.33 1.79-.89 1.86-.91.06-1.94.21-2.98.58-1.9.68-1.68 1.66-.84 2.41.98.89 2.63 1.09 6.12 1.07 4.87-.1 8.01.89 10.69 3.32 2.62 2.4 2.83 5.09-.22 6.8l2.87 2.73-3.09 1.01v-.01Z" fill="#F15A24"/><path d="M120.43 27.26c-19.16-1.23-39.33 17.37-40.05 28.58-.36 5.6 3.2 10.92 9.24 15L78.71 95.5l19.26-20.43c4.68 1.75 10.05 2.92 15.79 3.29 19.16 1.23 35.27-6.85 35.99-18.06.72-11.2-10.16-31.8-29.32-33.03v-.01Z" fill="#E6E6E6"/><path d="M115.68 48.23c-1.24 5.17-5.16 7.09-8.73 6.23-3.76-.9-6.06-4.43-4.94-9.07 1.06-4.41 4.56-7.11 8.78-6.1 4.26 1.02 5.91 4.71 4.9 8.93l-.01.01Zm-9.34-1.96c-.62 2.59-.19 4.66 1.48 5.06 1.63.39 2.83-1.09 3.5-3.87.6-2.51.38-4.61-1.41-5.04-1.71-.41-2.98 1.38-3.58 3.85h.01Zm.03 16.87 18.16-19.81c.34-.37.86-.53 1.36-.42 1.04.25 1.43 1.52.7 2.31l-18.18 19.79a1.383 1.383 0 0 1-2.04-1.87Zm24.65-.38c-1.24 5.17-5.16 7.09-8.73 6.23-3.73-.89-6.02-4.42-4.94-9.07 1.06-4.41 4.56-7.11 8.78-6.1 4.26 1.02 5.91 4.71 4.9 8.93l-.01.01Zm-9.3-1.95c-.66 2.58-.23 4.65 1.44 5.05 1.63.39 2.83-1.09 3.5-3.87.6-2.51.42-4.6-1.37-5.03-1.75-.42-2.98 1.38-3.58 3.85h.01Z" fill="#F7931E"/><path d="M40.62 49.4c-.78.77-2.13.65-3.03-.25-.9-.9-.99-2.26-.21-3.03s2.13-.65 3.03.25c.9.9.99 2.26.21 3.03Z" fill="#2723AA"/></g><defs><clipPath id="a"><path fill="#fff" d="M0 0h149.78v250.83H0z"/></clipPath></defs></svg>