<svg width="120" height="346" fill="none" xmlns="http://www.w3.org/2000/svg"><path d="M66.63 345.843c23.947 0 43.36-11.148 43.36-24.901S90.577 296.04 66.63 296.04s-43.36 11.149-43.36 24.902c0 13.753 19.413 24.901 43.36 24.901Z" fill="gray" style="mix-blend-mode:multiply" opacity=".2"/><path d="M4.76 103.985c8.66 2.811 30.78-15.631 39.65-13.438.5 7.297-14.74 35.678-18.75 41.968-1.83 2.871-4.17 5.582-7.32 7.177-3.15 1.605-7.23 1.914-10.27.13-1.38-.808-2.48-1.994-3.37-3.27-3.06-4.396-3.78-9.849-3.76-15.092.02-5.234.72-10.487.15-15.701l3.67-1.784v.01Z" fill="#2459A5"/><path d="M16.8 138.097c-1.06 0-2.13-.179-3.18-.548-4.84-1.714-7.34-6.928-5.58-11.653l25.1-67.348c1.76-4.715 7.11-7.158 11.95-5.443 4.84 1.715 7.34 6.928 5.58 11.653l-25.1 67.348c-1.38 3.699-4.96 5.991-8.77 5.991Z" fill="#2459A5"/><path d="M60.9 293.399c2.07-.04 3.88 1.595 4.69 3.499.81 1.904.82 4.027.83 6.091 0 1.804-.08 3.818-1.37 5.084-.83.817-2.02 1.146-3.15 1.455-2.13.568-4.27 1.146-6.46 1.336-2.49.209-5.01-.07-7.48.299-1.57.239-3.09.738-4.64 1.106a26.52 26.52 0 0 1-13.34-.339c-.96-.279-1.96-.648-2.59-1.415-1.05-1.286-.68-3.28.37-4.566 1.05-1.276 2.62-2.013 4.13-2.701 4.55-2.074 9.09-4.157 13.64-6.231 4.46-2.033 9.08-4.107 13.98-4.226 1.57-.04 3.63.668 3.49 2.223l-2.09-1.615h-.01Z" fill="#333"/><path d="m57.352 301.028.468-.038c3.006-.243 5.245-2.869 5-5.865l-.743-9.141c-.244-2.996-2.879-5.228-5.884-4.985l-.469.038c-3.005.243-5.244 2.869-5 5.865l.744 9.141c.244 2.996 2.878 5.228 5.884 4.985Z" fill="#fff"/><path d="M78.83 318.061c-.86 1.565-1.76 3.11-2.59 4.675-.85 1.585-1.71 3.18-2.33 4.875-.92 2.512-2.65 7.387-.47 9.66 3.27 3.429 8.61.488 11.27-1.924 3.96-3.599 7.64-7.507 11-11.654 1.44-1.784 2.87-3.698 3.31-5.941 1.36-6.878-2.69-16.638-11.19-14.355-3.1.838-4.42 3.001-5.16 5.812-.82 3.12-2.27 6.031-3.84 8.872v-.02Z" fill="#333"/><path d="M89.48 314.762h.47c3.015 0 5.46-2.437 5.46-5.443v-9.171c0-3.006-2.445-5.443-5.46-5.443h-.47c-3.016 0-5.46 2.437-5.46 5.443v9.171c0 3.006 2.444 5.443 5.46 5.443Z" fill="#fff"/><path d="m61.9 123.742 28.75 10.168 11.12 22.41-3.07 75.283v70.887c0 3.868-3.08 7.008-6.88 7.008h-4.73c-3.57 0-6.55-2.791-6.85-6.42L73 217.906l-2.39-33.295-5.97-2.473-2.74 39.915 3.22 65.863c.19 4.097-3.17 7.436-7.18 7.137l-3.33-.249c-3.13-.239-5.68-2.652-6.13-5.822l-10.85-73.11v-79.011l24.26-13.099.01-.02Z" fill="#F15A24"/><path d="M37.61 66.224v72.551c0 1.655.91 3.2 2.4 4.067l16.76 9.75c7.95 4.645 17.17 6.569 26.29 5.692 3.19-.329 6.38-.977 9.46-2.014l9.3-5.901-5.05-79.53c-.14-3.38-1.54-6.53-3.94-8.942-.89-.947-1.95-1.754-3.15-2.442l-6.03-3.609-1.68-1.007c-4.56-3.02-13.4-6.998-21.36-7.915-1.58-.2-3.09.568-4.53.568-3.19 0-6.03.489-8.09 1.625-6.41 3.54-10.39 10.039-10.39 17.096l.01.01Z" fill="#fff"/><path d="m102.08 168.322-7.86 4.785c-1.89.638-4.35 1.146-6.77 1.525-1.57.08-3.14.11-4.7.08a4.73 4.73 0 0 1-.61-.249c-1.91-.848-3.35-2.403-4.58-4.566a10.113 10.113 0 0 1-1.24-3.798c-.62-1.017-1.05-2.233-1.26-3.33a233.8 233.8 0 0 1 .97-92.718c1.08-5.044 2.18-13.258-1.36-17.684-.69-.857-1.62-1.485-2.59-2.004-6.55-3.469-19.01-3.13-23.04 4.267-.99 1.814-1.36 4.725-1.68 6.748-3.15 19.788.02 38.978.29 58.885l.54 38.589c.02 1.655-.86 3.13-2.38 3.947-1.11.608-2.5.549-3.59-.079l-5.44-3.16c-1.87-1.087-3.01-3.021-3.01-5.094V66.213c0-19.468 31.11-23.605 46.49-17.216 4.61 1.914 11.28 3.39 14.78 6.889a14.579 14.579 0 0 1 4.26 9.7l.11 4.425h-.18c.02.26.06.519.07.778 0 .01 4.11 78.383 4.93 93.516.09 1.605-.74 3.14-2.17 4.007l.02.01Z" fill="#3A6AAE"/><path d="M104.25 164.305c-.82-15.133-4.93-93.506-4.93-93.516-.01-.26-.05-.519-.07-.778h.18l-.11-4.426c-.02-.528-.07-1.056-.15-1.575-2.58-1.286-5.08-1.445-7.45 1.057-.42.438-.81.967-1.19 1.565v107.422c1.34-.279 2.61-.598 3.69-.967l7.86-4.785c1.43-.867 2.26-2.402 2.17-4.007v.01Z" fill="#2459A5"/><path d="M73.87 62.246c.64-1.506 1.14-3.04 1.45-4.576 3.07-15.192-27.21-13.458-27.21 3.42v2.641c0 1.057.88 1.785 1.85 1.515l7.88-2.173 6.55 6.52c.95 1.345 2.87 1.296 3.96-.1 1.66-2.143 3.58-4.695 5.52-7.247Z" fill="#D3DEED"/><path d="M64.51 33.814s.06.02.09.05c.03-.12.03-.259.03-.368a.44.44 0 0 1-.12.318Z" fill="#1A1A1A"/><path d="M98.85 184.541c.03.618.07 1.226.1 1.815l.92-.529a4.972 4.972 0 0 1-1.02-1.286Z" fill="#4568C7"/><path d="M117.44 175.758c-1.08-18.621-2.77-57.26-3-60.22a8.878 8.878 0 0 0-.25-1.516l-10.06-50.88c-1.24-5.093-6.39-8.214-11.51-6.997-5.12 1.236-8.27 6.36-7.03 11.453l9.88 50.113c.35 5.513 2.01 41.958 3.21 63.959-.39.947-.34 1.944.16 2.881.24.448.58.877 1.02 1.286.38.348.82.677 1.35.976 3.72 2.144 9.76 2.144 13.49 0 1.5-.857 2.39-1.933 2.69-3.05.02 0 .4-1.924.05-7.995v-.01Zm.79 13.578c0 .099.01.199.02.298 0-.089-.01-.189-.02-.298Z" fill="#3A6AAE"/><path d="m70.19 50.912-.09.02c.05 2.89-2.75 5.652-6.81 6.52-3.63.767-6.97-.25-8.45-2.383a4.67 4.67 0 0 1-.44-.788l-.09.02-.18-.827-3.65-16.987a8.029 8.029 0 0 1 1.13-6.09 8.053 8.053 0 0 1 4.08-3.23c.41-.12.85-.25 1.29-.34.96-.17 1.9-.17 2.83-.04a8.015 8.015 0 0 1 3.22 1.336 8.122 8.122 0 0 1 3.33 4.975l3.65 16.986.18.838v-.01Z" fill="#EAC2A6"/><path d="M54.84 55.069a4.67 4.67 0 0 1-.44-.788l-.09.02-.18-.827-3.65-16.987a8.029 8.029 0 0 1 1.13-6.09 8.053 8.053 0 0 1 4.08-3.23c.41-.12.85-.25 1.29-.34.96-.17 1.9-.17 2.83-.04.74.13 1.44.36 2.1.678l2.29 10.667c1.37 6.4-2.57 13.009-9.35 16.947l-.01-.01Z" fill="#EAC2A6" style="mix-blend-mode:multiply"/><path d="M35.54 35.4c.81 4.297 2.2 8.454 5.22 11.245 3.33 3.12 8.06 3.838 12.36 3.31 2.37-.3 4.76-.997 6.67-2.552 3.6-2.951 4.68-8.314 4.95-13.259.08-1.874.09-3.778-.09-5.642-.24-2.113-.69-4.227-1.56-6.17-1.87-4.197-5.47-7.357-9.46-9.082-3.99-1.725-8.33-2.133-12.58-1.984-2.07.05-4.26.32-5.92 1.635-1.1.857-1.86 2.293-1.93 3.738a4.08 4.08 0 0 0 .18 1.555c.47 3.948.93 7.866 1.39 11.823.22 1.775.44 3.579.76 5.393l.01-.01Z" fill="#EAC2A6"/><path d="M63.44 27.933s.06.02.09.04c0-.12-.01-.259-.03-.368.02.11 0 .229-.06.328Zm0 .001c-.11-.04-.2-.09-.31-.13-.28-.1-.65-.16-.8.12-.1.19.13.349.29.359l-.52.737c.62.08 1.22-.438 1.33-1.086h.01Z" fill="#1A1A1A"/><path d="M27.66 16.111c-.89-2.054.07-4.835 4.02-8.493C37.7 2.035 48.86-.905 56.5 1.288c1.93.548 3.85 1.206 5.62 2.213 6.53 3.718 10.07 12.59 8.51 20.216-.38 5.283.21 17.056-4.66 16.15-2.6-.49-2.88-9.301-3.01-9.6-1.49-3.38-4.44-4.935-5.53-9.092l-2.61-1.067c-5.75 1.895-24.52 2.064-27.16-3.997Z" fill="#1A1A1A"/><path d="M61.39 29.519c-.86.17-1.25 1.405-.85 2.263.4.857 1.36 1.286 2.23 1.226.87-.05 1.67-.509 2.39-1.017 1.37-.967 2.63-2.293 3.03-4.027.4-1.735-.36-3.898-1.94-4.476-1.49-.548-3.13.498-3.9 1.954-.77 1.455-.9 3.22-1 4.914l.03-.837h.01Z" fill="#EAC2A6"/><path d="m52.7 32.918-.53-.598 12.18-9.929.53.598-12.18 9.929Z" fill="#333"/><path d="M39.47 30.346c.25-.947.88-1.416 1.62-1.216.75.199 1.43 1.006 1.77 2.113l.47-.19c-.44-1.425-1.31-2.462-2.27-2.71-.96-.25-1.76.348-2.09 1.564l.5.439Z" fill="#FAB300"/><path d="M39.47 30.346c.25-.947.88-1.416 1.62-1.216.75.199 1.43 1.006 1.77 2.113l.47-.19c-.44-1.425-1.31-2.462-2.27-2.71-.96-.25-1.76.348-2.09 1.564l.5.439Z" fill="#333"/><path d="M50.23 38.72c-.74.18-1.57.17-2.42-.06-2.85-.748-5.26-3.688-5.39-6.55-.06-1.475.47-2.74 1.51-3.548 1.04-.808 2.42-1.037 3.89-.648 2.85.747 5.26 3.688 5.39 6.55.06 1.474-.47 2.74-1.51 3.548-.44.339-.94.578-1.48.708h.01Zm-6.85-6.849c.11 2.592 2.3 5.254 4.88 5.932 1.16.309 2.2.16 2.94-.42.74-.567 1.12-1.524 1.07-2.69-.11-2.593-2.3-5.254-4.88-5.932-1.15-.299-2.2-.16-2.94.419-.74.568-1.12 1.525-1.07 2.691Zm-6.24 3.409c-.74.18-1.57.17-2.42-.06-2.85-.747-5.26-3.688-5.39-6.548-.06-1.476.47-2.742 1.51-3.55 1.04-.807 2.42-1.036 3.89-.647 2.85.747 5.26 3.688 5.39 6.55.06 1.474-.47 2.74-1.51 3.548a3.91 3.91 0 0 1-1.48.708h.01Zm-4.77-10.008c-.38.09-.72.25-1.01.479-.74.568-1.12 1.525-1.07 2.691.11 2.592 2.3 5.254 4.88 5.932 1.16.309 2.2.16 2.94-.42.74-.567 1.12-1.524 1.07-2.69-.11-2.592-2.3-5.254-4.88-5.932-.7-.18-1.36-.2-1.93-.06Z" fill="#333"/><path d="M61.72 31.612c1.31-.2 2.22-1.425 2.02-2.721l-1.49-9.88a2.407 2.407 0 0 0-2.73-2.013c-1.31.2-2.22 1.426-2.02 2.722l1.49 9.879a2.407 2.407 0 0 0 2.73 2.013Z" fill="#1A1A1A"/><path d="M118.35 191.658c0-.159 0-.329-.02-.488v-.359c-.01-.209-.03-.488-.05-.837 0-.1-.01-.21-.02-.329-.08-1.336-.19-3.42-.35-6.051-.14.05-.28.109-.43.159-.02 0-.05.01-.07.02-.29 1.117-1.19 2.193-2.69 3.051-3.73 2.143-9.76 2.143-13.49 0-.52-.299-2.03-2.513-2.41-2.851l.14 2.412c.12 2.083.23 4.067.34 5.891.29 5.045 4.5 8.942 9.51 8.942.18 0 .37-.01.56-.01.16 0 .33-.02.49-.04 4.86-.528 8.54-4.625 8.49-9.49v-.02Z" fill="#EAC2A6"/><path d="m96.75 172.658.04.588c.2 3.011.39 5.593.6 7.846l.31 3.309.86 1.296.53-.05c.53.499 1.17.957 1.91 1.366 2.22 1.166 5.08 1.685 7.92 1.575 2.84-.1 5.65-.827 7.77-2.143 1.22-.768 2.12-1.655 2.67-2.672l.11-.189-.49-5.204c-.07-.708-.11-2.771-.13-5.004 0-.768-.83-1.256-1.51-.887-.8.438-1.53.817-1.84 1.017-3.84 2.412-10.23 2.641-14.24.508-.87-.459-3.17-.987-3.67-1.605-.09.02-.17.05-.27.08l-.56.149-.01.02ZM.01 108.968l.03.578c.19 2.921.38 5.433.59 7.616l.3 3.22.83 1.256.52-.049c.51.488 1.13.927 1.85 1.325 2.15 1.127 4.93 1.635 7.68 1.536 2.75-.1 5.49-.798 7.54-2.084 1.18-.748 2.05-1.605 2.59-2.592l.11-.189-.48-5.044c-.07-.688-.11-2.682-.13-4.855 0-.748-.81-1.216-1.47-.867-.78.418-1.48.797-1.79.987-3.73 2.332-9.93 2.562-13.82.498-.85-.449-3.07-.957-3.56-1.555-.08.02-.17.05-.26.08l-.54.149.01-.01Z" fill="#91ACD2"/><path d="m26.82 118.369-5.43-29.317a1.215 1.215 0 0 0-.59-.838L6.05 79.392a1.596 1.596 0 0 0-1.97.27l-1.24 1.285.07.399 5.25 28.38c.13.389 1.11.748 1.45 1.007l14.29 8.324 1.05.618c.92.548 2.06-.239 1.86-1.296l.01-.01Z" fill="#CCC"/><path d="m23.91 119.047-14.29-8.324c-.34-.249-1.32-.618-1.45-1.006L2.92 81.336l15.28 9.141c.3.19.52.489.58.837l5.14 27.723-.01.01Z" fill="gray"/><path d="M11.6 92.2c-.24.599-1.07.818-1.85.51-.78-.32-1.22-1.057-.97-1.645.24-.598 1.07-.817 1.85-.508.78.318 1.22 1.056.97 1.644Z" fill="#666"/><path d="M23.51 102.729c-.08-.18-.18-.369-.28-.549L7.88 97.226l-.99-.399-2.29-8.393-2.37.568-1.9 10.676.18.678c-.2 1.904-.15 4.655-.15 5.612 0 5.194 5.34 9.411 11.93 9.411s11.93-4.217 11.93-9.411c0-1.136-.26-2.233-.73-3.249l.02.01Z" fill="#EAC2A6"/><path d="M45 47.672c-2.27-.44-4.21-2.632-4.66-5.104-.09-.479.2-.838.62-.758l7.75 1.505c.4.08.73.529.68.957-.28 2.363-2.11 3.848-4.4 3.41l.01-.01Z" fill="#fff"/></svg>