<svg width="325" height="56" fill="none" xmlns="http://www.w3.org/2000/svg"><g clip-path="url(#a)"><path d="M296.92 0H27.58C12.348 0 0 12.346 0 27.575 0 42.805 12.348 55.15 27.58 55.15h269.34c15.232 0 27.58-12.346 27.58-27.575C324.5 12.345 312.152 0 296.92 0Z" fill="#F15A24"/><path d="M105.61 16.89c-1.74.4-3.3.73-4.68.92v4.35h8.63c-.8-2.57-1.49-5.18-2.1-7.88l4.53-1.29c.8 3.3 1.7 6.33 2.65 9.17h7.4v3.73h-6.13c.18.56.36 1.09.58 1.62.15.36.25.72.4 1.05.51-.63.98-1.25 1.45-1.91l4.28 2.7c-1.12 1.45-2.29 2.97-3.52 4.48 1.05 2.37 2.18 4.68 3.37 6.86l-4.53 2.08c-.83-1.58-1.6-3.13-2.32-4.71-1.27 1.52-2.58 3-3.92 4.58l-4.14-2.97c2.03-2.24 3.99-4.45 5.84-6.69-.65-1.55-1.27-3.1-1.81-4.68a42.6 42.6 0 0 1-.83-2.41h-9.83v4.88c1.31-.53 2.72-1.19 4.24-1.91l2.39 3.59c-2.61 1.32-4.82 2.38-6.64 3.1v7.35h-4.53v-5.74c-1.56.46-3.26.92-5.11 1.35l-1.56-4.12c2.65-.59 4.86-1.19 6.67-1.81v-6.69h-6.24v-3.73h6.24v-3.83c-1.6.13-3.41.2-5.4.2l-.11-3.59c2.97-.03 5.33-.2 7.07-.46 1.96-.23 4.17-.69 6.64-1.35l1.02 3.76Zm14.91-1.42c.73.63 1.09 1.45 1.09 2.44s-.44 1.81-1.27 2.47c-.8.59-1.6.86-2.39.86-1.05 0-1.96-.36-2.68-1.15-.58-.69-.87-1.42-.87-2.18 0-.86.25-1.62.8-2.28.73-.63 1.63-.96 2.76-.96.91 0 1.78.26 2.58.79l-.02.01Zm38.98-2.34v3.76h-9.65v1.06c2.47.07 4.35.26 5.62.56 2.03.59 3.08 1.88 3.16 3.79 0 1.05-.07 2.21-.18 3.46h.62v3.73h-27.35v.26h-4.53V18.18h4.53v.79c1.67-.16 3.23-.33 4.68-.46v-1.62h-9.5v-3.76h32.61-.01Zm-28.8 18.96c.11-.66.25-1.42.44-2.21l4.53.4c-.15.66-.29 1.29-.4 1.81h14.44v-2.21h4.53v2.21h5.26v3.73h-5.26v1.95c1.38-.23 2.79-.5 4.24-.79l-.54 3.46c-1.31.26-2.54.49-3.7.69v2.01h-4.53v-1.32c-3.92.53-7.36.82-10.34.82-3.34 0-5.73-.46-7.22-1.38-1.45-.92-2.21-2.14-2.29-3.76 0-.4.04-.96.15-1.68h-3.12v-3.73h3.81Zm5.69-6.33v-3.99c-1.52.17-3.08.33-4.68.5v3.5h4.68v-.01Zm13.31 10.06h-15.16c-.11.66-.15 1.12-.15 1.42 0 1.38 1.85 2.04 5.55 2.04 2.79 0 6.06-.26 9.76-.79v-2.67Zm-4.24-18.93h-4.68v1.25c1.89-.13 3.45-.23 4.68-.23v-1.02Zm-4.68 8.87h4.68v-4.62c-1.45.07-3.01.13-4.68.26v4.36Zm9.07 0h3.92c.22-1.65.33-2.7.33-3.23-.04-.59-.51-.99-1.41-1.12-.83-.1-1.78-.17-2.83-.23v4.58h-.01Zm28.25-10.95v-1.95h4.53v1.95h13.75v3.99h-3.26c1.2 2.44 2.65 5.08 4.39 7.85l-4.1 1.95c-.07-.07-.15-.17-.15-.26v.26c0 1.62-.04 3.43-.07 5.41h.51V38h-21.54v.13h-4.68v-9.86l-4.1-1.85c1.71-2.54 3.23-5.08 4.57-7.62h-3.59v-3.99h13.75-.01Zm18.72 24.2v4.02h-32.75v-4.02h32.75Zm-10.34-15.07h.98c1.52 0 2.68.23 3.55.63-1.09-1.85-2.1-3.79-3.05-5.77h-5.33v4.65h-4.53V18.8h-5.19c-.91 1.85-1.81 3.63-2.76 5.28h1.99v.73c6.49-.56 11.28-.86 14.33-.86l.01-.01Zm2.25 4.65c0-.86-.54-1.29-1.56-1.29-3.77 0-8.78.3-15.02.86v.43h16.58Zm-.07 5.41c0-.49.04-.96.04-1.42h-16.54V34h16.5Zm21.93-21.13v2.08h4.39v3.73h-13.89v-3.73h4.97v-2.08h4.53Zm-4.97 17.54v.26c1.38-.26 2.47-.4 3.23-.4h.33c2 0 3.41.43 4.28 1.22.8.79 1.23 1.88 1.23 3.3 0 1.25-.07 2.67-.14 4.22h.43v3.76h-9.36v.26h-4.39V30.4h4.39v.01Zm8.67-10.32v3.63h-12.48v-3.63h12.48Zm0 5.28V29h-12.48v-3.63h12.48Zm-4.17 13.65c.11-1.65.18-3.1.18-4.35 0-.79-.47-1.19-1.41-1.19-.87 0-1.96.17-3.26.46v5.08h4.5-.01Zm13.64-24.47c-.29.56-.62 1.09-.91 1.62 2.03-.36 3.84-.56 5.4-.56h.62c2.68 0 4.13 1.06 4.35 3.17.22 2.64.4 6.1.47 10.42 0 6-.07 9.73-.18 11.14-.25 1.62-1.52 2.44-3.81 2.44h-2.25l-.8-2.44h-6.42v.5h-4.13V23.59h4.13v.33c1.74-.3 3.08-.46 3.95-.46h.8c1.31 0 2.18.36 2.61 1.06.44.63.69 1.85.69 3.63 0 2.57-.07 5.41-.18 8.57h.47v2.67c.29-.07.44-.3.47-.69.14-2.87.25-6.03.25-9.5 0-3.99-.15-7.09-.44-9.27-.22-.66-.62-.99-1.27-.99-1.81 0-4.13.33-7 .96-.65.99-1.27 1.98-1.92 2.9l-3.99-2.18c1.96-2.77 3.66-5.44 5.11-7.98l3.95 1.91h.03Zm.44 15.07v-1.48c-.11-.96-.54-1.45-1.27-1.48-.4 0-1.31.1-2.68.3v2.67h3.95v-.01Zm-.22 7.09c.07-1.22.11-2.37.15-3.46h-3.88v3.46h3.74-.01Z" fill="#fff"/><path d="M308.592 39.706c6.685-5.896 7.325-16.095 1.429-22.78-5.896-6.686-16.095-7.326-22.78-1.43-6.686 5.896-7.326 16.095-1.43 22.78 5.896 6.686 16.096 7.326 22.781 1.43Z" fill="#FFE365"/><path d="M298.59 14.82c-7.04-.38-13.06 5.02-13.44 12.07-.38 7.04 5.02 13.06 12.07 13.44 7.04.38 13.06-5.02 13.44-12.07.38-7.04-5.02-13.06-12.07-13.44Zm-1.27 23.44c-5.9-.32-10.43-5.36-10.11-11.26.32-5.9 5.36-10.43 11.26-10.11 5.9.32 10.43 5.36 10.11 11.26-.32 5.9-5.36 10.43-11.26 10.11Z" fill="#FFB241"/><path d="M302.105 37.412c5.435-2.32 7.96-8.607 5.639-14.042-2.32-5.434-8.607-7.96-14.042-5.639-5.435 2.32-7.959 8.607-5.639 14.042 2.32 5.435 8.607 7.96 14.042 5.64Z" fill="#FFE365"/><path d="m298.62 33.57-.14 2.57-2.24-.12.14-2.59c-1.57-.3-3.06-1.04-4.14-2.03l1.32-2.34c1.15 1.11 2.95 1.95 4.17 2.01.91.05 1.5-.26 1.53-.88.11-2-6.16-1.13-5.93-5.29.1-1.87 1.52-3.09 3.69-3.32l.13-2.47 2.24.12-.13 2.45c1.37.23 2.66.77 3.61 1.46l-1.29 2.37c-1.21-.77-2.76-1.41-3.73-1.47-.74-.04-1.24.2-1.27.74-.11 1.95 6.16 1.18 5.93 5.41-.11 2.07-1.76 3.19-3.89 3.36v.02Z" fill="#fff"/><path d="M38.23 39.687c6.686-5.896 7.326-16.095 1.43-22.78-5.896-6.686-16.095-7.326-22.78-1.43-6.686 5.896-7.326 16.095-1.43 22.78 5.896 6.686 16.095 7.326 22.78 1.43Z" fill="#FFE365"/><path d="M28.24 14.82c-7.04-.38-13.06 5.02-13.44 12.07-.38 7.04 5.02 13.06 12.07 13.44 7.04.38 13.06-5.02 13.44-12.07.38-7.04-5.02-13.06-12.07-13.44Zm-1.27 23.44c-5.9-.32-10.43-5.36-10.11-11.26.32-5.9 5.36-10.43 11.26-10.11 5.9.32 10.43 5.36 10.11 11.26-.32 5.9-5.36 10.43-11.26 10.11Z" fill="#FFB241"/><path d="M31.748 37.418c5.435-2.32 7.96-8.607 5.64-14.042-2.321-5.435-8.608-7.96-14.043-5.64-5.435 2.32-7.96 8.608-5.639 14.043 2.32 5.434 8.607 7.96 14.042 5.639Z" fill="#FFE365"/><path d="m28.26 33.57-.14 2.57-2.24-.12.14-2.59c-1.57-.3-3.06-1.04-4.14-2.03l1.32-2.34c1.15 1.11 2.95 1.95 4.17 2.01.91.05 1.5-.26 1.53-.88.11-2-6.16-1.13-5.93-5.29.1-1.87 1.52-3.09 3.69-3.32l.13-2.47 2.24.12-.13 2.45c1.37.23 2.66.77 3.61 1.46l-1.29 2.37c-1.21-.77-2.76-1.41-3.73-1.47-.74-.04-1.24.2-1.27.74-.11 1.95 6.16 1.18 5.93 5.41-.11 2.07-1.76 3.19-3.89 3.36v.02Z" fill="#fff"/></g><defs><clipPath id="a"><path fill="#fff" d="M0 0h324.5v55.15H0z"/></clipPath></defs></svg>